<?xml version="1.0" encoding="UTF-8" standalone="no"?>
<svg
   xmlns:dc="http://purl.org/dc/elements/1.1/"
   xmlns:cc="http://creativecommons.org/ns#"
   xmlns:rdf="http://www.w3.org/1999/02/22-rdf-syntax-ns#"
   xmlns:svg="http://www.w3.org/2000/svg"
   xmlns="http://www.w3.org/2000/svg"
   id="svg193"
   viewBox="0 0 211.15 243.57"
   style="shape-rendering:geometricPrecision; text-rendering:geometricPrecision; image-rendering:optimizeQuality; fill-rule:evenodd; clip-rule:evenodd"
   version="1.1"
   height="7.62mm"
   width="6.6059mm"
   xml:space="preserve"><metadata
     id="metadata197"><rdf:RDF><cc:Work
         rdf:about=""><dc:format>image/svg+xml</dc:format><dc:type
           rdf:resource="http://purl.org/dc/dcmitype/StillImage" /></cc:Work></rdf:RDF></metadata><defs
     id="defs4"><style
       id="style2"
       type="text/css"><![CDATA[
    .fil8 {fill:#0F243B;fill-rule:nonzero}
    .fil3 {fill:#12BDEB;fill-rule:nonzero}
    .fil11 {fill:#162F42;fill-rule:nonzero}
    .fil2 {fill:#1A364F;fill-rule:nonzero}
    .fil13 {fill:gray;fill-rule:nonzero}
    .fil5 {fill:#97CFDD;fill-rule:nonzero}
    .fil0 {fill:#B5DDF2;fill-rule:nonzero}
    .fil7 {fill:#D4E8F2;fill-rule:nonzero}
    .fil6 {fill:#DDEBF2;fill-rule:nonzero}
    .fil1 {fill:#DFEBF2;fill-rule:nonzero}
    .fil14 {fill:#E6E6E6;fill-rule:nonzero}
    .fil12 {fill:#FB6767;fill-rule:nonzero}
    .fil10 {fill:#FBC367;fill-rule:nonzero}
    .fil4 {fill:#FBFFFB;fill-rule:nonzero}
    .fil9 {fill:#FBFFFB;fill-rule:nonzero;fill-opacity:0.050980}
   ]]></style></defs><g
     id="Camada_x0020_1"><metadata
       id="CorelCorpID_0Corel-Layer" /><g
       id="_1873212608"><g
         id="g49"><g
           id="g11"><g
             id="g9"><path
               id="path7"
               d="M63.67 237.32c-6.41,-0.54 -9.75,-5.6 -7.46,-11.29l58 -144c2.29,-5.69 9.34,-9.86 15.75,-9.32l73.01 6.19c6.41,0.54 9.75,5.59 7.46,11.29l-58 144c-2.29,5.69 -9.34,9.86 -15.75,9.32l-73.02 -6.19z"
               class="fil0" /></g></g><g
           id="g15"><polygon
             id="polygon13"
             points="210.16,82.95 205.15,73.2 51.39,223.41 56.37,233.09 "
             class="fil0" /></g><g
           id="g23"><g
             id="g21"><path
               id="path17"
               d="M204.31 82.3c0.05,0.04 0.11,0.07 0.16,0.11l0.85 -2.12c2.29,-5.69 -1.05,-10.74 -7.46,-11.28l-73.01 -6.2c-6.41,-0.54 -13.46,3.63 -15.75,9.32l-0.58 1.45 95.96 8.83c0.74,0.07 -0.83,-0.55 -0.16,-0.11z"
               class="fil1" /><path
               id="path19"
               d="M147.34 224.3l0.62 -1.55c-0.79,-0 -1.58,-0.04 -2.37,-0.1l-93.89 -7.97 28.42 -70.55 -29 72c-2.29,5.69 1.06,10.75 7.47,11.29l73.01 6.19c6.41,0.55 13.46,-3.62 15.75,-9.31z"
               class="fil1" /></g></g><g
           id="g29"><g
             id="g27"><path
               id="path25"
               d="M194.05 77.54c-1.5,-0.13 -2.29,-1.31 -1.75,-2.65 0.54,-1.33 2.19,-2.31 3.7,-2.19 1.51,0.13 2.29,1.32 1.75,2.65 -0.54,1.34 -2.19,2.32 -3.7,2.19z"
               class="fil2" /></g></g><g
           id="g35"><g
             id="g33"><path
               id="path31"
               d="M182.45 76.07c-1.5,-0.13 -2.29,-1.32 -1.75,-2.65 0.53,-1.33 2.19,-2.31 3.69,-2.19 1.51,0.13 2.29,1.31 1.76,2.65 -0.54,1.34 -2.2,2.32 -3.7,2.19z"
               class="fil2" /></g></g><g
           id="g43"><g
             id="g41"><g
               id="g39"><path
                 id="path37"
                 d="M93.21 228.73c-2.73,-0.23 -4.15,-2.38 -3.18,-4.8 0.97,-2.42 3.98,-4.2 6.7,-3.96 2.73,0.23 4.15,2.38 3.18,4.8 -0.97,2.42 -3.98,4.2 -6.7,3.97z"
                 class="fil2" /></g></g></g><g
           id="g47"><polygon
             id="polygon45"
             points="108.52,73.59 51.69,214.68 147.96,222.75 204.48,82.42 "
             class="fil3" /></g></g><g
         id="g123"><g
           id="g53"><path
             id="path51"
             d="M70.85 49.56l-49.75 123.53c-3.51,8.72 2.42,18.35 11.79,19.14l77.4 6.49 19.04 1.44 -11.91 -19.15 49.39 -122.62 -95.96 -8.83z"
             class="fil4" /></g><g
           id="g57"><path
             id="path55"
             d="M157.22 82.19l-39.8 98.82c-3.53,8.77 2.48,18.44 11.91,19.15 6.07,0.46 11.73,-3.06 14.01,-8.7l42.98 -106.59 -29.1 -2.68z"
             class="fil5" /></g><g
           id="g61"><polygon
             id="polygon59"
             points="69.96,65 54.47,103.45 140.35,111.35 155.83,72.89 "
             class="fil6" /></g><g
           id="g65"><polygon
             id="polygon63"
             points="28.68,169.23 27.8,171.65 113.68,179.55 114.56,177.13 "
             class="fil7" /></g><g
           id="g69"><polygon
             id="polygon67"
             points="73.3,56.49 72.42,58.91 158.3,66.81 159.18,64.39 "
             class="fil7" /></g><g
           id="g73"><polygon
             id="polygon71"
             points="52.06,110.31 30.67,163.41 55.61,165.71 77,112.6 "
             class="fil3" /></g><g
           id="g77"><polygon
             id="polygon75"
             points="83.62,113.34 79.5,123.61 111.72,126.57 115.84,116.31 "
             class="fil3" /></g><g
           id="g81"><polygon
             id="polygon79"
             points="79.5,123.61 77.58,128.32 122.55,132.45 124.47,127.74 "
             class="fil3" /></g><g
           id="g85"><polygon
             id="polygon83"
             points="75.24,133.25 73.32,137.96 100.74,140.5 102.66,135.79 "
             class="fil6" /></g><g
           id="g89"><polygon
             id="polygon87"
             points="72.56,140.85 70.64,145.56 90.51,147.38 92.43,142.67 "
             class="fil6" /></g><g
           id="g93"><polygon
             id="polygon91"
             points="69.51,148.45 67.59,153.16 112.56,157.3 114.48,152.58 "
             class="fil3" /></g><g
           id="g97"><polygon
             id="polygon95"
             points="67.04,155.77 65.12,160.48 110.09,164.62 112.01,159.91 "
             class="fil3" /></g><g
           id="g101"><polygon
             id="polygon99"
             points="64.56,163.09 63.09,166.31 108.07,170.44 109.53,167.23 "
             class="fil3" /></g><g
           id="g107"><g
             id="g105"><polygon
               id="polygon103"
               points="140.25,111.49 69.86,65.14 70.05,64.85 140.44,111.2 "
               class="fil2" /></g></g><g
           id="g113"><g
             id="g111"><polygon
               id="polygon109"
               points="54.42,103.28 155.78,72.72 155.89,73.06 54.52,103.62 "
               class="fil2" /></g></g><g
           id="g117"><polygon
             id="polygon115"
             points="55.44,165.72 51.88,110.32 52.23,110.3 55.79,165.69 "
             class="fil2" /></g><g
           id="g121"><polygon
             id="polygon119"
             points="30.54,163.3 76.86,112.48 77.13,112.72 30.8,163.53 "
             class="fil2" /></g></g><g
         id="g159"><path
           id="path125"
           d="M98.02 90.16c0,4.6 3.54,8.58 8.3,8.93 4.66,0.35 8.81,-2.94 9.54,-7.55l7.04 -44.62 -17.4 -1.31 -0.12 0.74 -7.23 42.28c-0.07,0.44 -0.12,0.87 -0.12,1.3 -0,0.08 -0,0.15 -0,0.23z"
           class="fil8" /><g
           id="g129"><path
             id="path127"
             d="M98.02 89.93c0.98,0.6 2.12,0.99 3.36,1.08 3.92,0.3 7.41,-2.47 8.03,-6.35l5.93 -37.55 -9.96 -0.75 -7.23 42.28c-0.07,0.44 -0.12,0.87 -0.12,1.3z"
             class="fil9" /></g><g
           id="g133"><path
             id="path131"
             d="M50.68 34.26l-0.01 0 0 -34.26c0,0 23.07,12.43 79.69,14.76 10.44,0.43 18.66,9.05 18.66,19.49l0 0 -0.01 0c0,10.45 -8.22,19.07 -18.66,19.49 -56.63,2.33 -79.69,14.76 -79.69,14.76l0 -34.26 0.01 0z"
             class="fil3" /></g><g
           id="g137"><path
             id="path135"
             d="M23.6 34.26c0,18.92 12.12,34.26 27.08,34.26 14.95,0 27.07,-15.34 27.07,-34.26 0,-18.92 -12.12,-34.26 -27.07,-34.26 -14.95,0 -27.08,15.34 -27.08,34.26z"
             class="fil10" /></g><g
           id="g141"><path
             id="path139"
             d="M29.13 34.26c0,15.06 9.65,27.26 21.54,27.26 4.4,0 8.5,-1.67 11.91,-4.54 5.81,-4.88 9.64,-13.23 9.64,-22.72 0,-9.49 -3.83,-17.84 -9.64,-22.73 -3.41,-2.87 -7.5,-4.54 -11.91,-4.54 -11.9,0 -21.54,12.21 -21.54,27.26z"
             class="fil2" /></g><g
           id="g145"><path
             id="path143"
             d="M41.32 34.26c0,12.73 8.15,23.05 18.21,23.05 1.04,0 2.05,-0.11 3.04,-0.33 4.09,-3.43 7.2,-8.6 8.68,-14.66 0.63,-2.54 0.96,-5.25 0.96,-8.06 0,-2.8 -0.34,-5.51 -0.96,-8.06 -1.48,-6.07 -4.59,-11.23 -8.68,-14.67 -0.99,-0.21 -2,-0.32 -3.04,-0.32 -10.06,0 -18.21,10.32 -18.21,23.05z"
             class="fil11" /></g><g
           id="g149"><path
             id="path147"
             d="M130.37 14.76l0 38.99c10.31,0 18.66,-8.36 18.66,-18.66l0 -1.66c0,-10.31 -8.36,-18.66 -18.66,-18.66z"
             class="fil10" /></g><g
           id="g153"><path
             id="path151"
             d="M53.26 34.26c0,1.93 0.74,3.69 1.97,5 1.23,1.31 2.94,2.18 4.86,2.31l11.17 0.75c0.63,-2.54 0.96,-5.25 0.96,-8.06 0,-2.8 -0.34,-5.51 -0.96,-8.06l-11.17 0.75c-3.85,0.26 -6.83,3.45 -6.83,7.31z"
             class="fil6" /></g><g
           id="g157"><path
             id="path155"
             d="M57.13 38.59c1.63,0 2.95,-1.94 2.95,-4.33 0,-2.39 -1.32,-4.33 -2.95,-4.33 -1.63,0 -2.95,1.94 -2.95,4.33 0,2.39 1.32,4.33 2.95,4.33z"
             class="fil3" /></g></g><g
         id="g169"><g
           id="g163"><path
             id="path161"
             d="M47.2 125.81c0,13.03 -10.56,23.6 -23.6,23.6 -13.03,0 -23.6,-10.56 -23.6,-23.6 0,-13.03 10.56,-23.6 23.6,-23.6 13.03,0 23.6,10.56 23.6,23.6z"
             class="fil12" /></g><g
           id="g167"><path
             id="path165"
             d="M31.13 123.44c1.83,1.05 1.83,3.69 0,4.74l-6.16 3.55 -6.16 3.56c-1.83,1.05 -4.11,-0.26 -4.11,-2.37l0 -7.11 0 -7.12c0,-2.11 2.28,-3.43 4.11,-2.37l6.16 3.56 6.16 3.56z"
             class="fil4" /></g></g><path
         id="path171"
         d="M48.42 85.97c3.96,-3.92 3.98,-10.31 0.06,-14.26 -2.53,-2.56 -6.1,-3.47 -9.37,-2.74l-1.6 -2.75 -1.45 3.99c-0.65,0.4 -1.27,0.88 -1.84,1.44 -3.95,3.92 -3.98,10.31 -0.06,14.26 3.92,3.95 10.31,3.98 14.26,0.06z"
         class="fil13" /><g
         id="g189"><g
           id="g175"><path
             id="path173"
             d="M2.62 68.64c0.03,-7.65 6.13,-13.83 13.62,-13.8 4.84,0.02 9.07,2.63 11.46,6.54l7.33 -3.52 -5.64 7.71c0.23,1.03 0.35,2.09 0.35,3.19 -0.03,7.65 -6.13,13.83 -13.62,13.8 -7.49,-0.03 -13.53,-6.26 -13.5,-13.92z"
             class="fil14" /></g><g
           id="g179"><path
             id="path177"
             d="M9.55 68.4c0,1.18 -0.96,2.14 -2.14,2.14 -1.18,0 -2.14,-0.96 -2.14,-2.14 0,-1.18 0.96,-2.14 2.14,-2.14 1.18,0 2.14,0.96 2.14,2.14z"
             class="fil3" /></g><g
           id="g183"><path
             id="path181"
             d="M17.98 68.4c0,1.18 -0.96,2.14 -2.14,2.14 -1.18,0 -2.14,-0.96 -2.14,-2.14 0,-1.18 0.96,-2.14 2.14,-2.14 1.18,0 2.14,0.96 2.14,2.14z"
             class="fil3" /></g><g
           id="g187"><path
             id="path185"
             d="M26.41 68.4c0,1.18 -0.96,2.14 -2.14,2.14 -1.18,0 -2.14,-0.96 -2.14,-2.14 0,-1.18 0.96,-2.14 2.14,-2.14 1.18,0 2.14,0.96 2.14,2.14z"
             class="fil3" /></g></g></g></g></svg>