<?xml version="1.0" encoding="UTF-8" standalone="no"?>
<svg
   xmlns:dc="http://purl.org/dc/elements/1.1/"
   xmlns:cc="http://creativecommons.org/ns#"
   xmlns:rdf="http://www.w3.org/1999/02/22-rdf-syntax-ns#"
   xmlns:svg="http://www.w3.org/2000/svg"
   xmlns="http://www.w3.org/2000/svg"
   id="svg101"
   viewBox="0 0 134.24 166.31"
   style="shape-rendering:geometricPrecision; text-rendering:geometricPrecision; image-rendering:optimizeQuality; fill-rule:evenodd; clip-rule:evenodd"
   version="1.1"
   height="7.8242mm"
   width="6.3156mm"
   xml:space="preserve"><metadata
     id="metadata105"><rdf:RDF><cc:Work
         rdf:about=""><dc:format>image/svg+xml</dc:format><dc:type
           rdf:resource="http://purl.org/dc/dcmitype/StillImage" /></cc:Work></rdf:RDF></metadata><defs
     id="defs4"><style
       id="style2"
       type="text/css"><![CDATA[
    .fil0 {fill:#12BDEB;fill-rule:nonzero}
    .fil3 {fill:#4D4D4D;fill-rule:nonzero}
    .fil2 {fill:gray;fill-rule:nonzero}
    .fil1 {fill:white;fill-rule:nonzero}
   ]]></style></defs><g
     id="Camada_x0020_1"><metadata
       id="CorelCorpID_0Corel-Layer" /><g
       id="_1878363168"><g
         id="g13"><path
           id="path7"
           d="M56.47 60.73c0.28,-2.71 4.57,-2.74 4.28,0 -0.25,2.43 0.29,6.31 1.73,8.78 0.95,-0.45 2.02,-0.75 3.22,-0.83l0.75 0.01 0.08 0 -0.31 1.39c-0.03,0.14 0.01,0.28 0.11,0.37l0.67 0.65c0.02,0.01 0.03,0.03 0.05,0.04 -0,0.01 -0.01,0.02 -0.01,0.03l-1.18 8.76c-0.01,0.1 0.01,0.2 0.06,0.28l1.18 1.83c0.1,0.15 0.27,0.15 0.37,0.01l1.25 -1.84c0.05,-0.08 0.07,-0.18 0.06,-0.29l-1.25 -8.75c-0,-0.01 -0.01,-0.03 -0.01,-0.04 0.01,-0.01 0.03,-0.02 0.04,-0.03l0.67 -0.65c0.1,-0.09 0.14,-0.23 0.11,-0.36l-0.28 -1.37 0.92 0.01c0.92,0.11 1.77,0.34 2.54,0.68 1.93,-2.43 2.2,-6.4 1.97,-8.67 -0.29,-2.75 4,-2.72 4.28,0 0.54,5.14 -0.92,11.59 -5.36,14.23 0.01,6.96 0.06,25.89 0.3,31.65 0.13,3.16 -4.77,3.14 -4.9,0 -0.23,-5.57 -0.29,-11.14 -0.3,-16.71 -0.23,0.01 -0.46,0.01 -0.7,0 -0.01,5.57 -0.07,11.14 -0.3,16.71 -0.13,3.14 -5.03,3.16 -4.9,0 0.24,-5.9 0.43,-23.83 0.47,-31.5 -4.65,-2.53 -6.16,-9.13 -5.62,-14.37z"
           class="fil0" /><path
           id="path9"
           d="M67.21 66.64c-2.37,0 -4.29,-1.92 -4.29,-4.28 0,-2.37 1.92,-4.29 4.29,-4.29 2.36,0 4.28,1.92 4.28,4.29 0,2.37 -1.92,4.28 -4.28,4.28z"
           class="fil0" /><path
           id="path11"
           d="M68.24 70.45l-0.67 0.65c-0.01,0.01 -0.03,0.02 -0.04,0.03 0,0.01 0.01,0.02 0.01,0.04l1.25 8.75c0.01,0.1 -0.01,0.21 -0.06,0.29l-1.25 1.84c-0.1,0.15 -0.27,0.14 -0.37,-0.01l-1.18 -1.83c-0.05,-0.08 -0.07,-0.18 -0.06,-0.28l1.18 -8.76c0,-0.01 0.01,-0.02 0.01,-0.03 -0.02,-0.01 -0.03,-0.03 -0.05,-0.04l-0.67 -0.65c-0.1,-0.1 -0.14,-0.24 -0.11,-0.37l0.31 -1.39 0 0 0.01 -0.03c0.04,-0.16 0.17,-0.29 0.34,-0.31l0.72 -0.09c0.21,-0.03 0.4,0.11 0.44,0.31l0.03 0.13 0 0 0.28 1.37c0.03,0.13 -0.01,0.27 -0.11,0.36z"
           class="fil1" /></g><g
         id="g43"><path
           id="path15"
           d="M123.58 8.57c-2.37,0 -4.29,-1.92 -4.29,-4.28 0,-2.37 1.92,-4.29 4.29,-4.29 2.36,0 4.28,1.92 4.28,4.29 0,2.37 -1.92,4.28 -4.28,4.28zm-1.49 2.04l0.75 0.01 -0.31 1.39c-0.03,0.14 0.01,0.28 0.11,0.37l0.68 0.65c0.01,0.01 0.03,0.03 0.05,0.04 -0,0.01 -0.01,0.02 -0.01,0.03l-1.18 8.76c-0.01,0.1 0.01,0.2 0.06,0.28l1.18 1.83c0.1,0.15 0.27,0.15 0.36,0.01l1.25 -1.84c0.05,-0.08 0.07,-0.18 0.06,-0.29l-1.25 -8.75c-0,-0.01 -0.01,-0.03 -0.01,-0.04 0.01,-0.01 0.03,-0.02 0.04,-0.03l0.67 -0.65c0.1,-0.09 0.14,-0.23 0.11,-0.36l-0.28 -1.37 1 0.01c7.12,0.84 9.44,9.08 8.78,15.36 -0.28,2.72 -4.57,2.75 -4.28,0 0.24,-2.29 0.14,-5.75 -1.08,-8.21 0,0 0.01,23.62 0.31,30.73 0.13,3.16 -4.77,3.14 -4.9,0 -0.23,-5.57 -0.29,-11.14 -0.3,-16.71 -0.23,0.01 -0.46,0.01 -0.7,0 -0.01,5.57 -0.07,11.14 -0.3,16.71 -0.13,3.14 -5.02,3.16 -4.9,0 0.29,-7.11 0.5,-28.11 0.47,-31.2 -1.46,2.47 -1.59,6.23 -1.34,8.68 0.29,2.74 -4,2.71 -4.28,0 -0.67,-6.42 1.75,-14.88 9.24,-15.41z"
           class="fil2" /><path
           id="path17"
           d="M124.53 12.38l-0.67 0.65c-0.01,0.01 -0.02,0.02 -0.04,0.03 0,0.01 0.01,0.02 0.01,0.04l1.25 8.75c0.01,0.1 -0.01,0.21 -0.06,0.29l-1.25 1.84c-0.1,0.14 -0.27,0.14 -0.36,-0.01l-1.18 -1.83c-0.05,-0.08 -0.07,-0.18 -0.06,-0.28l1.18 -8.76c0,-0.01 0.01,-0.02 0.01,-0.03 -0.02,-0.01 -0.03,-0.02 -0.05,-0.04l-0.68 -0.65c-0.1,-0.1 -0.14,-0.24 -0.11,-0.37l0.31 -1.39 0.01 -0.03c0.04,-0.16 0.17,-0.28 0.34,-0.31l0.72 -0.09c0.2,-0.03 0.4,0.11 0.44,0.31l0.03 0.13 0.28 1.37c0.03,0.13 -0.01,0.27 -0.11,0.36z"
           class="fil3" /><g
           id="g23"><path
             id="path19"
             d="M95.39 8.57c-2.37,0 -4.28,-1.92 -4.28,-4.28 0,-2.37 1.92,-4.29 4.28,-4.29 2.36,0 4.29,1.92 4.29,4.29 0,2.37 -1.92,4.28 -4.29,4.28zm-1.49 2.04l0.75 0.01 -0.31 1.39c-0.03,0.14 0.01,0.28 0.11,0.37l0.67 0.65c0.02,0.01 0.03,0.03 0.05,0.04 -0,0.01 -0.01,0.02 -0.01,0.03l-1.18 8.76c-0.01,0.1 0.01,0.2 0.06,0.28l1.18 1.83c0.1,0.15 0.27,0.15 0.37,0.01l1.25 -1.84c0.05,-0.08 0.07,-0.18 0.06,-0.29l-1.25 -8.75c-0,-0.01 -0.01,-0.03 -0.01,-0.04 0.01,-0.01 0.03,-0.02 0.04,-0.03l0.67 -0.65c0.1,-0.09 0.14,-0.23 0.11,-0.36l-0.28 -1.37 1 0.01c7.12,0.84 9.44,9.08 8.78,15.36 -0.28,2.72 -4.57,2.75 -4.28,0 0.24,-2.29 0.13,-5.75 -1.08,-8.21 0,0 0.01,23.62 0.31,30.73 0.13,3.16 -4.77,3.14 -4.9,0 -0.23,-5.57 -0.29,-11.14 -0.3,-16.71 -0.23,0.01 -0.46,0.01 -0.7,0 -0.01,5.57 -0.07,11.14 -0.3,16.71 -0.13,3.14 -5.03,3.16 -4.9,0 0.29,-7.11 0.5,-28.11 0.47,-31.2 -1.46,2.47 -1.59,6.23 -1.34,8.68 0.29,2.74 -4,2.71 -4.28,0 -0.67,-6.42 1.76,-14.88 9.24,-15.41z"
             class="fil2" /><path
             id="path21"
             d="M96.21 12.38l-0.67 0.65c-0.01,0.01 -0.02,0.02 -0.04,0.03 0,0.01 0.01,0.02 0.01,0.04l1.25 8.75c0.01,0.1 -0.01,0.21 -0.06,0.29l-1.25 1.84c-0.1,0.14 -0.27,0.14 -0.36,-0.01l-1.18 -1.83c-0.05,-0.08 -0.07,-0.18 -0.06,-0.28l1.18 -8.76c0,-0.01 0.01,-0.02 0.01,-0.03 -0.02,-0.01 -0.03,-0.02 -0.05,-0.04l-0.68 -0.65c-0.1,-0.1 -0.14,-0.24 -0.11,-0.37l0.31 -1.39 0.01 -0.03c0.04,-0.16 0.17,-0.28 0.34,-0.31l0.72 -0.09c0.2,-0.03 0.4,0.11 0.44,0.31l0.03 0.13 0.28 1.37c0.03,0.13 -0.01,0.27 -0.11,0.36z"
             class="fil3" /></g><g
           id="g29"><path
             id="path25"
             d="M67.21 8.57c-2.37,0 -4.29,-1.92 -4.29,-4.28 0,-2.37 1.92,-4.29 4.29,-4.29 2.36,0 4.28,1.92 4.28,4.29 0,2.37 -1.92,4.28 -4.28,4.28zm-1.49 2.04l0.75 0.01 -0.31 1.39c-0.03,0.14 0.01,0.28 0.11,0.37l0.67 0.65c0.01,0.01 0.03,0.03 0.05,0.04 -0,0.01 -0.01,0.02 -0.01,0.03l-1.18 8.76c-0.01,0.1 0.01,0.2 0.06,0.28l1.18 1.83c0.1,0.15 0.27,0.15 0.37,0.01l1.25 -1.84c0.05,-0.08 0.08,-0.18 0.06,-0.29l-1.25 -8.75c-0,-0.01 -0.01,-0.03 -0.01,-0.04 0.01,-0.01 0.03,-0.02 0.04,-0.03l0.67 -0.65c0.1,-0.09 0.14,-0.23 0.11,-0.36l-0.28 -1.37 1 0.01c7.12,0.84 9.44,9.08 8.78,15.36 -0.28,2.72 -4.57,2.75 -4.28,0 0.24,-2.29 0.13,-5.75 -1.08,-8.21 0,0 0.01,23.62 0.31,30.73 0.13,3.16 -4.77,3.14 -4.9,0 -0.23,-5.57 -0.29,-11.14 -0.3,-16.71 -0.23,0.01 -0.46,0.01 -0.7,0 -0.01,5.57 -0.07,11.14 -0.3,16.71 -0.13,3.14 -5.03,3.16 -4.9,0 0.29,-7.11 0.5,-28.11 0.47,-31.2 -1.46,2.47 -1.59,6.23 -1.34,8.68 0.29,2.74 -4,2.71 -4.28,0 -0.67,-6.42 1.76,-14.88 9.24,-15.41z"
             class="fil2" /><path
             id="path27"
             d="M68.03 12.38l-0.67 0.65c-0.01,0.01 -0.03,0.02 -0.04,0.03 0,0.01 0.01,0.02 0.01,0.04l1.25 8.75c0.01,0.1 -0.01,0.21 -0.06,0.29l-1.25 1.84c-0.1,0.14 -0.27,0.14 -0.37,-0.01l-1.18 -1.83c-0.05,-0.08 -0.07,-0.18 -0.06,-0.28l1.18 -8.76c0,-0.01 0.01,-0.02 0.01,-0.03 -0.02,-0.01 -0.03,-0.02 -0.05,-0.04l-0.67 -0.65c-0.1,-0.1 -0.14,-0.24 -0.11,-0.37l0.31 -1.39 0.01 -0.03c0.04,-0.16 0.17,-0.28 0.34,-0.31l0.72 -0.09c0.21,-0.03 0.4,0.11 0.44,0.31l0.03 0.13 0.28 1.37c0.03,0.13 -0.01,0.27 -0.11,0.36z"
             class="fil3" /></g><g
           id="g35"><path
             id="path31"
             d="M39.02 8.57c-2.37,0 -4.29,-1.92 -4.29,-4.28 0,-2.37 1.92,-4.29 4.29,-4.29 2.36,0 4.28,1.92 4.28,4.29 0,2.37 -1.92,4.28 -4.28,4.28zm-1.49 2.04l0.75 0.01 -0.31 1.39c-0.03,0.14 0.01,0.28 0.11,0.37l0.68 0.65c0.01,0.01 0.03,0.03 0.05,0.04 -0,0.01 -0.01,0.02 -0.01,0.03l-1.18 8.76c-0.01,0.1 0.01,0.2 0.06,0.28l1.18 1.83c0.1,0.15 0.27,0.15 0.37,0.01l1.25 -1.84c0.05,-0.08 0.08,-0.18 0.06,-0.29l-1.25 -8.75c-0,-0.01 -0.01,-0.03 -0.01,-0.04 0.01,-0.01 0.03,-0.02 0.04,-0.03l0.67 -0.65c0.1,-0.09 0.14,-0.23 0.11,-0.36l-0.28 -1.37 1 0.01c7.12,0.84 9.44,9.08 8.78,15.36 -0.28,2.72 -4.57,2.75 -4.28,0 0.24,-2.29 0.13,-5.75 -1.08,-8.21 0,0 0.01,23.62 0.31,30.73 0.13,3.16 -4.77,3.14 -4.9,0 -0.23,-5.57 -0.29,-11.14 -0.3,-16.71 -0.23,0.01 -0.46,0.01 -0.7,0 -0.01,5.57 -0.07,11.14 -0.3,16.71 -0.13,3.14 -5.02,3.16 -4.9,0 0.29,-7.11 0.5,-28.11 0.47,-31.2 -1.46,2.47 -1.59,6.23 -1.34,8.68 0.29,2.74 -4,2.71 -4.28,0 -0.67,-6.42 1.75,-14.88 9.24,-15.41z"
             class="fil2" /><path
             id="path33"
             d="M39.85 12.38l-0.67 0.65c-0.01,0.01 -0.03,0.02 -0.04,0.03 0,0.01 0.01,0.02 0.01,0.04l1.25 8.75c0.01,0.1 -0.01,0.21 -0.06,0.29l-1.25 1.84c-0.1,0.14 -0.27,0.14 -0.37,-0.01l-1.18 -1.83c-0.05,-0.08 -0.07,-0.18 -0.06,-0.28l1.18 -8.76c0,-0.01 0.01,-0.02 0.01,-0.03 -0.02,-0.01 -0.03,-0.02 -0.05,-0.04l-0.67 -0.65c-0.1,-0.1 -0.14,-0.24 -0.11,-0.37l0.31 -1.39 0.01 -0.03c0.04,-0.16 0.17,-0.28 0.34,-0.31l0.72 -0.09c0.21,-0.03 0.4,0.11 0.44,0.31l0.03 0.13 0.28 1.37c0.03,0.13 -0.02,0.27 -0.11,0.36z"
             class="fil3" /></g><g
           id="g41"><path
             id="path37"
             d="M10.84 8.57c-2.37,0 -4.29,-1.92 -4.29,-4.28 0,-2.37 1.92,-4.29 4.29,-4.29 2.36,0 4.28,1.92 4.28,4.29 0,2.37 -1.92,4.28 -4.28,4.28zm-1.5 2.04l0.75 0.01 -0.31 1.39c-0.03,0.14 0.01,0.28 0.11,0.37l0.67 0.65c0.02,0.01 0.03,0.03 0.05,0.04 -0,0.01 -0.01,0.02 -0.01,0.03l-1.18 8.76c-0.01,0.1 0.01,0.2 0.06,0.28l1.18 1.83c0.1,0.15 0.27,0.15 0.37,0.01l1.25 -1.84c0.05,-0.08 0.07,-0.18 0.06,-0.29l-1.25 -8.75c-0,-0.01 -0.01,-0.03 -0.01,-0.04 0.01,-0.01 0.03,-0.02 0.04,-0.03l0.67 -0.65c0.1,-0.09 0.14,-0.23 0.11,-0.36l-0.28 -1.37 1 0.01c7.12,0.84 9.44,9.08 8.78,15.36 -0.28,2.72 -4.57,2.75 -4.28,0 0.24,-2.29 0.13,-5.75 -1.08,-8.21 0,0 0.01,23.62 0.31,30.73 0.13,3.16 -4.77,3.14 -4.9,0 -0.23,-5.57 -0.29,-11.14 -0.3,-16.71 -0.23,0.01 -0.46,0.01 -0.7,0 -0.01,5.57 -0.07,11.14 -0.3,16.71 -0.13,3.14 -5.03,3.16 -4.9,0 0.29,-7.11 0.5,-28.11 0.47,-31.2 -1.46,2.47 -1.59,6.23 -1.34,8.68 0.29,2.74 -4,2.71 -4.28,0 -0.67,-6.42 1.76,-14.88 9.24,-15.41z"
             class="fil2" /><path
             id="path39"
             d="M11.66 12.38l-0.67 0.65c-0.01,0.01 -0.02,0.02 -0.04,0.03 0,0.01 0.01,0.02 0.01,0.04l1.25 8.75c0.01,0.1 -0.01,0.21 -0.06,0.29l-1.25 1.84c-0.1,0.14 -0.27,0.14 -0.36,-0.01l-1.18 -1.83c-0.05,-0.08 -0.07,-0.18 -0.06,-0.28l1.18 -8.76c0,-0.01 0.01,-0.02 0.01,-0.03 -0.02,-0.01 -0.03,-0.02 -0.05,-0.04l-0.68 -0.65c-0.1,-0.1 -0.14,-0.24 -0.11,-0.37l0.31 -1.39 0.01 -0.03c0.04,-0.16 0.17,-0.28 0.34,-0.31l0.72 -0.09c0.2,-0.03 0.4,0.11 0.44,0.31l0.03 0.13 0.28 1.37c0.03,0.13 -0.01,0.27 -0.11,0.36z"
             class="fil3" /></g></g><g
         id="g67"><path
           id="path45"
           d="M123.58 66.64c-2.37,0 -4.29,-1.92 -4.29,-4.28 0,-2.37 1.92,-4.29 4.29,-4.29 2.36,0 4.28,1.92 4.28,4.29 0,2.37 -1.92,4.28 -4.28,4.28zm-1.49 2.04l0.75 0.01 -0.31 1.39c-0.03,0.14 0.01,0.28 0.11,0.37l0.68 0.65c0.01,0.01 0.03,0.03 0.05,0.04 -0,0.01 -0.01,0.02 -0.01,0.03l-1.18 8.76c-0.01,0.1 0.01,0.2 0.06,0.28l1.18 1.83c0.1,0.15 0.27,0.15 0.36,0.01l1.25 -1.84c0.05,-0.08 0.07,-0.18 0.06,-0.29l-1.25 -8.75c-0,-0.01 -0.01,-0.03 -0.01,-0.04 0.01,-0.01 0.03,-0.02 0.04,-0.03l0.67 -0.65c0.1,-0.09 0.14,-0.23 0.11,-0.36l-0.28 -1.37 1 0.01c7.12,0.84 9.44,9.08 8.78,15.36 -0.28,2.72 -4.57,2.75 -4.28,0 0.24,-2.29 0.14,-5.75 -1.08,-8.21 0,0 0.01,23.62 0.31,30.73 0.13,3.16 -4.77,3.14 -4.9,0 -0.23,-5.57 -0.29,-11.14 -0.3,-16.71 -0.23,0.01 -0.46,0.01 -0.7,0 -0.01,5.57 -0.07,11.14 -0.3,16.71 -0.13,3.14 -5.02,3.16 -4.9,0 0.29,-7.11 0.5,-28.11 0.47,-31.2 -1.46,2.47 -1.59,6.23 -1.34,8.68 0.29,2.74 -4,2.71 -4.28,0 -0.67,-6.42 1.75,-14.88 9.24,-15.41z"
           class="fil2" /><path
           id="path47"
           d="M124.53 70.45l-0.67 0.65c-0.01,0.01 -0.02,0.02 -0.04,0.03 0,0.01 0.01,0.02 0.01,0.04l1.25 8.75c0.01,0.1 -0.01,0.21 -0.06,0.29l-1.25 1.84c-0.1,0.15 -0.27,0.14 -0.36,-0.01l-1.18 -1.83c-0.05,-0.08 -0.07,-0.18 -0.06,-0.28l1.18 -8.76c0,-0.01 0.01,-0.02 0.01,-0.03 -0.02,-0.01 -0.03,-0.03 -0.05,-0.04l-0.68 -0.65c-0.1,-0.1 -0.14,-0.24 -0.11,-0.37l0.31 -1.39 0.01 -0.03c0.04,-0.16 0.17,-0.29 0.34,-0.31l0.72 -0.09c0.2,-0.03 0.4,0.11 0.44,0.31l0.03 0.13 0.28 1.37c0.03,0.13 -0.01,0.27 -0.11,0.36z"
           class="fil3" /><g
           id="g53"><path
             id="path49"
             d="M95.39 66.64c-2.37,0 -4.28,-1.92 -4.28,-4.28 0,-2.37 1.92,-4.29 4.28,-4.29 2.36,0 4.29,1.92 4.29,4.29 0,2.37 -1.92,4.28 -4.29,4.28zm-1.49 2.04l0.75 0.01 -0.31 1.39c-0.03,0.14 0.01,0.28 0.11,0.37l0.67 0.65c0.02,0.01 0.03,0.03 0.05,0.04 -0,0.01 -0.01,0.02 -0.01,0.03l-1.18 8.76c-0.01,0.1 0.01,0.2 0.06,0.28l1.18 1.83c0.1,0.15 0.27,0.15 0.37,0.01l1.25 -1.84c0.05,-0.08 0.07,-0.18 0.06,-0.29l-1.25 -8.75c-0,-0.01 -0.01,-0.03 -0.01,-0.04 0.01,-0.01 0.03,-0.02 0.04,-0.03l0.67 -0.65c0.1,-0.09 0.14,-0.23 0.11,-0.36l-0.28 -1.37 1 0.01c7.12,0.84 9.44,9.08 8.78,15.36 -0.28,2.72 -4.57,2.75 -4.28,0 0.24,-2.29 0.13,-5.75 -1.08,-8.21 0,0 0.01,23.62 0.31,30.73 0.13,3.16 -4.77,3.14 -4.9,0 -0.23,-5.57 -0.29,-11.14 -0.3,-16.71 -0.23,0.01 -0.46,0.01 -0.7,0 -0.01,5.57 -0.07,11.14 -0.3,16.71 -0.13,3.14 -5.03,3.16 -4.9,0 0.29,-7.11 0.5,-28.11 0.47,-31.2 -1.46,2.47 -1.59,6.23 -1.34,8.68 0.29,2.74 -4,2.71 -4.28,0 -0.67,-6.42 1.76,-14.88 9.24,-15.41z"
             class="fil2" /><path
             id="path51"
             d="M96.21 70.45l-0.67 0.65c-0.01,0.01 -0.02,0.02 -0.04,0.03 0,0.01 0.01,0.02 0.01,0.04l1.25 8.75c0.01,0.1 -0.01,0.21 -0.06,0.29l-1.25 1.84c-0.1,0.15 -0.27,0.14 -0.36,-0.01l-1.18 -1.83c-0.05,-0.08 -0.07,-0.18 -0.06,-0.28l1.18 -8.76c0,-0.01 0.01,-0.02 0.01,-0.03 -0.02,-0.01 -0.03,-0.03 -0.05,-0.04l-0.68 -0.65c-0.1,-0.1 -0.14,-0.24 -0.11,-0.37l0.31 -1.39 0.01 -0.03c0.04,-0.16 0.17,-0.29 0.34,-0.31l0.72 -0.09c0.2,-0.03 0.4,0.11 0.44,0.31l0.03 0.13 0.28 1.37c0.03,0.13 -0.01,0.27 -0.11,0.36z"
             class="fil3" /></g><g
           id="g59"><path
             id="path55"
             d="M39.02 66.64c-2.37,0 -4.29,-1.92 -4.29,-4.28 0,-2.37 1.92,-4.29 4.29,-4.29 2.36,0 4.28,1.92 4.28,4.29 0,2.37 -1.92,4.28 -4.28,4.28zm-1.49 2.04l0.75 0.01 -0.31 1.39c-0.03,0.14 0.01,0.28 0.11,0.37l0.68 0.65c0.01,0.01 0.03,0.03 0.05,0.04 -0,0.01 -0.01,0.02 -0.01,0.03l-1.18 8.76c-0.01,0.1 0.01,0.2 0.06,0.28l1.18 1.83c0.1,0.15 0.27,0.15 0.37,0.01l1.25 -1.84c0.05,-0.08 0.08,-0.18 0.06,-0.29l-1.25 -8.75c-0,-0.01 -0.01,-0.03 -0.01,-0.04 0.01,-0.01 0.03,-0.02 0.04,-0.03l0.67 -0.65c0.1,-0.09 0.14,-0.23 0.11,-0.36l-0.28 -1.37 1 0.01c7.12,0.84 9.44,9.08 8.78,15.36 -0.28,2.72 -4.57,2.75 -4.28,0 0.24,-2.29 0.13,-5.75 -1.08,-8.21 0,0 0.01,23.62 0.31,30.73 0.13,3.16 -4.77,3.14 -4.9,0 -0.23,-5.57 -0.29,-11.14 -0.3,-16.71 -0.23,0.01 -0.46,0.01 -0.7,0 -0.01,5.57 -0.07,11.14 -0.3,16.71 -0.13,3.14 -5.02,3.16 -4.9,0 0.29,-7.11 0.5,-28.11 0.47,-31.2 -1.46,2.47 -1.59,6.23 -1.34,8.68 0.29,2.74 -4,2.71 -4.28,0 -0.67,-6.42 1.75,-14.88 9.24,-15.41z"
             class="fil2" /><path
             id="path57"
             d="M39.85 70.45l-0.67 0.65c-0.01,0.01 -0.03,0.02 -0.04,0.03 0,0.01 0.01,0.02 0.01,0.04l1.25 8.75c0.01,0.1 -0.01,0.21 -0.06,0.29l-1.25 1.84c-0.1,0.15 -0.27,0.14 -0.37,-0.01l-1.18 -1.83c-0.05,-0.08 -0.07,-0.18 -0.06,-0.28l1.18 -8.76c0,-0.01 0.01,-0.02 0.01,-0.03 -0.02,-0.01 -0.03,-0.03 -0.05,-0.04l-0.67 -0.65c-0.1,-0.1 -0.14,-0.24 -0.11,-0.37l0.31 -1.39 0.01 -0.03c0.04,-0.16 0.17,-0.29 0.34,-0.31l0.72 -0.09c0.21,-0.03 0.4,0.11 0.44,0.31l0.03 0.13 0.28 1.37c0.03,0.13 -0.02,0.27 -0.11,0.36z"
             class="fil3" /></g><g
           id="g65"><path
             id="path61"
             d="M10.84 66.64c-2.37,0 -4.29,-1.92 -4.29,-4.28 0,-2.37 1.92,-4.29 4.29,-4.29 2.36,0 4.28,1.92 4.28,4.29 0,2.37 -1.92,4.28 -4.28,4.28zm-1.5 2.04l0.75 0.01 -0.31 1.39c-0.03,0.14 0.01,0.28 0.11,0.37l0.67 0.65c0.02,0.01 0.03,0.03 0.05,0.04 -0,0.01 -0.01,0.02 -0.01,0.03l-1.18 8.76c-0.01,0.1 0.01,0.2 0.06,0.28l1.18 1.83c0.1,0.15 0.27,0.15 0.37,0.01l1.25 -1.84c0.05,-0.08 0.07,-0.18 0.06,-0.29l-1.25 -8.75c-0,-0.01 -0.01,-0.03 -0.01,-0.04 0.01,-0.01 0.03,-0.02 0.04,-0.03l0.67 -0.65c0.1,-0.09 0.14,-0.23 0.11,-0.36l-0.28 -1.37 1 0.01c7.12,0.84 9.44,9.08 8.78,15.36 -0.28,2.72 -4.57,2.75 -4.28,0 0.24,-2.29 0.13,-5.75 -1.08,-8.21 0,0 0.01,23.62 0.31,30.73 0.13,3.16 -4.77,3.14 -4.9,0 -0.23,-5.57 -0.29,-11.14 -0.3,-16.71 -0.23,0.01 -0.46,0.01 -0.7,0 -0.01,5.57 -0.07,11.14 -0.3,16.71 -0.13,3.14 -5.03,3.16 -4.9,0 0.29,-7.11 0.5,-28.11 0.47,-31.2 -1.46,2.47 -1.59,6.23 -1.34,8.68 0.29,2.74 -4,2.71 -4.28,0 -0.67,-6.42 1.76,-14.88 9.24,-15.41z"
             class="fil2" /><path
             id="path63"
             d="M11.66 70.45l-0.67 0.65c-0.01,0.01 -0.02,0.02 -0.04,0.03 0,0.01 0.01,0.02 0.01,0.04l1.25 8.75c0.01,0.1 -0.01,0.21 -0.06,0.29l-1.25 1.84c-0.1,0.15 -0.27,0.14 -0.36,-0.01l-1.18 -1.83c-0.05,-0.08 -0.07,-0.18 -0.06,-0.28l1.18 -8.76c0,-0.01 0.01,-0.02 0.01,-0.03 -0.02,-0.01 -0.03,-0.03 -0.05,-0.04l-0.68 -0.65c-0.1,-0.1 -0.14,-0.24 -0.11,-0.37l0.31 -1.39 0.01 -0.03c0.04,-0.16 0.17,-0.29 0.34,-0.31l0.72 -0.09c0.2,-0.03 0.4,0.11 0.44,0.31l0.03 0.13 0.28 1.37c0.03,0.13 -0.01,0.27 -0.11,0.36z"
             class="fil3" /></g></g><g
         id="g97"><path
           id="path69"
           d="M123.58 123.98c-2.37,0 -4.29,-1.92 -4.29,-4.28 0,-2.37 1.92,-4.29 4.29,-4.29 2.36,0 4.28,1.92 4.28,4.29 0,2.37 -1.92,4.28 -4.28,4.28zm-1.49 2.04l0.75 0.01 -0.31 1.39c-0.03,0.14 0.01,0.28 0.11,0.37l0.68 0.65c0.01,0.01 0.03,0.03 0.05,0.04 -0,0.01 -0.01,0.02 -0.01,0.03l-1.18 8.76c-0.01,0.1 0.01,0.2 0.06,0.28l1.18 1.83c0.1,0.15 0.27,0.15 0.36,0.01l1.25 -1.84c0.05,-0.08 0.07,-0.18 0.06,-0.29l-1.25 -8.75c-0,-0.01 -0.01,-0.03 -0.01,-0.04 0.01,-0.01 0.03,-0.02 0.04,-0.03l0.67 -0.65c0.1,-0.09 0.14,-0.23 0.11,-0.36l-0.28 -1.37 1 0.01c7.12,0.84 9.44,9.08 8.78,15.36 -0.28,2.72 -4.57,2.75 -4.28,0 0.24,-2.29 0.14,-5.75 -1.08,-8.21 0,0 0.01,23.62 0.31,30.73 0.13,3.16 -4.77,3.14 -4.9,0 -0.23,-5.57 -0.29,-11.14 -0.3,-16.71 -0.23,0.01 -0.46,0.01 -0.7,0 -0.01,5.57 -0.07,11.14 -0.3,16.71 -0.13,3.14 -5.02,3.16 -4.9,0 0.29,-7.11 0.5,-28.11 0.47,-31.2 -1.46,2.47 -1.59,6.23 -1.34,8.68 0.29,2.74 -4,2.71 -4.28,0 -0.67,-6.42 1.75,-14.88 9.24,-15.41z"
           class="fil2" /><path
           id="path71"
           d="M124.53 127.79l-0.67 0.65c-0.01,0.01 -0.02,0.02 -0.04,0.03 0,0.01 0.01,0.02 0.01,0.04l1.25 8.75c0.01,0.1 -0.01,0.21 -0.06,0.29l-1.25 1.84c-0.1,0.15 -0.27,0.14 -0.36,-0.01l-1.18 -1.83c-0.05,-0.08 -0.07,-0.18 -0.06,-0.28l1.18 -8.76c0,-0.01 0.01,-0.02 0.01,-0.03 -0.02,-0.01 -0.03,-0.03 -0.05,-0.04l-0.68 -0.65c-0.1,-0.1 -0.14,-0.24 -0.11,-0.37l0.31 -1.39 0.01 -0.03c0.04,-0.16 0.17,-0.29 0.34,-0.31l0.72 -0.09c0.2,-0.03 0.4,0.11 0.44,0.31l0.03 0.13 0.28 1.37c0.03,0.13 -0.01,0.27 -0.11,0.36z"
           class="fil3" /><g
           id="g77"><path
             id="path73"
             d="M95.39 123.98c-2.37,0 -4.28,-1.92 -4.28,-4.28 0,-2.37 1.92,-4.29 4.28,-4.29 2.36,0 4.29,1.92 4.29,4.29 0,2.37 -1.92,4.28 -4.29,4.28zm-1.49 2.04l0.75 0.01 -0.31 1.39c-0.03,0.14 0.01,0.28 0.11,0.37l0.67 0.65c0.02,0.01 0.03,0.03 0.05,0.04 -0,0.01 -0.01,0.02 -0.01,0.03l-1.18 8.76c-0.01,0.1 0.01,0.2 0.06,0.28l1.18 1.83c0.1,0.15 0.27,0.15 0.37,0.01l1.25 -1.84c0.05,-0.08 0.07,-0.18 0.06,-0.29l-1.25 -8.75c-0,-0.01 -0.01,-0.03 -0.01,-0.04 0.01,-0.01 0.03,-0.02 0.04,-0.03l0.67 -0.65c0.1,-0.09 0.14,-0.23 0.11,-0.36l-0.28 -1.37 1 0.01c7.12,0.84 9.44,9.08 8.78,15.36 -0.28,2.72 -4.57,2.75 -4.28,0 0.24,-2.29 0.13,-5.75 -1.08,-8.21 0,0 0.01,23.62 0.31,30.73 0.13,3.16 -4.77,3.14 -4.9,0 -0.23,-5.57 -0.29,-11.14 -0.3,-16.71 -0.23,0.01 -0.46,0.01 -0.7,0 -0.01,5.57 -0.07,11.14 -0.3,16.71 -0.13,3.14 -5.03,3.16 -4.9,0 0.29,-7.11 0.5,-28.11 0.47,-31.2 -1.46,2.47 -1.59,6.23 -1.34,8.68 0.29,2.74 -4,2.71 -4.28,0 -0.67,-6.42 1.76,-14.88 9.24,-15.41z"
             class="fil2" /><path
             id="path75"
             d="M96.21 127.79l-0.67 0.65c-0.01,0.01 -0.02,0.02 -0.04,0.03 0,0.01 0.01,0.02 0.01,0.04l1.25 8.75c0.01,0.1 -0.01,0.21 -0.06,0.29l-1.25 1.84c-0.1,0.15 -0.27,0.14 -0.36,-0.01l-1.18 -1.83c-0.05,-0.08 -0.07,-0.18 -0.06,-0.28l1.18 -8.76c0,-0.01 0.01,-0.02 0.01,-0.03 -0.02,-0.01 -0.03,-0.03 -0.05,-0.04l-0.68 -0.65c-0.1,-0.1 -0.14,-0.24 -0.11,-0.37l0.31 -1.39 0.01 -0.03c0.04,-0.16 0.17,-0.29 0.34,-0.31l0.72 -0.09c0.2,-0.03 0.4,0.11 0.44,0.31l0.03 0.13 0.28 1.37c0.03,0.13 -0.01,0.27 -0.11,0.36z"
             class="fil3" /></g><g
           id="g83"><path
             id="path79"
             d="M67.21 123.98c-2.37,0 -4.29,-1.92 -4.29,-4.28 0,-2.37 1.92,-4.29 4.29,-4.29 2.36,0 4.28,1.92 4.28,4.29 0,2.37 -1.92,4.28 -4.28,4.28zm-1.49 2.04l0.75 0.01 -0.31 1.39c-0.03,0.14 0.01,0.28 0.11,0.37l0.67 0.65c0.01,0.01 0.03,0.03 0.05,0.04 -0,0.01 -0.01,0.02 -0.01,0.03l-1.18 8.76c-0.01,0.1 0.01,0.2 0.06,0.28l1.18 1.83c0.1,0.15 0.27,0.15 0.37,0.01l1.25 -1.84c0.05,-0.08 0.08,-0.18 0.06,-0.29l-1.25 -8.75c-0,-0.01 -0.01,-0.03 -0.01,-0.04 0.01,-0.01 0.03,-0.02 0.04,-0.03l0.67 -0.65c0.1,-0.09 0.14,-0.23 0.11,-0.36l-0.28 -1.37 1 0.01c7.12,0.84 9.44,9.08 8.78,15.36 -0.28,2.72 -4.57,2.75 -4.28,0 0.24,-2.29 0.13,-5.75 -1.08,-8.21 0,0 0.01,23.62 0.31,30.73 0.13,3.16 -4.77,3.14 -4.9,0 -0.23,-5.57 -0.29,-11.14 -0.3,-16.71 -0.23,0.01 -0.46,0.01 -0.7,0 -0.01,5.57 -0.07,11.14 -0.3,16.71 -0.13,3.14 -5.03,3.16 -4.9,0 0.29,-7.11 0.5,-28.11 0.47,-31.2 -1.46,2.47 -1.59,6.23 -1.34,8.68 0.29,2.74 -4,2.71 -4.28,0 -0.67,-6.42 1.76,-14.88 9.24,-15.41z"
             class="fil2" /><path
             id="path81"
             d="M68.03 127.79l-0.67 0.65c-0.01,0.01 -0.03,0.02 -0.04,0.03 0,0.01 0.01,0.02 0.01,0.04l1.25 8.75c0.01,0.1 -0.01,0.21 -0.06,0.29l-1.25 1.84c-0.1,0.15 -0.27,0.14 -0.37,-0.01l-1.18 -1.83c-0.05,-0.08 -0.07,-0.18 -0.06,-0.28l1.18 -8.76c0,-0.01 0.01,-0.02 0.01,-0.03 -0.02,-0.01 -0.03,-0.03 -0.05,-0.04l-0.67 -0.65c-0.1,-0.1 -0.14,-0.24 -0.11,-0.37l0.31 -1.39 0.01 -0.03c0.04,-0.16 0.17,-0.29 0.34,-0.31l0.72 -0.09c0.21,-0.03 0.4,0.11 0.44,0.31l0.03 0.13 0.28 1.37c0.03,0.13 -0.01,0.27 -0.11,0.36z"
             class="fil3" /></g><g
           id="g89"><path
             id="path85"
             d="M39.02 123.98c-2.37,0 -4.29,-1.92 -4.29,-4.28 0,-2.37 1.92,-4.29 4.29,-4.29 2.36,0 4.28,1.92 4.28,4.29 0,2.37 -1.92,4.28 -4.28,4.28zm-1.49 2.04l0.75 0.01 -0.31 1.39c-0.03,0.14 0.01,0.28 0.11,0.37l0.68 0.65c0.01,0.01 0.03,0.03 0.05,0.04 -0,0.01 -0.01,0.02 -0.01,0.03l-1.18 8.76c-0.01,0.1 0.01,0.2 0.06,0.28l1.18 1.83c0.1,0.15 0.27,0.15 0.37,0.01l1.25 -1.84c0.05,-0.08 0.08,-0.18 0.06,-0.29l-1.25 -8.75c-0,-0.01 -0.01,-0.03 -0.01,-0.04 0.01,-0.01 0.03,-0.02 0.04,-0.03l0.67 -0.65c0.1,-0.09 0.14,-0.23 0.11,-0.36l-0.28 -1.37 1 0.01c7.12,0.84 9.44,9.08 8.78,15.36 -0.28,2.72 -4.57,2.75 -4.28,0 0.24,-2.29 0.13,-5.75 -1.08,-8.21 0,0 0.01,23.62 0.31,30.73 0.13,3.16 -4.77,3.14 -4.9,0 -0.23,-5.57 -0.29,-11.14 -0.3,-16.71 -0.23,0.01 -0.46,0.01 -0.7,0 -0.01,5.57 -0.07,11.14 -0.3,16.71 -0.13,3.14 -5.02,3.16 -4.9,0 0.29,-7.11 0.5,-28.11 0.47,-31.2 -1.46,2.47 -1.59,6.23 -1.34,8.68 0.29,2.74 -4,2.71 -4.28,0 -0.67,-6.42 1.75,-14.88 9.24,-15.41z"
             class="fil2" /><path
             id="path87"
             d="M39.85 127.79l-0.67 0.65c-0.01,0.01 -0.03,0.02 -0.04,0.03 0,0.01 0.01,0.02 0.01,0.04l1.25 8.75c0.01,0.1 -0.01,0.21 -0.06,0.29l-1.25 1.84c-0.1,0.15 -0.27,0.14 -0.37,-0.01l-1.18 -1.83c-0.05,-0.08 -0.07,-0.18 -0.06,-0.28l1.18 -8.76c0,-0.01 0.01,-0.02 0.01,-0.03 -0.02,-0.01 -0.03,-0.03 -0.05,-0.04l-0.67 -0.65c-0.1,-0.1 -0.14,-0.24 -0.11,-0.37l0.31 -1.39 0.01 -0.03c0.04,-0.16 0.17,-0.29 0.34,-0.31l0.72 -0.09c0.21,-0.03 0.4,0.11 0.44,0.31l0.03 0.13 0.28 1.37c0.03,0.13 -0.02,0.27 -0.11,0.36z"
             class="fil3" /></g><g
           id="g95"><path
             id="path91"
             d="M10.84 123.98c-2.37,0 -4.29,-1.92 -4.29,-4.28 0,-2.37 1.92,-4.29 4.29,-4.29 2.36,0 4.28,1.92 4.28,4.29 0,2.37 -1.92,4.28 -4.28,4.28zm-1.5 2.04l0.75 0.01 -0.31 1.39c-0.03,0.14 0.01,0.28 0.11,0.37l0.67 0.65c0.02,0.01 0.03,0.03 0.05,0.04 -0,0.01 -0.01,0.02 -0.01,0.03l-1.18 8.76c-0.01,0.1 0.01,0.2 0.06,0.28l1.18 1.83c0.1,0.15 0.27,0.15 0.37,0.01l1.25 -1.84c0.05,-0.08 0.07,-0.18 0.06,-0.29l-1.25 -8.75c-0,-0.01 -0.01,-0.03 -0.01,-0.04 0.01,-0.01 0.03,-0.02 0.04,-0.03l0.67 -0.65c0.1,-0.09 0.14,-0.23 0.11,-0.36l-0.28 -1.37 1 0.01c7.12,0.84 9.44,9.08 8.78,15.36 -0.28,2.72 -4.57,2.75 -4.28,0 0.24,-2.29 0.13,-5.75 -1.08,-8.21 0,0 0.01,23.62 0.31,30.73 0.13,3.16 -4.77,3.14 -4.9,0 -0.23,-5.57 -0.29,-11.14 -0.3,-16.71 -0.23,0.01 -0.46,0.01 -0.7,0 -0.01,5.57 -0.07,11.14 -0.3,16.71 -0.13,3.14 -5.03,3.16 -4.9,0 0.29,-7.11 0.5,-28.11 0.47,-31.2 -1.46,2.47 -1.59,6.23 -1.34,8.68 0.29,2.74 -4,2.71 -4.28,0 -0.67,-6.42 1.76,-14.88 9.24,-15.41z"
             class="fil2" /><path
             id="path93"
             d="M11.66 127.79l-0.67 0.65c-0.01,0.01 -0.02,0.02 -0.04,0.03 0,0.01 0.01,0.02 0.01,0.04l1.25 8.75c0.01,0.1 -0.01,0.21 -0.06,0.29l-1.25 1.84c-0.1,0.15 -0.27,0.14 -0.36,-0.01l-1.18 -1.83c-0.05,-0.08 -0.07,-0.18 -0.06,-0.28l1.18 -8.76c0,-0.01 0.01,-0.02 0.01,-0.03 -0.02,-0.01 -0.03,-0.03 -0.05,-0.04l-0.68 -0.65c-0.1,-0.1 -0.14,-0.24 -0.11,-0.37l0.31 -1.39 0.01 -0.03c0.04,-0.16 0.17,-0.29 0.34,-0.31l0.72 -0.09c0.2,-0.03 0.4,0.11 0.44,0.31l0.03 0.13 0.28 1.37c0.03,0.13 -0.01,0.27 -0.11,0.36z"
             class="fil3" /></g></g></g></g></svg>