<?xml version="1.0" encoding="UTF-8" standalone="no"?>
<svg
   xmlns:dc="http://purl.org/dc/elements/1.1/"
   xmlns:cc="http://creativecommons.org/ns#"
   xmlns:rdf="http://www.w3.org/1999/02/22-rdf-syntax-ns#"
   xmlns:svg="http://www.w3.org/2000/svg"
   xmlns="http://www.w3.org/2000/svg"
   id="svg33"
   viewBox="0 0 439.78 329.65"
   style="shape-rendering:geometricPrecision; text-rendering:geometricPrecision; image-rendering:optimizeQuality; fill-rule:evenodd; clip-rule:evenodd"
   version="1.1"
   height="6.35mm"
   width="8.4715mm"
   xml:space="preserve"><metadata
     id="metadata37"><rdf:RDF><cc:Work
         rdf:about=""><dc:format>image/svg+xml</dc:format><dc:type
           rdf:resource="http://purl.org/dc/dcmitype/StillImage" /></cc:Work></rdf:RDF></metadata><defs
     id="defs4"><style
       id="style2"
       type="text/css"><![CDATA[
    .fil0 {fill:#0082A6}
    .fil1 {fill:#12BDEB}
   ]]></style></defs><g
     id="Camada_x0020_1"><metadata
       id="CorelCorpID_0Corel-Layer" /><g
       id="_4678644608"><path
         id="path7"
         d="M252.93 36.43l30.43 24.25c-1.93,4.39 -16.47,23.11 -20.19,27.84 -5.27,6.69 -16.05,23.26 -21.26,27.49 -8.48,-5.3 -14.74,-11.21 -23.45,-17.61 -4.49,-3.3 -7.17,-5.39 -11.84,-9.01 -3.71,-2.88 -8.29,-6.8 -11.92,-8.76 -7.57,7.55 -36.99,53.41 -42.82,57.34l-16.47 -15c-0.23,0.17 -0.55,0.18 -0.64,0.56l-38.81 53.95c3.81,2.51 6.96,5.54 10.9,8.12 5.12,-3.64 17.99,-24.31 25.26,-31.64 6.71,3.49 14.4,12.28 21.96,16.91 4.44,-4.41 16.16,-22.24 21.09,-28.76 8.21,-10.88 12.98,-18.95 20.64,-28.6 5.73,1.62 42.32,34.5 51.61,40.66 4.28,-2.21 5.75,-5.21 8.33,-8.31l15.55 -17.41c5.13,-6.55 37.34,-42.89 40.9,-45.12 8.22,5.77 30.07,23.99 36.9,27.2l-5.34 -93.46c-5.85,-0.29 -88.16,17.56 -90.81,19.35z"
         class="fil0" /><path
         id="path9"
         d="M76.9 190.19c-0.13,-25.16 -2.89,-162.44 1.21,-174.83 3.36,-4.02 101.97,-2.33 114.37,-2.33 39.16,0.01 78.33,-0.15 117.49,-0.19 9.82,-0.01 51.71,-2.8 56.06,2.78 3.5,4.48 1.68,46.89 1.68,56.03 0.02,38.95 -0.63,78.79 0.28,117.64l12.24 -3.71c0.63,-20.13 1.6,-165.29 -1.92,-173.44 -5.45,-12.61 -16.68,-11.86 -32.11,-11.79l-220.7 0.36c-38.76,0.06 -61.44,-7.6 -61.35,25.91 0.08,29.28 0.11,58.57 0.17,87.86l0.02 65.96c-0.09,5.12 -1.13,6.8 2.23,8.21 1.17,0.49 8.8,1.46 10.33,1.54z"
         class="fil1" /><path
         id="path11"
         d="M323.84 329.25l115.94 -0.25c-0.21,-23.28 1.62,-29.79 -11.78,-43.76 -11.14,-11.61 -27.21,-9.43 -45.55,-9.42 -17.98,0 -35.09,-2.01 -46.19,8.77 -14.01,13.6 -12.14,21.53 -12.41,44.66z"
         class="fil1" /><path
         id="path13"
         d="M162.15 329.24l115.32 0c2.52,-19.74 -0.69,-33.27 -11.35,-43.54 -12.59,-12.14 -26.48,-9.63 -46.17,-9.6 -19.48,0.03 -33.99,-2.28 -46.35,9.42 -10.89,10.31 -13.17,23.78 -11.44,43.72z"
         class="fil1" /><path
         id="path15"
         d="M0.29 329.65l114.85 -0.17c1.61,-50.45 -17.42,-52.77 -56.6,-52.75 -18.3,0.01 -34.47,-2.15 -46.19,8.96 -12.71,12.06 -12.88,21.88 -12.06,43.96z"
         class="fil1" /><path
         id="path17"
         d="M10.71 273.19c23.5,0.28 54.23,4.14 70.79,-8.38 17.4,-13.16 17.77,-41.64 2.78,-56.39 -16.4,-16.14 -43.41,-12.8 -56.05,3.15 -7.59,9.58 -8.62,16.75 -8.57,31.38 0.11,33.6 -6.15,22.48 -8.94,30.24z"
         class="fil1" /><path
         id="path19"
         d="M375.39 196.71c-52.89,10.94 -34.22,84.18 13.73,74.79 49.62,-9.72 33.54,-84.56 -13.73,-74.79z"
         class="fil1" /><path
         id="path21"
         d="M210.22 197.61c-17.65,4.54 -33.52,22.75 -27.49,46.22 12.53,48.72 86.39,30.11 73.92,-18.95 -4.52,-17.77 -23.26,-33.22 -46.43,-27.27z"
         class="fil1" /><path
         id="path23"
         d="M330.44 268.9c-7.64,-6.84 -6.87,-9.21 -6.81,-21.56 0.21,-40.49 -34.91,-39.82 -48.35,-25.92 -11.42,11.81 -10.3,32.19 1.73,41.31 11.36,8.6 36.62,7.67 53.43,6.17z"
         class="fil1" /><path
         id="path25"
         d="M136.03 214.41c-37.18,11.66 -18.54,64.16 15.76,53.79 12.69,-3.84 24,-18.27 18.9,-35.32 -3.78,-12.64 -17.84,-23.75 -34.66,-18.47z"
         class="fil1" /><path
         id="path27"
         d="M106.89 281.27c3.43,7.16 12.3,11.36 12.89,30.02l37.54 -0.01c1.21,-22.09 11.97,-25.5 18.74,-34.42 -13.71,-6.83 -19.25,-4.93 -36.27,-4.9 -19.47,0.04 -21.19,-0.48 -32.9,9.31z"
         class="fil1" /><path
         id="path29"
         d="M263.93 276.99c0.83,1.25 0.16,0.36 1.5,1.77 0.01,0.01 1.58,1.56 1.64,1.61 3.43,3.28 6.81,6 9.41,10.35 3.67,6.14 5.26,11.78 6.01,20.3l37.18 -0.05c1.48,-18.35 6.62,-19.36 13.07,-29.45 -8.12,-9.13 -15.27,-9.87 -31.54,-9.81 -13.09,0.05 -27.99,-2.09 -37.27,5.28z"
         class="fil1" /></g></g></svg>