<?xml version="1.0" encoding="UTF-8" standalone="no"?>
<svg
   xmlns:dc="http://purl.org/dc/elements/1.1/"
   xmlns:cc="http://creativecommons.org/ns#"
   xmlns:rdf="http://www.w3.org/1999/02/22-rdf-syntax-ns#"
   xmlns:svg="http://www.w3.org/2000/svg"
   xmlns="http://www.w3.org/2000/svg"
   id="svg10"
   viewBox="0 0 901.63 704.77"
   style="shape-rendering:geometricPrecision; text-rendering:geometricPrecision; image-rendering:optimizeQuality; fill-rule:evenodd; clip-rule:evenodd"
   version="1.1"
   height="7.6782mm"
   width="9.8229mm"
   xml:space="preserve"><metadata
     id="metadata14"><rdf:RDF><cc:Work
         rdf:about=""><dc:format>image/svg+xml</dc:format><dc:type
           rdf:resource="http://purl.org/dc/dcmitype/StillImage" /></cc:Work></rdf:RDF></metadata><defs
     id="defs4"><style
       id="style2"
       type="text/css"><![CDATA[
    .fil0 {fill:#12BDEB}
   ]]></style></defs><g
     id="Camada_x0020_1"><metadata
       id="CorelCorpID_0Corel-Layer" /><path
       id="path7"
       d="M450.44 494.83c-116.43,0 -211.77,-95.3 -211.77,-212.48 0,-116.43 95.34,-211.77 211.77,-211.77 117.16,0 212.5,95.34 212.5,211.77 0,117.18 -95.34,212.48 -212.5,212.48zm283.09 -212.48c0,-155.73 -126.62,-282.34 -283.09,-282.34 -155.7,0 -282.33,126.61 -282.33,282.34 0,156.46 126.63,283.09 282.33,283.09 54.58,0 105.52,-15.29 149.18,-42.21l160.83 160.81c27.67,27.66 72.04,27.66 99.69,0 27.65,-27.65 27.65,-72.04 0,-99.69l-163.02 -163c23.3,-41.49 36.39,-88.05 36.39,-139zm53.85 96.79c5.83,0 10.2,-2.18 11.65,-7.27l15.28 -74.23 10.19 17.45c2.17,3.65 5.81,6.56 9.45,6.56l56.06 0c6.53,0 11.64,-5.81 11.64,-11.66 0,-6.54 -5.11,-11.63 -11.64,-11.63l-49.49 0 -21.82 -37.85c-2.19,-3.64 -7.29,-5.81 -11.68,-5.09 -5.09,0.72 -8.71,4.38 -9.44,8.76l-9.45 45.09 -21.11 -117.86c-1.46,-5.11 -5.83,-9.47 -11.62,-9.47 -4.42,0 -8.77,2.92 -10.23,6.54 9.46,29.84 14.59,61.13 14.59,93.16l15.98 89.52c1.45,5.81 5.82,7.99 11.66,7.99zm-480.3 0c5.83,0 10.19,-2.18 11.68,-7.27l15.26 -74.23 10.18 17.45c2.18,3.65 5.86,6.56 10.2,6.56l19.66 0 19.63 49.5c1.45,4.36 6.54,7.25 11.65,7.25 5.09,-0.72 9.45,-4.36 10.19,-9.47l18.92 -108.42 19.62 110.64c1.47,5.81 5.86,7.99 11.67,7.99 5.83,0 10.17,-2.18 11.64,-7.27l15.29 -74.23 10.17 17.45c2.18,3.65 5.84,6.56 10.2,6.56l31.31 0c4.36,0 7.99,-2.91 10.17,-6.56l10.17 -17.45 15.29 74.23c1.45,5.09 5.83,7.27 11.64,7.27 5.86,0 10.2,-2.18 10.92,-7.99l20.4 -110.64 10.17 57.5c2.18,-10.91 3.64,-23.27 3.64,-35.66 0,-32.74 -9.45,-64.75 -24.75,-91.68l0 0.73 -21.07 117.86 -9.5 -45.09c-1.45,-4.38 -5.08,-8.04 -9.44,-8.76 -5.09,-0.72 -9.48,1.45 -12.37,5.09l-21.86 37.85 -18.16 0 -22.57 -37.85c-2.18,-3.64 -6.54,-5.81 -11.64,-5.09 -5.1,0.72 -8.74,4.38 -9.48,8.76l-9.44 45.09 -21.1 -117.86c-0.73,-5.11 -5.81,-9.47 -11.65,-9.47 -5.82,0 -10.21,4.36 -11.65,9.47l-22.59 132.43 -7.26 -18.2c-1.45,-4.36 -5.81,-7.27 -10.9,-7.27l-20.37 0 -21.84 -37.85c-2.93,-3.64 -7.27,-5.81 -12.37,-5.09 -4.36,0.72 -7.99,4.38 -9.47,8.76l-9.44 45.09 -20.4 -114.97c-14.53,26.21 -22.55,56.76 -22.55,88.05 0,9.48 0.73,18.93 2.18,27.65l8.75 -49.48 20.38 110.64c0.73,5.81 5.84,7.99 10.9,7.99zm-192.11 0c-5.82,0 -10.16,-2.18 -11.63,-7.27l-15.29 -74.23 -10.18 17.45c-2.2,3.65 -5.83,6.56 -10.21,6.56l-56.03 0c-6.55,0 -11.63,-5.81 -11.63,-11.66 0,-6.54 5.08,-11.63 11.63,-11.63l49.48 0 21.84 -37.85c2.91,-3.64 7.27,-5.81 12.35,-5.09 4.36,0.72 8.03,4.38 9.5,8.76l9.44 45.09 21.12 -117.86c0.72,-5.11 5.81,-9.47 10.89,-9.47 4.38,0 8.76,2.18 10.21,5.81 -9.47,29.86 -14.56,61.87 -14.56,94.61l0 2.18 -16.02 86.63c-0.73,5.81 -5.81,7.99 -10.91,7.99z"
       class="fil0" /></g></svg>