<?xml version="1.0" encoding="UTF-8" standalone="no"?>
<svg
   xmlns:dc="http://purl.org/dc/elements/1.1/"
   xmlns:cc="http://creativecommons.org/ns#"
   xmlns:rdf="http://www.w3.org/1999/02/22-rdf-syntax-ns#"
   xmlns:svg="http://www.w3.org/2000/svg"
   xmlns="http://www.w3.org/2000/svg"
   id="svg197"
   viewBox="0 0 226.34 196.64"
   style="shape-rendering:geometricPrecision; text-rendering:geometricPrecision; image-rendering:optimizeQuality; fill-rule:evenodd; clip-rule:evenodd"
   version="1.1"
   height="7.5553mm"
   width="8.6963mm"
   xml:space="preserve"><metadata
     id="metadata201"><rdf:RDF><cc:Work
         rdf:about=""><dc:format>image/svg+xml</dc:format><dc:type
           rdf:resource="http://purl.org/dc/dcmitype/StillImage" /></cc:Work></rdf:RDF></metadata><defs
     id="defs4"><style
       id="style2"
       type="text/css"><![CDATA[
    .fil5 {fill:#0056EB;fill-rule:nonzero}
    .fil11 {fill:#009790;fill-rule:nonzero}
    .fil10 {fill:#037E75;fill-rule:nonzero}
    .fil9 {fill:#0A42A3;fill-rule:nonzero}
    .fil6 {fill:#0C233F;fill-rule:nonzero}
    .fil3 {fill:#12BDEB;fill-rule:nonzero}
    .fil12 {fill:#4949CA;fill-rule:nonzero}
    .fil0 {fill:#C8DBFB;fill-rule:nonzero}
    .fil4 {fill:#CCCCCC;fill-rule:nonzero}
    .fil13 {fill:#D8742A;fill-rule:nonzero}
    .fil7 {fill:#EF822A;fill-rule:nonzero}
    .fil8 {fill:#FFB8A3;fill-rule:nonzero}
    .fil2 {fill:white;fill-rule:nonzero}
    .fil1 {fill:#5275A0;fill-rule:nonzero;fill-opacity:0.200000}
   ]]></style></defs><g
     id="Camada_x0020_1"><metadata
       id="CorelCorpID_0Corel-Layer" /><g
       id="_4734907200"><path
         id="path7"
         d="M88.45 194.13c0,1.38 -12.02,2.51 -26.84,2.51 -14.82,0 -26.84,-1.12 -26.84,-2.51 0,-1.38 12.01,-2.51 26.84,-2.51 14.82,0 26.84,1.12 26.84,2.51z"
         class="fil0" /><path
         id="path9"
         d="M226.34 194.13c0,1.38 -12.02,2.51 -26.84,2.51 -14.82,0 -26.84,-1.12 -26.84,-2.51 0,-1.38 12.01,-2.51 26.84,-2.51 14.82,0 26.84,1.12 26.84,2.51z"
         class="fil0" /><g
         id="g193"><path
           id="path11"
           d="M218.39 176.72l-208.95 0.43c-2.79,0.01 -5.05,-2.25 -5.06,-5.04l-0.29 -138.43c-0.01,-2.79 2.25,-5.05 5.04,-5.06l208.95 -0.43c2.79,-0.01 5.05,2.25 5.06,5.04l0.29 138.43c0.01,2.79 -2.25,5.05 -5.04,5.06z"
           class="fil1" /><g
           id="g57"><path
             id="path13"
             d="M214.3 174.08l-208.95 0.43c-2.79,0.01 -5.05,-2.25 -5.06,-5.04l-0.29 -138.43c-0.01,-2.79 2.25,-5.05 5.04,-5.06l208.95 -0.43c2.79,-0.01 5.05,2.25 5.06,5.04l0.29 138.43c0.01,2.79 -2.25,5.05 -5.04,5.06z"
             class="fil2" /><path
             id="path15"
             d="M213.65 25.56l-208.06 0.43c-3.03,0.01 -5.49,2.47 -5.48,5.51l0.01 4.78 219.05 -0.45 -0.01 -4.78c-0.01,-3.03 -2.47,-5.49 -5.5,-5.48z"
             class="fil3" /><path
             id="path17"
             d="M5.85 174.51l31.44 -0.07 -0.29 -138.25 -36.93 0.08 0.27 132.76c0.01,3.03 2.47,5.48 5.51,5.48z"
             class="fil4" /><g
             id="g21"><path
               id="path19"
               d="M214.05 26.95c2.01,0 3.65,1.64 3.66,3.65l0.29 138.43c0,2.02 -1.63,3.66 -3.65,3.66l-208.96 0.43c-2.01,0 -3.65,-1.64 -3.66,-3.65l-0.29 -138.43c0,-0.98 0.38,-1.9 1.07,-2.59 0.69,-0.69 1.61,-1.07 2.58,-1.08l208.95 -0.43 0.01 0zm0 -1.39l0 0c-0,0 -0.01,0 -0.01,0l-208.95 0.43c-2.79,0.01 -5.04,2.27 -5.04,5.06l0.28 138.43c0.01,2.78 2.26,5.04 5.05,5.04 0,0 0.01,0 0.01,0l208.95 -0.43c2.79,-0.01 5.04,-2.27 5.04,-5.06l-0.29 -138.43c-0.01,-2.78 -2.26,-5.04 -5.05,-5.04z"
               class="fil3" /></g><path
             id="path23"
             d="M31.98 163.94l-24.23 0.05c-1.07,0 -1.94,-0.86 -1.94,-1.93l-0 -0.24c0,-1.07 0.86,-1.94 1.93,-1.94l24.23 -0.05c1.07,-0 1.94,0.86 1.94,1.93l0 0.24c0,1.07 -0.86,1.94 -1.93,1.94z"
             class="fil2" /><path
             id="path25"
             d="M29.07 70.15l-20.63 0.04c-1.96,0.01 -3.55,-1.58 -3.56,-3.54l-0.04 -20.62c-0,-1.96 1.58,-3.55 3.54,-3.56l20.63 -0.04c1.96,-0.01 3.55,1.58 3.55,3.54l0.04 20.63c0.01,1.96 -1.58,3.55 -3.54,3.55z"
             class="fil2" /><path
             id="path27"
             d="M117.37 131.94l-71.86 0.15c-1.4,0 -2.53,-1.13 -2.54,-2.52l0 -0.31c-0,-1.4 1.13,-2.53 2.52,-2.54l71.86 -0.15c1.4,-0 2.53,1.13 2.54,2.52l0 0.31c0,1.4 -1.13,2.53 -2.52,2.53z"
             class="fil4" /><path
             id="path29"
             d="M113.21 50.06l-56.79 0.12c-1.4,0 -2.53,-1.12 -2.53,-2.52l0 -0.31c-0.01,-1.4 1.12,-2.53 2.52,-2.53l56.79 -0.12c1.4,-0.01 2.53,1.12 2.53,2.52l0 0.31c0,1.4 -1.13,2.53 -2.52,2.53z"
             class="fil4" /><path
             id="path31"
             d="M202.98 107.5l-75.71 0.16c-1.4,0 -2.53,-1.13 -2.53,-2.52l0 -0.31c-0,-1.4 1.13,-2.53 2.52,-2.53l75.71 -0.16c1.4,-0 2.53,1.13 2.53,2.52l0 0.31c0.01,1.4 -1.12,2.53 -2.52,2.54z"
             class="fil4" /><path
             id="path33"
             d="M117.39 143.04l-71.86 0.15c-1.4,0 -2.53,-1.13 -2.53,-2.52l0 -0.31c-0,-1.4 1.13,-2.53 2.52,-2.53l71.86 -0.15c1.4,-0 2.53,1.13 2.53,2.52l0 0.31c0,1.4 -1.13,2.53 -2.52,2.53z"
             class="fil4" /><path
             id="path35"
             d="M117.41 154.14l-71.86 0.15c-1.4,0 -2.53,-1.12 -2.53,-2.52l0 -0.31c-0,-1.4 1.13,-2.53 2.52,-2.53l71.86 -0.15c1.4,-0.01 2.53,1.12 2.53,2.52l0 0.31c0.01,1.4 -1.12,2.53 -2.52,2.53z"
             class="fil4" /><path
             id="path37"
             d="M201.45 161.38l-72.42 0.15c-2.31,0.01 -4.18,-1.86 -4.18,-4.17l-0.07 -31.1c-0.01,-2.31 1.86,-4.18 4.17,-4.19l72.42 -0.15c2.31,-0.01 4.18,1.86 4.18,4.17l0.07 31.1c0.01,2.31 -1.86,4.18 -4.17,4.19z"
             class="fil4" /><path
             id="path39"
             d="M12.13 31.02c0,0.98 -0.79,1.77 -1.77,1.77 -0.98,0 -1.77,-0.79 -1.77,-1.76 -0,-0.98 0.79,-1.77 1.76,-1.78 0.98,-0 1.77,0.79 1.78,1.77z"
             class="fil4" /><path
             id="path41"
             d="M19.62 31.01c0,0.98 -0.79,1.77 -1.77,1.78 -0.98,0 -1.77,-0.79 -1.77,-1.77 -0,-0.98 0.79,-1.77 1.77,-1.78 0.98,-0 1.77,0.79 1.77,1.77z"
             class="fil4" /><path
             id="path43"
             d="M27.11 30.99c0,0.98 -0.79,1.77 -1.77,1.78 -0.98,0 -1.77,-0.79 -1.78,-1.77 0,-0.98 0.79,-1.77 1.77,-1.78 0.98,-0 1.77,0.79 1.78,1.77z"
             class="fil4" /><path
             id="path45"
             d="M51.14 47.51c0.01,2.83 -2.28,5.12 -5.11,5.13 -2.83,0.01 -5.12,-2.28 -5.13,-5.11 -0.01,-2.83 2.28,-5.12 5.11,-5.13 2.83,-0.01 5.12,2.28 5.13,5.11z"
             class="fil4" /><path
             id="path47"
             d="M30.5 74.48l-22.67 0.05c-0.53,0 -0.96,-0.42 -0.96,-0.95l0 -0.12c-0,-0.53 0.42,-0.96 0.95,-0.96l22.67 -0.05c0.53,-0 0.96,0.42 0.96,0.95l0 0.12c0,0.53 -0.43,0.96 -0.95,0.96z"
             class="fil2" /><path
             id="path49"
             d="M30.51 78.81l-22.67 0.05c-0.53,0 -0.95,-0.42 -0.96,-0.95l0 -0.12c0,-0.53 0.42,-0.96 0.95,-0.96l22.67 -0.05c0.53,-0 0.96,0.42 0.96,0.95l0 0.12c0,0.53 -0.42,0.96 -0.95,0.96z"
             class="fil2" /><path
             id="path51"
             d="M56.47 87.96l-6.41 0.07 0.05 26.86 -5.53 0.01c-1.95,0 -3.54,-1.58 -3.54,-3.53l-0.1 -49.67c-0,-1.97 1.59,-3.58 3.57,-3.58l11.91 -0.03 0.07 29.87z"
             class="fil4" /><g
             id="g55"><path
               id="path53"
               d="M98.06 58.01l0 0.69c1.91,0 3.47,1.56 3.48,3.47l0.1 48.43c0.01,1.92 -1.55,3.48 -3.47,3.49l-52.96 0.11c-1.91,0 -3.47,-1.56 -3.48,-3.47l-0.1 -48.43c-0.01,-1.92 1.55,-3.48 3.47,-3.49l52.96 -0.11 0.01 -0.69zm0 0l0 0c-0.01,0 -0.01,0 -0.01,0l-52.95 0.11c-2.31,0.01 -4.17,1.88 -4.17,4.18l0.1 48.43c0.01,2.3 1.87,4.17 4.17,4.17 0,0 0.01,0 0.01,0l52.95 -0.11c2.31,-0.01 4.17,-1.88 4.17,-4.18l-0.1 -48.43c-0,-2.3 -1.87,-4.17 -4.17,-4.17z"
               class="fil0" /></g></g><path
           id="path59"
           d="M186.49 97.87l-70.64 -15.96c-2.25,-0.51 -3.66,-2.74 -3.15,-4.99l7.95 -35.16c0.51,-2.25 2.74,-3.66 4.99,-3.15l70.64 15.96c2.25,0.51 3.66,2.74 3.15,4.99l-7.95 35.16c-0.51,2.25 -2.75,3.66 -4.99,3.15z"
           class="fil4" /><g
           id="g69"><polygon
             id="polygon61"
             points="49.78,193.49 39.9,193.51 37.48,180.92 52.15,180.89 "
             class="fil5" /><path
             id="path63"
             d="M40.22 180.92c0,1.03 -0.2,2.75 0.49,2.78 0.68,0.03 0.4,-1.64 1.18,-1.59 0.5,0.03 -0.23,5.47 1.65,5.6 1.29,0.09 1.06,-2.67 1.19,-4.4 0.09,-1.17 1.59,-0.94 1.6,-0.17 0.01,0.87 -0.04,1.44 0,2.43 0.07,1.64 2.6,1.21 2.51,-0.99 -0.09,-2.2 -0.01,-3.68 -0.01,-3.68l-8.61 0.02z"
             class="fil0" /><g
             id="g67"><path
               id="path65"
               d="M37.85 188.52c-0.2,0 -0.4,-0.02 -0.59,-0.06 -0.73,-0.16 -1.24,-0.54 -1.52,-1.14 -1.01,-2.13 1.65,-6.14 1.75,-6.32l0.14 0.72c-0.03,0.04 -2.33,3.48 -1.43,5.4 0.22,0.46 0.6,0.74 1.17,0.87 0.16,0.03 0.33,0.05 0.5,0.05 3.56,-0.01 9.65,-6.64 9.71,-6.72 0.25,-0.3 0.71,-0.02 0.55,0.23 -0.28,0.32 -6.46,6.95 -10.29,6.96z"
               class="fil6" /></g></g><g
           id="g85"><path
             id="path71"
             d="M141.72 16.31c-14.05,-0.54 -33.39,9.85 -26.53,35.26 -0.15,2.15 1.13,3.68 2.5,3.26 1.37,-0.42 0.16,-4.49 0.16,-4.49 2.34,-18.89 6.71,-22.15 14.14,-22.08l17.42 -0.04c4.31,0.64 12.13,3.65 13.31,18.77l4.34 0.8c0.34,-10.92 -2.31,-30.59 -25.35,-31.47z"
             class="fil1" /><path
             id="path73"
             d="M141.72 14.1c-14.05,-0.54 -33.39,9.85 -26.53,35.26l2.67 -1.23c2.34,-18.89 6.71,-22.15 14.14,-22.08l17.42 -0.04c4.31,0.64 12.34,4.46 13.52,19.57l4.13 -0.01c0.34,-10.92 -2.31,-30.59 -25.35,-31.47z"
             class="fil7" /><path
             id="path75"
             d="M138.84 14.52l-2.09 4.59c0,0 0.25,2.58 2.78,2.53 2.54,-0.05 2.87,-1.22 2.87,-1.22l0.33 -5.27 -3.9 -0.63z"
             class="fil8" /><path
             id="path77"
             d="M149.57 10.69c-2.38,4.2 -3.43,5.51 -6.54,6.14 -4.03,0.82 -8.54,-1.9 -6.44,-8.59 1.71,-5.46 4.3,-4.62 6.84,-4.41 2.54,0.21 8.72,2.32 6.14,6.86z"
             class="fil8" /><path
             id="path79"
             d="M140.11 7.37c-0.63,-0.33 -1.44,-0.05 -1.94,0.47 -0.5,0.53 -0.75,1.33 -0.53,2.03 -0.97,0.01 -1.83,0.97 -1.74,1.94 -0.66,-1.55 -0.3,-3.16 -0.44,-4.75 -0.13,-1.59 0.04,-3.32 1.07,-4.53 0.42,-0.5 0.97,-0.88 1.54,-1.19 2.19,-1.16 4.94,-1.2 7.17,-0.1 0.46,0.23 1.61,0.96 3.22,0.56 3.07,-0.74 4.86,1.34 3.02,3.28 0.59,0.22 1.24,0.48 1.51,1.05 0.07,0.15 0.1,0.33 0.01,0.46 -0.06,0.09 -0.17,0.14 -0.28,0.17 -0.52,0.17 -1.08,0.22 -1.61,0.13 0.21,0.18 1.35,0.24 1.69,0.91 0.91,1.76 -2.71,0.87 -3.26,0.7 0.63,0.12 2.29,1.44 1.76,2.35 -0.1,0.18 -2.34,1.48 -4.69,-1.25 -0.54,-0.64 -1.23,-1.22 -2.04,-1.44 -0.64,-0.17 -1.3,0.07 -1.92,0.3 -0.45,0.17 -1.59,0.87 -1.92,0.45 -0.36,-0.46 0.1,-1.16 -0.63,-1.52z"
             class="fil6" /><path
             id="path81"
             d="M163.38 45.58c-0.62,2.14 -1.25,2.36 -0.5,2.7 0.76,0.34 1.37,-0.86 1.37,-0.86l3.48 0.69c0,0 -0.79,-2.26 -1.34,-2.54 -0.55,-0.27 -3.02,0.01 -3.02,0.01z"
             class="fil8" /><path
             id="path83"
             d="M117.85 48.13c0.46,1.13 0.58,1.14 1.22,2.5 1.21,2.6 -1.63,6.7 -3.39,2.22 -0.48,-1.23 -0.49,-3.49 -0.49,-3.49l2.67 -1.23z"
             class="fil8" /></g><g
           id="g97"><g
             id="g95"><path
               id="path87"
               d="M145.07 1.6c2.38,0.13 5.31,-1.55 7.18,0.61 0.17,0.2 0.52,-0.07 0.36,-0.28 -1.78,-2.56 -5.09,-0.66 -7.55,-0.72 -0.26,-0.01 -0.25,0.38 0,0.4z"
               class="fil6" /><path
               id="path89"
               d="M146.03 0.28c-1.63,0.28 -3.2,-0.48 -4.83,-0.23 -1.33,0.21 -2.51,0.89 -3.51,1.76 -0.26,0.22 0.08,0.66 0.36,0.47 1.4,-0.92 2.75,-1.72 4.5,-1.59 1.27,0.09 2.35,0.47 3.61,0.09 0.33,-0.1 0.19,-0.56 -0.14,-0.5z"
               class="fil6" /><path
               id="path91"
               d="M136.77 2.5c-1.15,0.71 -1.81,1.67 -1.94,3.04 -0.1,0.98 -0.13,3.25 0.87,3.8 0.24,0.14 0.49,-0.18 0.29,-0.38 -0.64,-0.65 -0.69,-2.39 -0.65,-3.21 0.07,-1.26 0.6,-2.22 1.6,-2.97 0.16,-0.12 0.02,-0.39 -0.16,-0.28z"
               class="fil6" /><path
               id="path93"
               d="M154.39 6.42c-0.59,-1.02 -2.1,-1.93 -3.26,-1.28 -0.18,0.1 -0.1,0.38 0.1,0.39 0.51,0.01 0.97,-0.06 1.47,0.1 0.56,0.17 1.03,0.5 1.37,0.98 0.13,0.19 0.43,0.02 0.31,-0.18z"
               class="fil6" /></g></g><g
           id="g131"><path
             id="path99"
             d="M77.11 112.35c7.37,2.7 13.76,11.16 12.3,17.3 -1.66,6.94 -6.44,9.93 -6.44,9.93l-1.51 -2.78c0,0 3.83,-5.98 3.49,-8.81 -0.53,-4.52 -6.24,-7.55 -6.24,-7.55l-1.59 -8.09z"
             class="fil9" /><path
             id="path101"
             d="M58.98 190.63c0,0 -4.52,1.83 -5.65,2.86l8.96 -0.02 -0.01 -2.85 -3.3 0.01z"
             class="fil6" /><path
             id="path103"
             d="M78.78 190.46c0,0 1.29,1.49 1.52,2.98l-6.11 0.01c0.1,-1.03 0.54,-2.02 1.14,-2.99l3.45 -0.01z"
             class="fil6" /><path
             id="path105"
             d="M79.15 190.59l-4.17 0.01c0.08,-4.92 -0.93,-21.67 -1.91,-34.2 -0.58,-7.35 -1.15,-13.25 -1.48,-14.44l2.24 -0.49 8.44 -1.87c1.44,6.6 -1.89,36.89 -3.11,51.01z"
             class="fil10" /><path
             id="path107"
             d="M63.81 141.69c-3.25,5.13 -4.1,42.18 -5.46,49.05l3.96 0.23c0,0 4.54,-23.36 14.23,-49.63l-12.73 0.35z"
             class="fil11" /><path
             id="path109"
             d="M78.2 141.33c-1.91,5.19 -3.62,10.26 -5.14,15.06 -0.58,-7.35 -1.15,-13.25 -1.48,-14.44l2.24 -0.49 4.38 -0.12z"
             class="fil1" /><path
             id="path111"
             d="M63.81 141.69c-3.25,5.13 -4.1,42.18 -5.46,49.05l3.96 0.23c0,0 4.54,-23.36 14.23,-49.63l-12.73 0.35z"
             class="fil11" /><path
             id="path113"
             d="M66.3 100.32c0,0 -2.53,9.66 3.8,9.64l-0.38 2.47 4.81 0.53 -1.04 -3.44c0,0 0.95,-6.07 1.02,-7.17 0.12,-2.05 -5.62,-5.66 -8.2,-2.03z"
             class="fil8" /><g
             id="g119"><polygon
               id="polygon115"
               points="50.66,97.38 48.79,97.38 48.78,89.5 50.64,89.5 "
               class="fil6" /><path
               id="path117"
               d="M55.07 89.49l-10.71 0.02c-0.75,0 -1.36,-0.6 -1.36,-1.35l0 -0.28c-0,-0.75 0.6,-1.36 1.35,-1.36l10.71 -0.02c0.75,-0 1.36,0.6 1.36,1.35l0 0.28c0,0.75 -0.61,1.36 -1.35,1.36z"
               class="fil5" /></g><path
             id="path121"
             d="M48.27 99.44c-0.05,-1.79 -1.53,-1.32 -0.71,-4.23 0.5,-1.8 4.23,0.29 3.76,1.54 -0.46,1.25 -1,3.23 -1,3.23l-2.05 -0.53z"
             class="fil8" /><path
             id="path123"
             d="M70.14 111.86c-9.47,0.63 -10.09,3.82 -14.33,3.32 -6.27,-0.74 -5.17,-12.38 -4.4,-16.56l-3.75 0.01c0,0 -6.75,26.52 14.57,21.62 -0.82,4.65 4.48,12.24 -0.66,21.44 8.09,2.2 15.64,2.74 22.11,-0.04 -1.13,-1.53 2.32,-16.94 -4.44,-28.03 -1.32,-2.17 -8.42,-1.8 -9.12,-1.76z"
             class="fil5" /><path
             id="path125"
             d="M70.14 111.86c-9.47,0.63 -10.09,3.82 -14.33,3.32 -6.27,-0.74 -5.17,-12.38 -4.4,-16.56l-3.75 0.01c0,0 -6.75,26.52 14.57,21.62 -0.82,4.65 4.48,12.24 -0.66,21.44 8.09,2.2 15.64,2.74 22.11,-0.04 -1.13,-1.53 2.32,-16.94 -4.44,-28.03 -1.32,-2.17 -8.42,-1.8 -9.12,-1.76z"
             class="fil5" /><path
             id="path127"
             d="M68.83 102.17c0.62,0.16 1.34,0.28 1.67,0.8 0.21,0.34 0.2,0.76 0.18,1.16 0.11,-0.41 0.58,-0.71 1.02,-0.66 0.45,0.05 0.82,0.45 0.83,0.87 0,0.2 -0.06,0.4 -0.14,0.59 -0.18,0.47 -0.42,0.92 -0.7,1.34 0.77,0.28 1.42,2.55 1.81,3.25 1.3,-0.33 4.19,-1.44 4.45,-6.05 0.12,-2.14 -0.54,-4.71 -2.86,-6.14 -1.64,-1.01 -4.37,-1.02 -6.25,-0.54 -1.53,0.39 -3.96,1.91 -2.83,3.7 0.57,0.9 1.83,1.43 2.84,1.69z"
             class="fil7" /><path
             id="path129"
             d="M76.94 99.24c0.88,-0.29 2,-0.14 2.53,0.6 0.41,0.58 0.38,1.33 0.51,2.01 0.07,0.33 0.18,0.67 0.44,0.9 0.3,0.27 0.75,0.34 1.17,0.36 1.02,0.05 2.05,-0.07 3.06,0.1 1,0.17 2.03,0.74 2.32,1.68 0.16,0.52 0.07,1.09 0.26,1.6 0.29,0.77 1.1,1.2 1.81,1.64 1.51,0.94 2.79,2.22 3.72,3.7 0.59,0.94 1.04,1.98 1.11,3.07 0.07,1.09 0.86,2.53 0.65,3.61 -0.22,1.16 -1.36,2.73 -3.62,3.45 -3.89,1.25 -5.12,1.8 -8.85,-0.42 -0.45,-0.27 -1.33,-1.18 -1.74,-1.5 -0.32,-0.26 -0.52,-0.62 -0.63,-1.01 -0.31,-1.07 0.05,-2.22 0.61,-3.2 0.56,-0.97 1.31,-1.83 1.88,-2.8 0.34,-0.58 0.62,-1.23 0.59,-1.89 -0.01,-0.25 -0.08,-0.51 -0.26,-0.69 -0.16,-0.16 -0.38,-0.23 -0.6,-0.27 -0.82,-0.16 -1.72,0.01 -2.46,-0.36 -0.72,-0.36 -1.12,-1.23 -0.9,-1.98 0.15,-0.5 0.53,-0.92 0.64,-1.43 0.15,-0.73 -0.3,-1.49 -0.94,-1.92 -0.64,-0.43 -1.42,-0.6 -2.19,-0.72 -0.38,-0.06 -0.78,-0.12 -1.08,-0.34 -0.38,-0.27 -0.55,-0.75 -0.55,-1.21 0.02,-1.44 1.19,-2.51 2.55,-2.97z"
             class="fil7" /></g><g
           id="g137"><g
             id="g135"><path
               id="path133"
               d="M76.24 103.12c4.68,1.01 -1.23,5.45 1.25,7.57 0.71,0.6 1.53,0.41 2.36,0.53 3.18,0.44 1.44,2.6 1.23,4.29 -0.03,0.26 0.39,0.31 0.45,0.06 0.27,-1.17 1.34,-2.6 0.79,-3.84 -0.49,-1.1 -1.69,-0.97 -2.69,-1 -1.24,-0.04 -2.61,0 -2.14,-2.47 0.1,-0.55 0.54,-1.11 0.75,-1.62 0.25,-0.6 0.41,-1.19 0.28,-1.84 -0.23,-1.1 -1.15,-1.75 -2.2,-1.93 -0.16,-0.03 -0.23,0.21 -0.07,0.24z"
               class="fil7" /></g></g><g
           id="g143"><g
             id="g141"><path
               id="path139"
               d="M66.59 97.39c3.61,-1.83 7.21,-1.47 10.26,1.22 0.21,0.18 0.49,-0.1 0.3,-0.3 -2.68,-3.01 -7.43,-3.54 -10.66,-1.09 -0.1,0.07 -0.02,0.23 0.1,0.17z"
               class="fil7" /></g></g><g
           id="g167"><polygon
             id="polygon145"
             points="187.89,108.72 186.32,111.86 190.15,113.43 190.56,109.8 "
             class="fil8" /><path
             id="path147"
             d="M190.2 98.47c-8.67,3.78 -5.12,12.93 0.16,11.85 2.57,-0.52 3.87,-8.8 3.87,-8.8l-4.03 -3.05z"
             class="fil8" /><path
             id="path149"
             d="M193.08 97.17c-0.29,-0.53 -0.55,-1.1 -1.03,-1.47 -0.47,-0.38 -1.22,-0.5 -1.66,-0.09 -0.58,0.54 -0.24,1.56 0.35,2.09 -0.51,0.06 -1.11,-0.29 -1.49,0.06 -0.28,0.27 -0.18,0.73 -0.02,1.09 0.38,0.83 1.01,1.54 1.78,2.04 -0.44,0.25 -0.95,0.73 -0.69,1.17 0.07,0.12 0.2,0.2 0.27,0.32 0.17,0.28 0.01,0.64 -0.16,0.92 -0.27,0.45 -0.57,0.89 -0.88,1.31 0.3,-0.41 1.03,-0.24 1.24,0.21 0.22,0.46 0.03,1.02 -0.31,1.4 -0.19,0.21 -0.43,0.39 -0.7,0.45 -0.24,0.05 -1.29,3.31 -0.47,3.94 1.01,0.79 4.46,0.1 4.96,-0.79 0.5,0.54 1.23,0.95 1.95,0.81 0.72,-0.14 1.27,-1.03 0.88,-1.66 0.78,0.29 1.73,0.03 2.26,-0.6 0.53,-0.64 0.61,-1.62 0.19,-2.33 0.42,-0.13 0.51,-0.71 0.4,-1.13 -0.22,-0.87 -0.93,-1.6 -1.79,-1.85 0.44,0.01 0.79,-0.43 0.81,-0.87 0.02,-0.44 -0.21,-0.85 -0.48,-1.19 -0.81,-1 -1.78,-1.27 -2.98,-1.43 -1.22,-0.15 -1.88,-1.39 -2.42,-2.39z"
             class="fil12" /><path
             id="path151"
             d="M184.95 190.03c0,0 -5.08,2.44 -5.76,3.2 0,0 9.99,0.45 10.77,-0.02 0.78,-0.47 -1.6,-3.18 -1.6,-3.18l-3.41 0.01z"
             class="fil6" /><path
             id="path153"
             d="M203.83 187.28c0,0 -4.46,3.43 -4.97,4.32 0,0 10.53,-1.56 10.53,-2.25 0,-0.69 -2.22,-2.78 -2.22,-2.78l-3.34 0.71z"
             class="fil6" /><path
             id="path155"
             d="M189.86 142.97c-0.19,1.03 -7.14,28.47 12.75,44.91l5.76 -1.32c0,0 -6.7,-6.29 -9.86,-17.6 -2.99,-10.7 -0.62,-11.75 1.18,-17.64 1.98,-6.52 0.51,-11.26 0.51,-11.26l-10.33 2.91z"
             class="fil13" /><path
             id="path157"
             d="M180.35 142.89c-3.15,7.53 -8.56,33.21 3.23,47.66l5.89 -0.01c0,0 -4.64,-5.08 -5.16,-16.88 -0.52,-11.8 2.48,-16.98 4.6,-20.87 2.11,-3.89 4.07,-10.51 4.07,-10.51l-12.63 0.61z"
             class="fil7" /><path
             id="path159"
             d="M176.2 96.19c-1.56,5.52 -2.08,15.71 5.76,19.81l5.25 -1.28c0,0 -9.46,-4.96 -7.43,-17.49l-3.57 -1.05z"
             class="fil9" /><path
             id="path161"
             d="M161.75 93.36l4.07 -0.5c0,0 -0.49,17.1 19.26,18.54 15.07,1.1 16.26,29.39 16.26,29.39 -4.86,3.27 -13.02,4.27 -23.47,3.51 0,0 0.67,-20.18 -0.99,-25.7 0,0 -16.41,-5.16 -15.13,-25.23z"
             class="fil5" /><path
             id="path163"
             d="M156.77 90.26c-0.69,0.8 2.19,1.81 4.98,3.11l3.57 -0.44c0,0 0.04,-0.72 -0,-1.46 -0.05,-0.74 -0.42,-1.17 -0.84,-0.53 -0.42,0.64 -2.23,0.85 -3.08,0.27 -0.85,-0.58 -3.94,-1.74 -4.62,-0.95z"
             class="fil8" /><path
             id="path165"
             d="M176.2 96.19c-1.31,-1.29 -0.96,-1.21 -0.96,-1.21l3.99 0.9c0,0 0.88,-1.95 1.62,-2 0.74,-0.05 -0.56,1.35 -0.26,1.86 0.3,0.52 -0.82,1.5 -0.82,1.5l-3.57 -1.05z"
             class="fil8" /></g><g
           id="g173"><g
             id="g171"><path
               id="path169"
               d="M195.32 99.05c0.82,0.21 1.66,0.29 2.33,0.85 0.67,0.55 0.98,1.5 0.49,2.28 -0.23,0.36 0.31,0.65 0.56,0.33 0.62,-0.81 0.45,-1.93 -0.17,-2.69 -0.72,-0.88 -2.06,-1.25 -3.16,-1.13 -0.2,0.02 -0.27,0.31 -0.05,0.37z"
               class="fil12" /></g></g><g
           id="g179"><g
             id="g177"><path
               id="path175"
               d="M198.93 106.46c0.54,0.32 1,0.84 0.77,1.5 -0.21,0.62 -0.84,0.99 -1.35,1.34 -0.24,0.17 -0.03,0.54 0.24,0.4 0.75,-0.4 1.54,-0.96 1.66,-1.87 0.1,-0.8 -0.43,-1.4 -1.1,-1.76 -0.24,-0.13 -0.46,0.23 -0.22,0.37z"
               class="fil12" /></g></g><g
           id="g185"><g
             id="g183"><path
               id="path181"
               d="M189.81 110.6c1.84,1.15 4.44,0.96 5.96,-0.65 0.19,-0.2 -0.07,-0.57 -0.3,-0.4 -1.66,1.23 -3.55,1.63 -5.51,0.79 -0.17,-0.07 -0.32,0.15 -0.15,0.26z"
               class="fil12" /></g></g><g
           id="g191"><g
             id="g189"><path
               id="path187"
               d="M199.17 100.26c1.06,1 0,2.38 -0.68,3.24 -0.15,0.19 0.09,0.45 0.27,0.27 0.6,-0.56 1.21,-1.18 1.29,-2.05 0.06,-0.65 -0.21,-1.27 -0.79,-1.59 -0.08,-0.04 -0.16,0.06 -0.1,0.12z"
               class="fil12" /></g></g></g></g></g></svg>