<?xml version="1.0" encoding="UTF-8" standalone="no"?>
<svg
   xmlns:dc="http://purl.org/dc/elements/1.1/"
   xmlns:cc="http://creativecommons.org/ns#"
   xmlns:rdf="http://www.w3.org/1999/02/22-rdf-syntax-ns#"
   xmlns:svg="http://www.w3.org/2000/svg"
   xmlns="http://www.w3.org/2000/svg"
   id="svg73"
   viewBox="0 0 92.290008 130.15607"
   style="clip-rule:evenodd;fill-rule:evenodd;image-rendering:optimizeQuality;shape-rendering:geometricPrecision;text-rendering:geometricPrecision"
   version="1.1"
   height="7.6197696mm"
   width="5.4029007mm"
   xml:space="preserve"><metadata
   id="metadata77"><rdf:RDF><cc:Work
       rdf:about=""><dc:format>image/svg+xml</dc:format><dc:type
         rdf:resource="http://purl.org/dc/dcmitype/StillImage" /></cc:Work></rdf:RDF></metadata>
 <defs
   id="defs4">
  <style
   id="style2"
   type="text/css">
   <![CDATA[
    .fil1 {fill:#0082A6;fill-rule:nonzero}
    .fil4 {fill:#12BDEB;fill-rule:nonzero}
    .fil0 {fill:#336699;fill-rule:nonzero}
    .fil5 {fill:#3B455A;fill-rule:nonzero}
    .fil8 {fill:#7DB5DB;fill-rule:nonzero}
    .fil12 {fill:#B3B3B3;fill-rule:nonzero}
    .fil3 {fill:#BBCAD6;fill-rule:nonzero}
    .fil7 {fill:#CC3300;fill-rule:nonzero}
    .fil11 {fill:#E5D1BD;fill-rule:nonzero}
    .fil2 {fill:#E6E6E6;fill-rule:nonzero}
    .fil13 {fill:#EACDB0;fill-rule:nonzero}
    .fil10 {fill:#FF6600;fill-rule:nonzero}
    .fil6 {fill:#FFCC00;fill-rule:nonzero}
    .fil9 {fill:white;fill-rule:nonzero}
   ]]>
  </style>
 </defs>
 <g
   transform="translate(-0.00623594,-9.9999611e-4)"
   id="Camada_x0020_1">
  <metadata
   id="CorelCorpID_0Corel-Layer" />
  <g
   id="_4672486192">
   <path
   style="fill:#336699;fill-rule:nonzero"
   id="path7"
   d="M 54.12,57.88 C 53.95,57.68 54.4,43.34 54.4,43.34 L 68.16,31.5 67.08,48.16 54.13,57.87 Z"
   class="fil0" />
   <path
   style="fill:#0082a6;fill-rule:nonzero"
   id="path9"
   d="m 58.32,52.41 c 2.88,-2.22 10.28,-7.52 14.74,-7.87 -1.02,4.36 -7.36,10.88 -9.99,13.4 -0.93,0.89 -1.91,1.65 -2.9,2.25 l -8.26,5.05 c -1.34,0.07 -2.76,-1.57 -2.49,-2.89 l 6.23,-7.41 c 0.75,-0.89 1.64,-1.75 2.66,-2.53 z"
   class="fil1" />
   <path
   style="fill:#e6e6e6;fill-rule:nonzero"
   id="path11"
   d="m 52.64,62.78 c 0.39,0.42 0.82,0.86 1.29,1.24 l -1.99,1.21 C 50.6,65.3 49.18,63.66 49.45,62.34 L 51,60.49 c 0.38,0.85 1,1.61 1.63,2.28 z"
   class="fil2" />
   <path
   style="fill:#bbcad6;fill-rule:nonzero"
   id="path13"
   d="m 54.23,48.9 v -0.1 c 0,0.03 0,0.07 0,0.1 z m 13.31,-8.05 0.06,-1.01 v 0 z"
   class="fil3" />
   <path
   style="fill:#336699;fill-rule:nonzero"
   id="path15"
   d="m 30.28,30.18 c 0.17,0.2 14.42,1.9 14.42,1.9 L 58.46,20.24 41.82,18.82 30.28,30.17 Z"
   class="fil0" />
   <path
   style="fill:#0082a6;fill-rule:nonzero"
   id="path17"
   d="m 36.32,26.84 c 2.63,-2.52 8.97,-9.04 9.99,-13.4 -4.46,0.36 -11.86,5.65 -14.74,7.87 -1.02,0.78 -1.91,1.64 -2.66,2.53 l -6.23,7.41 c -0.27,1.32 1.14,2.96 2.49,2.89 l 8.26,-5.05 c 0.99,-0.6 1.98,-1.36 2.9,-2.25 z"
   class="fil1" />
   <path
   style="fill:#e6e6e6;fill-rule:nonzero"
   id="path19"
   d="m 25.22,30.91 c -0.36,-0.45 -0.73,-0.94 -1.03,-1.46 l -1.5,1.78 c -0.27,1.32 1.14,2.96 2.49,2.89 l 2.06,-1.26 C 26.46,32.35 25.8,31.63 25.22,30.91 Z"
   class="fil2" />
   <path
   style="fill:#bbcad6;fill-rule:nonzero"
   id="path21"
   d="M 39.28,31.42 39.17,31.4 c 0.04,0.01 0.08,0.01 0.11,0.02 z M 50.13,19.53 49.12,19.44 v 0 z"
   class="fil3" />
   <polygon
   style="fill:#0082a6;fill-rule:nonzero"
   id="polygon23"
   points="44.39,48.71 36.61,39.67 34.42,41.56 42.19,50.6 "
   class="fil1" />
   <polygon
   style="fill:#e6e6e6;fill-rule:nonzero"
   id="polygon25"
   points="42.64,50.76 34.43,41.22 31.67,42.45 41.01,53.3 "
   class="fil2" />
   <path
   style="fill:#12bdeb;fill-rule:nonzero"
   id="path27"
   d="m 59.99,9.36 c 6.7,-4.49 14.42,-7.49 22.36,-8.89 3.02,-0.53 7.17,-0.68 9.92,-0.09 0.18,2.8 -0.59,6.88 -1.57,9.79 C 88.14,17.81 84.02,25 78.57,30.95 72.78,37.28 65.31,41.33 58.44,46.3 55.06,48.74 51.68,51.18 48.3,53.62 L 40.67,44.76 33.05,35.9 c 2.92,-2.98 5.84,-5.95 8.76,-8.93 C 47.75,20.91 52.88,14.13 60,9.35 Z"
   class="fil4" />
   <path
   style="fill:#3b455a;fill-rule:nonzero"
   id="path29"
   d="m 30.37,42.21 10.59,12.3 c 0.11,0.13 0.3,0.14 0.42,0.03 l 0.32,-0.28 c 0.12,-0.11 0.14,-0.3 0.03,-0.42 L 31.15,41.54 c -0.11,-0.13 -0.3,-0.14 -0.42,-0.03 l -0.32,0.28 c -0.12,0.11 -0.14,0.3 -0.03,0.42 z"
   class="fil5" />
   <polygon
   style="fill:#336699;fill-rule:nonzero"
   id="polygon31"
   points="34.96,41.09 43.79,49.23 44.2,48.88 36.42,39.84 "
   class="fil0" />
   <polygon
   style="fill:#0082a6;fill-rule:nonzero"
   id="polygon33"
   points="37.42,31.54 53.11,50.08 48.35,53.7 33.1,35.97 "
   class="fil1" />
   <path
   style="fill:#ffcc00;fill-rule:nonzero"
   id="path35"
   d="m 25.16,48.06 c 0.58,-0.37 1.2,-0.67 1.85,-0.88 2.06,-0.65 4.34,-0.45 5.95,0.84 0.03,0.02 0.06,0.04 0.09,0.06 1.39,1.04 2.43,2.43 2.99,4.04 0.13,0.33 0.23,0.67 0.28,1.02 0.12,0.61 0.18,1.24 0.16,1.89 -0.02,0.7 -0.15,1.42 -0.44,2.08 -0.29,0.65 -0.74,1.25 -1.23,1.78 -1.71,1.87 -3.87,3.16 -6.03,4.16 -1.06,0.49 -2.14,0.91 -3.19,1.32 -0.53,0.2 -1.06,0.38 -1.58,0.6 -0.19,0.08 -1.19,0.41 -1.23,0.56 0,0 0.25,-0.97 0.48,-2.98 -2.1,0.97 -4.03,1.77 -6.57,2.48 0,0 1.7,-3.38 3.29,-5.85 -1.29,0.19 -3.31,0.82 -4.8,1.38 0.15,-0.05 0.37,-0.56 0.46,-0.69 1.29,-1.92 2.67,-3.88 4.15,-5.89 1.51,-2.04 3.06,-4.43 5.38,-5.92 z"
   class="fil6" />
   <path
   style="fill:#cc3300;fill-rule:nonzero"
   id="path37"
   d="m 27.26,50.13 c 0.33,-0.21 0.68,-0.38 1.05,-0.5 1.17,-0.36 2.46,-0.24 3.38,0.49 0.02,0.01 0.04,0.02 0.05,0.04 0.79,0.59 1.38,1.38 1.69,2.29 0.07,0.19 0.13,0.38 0.16,0.58 0.07,0.35 0.1,0.71 0.09,1.07 -0.01,0.4 -0.08,0.8 -0.25,1.18 -0.16,0.37 -0.42,0.71 -0.7,1.02 -0.97,1.07 -2.2,1.81 -3.43,2.38 -0.61,0.28 -1.22,0.53 -1.83,0.76 -0.3,0.12 -0.61,0.22 -0.9,0.35 -0.11,0.05 -0.68,0.24 -0.71,0.32 0,0 0.15,-0.56 0.28,-1.71 -1.21,0.56 -2.32,1.02 -3.78,1.44 0,0 0.99,-1.94 1.9,-3.37 -0.62,0.09 -1.54,0.36 -2.32,0.64 C 21.8,57.16 21.68,57 21.76,56.87 v 0 c 0.75,-1.1 1.54,-2.23 2.4,-3.38 0.87,-1.16 1.75,-2.52 3.08,-3.36 z"
   class="fil7" />
   <path
   style="fill:#7db5db;fill-rule:nonzero"
   id="path39"
   d="m 53.93,64.02 c 0,0 -2.6,-2.27 -2.92,-3.52 l 0.78,-0.95 c 0,0 1.59,2.47 3.26,3.79 l -1.12,0.69 z"
   class="fil8" />
   <path
   style="fill:#ffffff;fill-rule:nonzero"
   id="path41"
   d="m 63.11,13.56 c -3.58,3.08 -3.99,8.49 -0.91,12.07 3.08,3.58 8.49,3.99 12.07,0.91 3.58,-3.08 3.99,-8.49 0.91,-12.07 -3.08,-3.58 -8.49,-3.99 -12.07,-0.91 z"
   class="fil9" />
   <path
   style="fill:#ff6600;fill-rule:nonzero"
   id="path43"
   d="m 77.3,20.02 c -0.14,-1.74 -0.82,-3.45 -2.04,-4.87 -3.08,-3.73 -8.48,-4.2 -12.07,-0.91 -2.02,1.73 -3.03,4.2 -2.98,6.67 l 17.09,-0.9 z"
   class="fil10" />
   <path
   style="fill:#336699;fill-rule:nonzero"
   id="path45"
   d="m 63.48,14 c -3.34,2.87 -3.72,7.92 -0.85,11.25 2.87,3.34 7.92,3.72 11.26,0.85 3.34,-2.87 3.72,-7.92 0.84,-11.25 C 71.86,11.51 66.81,11.13 63.48,14 Z m -0.75,-0.88 c 3.82,-3.29 9.6,-2.85 12.89,0.97 3.29,3.82 2.85,9.6 -0.97,12.89 -3.82,3.29 -9.6,2.85 -12.89,-0.97 -3.29,-3.82 -2.85,-9.6 0.97,-12.89 z"
   class="fil0" />
   <path
   style="fill:#7db5db;fill-rule:nonzero"
   id="path47"
   d="m 26.82,33.22 c 0,0 -2.6,-2.27 -2.92,-3.52 l 0.79,-0.95 c 0,0 1.59,2.47 3.26,3.79 l -1.12,0.69 z"
   class="fil8" />
   <path
   style="fill:#e5d1bd;fill-rule:nonzero"
   id="path49"
   d="m 4.38,106.23 c -0.01,0.54 -0.02,1.08 -0.04,1.62 1.83,0.27 3.72,0.39 5.6,0.35 -0.32,-0.75 -0.01,-1.78 -1.3,-1.93 -0.42,-0.05 -4.27,0.07 -4.27,-0.04 z"
   class="fil11" />
   <path
   style="fill:#ff6600;fill-rule:nonzero"
   id="path51"
   d="m 4.43,108.55 c -0.16,0.22 -0.43,0.36 -0.74,0.39 -0.18,0.02 -0.37,0 -0.54,0.05 -0.16,0.05 -0.28,0.16 -0.4,0.26 -0.6,0.57 -2.08,2.42 -2.67,0.36 -0.54,-1.88 2.02,-3.64 3.28,-4.56 0.08,-0.06 0.17,-0.12 0.29,-0.13 0.12,-0.01 0.25,0.05 0.37,0.11 0.66,0.33 1.68,0.83 1.27,1.56 -0.17,0.31 -0.57,0.48 -0.73,0.83 -0.13,0.29 0.01,0.93 -0.13,1.13 z"
   class="fil10" />
   <path
   style="fill:#b3b3b3;fill-rule:nonzero"
   id="path53"
   d="m 29.57,92.91 c -2.14,2.11 -3.04,4.86 -4.95,7.15 -3.71,4.43 -17.81,5.41 -17.81,5.41 0,0 0.29,3.13 0.54,3.46 3.37,0.73 14.57,1.79 19.53,-1.35 4.84,-3.06 9.55,-6.35 14.11,-9.84 0.84,-0.64 1.74,-1.41 1.86,-2.39 0.09,-0.75 -0.32,-1.41 -0.74,-1.99 -1.12,-1.55 -3.02,-4.52 -5.24,-4.62 -2.43,-0.11 -5.65,2.54 -7.29,4.16 z"
   class="fil12" />
   <path
   style="fill:#e5d1bd;fill-rule:nonzero"
   id="path55"
   d="m 16.69,124.61 c 0.27,0.47 0.54,0.93 0.81,1.4 1.7,-0.72 3.37,-1.61 4.96,-2.63 -0.67,-0.47 -0.94,-1.51 -2.11,-0.97 -0.38,0.18 -3.61,2.29 -3.66,2.2 z"
   class="fil11" />
   <path
   style="fill:#ff6600;fill-rule:nonzero"
   id="path57"
   d="m 17.98,126.78 c -0.05,0.26 -0.24,0.51 -0.5,0.67 -0.16,0.09 -0.34,0.16 -0.47,0.27 -0.13,0.11 -0.19,0.27 -0.24,0.41 -0.3,0.77 -0.84,3.08 -2.26,1.47 -1.29,-1.46 0.26,-4.16 1,-5.53 0.05,-0.09 0.1,-0.18 0.2,-0.24 0.11,-0.06 0.25,-0.06 0.38,-0.06 0.74,0.02 1.87,0.03 1.82,0.86 -0.02,0.36 -0.31,0.67 -0.3,1.06 0,0.31 0.41,0.84 0.36,1.08 z"
   class="fil10" />
   <path
   style="fill:#b3b3b3;fill-rule:nonzero"
   id="path59"
   d="m 31.17,98.95 c -0.71,3.06 0.05,5.99 -0.35,9.09 -0.78,5.99 -12.67,14.78 -12.67,14.78 0,0 2.02,2.6 2.42,2.75 3.38,-1.25 13.86,-6.61 16.47,-12.17 2.55,-5.42 4.86,-10.97 6.92,-16.6 0.38,-1.03 0.74,-2.22 0.3,-3.15 -0.34,-0.71 -1.07,-1.06 -1.77,-1.34 -1.86,-0.73 -5.2,-2.29 -7.22,-1.13 -2.21,1.27 -3.56,5.41 -4.1,7.76 z"
   class="fil12" />
   <path
   style="fill:#eacdb0;fill-rule:nonzero"
   id="path61"
   d="m 45.73,71.47 c -0.85,-0.03 -1.7,-0.06 -2.56,-0.1 -0.05,-0.68 -0.05,-1.36 0.01,-2.04 -0.72,-0.2 -1.56,-0.53 -1.73,-1.26 -0.05,-0.23 -0.03,-0.47 0,-0.71 0.11,-0.97 0.21,-1.94 0.32,-2.91 0.04,-0.33 0.08,-0.68 0.24,-0.98 0.29,-0.52 0.89,-0.77 1.46,-0.91 1.47,-0.35 3.11,-0.13 4.32,0.78 0.32,0.24 0.62,0.53 0.78,0.91 0.24,0.57 0.13,1.22 0.01,1.83 -0.11,0.56 -0.22,1.12 -0.33,1.68 -0.13,0.65 -0.32,1.38 -0.92,1.66 -0.32,0.15 -0.7,0.13 -0.99,0.34 -0.5,0.36 -0.38,1.13 -0.62,1.7 z"
   class="fil13" />
   <path
   style="fill:#3b455a;fill-rule:nonzero"
   id="path63"
   d="m 53.72,61.37 c 0.13,-0.25 0.28,-0.49 0.44,-0.72 0.35,-0.49 0.8,-0.93 1.07,-1.47 0.28,-0.54 0.34,-1.25 -0.06,-1.71 -0.26,-0.3 -0.65,-0.43 -1.03,-0.51 -1.26,-0.29 -2.59,-0.23 -3.82,0.16 -1.17,0.37 -2.2,0.94 -3.42,0.57 -1.15,-0.35 -1.95,-0.13 -3.1,0.36 -1.24,0.53 -2.94,0.74 -4.05,1.45 -0.46,0.3 -0.82,0.74 -1.09,1.22 -0.94,1.66 -0.81,3.87 0.32,5.41 0.25,0.35 0.55,0.66 0.86,0.95 0.64,0.61 1.41,1.37 2.24,1.56 -0.02,-0.74 -0.84,-3.02 -0.31,-3.66 0.84,-1.02 2.89,-0.81 4.02,-0.64 1.23,0.18 2.37,0.98 3.59,1.09 0.87,0.08 1.96,-0.42 2.67,-0.91 0.88,-0.61 1.2,-2.25 1.68,-3.16 z"
   class="fil5" />
   <path
   style="fill:#ff6600;fill-rule:nonzero"
   id="path65"
   d="m 40.86,71.03 c -5,1.91 -7.38,9.42 -9.84,13.75 -1.68,2.97 -3.94,6.31 -7.35,6.41 -2.2,0.07 -4.16,-1.3 -5.89,-2.66 0.47,2.69 1.21,5.75 3.64,6.98 1.8,0.91 3.99,0.51 5.89,1.17 2.05,0.71 3.7,2.63 5.88,2.65 1.65,0.02 3.11,-1.07 4.73,-1.32 2.52,-0.39 4.84,1.26 6.96,2.67 0.62,0.41 1.34,0.82 2.06,0.65 0.93,-0.22 1.37,-1.27 1.55,-2.21 0.84,-4.26 -0.7,-8.45 -1.06,-12.67 -0.32,-3.78 1.69,-7.06 1.29,-10.9 -0.28,-2.71 -2.3,-4.71 -5.01,-4.94 -1.01,-0.09 -1.96,0.08 -2.85,0.42 z"
   class="fil10" />
   <path
   style="fill:#eacdb0;fill-rule:nonzero"
   id="path67"
   d="m 55.78,54.69 c -0.38,0.39 -0.77,0.79 -1.15,1.18 -0.12,0.12 -0.51,0.39 -0.35,0.6 0.08,0.1 0.32,0.47 0.57,0.83 0.11,0.36 0.23,0.71 0.3,1.08 0.19,0.93 -0.39,3.09 0.76,3.45 0.22,0.07 0.45,0.14 0.67,0.12 0.19,-0.01 0.36,-0.09 0.53,-0.17 0.13,-0.06 0.35,-0.13 0.4,-0.28 0.05,-0.15 -0.08,-0.54 -0.1,-0.71 -0.07,-0.47 -0.13,-0.95 -0.2,-1.43 -0.06,-0.47 -0.1,-1.02 0.22,-1.31 0.07,-0.06 0.16,-0.11 0.22,-0.18 0.07,-0.08 0.1,-0.19 0.13,-0.3 0.11,-0.4 0.19,-0.83 0.22,-1.25 0.02,-0.39 -0.22,-0.56 -0.44,-0.83 -0.26,-0.32 -0.29,-0.73 -0.54,-1.05 -0.14,-0.18 -0.36,-0.31 -0.57,-0.28 -0.17,0.03 -0.3,0.16 -0.43,0.29 -0.08,0.08 -0.16,0.17 -0.24,0.25 z"
   class="fil13" />
   <path
   style="fill:#ff6600;fill-rule:nonzero"
   id="path69"
   d="m 57.87,71.9 c 0.48,-0.89 0.75,-1.87 0.86,-3.06 0.27,-2.95 0.12,-5.96 -0.44,-8.89 -1.27,-0.19 -2.56,-0.11 -3.77,0.25 -0.04,2.44 -0.26,4.87 -0.66,7.26 -0.19,1.17 -0.55,2.16 -1.57,2.69 -2.28,1.17 -4.64,2.16 -7.07,2.93 -0.54,0.17 -1.09,0.34 -1.54,0.7 -0.82,0.66 -1.17,1.89 -0.98,3.02 0.18,1.13 0.83,2.14 1.65,2.88 0.59,0.53 1.29,0.94 2.03,0.98 0.77,0.04 1.49,-0.32 2.16,-0.7 3,-1.69 5.76,-3.87 8.16,-6.45 0.49,-0.52 0.87,-1.05 1.18,-1.6 z"
   class="fil10" />
  </g>
 </g>
</svg>