<?xml version="1.0" encoding="UTF-8"?>
<!DOCTYPE svg PUBLIC "-//W3C//DTD SVG 1.1//EN" "http://www.w3.org/Graphics/SVG/1.1/DTD/svg11.dtd">
<!-- Creator: CorelDRAW 2019 (64 Bit) -->
<svg xmlns="http://www.w3.org/2000/svg" xml:space="preserve" width="3.1327mm" height="3.4713mm" version="1.1" style="shape-rendering:geometricPrecision; text-rendering:geometricPrecision; image-rendering:optimizeQuality; fill-rule:evenodd; clip-rule:evenodd"
viewBox="0 0 11.93 13.22"
 xmlns:xlink="http://www.w3.org/1999/xlink"
 xmlns:xodm="http://www.corel.com/coreldraw/odm/2003">
 <defs>
  <style type="text/css">
   <![CDATA[
    .fil0 {fill:white;fill-rule:nonzero}
   ]]>
  </style>
 </defs>
 <g id="Camada_x0020_1">
  <metadata id="CorelCorpID_0Corel-Layer"/>
  <g id="_325-Support">
   <g>
    <path class="fil0" d="M8.04 7.4c-0.57,0.51 -1.29,0.82 -2.08,0.82 -0.79,0 -1.51,-0.31 -2.08,-0.82 -2.27,0.84 -3.89,2.99 -3.89,5.52 0,0.16 0.13,0.3 0.3,0.3l11.33 0c0.16,0 0.3,-0.13 0.3,-0.3 0,-2.53 -1.62,-4.68 -3.89,-5.52z"/>
    <path class="fil0" d="M8.68 4.37c-0.07,-1.63 -1.26,-2.94 -2.72,-2.94 -1.46,0 -2.65,1.3 -2.72,2.94 0,0 0,-0 0.01,0 0.12,0.03 0.26,0.04 0.4,0.04 0.82,0 1.59,-0.48 2.05,-1.28 0.11,-0.19 0.41,-0.19 0.52,0 0.46,0.8 1.23,1.28 2.05,1.28 0.14,0 0.28,-0.01 0.4,-0.04 0,-0 0,0 0.01,-0z"/>
    <path class="fil0" d="M5.96 3.81c-0.58,0.75 -1.41,1.19 -2.31,1.19 -0.14,0 -0.26,-0.01 -0.39,-0.03 0.19,1.5 1.32,2.65 2.69,2.65 1.37,0 2.5,-1.15 2.69,-2.65 -0.12,0.02 -0.25,0.03 -0.39,0.03 -0.89,0 -1.73,-0.44 -2.31,-1.19z"/>
    <path class="fil0" d="M3 6.35l0.08 0c-0.28,-0.54 -0.44,-1.16 -0.44,-1.83 0,-0.37 0.05,-0.72 0.14,-1.06l0 -0c0.04,-0.17 0.1,-0.34 0.17,-0.5 0.52,-1.43 1.68,-2.37 3.01,-2.37 1.32,0 2.49,0.94 3.01,2.37 0.07,0.16 0.13,0.32 0.17,0.5l0 0c0.09,0.34 0.14,0.69 0.14,1.06 0,0.66 -0.16,1.29 -0.44,1.83l0.08 0c0.85,0 1.56,-0.62 1.69,-1.42 0.13,0.02 0.25,0.08 0.32,0.15 0.03,0.04 0.13,0.14 0.03,0.41 -0.27,0.78 -1.15,1.19 -1.81,1.31 -0.16,0.03 -0.27,0.18 -0.24,0.35 0.02,0.14 0.15,0.25 0.29,0.25 0.02,0 0.04,-0 0.05,-0.01 0.86,-0.15 1.91,-0.67 2.27,-1.7 0.14,-0.39 0.08,-0.74 -0.16,-1 -0.18,-0.2 -0.46,-0.32 -0.77,-0.35 -0.06,-0.33 -0.22,-0.63 -0.47,-0.88 -0.15,-0.14 -0.31,-0.25 -0.49,-0.33 -0.52,-1.87 -2,-3.11 -3.68,-3.11 -1.69,0 -3.16,1.25 -3.68,3.12 -0.18,0.08 -0.35,0.19 -0.5,0.34 -0.32,0.32 -0.49,0.75 -0.49,1.2 0,0.94 0.77,1.69 1.71,1.69z"/>
   </g>
  </g>
 </g>
</svg>
