<?xml version="1.0" encoding="UTF-8"?>
<!DOCTYPE svg PUBLIC "-//W3C//DTD SVG 1.1//EN" "http://www.w3.org/Graphics/SVG/1.1/DTD/svg11.dtd">
<!-- Creator: CorelDRAW 2019 (64 Bit) -->
<svg xmlns="http://www.w3.org/2000/svg" xml:space="preserve" width="3.4714mm" height="3.4712mm" version="1.1" style="shape-rendering:geometricPrecision; text-rendering:geometricPrecision; image-rendering:optimizeQuality; fill-rule:evenodd; clip-rule:evenodd"
viewBox="0 0 14.71 14.7"
 xmlns:xlink="http://www.w3.org/1999/xlink"
 xmlns:xodm="http://www.corel.com/coreldraw/odm/2003">
 <defs>
  <style type="text/css">
   <![CDATA[
    .fil0 {fill:white}
   ]]>
  </style>
 </defs>
 <g id="Camada_x0020_1">
  <metadata id="CorelCorpID_0Corel-Layer"/>
  <path class="fil0" d="M0 7.92c0,0.75 1.32,0.53 2.28,0.53l0 5.71c0,0.36 0.18,0.53 0.53,0.53l9.19 0c0.25,0 0.46,-0.33 0.46,-0.61l0 -3.66c0,-0.81 -0.6,-0.91 -0.91,-0.61 -0.11,0.11 -0.15,0.17 -0.15,0.38l0 3.43 -8.05 0 0 -5.64c0,-0.78 -0.83,-0.61 -1.59,-0.61 0.27,-0.41 5.07,-5.38 5.54,-6.1 0.51,0.34 2.22,2.38 2.83,3.03l2.79 3.07c-1.5,0 -1.05,0.16 -1.8,-0.7 -0.21,-0.24 -0.39,-0.36 -0.59,-0.62 -0.23,-0.3 -0.37,-0.41 -0.62,-0.67l-1.17 -1.34c-1.77,-1.92 -1.23,-1.42 -3,0.3 -0.88,0.86 -0.07,1.2 0.13,1.2 0.5,0 0.73,-0.84 1.52,-1.37l3.52 3.85c0.16,0.21 0.32,0.41 0.65,0.41l2.58 0c0.45,0 0.89,-0.46 0.29,-1.05l-3.42 -3.73c-0.58,-0.59 -3.26,-3.67 -3.55,-3.67 -0.54,0 -0.44,0.19 -1.12,0.86 -1.03,1.03 -2.6,2.93 -3.64,3.96 -0.34,0.34 -0.56,0.64 -0.91,0.99l-1.37 1.52c-0.13,0.17 -0.39,0.34 -0.39,0.6z"/>
 </g>
</svg>
