<?xml version="1.0" encoding="UTF-8"?>
<!DOCTYPE svg PUBLIC "-//W3C//DTD SVG 1.1//EN" "http://www.w3.org/Graphics/SVG/1.1/DTD/svg11.dtd">
<!-- Creator: CorelDRAW 2019 (64 Bit) -->
<svg xmlns="http://www.w3.org/2000/svg" xml:space="preserve" width="9.1439mm" height="9.1439mm" version="1.1" style="shape-rendering:geometricPrecision; text-rendering:geometricPrecision; image-rendering:optimizeQuality; fill-rule:evenodd; clip-rule:evenodd"
viewBox="0 0 279.65 279.65"
 xmlns:xlink="http://www.w3.org/1999/xlink"
 xmlns:xodm="http://www.corel.com/coreldraw/odm/2003">
 <defs>
  <style type="text/css">
   <![CDATA[
    .fil1 {fill:#FF8100}
    .fil0 {fill:white}
   ]]>
  </style>
 </defs>
 <g id="Camada_x0020_1">
  <metadata id="CorelCorpID_0Corel-Layer"/>
  <g id="_2470210515280">
   <circle class="fil0" cx="139.83" cy="139.83" r="139.83"/>
   <g>
    <path class="fil1" d="M107.22 190.89l0.14 27.75 4.52 0 0 9.28 4.98 0 0 9.36 46.14 0 0 -9.36 4.67 0 0 -9.28 4.59 0 0.06 -27.71c5.8,-3.94 8.99,-5.63 14.26,-11.76 13.91,-16.18 20,-38.3 13.18,-59.8 -7.63,-24.08 -29.43,-44.47 -59.95,-44.49 -29.75,-0.02 -52.83,20.41 -59.97,44.48 -4.46,15.03 -3.16,30.65 2.83,43.73 5.21,11.38 14.53,22.56 24.56,27.8zm14.17 41.79l36.95 0 0 -4.76 -36.95 0 0 4.76zm-4.54 -9.37l46.14 0 0 -4.67 -46.14 0 0 4.67zm50.71 -9.22l0.12 -25.49c2.72,-2.36 7.45,-4.21 13.84,-10.77 3.64,-3.74 7.54,-9.07 10.2,-14.42 18.88,-37.96 -8.2,-83.63 -51.45,-83.91 -44.32,-0.29 -71.29,46.24 -52.38,83.91 4.67,9.31 11.61,16.95 20.13,22.61 1.29,0.86 2.92,1.74 3.87,2.58l0.06 25.44c1.69,0.01 51.15,0.05 55.61,0.05z"/>
    <path class="fil1" d="M121.16 214.1l4.43 0.01 0.13 -32.46 27.79 -0.05 0.16 32.52 4.44 -0.01 0.1 -32.39 4.74 -0.15 0.1 -18.52 -4.75 0c-1.31,-17.09 1.85,-13.03 3.26,-19.48 1.89,-8.71 -7.98,-25.82 -12.18,-33.43 -2.49,-4.52 -5.61,-10.82 -8.35,-14.85 -3.69,-0.6 -2.93,-0.24 -6.07,5.47 -1.32,2.4 -2.83,4.92 -4.28,7.8 -4.03,7.93 -14.25,24.87 -13.12,33.84 0.57,4.57 3.1,6.14 3.47,8.62 0.34,2.23 0.14,9.55 -0.02,12.04l-4.17 0.01 -0.13 18.54 4.32 0.06 0.14 32.44zm18.37 -76.54c1.7,0 3.09,1.38 3.09,3.08 0,1.7 -1.38,3.09 -3.09,3.09 -1.7,0 -3.08,-1.38 -3.08,-3.09 0,-1.7 1.38,-3.08 3.08,-3.08zm2.31 -5.26c3.66,1.01 6.35,4.36 6.35,8.34 0,4.78 -3.87,8.66 -8.66,8.66 -4.78,0 -8.66,-3.87 -8.66,-8.66 0,-3.97 2.67,-7.31 6.32,-8.33l0.18 -25.59c-1.42,1.17 -2.27,3.24 -3.16,4.94l-8.24 16.4c-8.76,19.03 -0.28,14.43 -0.28,24.78l0.02 10.19 27.8 0 0.04 -10.65c-0.02,-9.5 8.52,-5.3 -0.25,-24.31 -1.61,-3.5 -9.28,-19.33 -11.25,-20.77l-0.21 25.01zm-20.49 44.64l36.95 0.03 0.08 -9.26 -37.01 -0.03 -0.03 9.27z"/>
    <path class="fil1" d="M90.59 56.11c0.64,2.78 7.13,12.35 8.81,15.91 1.77,-0.39 2.74,-1.2 4.02,-2 -0.88,-2.32 -7.65,-14.23 -9.14,-15.75l-3.69 1.84z"/>
    <path class="fil1" d="M176.44 70.27l3.7 1.93c1.07,-1.33 8.67,-14.04 8.91,-15.98 -1.23,-0.87 -2.17,-1.6 -3.72,-1.78 -1.44,2.1 -8.21,13.44 -8.89,15.83z"/>
    <path class="fil1" d="M56.41 91.8c2.17,1.42 14.38,8.7 16.03,9 0.88,-1.13 1.62,-2.14 1.87,-3.71 -1.65,-1.41 -13.85,-8.56 -15.81,-8.78l-2.1 3.49z"/>
    <path class="fil1" d="M205.33 97.56l1.74 3.3c1.86,-0.09 14.94,-7.79 16.17,-8.87l-2.04 -3.65c-1.92,0.43 -14.75,7.93 -15.87,9.23z"/>
    <polygon class="fil1" points="137.56,60.74 142.12,60.97 142.29,42.37 137.69,42.39 "/>
    <path class="fil1" d="M138.5 43.25c-0.08,5.35 -0.53,11.85 -0.04,17.06l2.74 -0.25c0.4,-7 0.87,-7.99 -0.06,-14.3 -0.2,-1.32 0.31,-0.85 0.07,-2.55l-2.71 0.05z"/>
   </g>
  </g>
 </g>
</svg>
