<?xml version="1.0" encoding="UTF-8"?>
<!DOCTYPE svg PUBLIC "-//W3C//DTD SVG 1.1//EN" "http://www.w3.org/Graphics/SVG/1.1/DTD/svg11.dtd">
<!-- Creator: CorelDRAW 2019 (64 Bit) -->
<svg xmlns="http://www.w3.org/2000/svg" xml:space="preserve" width="9.1439mm" height="9.1439mm" version="1.1" style="shape-rendering:geometricPrecision; text-rendering:geometricPrecision; image-rendering:optimizeQuality; fill-rule:evenodd; clip-rule:evenodd"
viewBox="0 0 113.66 113.66"
 xmlns:xlink="http://www.w3.org/1999/xlink"
 xmlns:xodm="http://www.corel.com/coreldraw/odm/2003">
 <defs>
  <style type="text/css">
   <![CDATA[
    .fil1 {fill:#FF8100}
    .fil0 {fill:white}
   ]]>
  </style>
 </defs>
 <g id="Camada_x0020_1">
  <metadata id="CorelCorpID_0Corel-Layer"/>
  <g id="_2470298062960">
   <circle class="fil0" cx="56.83" cy="56.83" r="56.83"/>
   <g>
    <g>
     <path class="fil1" d="M31.14 26.19l52.74 0c1.81,0 3.3,1.48 3.3,3.3l0 24.81 -2.33 0 0 -24.67c0,-0.61 -0.5,-1.11 -1.11,-1.11l-52.47 0c-0.61,0 -1.11,0.5 -1.11,1.11l0 34.96 36.42 0 0 2.33 -2.68 0 0 0c0,1.6 -1.31,3.49 -2.91,3.49l-8.15 0c-1.6,0 -2.91,-1.89 -2.91,-3.49l0 0 -25.6 0 0 2.91c0,1.6 1.31,2.91 2.91,2.91l39.33 0 0 2.33 -39.31 0c-2.88,0 -5.24,-2.36 -5.24,-5.24l0 -5.24 5.8 0 0 -35.1c0,-1.81 1.48,-3.3 3.3,-3.3zm21.14 40.72c0,0.53 0.17,1.16 1.24,1.16l6.82 0c1.07,0 1.24,-0.63 1.24,-1.16l-9.3 0zm-19.78 -36.07l50.03 0 0 23.45 -2.33 0 0 -21.12 -45.37 0 0 26.76 31.77 0 0 2.33 -34.09 0 0 -31.41z"/>
     <path class="fil1" d="M63.35 39.62c-0.37,-0.11 -0.59,-0.5 -0.48,-0.87l0.29 -1.02c0.11,-0.37 0.5,-0.59 0.87,-0.48 0.37,0.11 0.59,0.49 0.48,0.87l-0.29 1.02c-0.11,0.37 -0.5,0.59 -0.87,0.48zm3.62 6.53c-0.37,-0.11 -0.59,-0.5 -0.48,-0.87 0.11,-0.37 0.49,-0.59 0.87,-0.48l1.02 0.29c0.37,0.11 0.59,0.5 0.48,0.87 -0.11,0.37 -0.49,0.59 -0.87,0.48l-1.02 -0.29zm-1.57 -3.97c-0.09,-0.16 -0.12,-0.35 -0.07,-0.53 0.05,-0.18 0.18,-0.33 0.34,-0.42l1.31 -0.72c0.22,-0.12 0.48,-0.12 0.7,0.01 0.22,0.13 0.34,0.36 0.34,0.61 -0,0.25 -0.14,0.48 -0.36,0.6l-1.3 0.72c-0.16,0.1 -0.36,0.12 -0.53,0.07 -0.18,-0.05 -0.33,-0.17 -0.42,-0.34zm-1.28 0.71c1.23,2.13 2.14,4.43 2.69,6.83 0.27,1.29 0.56,3.59 -0.86,4.37 -0.32,0.17 -0.68,0.25 -1.04,0.21 -0.09,0.01 -0.18,0.01 -0.27,-0.02l-0 -0 -6.87 -1.97c-0.19,-0.05 -0.39,-0.08 -0.6,-0.09l0.12 0.23c0.38,0.68 0.48,1.49 0.26,2.24 -0.45,1.56 -2.08,2.46 -3.64,2.02 -0.75,-0.21 -1.39,-0.72 -1.76,-1.4l-0.31 -0.54c-1.02,0.57 -2.24,0.71 -3.36,0.39 -1.13,-0.33 -2.08,-1.1 -2.65,-2.13 -0.57,-1.03 -0.72,-2.24 -0.4,-3.37 0.32,-1.13 1.09,-2.09 2.12,-2.65l4.03 -2.26c0.56,-0.31 0.98,-0.84 1.17,-1.45l1.89 -6.61c0.13,-0.53 0.47,-0.99 0.94,-1.27 0.07,-0.04 0.15,-0.08 0.23,-0.11 1.36,-0.53 3.02,0.83 3.93,1.7 1.73,1.74 3.2,3.73 4.35,5.89zm-7.13 -0.38c1.34,0.04 2.59,0.69 3.39,1.77 0.83,1.11 1.09,2.55 0.69,3.87 -0.1,0.32 -0.23,0.63 -0.41,0.91 0.26,0.36 0.54,0.72 0.82,1.07l0 0 0 0c0.84,1.16 1.96,2.09 3.26,2.69 0.16,0.06 0.33,0.06 0.49,0 0.2,-0.12 0.28,-0.55 0.31,-0.75 0.09,-0.67 -0.02,-1.46 -0.15,-2.11 -0.53,-2.25 -1.38,-4.41 -2.53,-6.42 -1.1,-2.03 -2.48,-3.9 -4.11,-5.54l-0 -0c-0.56,-0.6 -1.24,-1.06 -2,-1.36 -0.16,-0.06 -0.33,-0.06 -0.49,-0 -0.13,0.1 -0.22,0.25 -0.25,0.41 -0.19,1.42 -0.02,2.87 0.51,4.21l0 0 0 0c0.14,0.42 0.3,0.84 0.46,1.26zm2.78 5.25c0,-0 0,-0.01 0,-0.01 0.24,-0.83 0.12,-1.72 -0.34,-2.45 -0.4,-0.63 -1.02,-1.09 -1.74,-1.29 0.3,0.65 0.62,1.28 0.96,1.92 0.34,0.64 0.72,1.24 1.12,1.83zm-8.66 5.81c-1.97,-1.01 -3.13,-3.11 -2.94,-5.31 -0.67,0.39 -1.17,1.02 -1.39,1.77 -0.22,0.77 -0.12,1.62 0.28,2.31 0.82,1.41 2.6,1.94 4.05,1.23zm4.97 -0.45l-0.31 -0.51 -2.69 1.47 0.29 0.53c0.44,0.72 1.35,0.98 2.1,0.6 0.35,-0.2 0.62,-0.53 0.73,-0.92 0.11,-0.39 0.06,-0.81 -0.13,-1.17zm5.02 -1.32c-0.22,-0.24 -0.44,-0.49 -0.65,-0.74 -0.48,-0.54 -0.89,-1.11 -1.31,-1.71 -0.62,-0.89 -1.18,-1.81 -1.71,-2.76 -0.53,-0.95 -1,-1.92 -1.43,-2.92 -0.28,-0.66 -0.53,-1.32 -0.76,-2 -0.1,-0.31 -0.2,-0.63 -0.29,-0.95l-0.83 2.9c-0.28,0.98 -0.92,1.83 -1.82,2.32l-2.55 1.42c-0.02,0.08 -0.05,0.16 -0.06,0.23l-0 0 -0 0c-0.62,2.15 0.63,4.4 2.78,5.01l0.24 0.07 2.51 -1.43c0.89,-0.49 1.96,-0.6 2.93,-0.31l2.94 0.84z"/>
    </g>
    <g>
     <path class="fil1" d="M69.49 54.08c-1.71,0 -3.12,1.4 -3.12,3.12l0 27.16c0,1.71 1.4,3.12 3.12,3.12l19.01 0c1.71,0 3.12,-1.4 3.12,-3.12l0 -27.16c0,-1.71 -1.4,-3.12 -3.12,-3.12l-19.01 0zm-1.14 24.43l0 -21.09c0,-0.75 0.61,-1.37 1.37,-1.37l19.19 0c0.4,0 0.73,0.33 0.73,0.73l0 21.72 -21.29 0zm21.29 1.98l0 3.64c0,0.75 -0.61,1.37 -1.37,1.37l-18.56 0c-0.75,0 -1.37,-0.61 -1.37,-1.37l0 -3.64 21.29 0z"/>
     <circle class="fil1" cx="78.99" cy="82.97" r="1.19"/>
     <path class="fil1" d="M83.24 62.96c-0.25,-0.07 -0.4,-0.34 -0.33,-0.59l0.2 -0.69c0.07,-0.25 0.34,-0.4 0.59,-0.33 0.25,0.07 0.4,0.34 0.33,0.59l-0.2 0.69c-0.07,0.25 -0.34,0.4 -0.59,0.33zm2.46 4.43c-0.25,-0.07 -0.4,-0.34 -0.33,-0.59 0.07,-0.25 0.34,-0.4 0.59,-0.33l0.69 0.2c0.25,0.07 0.4,0.34 0.33,0.59 -0.07,0.25 -0.34,0.4 -0.59,0.33l-0.69 -0.2zm-1.07 -2.69c-0.06,-0.11 -0.08,-0.24 -0.05,-0.36 0.04,-0.12 0.12,-0.22 0.23,-0.28l0.89 -0.49c0.15,-0.08 0.33,-0.08 0.47,0.01 0.15,0.09 0.23,0.24 0.23,0.41 -0,0.17 -0.1,0.32 -0.24,0.41l-0.89 0.49c-0.11,0.07 -0.24,0.08 -0.36,0.05 -0.12,-0.03 -0.22,-0.12 -0.28,-0.23zm-0.87 0.48c0.83,1.44 1.45,3.01 1.82,4.63 0.18,0.88 0.38,2.44 -0.58,2.96 -0.22,0.12 -0.46,0.17 -0.7,0.14 -0.06,0.01 -0.13,0 -0.19,-0.01l-0 -0 -4.66 -1.34c-0.13,-0.04 -0.27,-0.06 -0.4,-0.06l0.08 0.15c0.26,0.46 0.32,1.01 0.18,1.52 -0.31,1.06 -1.41,1.67 -2.47,1.37 -0.51,-0.14 -0.94,-0.49 -1.19,-0.95l-0.21 -0.37c-0.69,0.39 -1.52,0.48 -2.28,0.26 -0.77,-0.22 -1.41,-0.74 -1.8,-1.44 -0.39,-0.7 -0.49,-1.52 -0.27,-2.29 0.22,-0.77 0.74,-1.42 1.44,-1.8l2.74 -1.53c0.38,-0.21 0.66,-0.57 0.79,-0.98l1.28 -4.48c0.09,-0.36 0.32,-0.67 0.64,-0.86 0.05,-0.03 0.1,-0.05 0.16,-0.08 0.92,-0.36 2.05,0.56 2.66,1.15 1.17,1.18 2.17,2.53 2.95,4zm-4.83 -0.26c0.91,0.03 1.76,0.47 2.3,1.2 0.56,0.75 0.74,1.73 0.47,2.63 -0.06,0.22 -0.16,0.43 -0.28,0.62 0.18,0.24 0.36,0.49 0.56,0.72l0 0 0 0c0.57,0.79 1.33,1.41 2.21,1.82 0.11,0.04 0.22,0.04 0.33,0 0.13,-0.08 0.19,-0.37 0.21,-0.51 0.06,-0.45 -0.01,-0.99 -0.1,-1.43 -0.36,-1.53 -0.94,-2.99 -1.71,-4.36 -0.74,-1.38 -1.68,-2.65 -2.79,-3.76l-0 -0c-0.38,-0.41 -0.85,-0.72 -1.36,-0.92 -0.11,-0.04 -0.23,-0.04 -0.34,-0 -0.09,0.07 -0.15,0.17 -0.17,0.28 -0.13,0.96 -0.01,1.95 0.34,2.85l0 0 0 0c0.1,0.29 0.21,0.57 0.31,0.85zm1.89 3.56c0,-0 0,-0 0,-0.01 0.16,-0.56 0.08,-1.17 -0.23,-1.66 -0.27,-0.43 -0.69,-0.74 -1.18,-0.87 0.2,0.44 0.42,0.87 0.65,1.3 0.23,0.43 0.49,0.84 0.76,1.24zm-5.87 3.95c-1.33,-0.68 -2.12,-2.11 -2,-3.6 -0.46,0.26 -0.8,0.69 -0.94,1.2 -0.15,0.52 -0.08,1.1 0.19,1.57 0.56,0.96 1.76,1.32 2.75,0.83zm3.37 -0.3l-0.21 -0.35 -1.82 1 0.2 0.36c0.3,0.49 0.92,0.67 1.43,0.41 0.24,-0.14 0.42,-0.36 0.49,-0.63 0.08,-0.26 0.04,-0.55 -0.09,-0.79zm3.4 -0.9c-0.15,-0.16 -0.3,-0.33 -0.44,-0.5 -0.32,-0.37 -0.61,-0.75 -0.89,-1.16 -0.42,-0.6 -0.8,-1.23 -1.16,-1.87 -0.36,-0.64 -0.68,-1.3 -0.97,-1.98 -0.19,-0.45 -0.36,-0.9 -0.51,-1.36 -0.07,-0.21 -0.14,-0.43 -0.2,-0.64l-0.56 1.97c-0.19,0.67 -0.63,1.24 -1.23,1.58l-1.73 0.96c-0.02,0.05 -0.03,0.11 -0.04,0.16l0 0 -0 0c-0.42,1.46 0.43,2.98 1.88,3.4l0.17 0.05 1.7 -0.97c0.61,-0.33 1.33,-0.41 1.99,-0.21l1.99 0.57z"/>
    </g>
   </g>
  </g>
 </g>
</svg>
