<?xml version="1.0" encoding="UTF-8"?>
<!DOCTYPE svg PUBLIC "-//W3C//DTD SVG 1.1//EN" "http://www.w3.org/Graphics/SVG/1.1/DTD/svg11.dtd">
<!-- Creator: CorelDRAW 2019 (64 Bit) -->
<svg xmlns="http://www.w3.org/2000/svg" xml:space="preserve" width="3.4714mm" height="2.4554mm" version="1.1" style="shape-rendering:geometricPrecision; text-rendering:geometricPrecision; image-rendering:optimizeQuality; fill-rule:evenodd; clip-rule:evenodd"
viewBox="0 0 14.71 10.4"
 xmlns:xlink="http://www.w3.org/1999/xlink"
 xmlns:xodm="http://www.corel.com/coreldraw/odm/2003">
 <defs>
  <style type="text/css">
   <![CDATA[
    .fil0 {fill:white}
   ]]>
  </style>
 </defs>
 <g id="Camada_x0020_1">
  <metadata id="CorelCorpID_0Corel-Layer"/>
  <g id="_2469611556272">
   <path class="fil0" d="M1.95 2.04c-0.4,0.1 -0.5,0.38 -0.55,0.82l-0.45 3.82c-0.1,0.83 -0.2,1.67 -0.3,2.5 -0.16,1.34 0.31,1.2 1.53,1.2 0.62,0 10.87,0.06 11.2,-0.02 0.42,-0.1 0.49,-0.47 0.54,-0.85l0.45 -3.79c0.1,-0.85 0.2,-1.66 0.3,-2.5 0.06,-0.5 0.13,-0.81 -0.22,-1.06 -0.29,-0.21 -0.9,-0.12 -1.29,-0.12 -0.59,0 -10.9,-0.05 -11.19,0.02z"/>
   <path class="fil0" d="M0.04 8.2c-0.01,-0.32 0.45,-3.85 0.53,-4.48 0.32,-2.7 -0.07,-2.35 2.69,-2.35 3.35,0 6.7,0.02 10.05,-0 -0.08,-0.88 -1.01,-0.67 -1.83,-0.67 -2.52,0 -5.05,0 -7.57,0 -0.04,-0.1 -0.23,-0.42 -0.29,-0.48 -0.3,-0.3 -1.59,-0.19 -2.18,-0.19 -0.55,0 -1.03,-0.09 -1.29,0.29 -0.21,0.3 -0.12,1.09 -0.12,1.51 0,1.15 -0.06,5.61 0.02,6.38z"/>
  </g>
 </g>
</svg>
