<?xml version="1.0" encoding="UTF-8" standalone="no"?>
<svg
   xmlns:dc="http://purl.org/dc/elements/1.1/"
   xmlns:cc="http://creativecommons.org/ns#"
   xmlns:rdf="http://www.w3.org/1999/02/22-rdf-syntax-ns#"
   xmlns:svg="http://www.w3.org/2000/svg"
   xmlns="http://www.w3.org/2000/svg"
   id="svg338"
   viewBox="0 0 224.01 173.64"
   style="shape-rendering:geometricPrecision; text-rendering:geometricPrecision; image-rendering:optimizeQuality; fill-rule:evenodd; clip-rule:evenodd"
   version="1.1"
   height="6.7733mm"
   width="8.738mm"
   xml:space="preserve"><metadata
     id="metadata342"><rdf:RDF><cc:Work
         rdf:about=""><dc:format>image/svg+xml</dc:format><dc:type
           rdf:resource="http://purl.org/dc/dcmitype/StillImage" /></cc:Work></rdf:RDF></metadata><defs
     id="defs4"><style
       id="style2"
       type="text/css"><![CDATA[
    .fil12 {fill:#0082A6;fill-rule:nonzero}
    .fil0 {fill:#12BDEB;fill-rule:nonzero}
    .fil10 {fill:#153350;fill-rule:nonzero}
    .fil11 {fill:#285EAF;fill-rule:nonzero}
    .fil13 {fill:#336699;fill-rule:nonzero}
    .fil17 {fill:#389EE4;fill-rule:nonzero}
    .fil3 {fill:#67C1EF;fill-rule:nonzero}
    .fil6 {fill:#A7DDF2;fill-rule:nonzero}
    .fil18 {fill:#AFD8EF;fill-rule:nonzero}
    .fil1 {fill:#B3B3B3;fill-rule:nonzero}
    .fil5 {fill:#C1E8F4;fill-rule:nonzero}
    .fil7 {fill:#CCCCCC;fill-rule:nonzero}
    .fil19 {fill:#E6E6E6;fill-rule:nonzero}
    .fil16 {fill:#E6EBEF;fill-rule:nonzero}
    .fil2 {fill:#E6F7FF;fill-rule:nonzero}
    .fil15 {fill:#EFF9FB;fill-rule:nonzero}
    .fil9 {fill:#FBB5AC;fill-rule:nonzero}
    .fil4 {fill:#FFBC97;fill-rule:nonzero}
    .fil14 {fill:white;fill-rule:nonzero}
    .fil8 {fill:#CCCCCC;fill-rule:nonzero}
   ]]></style></defs><g
     id="Camada_x0020_1"><metadata
       id="CorelCorpID_0Corel-Layer" /><g
       id="_891988720"><g
         id="g23"><path
           id="path7"
           d="M77.84 96.32c2.25,0.25 4.22,0.74 5.93,1.47 1.71,0.74 3.13,1.72 4.25,2.94 1.12,1.22 1.92,2.71 2.4,4.46 0.48,1.76 0.59,3.76 0.35,6 -0.32,2.9 -1.11,5.25 -2.38,7.05 -1.27,1.8 -2.93,3.09 -4.98,3.89l4.81 14.5c0.08,0.24 0.11,0.46 0.08,0.66 -0.04,0.35 -0.18,0.64 -0.43,0.86 -0.25,0.23 -0.53,0.32 -0.83,0.29l-6.94 -0.76c-0.68,-0.07 -1.15,-0.3 -1.4,-0.68 -0.25,-0.38 -0.44,-0.75 -0.57,-1.12l-4.3 -13.04 -4.7 -0.52 -1.37 12.42c-0.05,0.43 -0.23,0.78 -0.53,1.06 -0.31,0.28 -0.65,0.4 -1.02,0.36l-6.69 -0.74c-0.37,-0.04 -0.68,-0.23 -0.92,-0.57 -0.24,-0.34 -0.33,-0.72 -0.29,-1.15l4.13 -37.48c0.05,-0.43 0.22,-0.78 0.53,-1.06 0.31,-0.28 0.65,-0.4 1.02,-0.36l13.83 1.53zm-7.7 16.94l0 0 5.77 0.64c1.43,0.16 2.64,-0.02 3.65,-0.54 1,-0.52 1.6,-1.58 1.78,-3.21 0.18,-1.62 -0.17,-2.8 -1.04,-3.52 -0.87,-0.72 -2.02,-1.16 -3.45,-1.32l-5.77 -0.64 -0.94 8.59z"
           class="fil0" /><path
           id="path9"
           d="M137.8 12.95l-0.32 0 -10.07 -12.95 -9.78 12.95 -0.53 0 -39.29 0 -20.83 20.62 20.55 0 0 4.88 0.97 0 0 -4.88 18.97 0 0.05 0.05 0.05 -0.05 0.45 0 0.05 0.05 0.05 -0.05 18.97 0 0 118.72 20.69 0 0 -118.72 18.97 0 0.05 0.05 0.05 -0.05 0.49 0 20.83 -20.62 -40.39 0zm-78.45 19.65l0 0 18.19 -18.01 0 18.01 -18.19 0zm37.35 -18.68l0 0 -8.75 8.75 -8.75 -8.75 17.51 0zm-18.19 0.69l0 0 8.75 8.75 -8.75 8.75 0 -17.51zm0.88 18l0 0 8.56 -8.56 8.56 8.56 -17.12 0zm17.87 -0.62l0 0 -8.63 -8.63 8.63 -8.63 0 17.25zm19.16 -18.07l0 0 -8.75 8.75 -8.75 -8.75 17.51 0zm-18.19 0.69l0 0 8.75 8.75 -8.75 8.75 0 -17.51zm0.88 18l0 0 8.56 -8.56 8.56 8.56 -17.12 0zm18 -0.49l0 0 -8.75 -8.75 8.75 -8.75 0 17.51zm10.32 -30.52l0 0 8.83 11.36 -17.4 0 8.57 -11.36zm8.69 12.33l0 0 -8.67 8.67 -8.67 -8.67 17.35 0zm-17.22 116.86l0 0 8.55 -8.55 8.55 8.55 -17.09 0zm17.31 0.97l0 0 -8.77 8.77 -8.77 -8.77 17.53 0zm-17.48 -19.61l0 0 17.44 0 -8.72 8.72 -8.72 -8.72zm0.13 -0.97l0 0 8.59 -8.59 8.59 8.59 -17.19 0zm-0.08 -18.64l0 0 17.35 0 -8.67 8.67 -8.67 -8.67zm0.03 -0.97l0 0 8.64 -8.64 8.64 8.64 -17.28 0zm0.01 -18.64l0 0 17.26 0 -8.63 8.63 -8.63 -8.63zm-0.06 -0.97l0 0 8.69 -8.69 8.69 8.69 -17.37 0zm0.01 -18.73l0 0 17.35 0 -8.67 8.67 -8.67 -8.67zm0.03 -0.97l0 0 8.64 -8.64 8.64 8.64 -17.28 0zm-0.03 -18.68l0 0 17.35 0 -8.67 8.67 -8.67 -8.67zm0.03 -0.97l0 0 8.64 -8.64 8.64 8.64 -17.28 0zm-0.72 -18l0 0 8.67 8.67 -8.67 8.67 0 -17.35zm0 19.65l0 0 8.67 8.67 -8.67 8.68 0 -17.35zm0 19.65l0 0 8.67 8.68 -8.67 8.67 0 -17.35zm0 19.66l0 0 8.67 8.67 -8.67 8.67 0 -17.35zm0 19.65l0 0 8.67 8.67 -8.67 8.68 0 -17.35zm0 19.66l0 0 8.67 8.67 -8.67 8.67 0 -17.35zm0 19.65l0 0 8.67 8.67 -8.67 8.67 0 -17.35zm18.75 18.8l0 0 -18.75 0 0 -0.08 9.36 -9.36 9.39 9.39 0 0.05zm0 -1.42l0 0 -8.71 -8.71 8.71 -8.71 0 17.41zm0 -19.65l0 0 -8.71 -8.71 8.71 -8.71 0 17.41zm0 -19.65l0 0 -8.71 -8.71 8.71 -8.71 0 17.41zm0 -19.66l0 0 -8.71 -8.71 8.71 -8.71 0 17.41zm0 -19.65l0 0 -8.71 -8.71 8.71 -8.71 0 17.41zm0 -19.65l0 0 -8.71 -8.71 8.71 -8.71 0 17.41zm0 -19.66l0 0 -8.71 -8.71 8.71 -8.71 0 17.41zm19.16 -18.07l0 0 -8.75 8.75 -8.75 -8.75 17.51 0zm-18.19 0.69l0 0 8.75 8.75 -8.75 8.75 0 -17.51zm0.88 18l0 0 8.56 -8.56 8.56 8.56 -17.12 0zm18 -0.49l0 0 -8.75 -8.75 8.75 -8.75 0 17.51zm0.97 -18.19l0 0 18.18 0 -18.18 18.01 0 -18.01z"
           class="fil1" /><path
           id="path11"
           d="M77.54 71.4c-1.21,0 -2.19,-0.98 -2.19,-2.19l0 -32.93c0,-1.2 0.98,-2.19 2.19,-2.19 1.2,0 2.18,0.98 2.18,2.19l0 32.93c0,1.2 -0.98,2.19 -2.18,2.19zm0 -36.93l0 0c-1,0 -1.82,0.82 -1.82,1.82l0 32.93c0,1 0.82,1.82 1.82,1.82 1,0 1.82,-0.82 1.82,-1.82l0 -32.93c0,-1 -0.82,-1.82 -1.82,-1.82z"
           class="fil2" /><path
           id="path13"
           d="M77.54 71.22c-1.1,0 -2,-0.9 -2,-2l0 -5.63c0,-1.1 0.9,-2 2,-2 1.1,0 2,0.9 2,2l0 5.63c0,1.1 -0.9,2 -2,2z"
           class="fil3" /><path
           id="path15"
           d="M77.53 79.35c-0.14,0 -0.27,-0.01 -0.41,-0.03 -1.44,-0.21 -2.49,-1.41 -2.56,-2.93 -0.02,-0.35 0.26,-0.64 0.61,-0.66 0.34,-0.01 0.64,0.26 0.66,0.61 0.04,1.04 0.79,1.63 1.47,1.72 0.82,0.12 1.5,-0.39 1.83,-1.36 0.62,-1.82 -1.62,-3.13 -1.72,-3.18 -0.2,-0.11 -0.32,-0.32 -0.32,-0.55l0 -2.83c0,-0.35 0.28,-0.63 0.63,-0.63 0.35,0 0.63,0.28 0.63,0.63l0 2.48c1.13,0.76 2.67,2.44 1.97,4.49 -0.48,1.4 -1.55,2.24 -2.8,2.24z"
           class="fil3" /><path
           id="path17"
           d="M78.74 40.28l-2.41 0c-1.08,0 -1.96,-0.88 -1.96,-1.96l0 -8.07c0,-1.08 0.88,-1.96 1.96,-1.96l2.41 0c1.08,0 1.96,0.88 1.96,1.96l0 8.07c0,1.08 -0.88,1.96 -1.96,1.96z"
           class="fil3" /><g
           id="g21"><path
             id="path19"
             d="M77.17 77.98c0,-0.2 0.16,-0.36 0.36,-0.36 0.2,0 0.36,0.16 0.36,0.36l-0.73 0zm0 27.46l0 -27.46 0.73 0 0 27.46 -0.73 0zm0.73 0c0,0.2 -0.16,0.36 -0.36,0.36 -0.2,0 -0.36,-0.16 -0.36,-0.36l0.73 0z"
             class="fil4" /></g></g><g
         id="_1065736336"><path
           id="path25"
           d="M27.82 154.33c-0.38,0 -0.7,-0.16 -0.98,-0.47 -0.27,-0.31 -0.41,-0.68 -0.41,-1.11l0 -37.7c0,-0.43 0.14,-0.8 0.41,-1.11 0.27,-0.31 0.6,-0.47 0.98,-0.47l16.54 0c2.29,0 4.23,0.36 5.8,1.08 1.57,0.72 2.83,1.65 3.77,2.8 0.94,1.15 1.62,2.45 2.03,3.91 0.41,1.46 0.62,2.91 0.62,4.35 0,1.13 -0.11,2.11 -0.33,2.95 -0.22,0.84 -0.49,1.56 -0.8,2.16 -0.31,0.61 -0.63,1.09 -0.95,1.46 -0.33,0.37 -0.59,0.65 -0.8,0.85 1.34,1.05 2.27,2.27 2.8,3.65 0.53,1.38 0.79,3.05 0.79,4.99 0,1.59 -0.21,3.15 -0.62,4.67 -0.41,1.52 -1.09,2.87 -2.03,4.06 -0.94,1.19 -2.17,2.14 -3.67,2.86 -1.5,0.72 -3.36,1.08 -5.55,1.08l-17.61 0zm19.21 -28.48l0 0c0,-1.01 -0.27,-1.82 -0.8,-2.42 -0.53,-0.6 -1.31,-0.9 -2.34,-0.9l-7.96 0 0 6.66 7.96 0c1.03,0 1.8,-0.3 2.34,-0.9 0.53,-0.6 0.8,-1.41 0.8,-2.42zm-11.09 19.44l0 0 8.47 0c1.03,0 1.85,-0.34 2.47,-1.02 0.62,-0.68 0.92,-1.53 0.92,-2.54 0,-1.01 -0.31,-1.86 -0.92,-2.54 -0.62,-0.68 -1.44,-1.02 -2.47,-1.02l-8.47 0 0 7.12z"
           class="fil0" /><path
           id="path27"
           d="M113.98 113.47c0.68,0 1.21,0.22 1.57,0.64 0.36,0.43 0.61,0.86 0.74,1.28l11.2 36.77c0.14,0.39 0.21,0.68 0.21,0.88 0,0.35 -0.11,0.65 -0.33,0.9 -0.22,0.25 -0.49,0.38 -0.79,0.38l-6.47 0c-0.69,0 -1.17,-0.17 -1.46,-0.5 -0.29,-0.33 -0.47,-0.65 -0.54,-0.96l-1.44 -4.84 -13.66 0 -1.44 4.84c-0.07,0.31 -0.25,0.63 -0.54,0.96 -0.29,0.33 -0.78,0.5 -1.46,0.5l-6.47 0c-0.31,0 -0.57,-0.13 -0.8,-0.38 -0.22,-0.25 -0.33,-0.56 -0.33,-0.9 0,-0.19 0.07,-0.49 0.21,-0.88l11.2 -36.77c0.14,-0.43 0.38,-0.85 0.75,-1.28 0.36,-0.43 0.88,-0.64 1.57,-0.64l8.32 0zm-8.32 25.5l0 0 8.32 0 -4.16 -14.01 -4.16 14.01z"
           class="fil0" /><path
           id="path29"
           d="M153.07 154.33c-0.58,0 -1.05,-0.18 -1.41,-0.53 -0.36,-0.35 -0.59,-0.62 -0.69,-0.82l-11.76 -19.96 0 19.73c0,0.43 -0.14,0.8 -0.41,1.11 -0.27,0.31 -0.6,0.47 -0.97,0.47l-6.73 0c-0.38,0 -0.7,-0.16 -0.97,-0.47 -0.27,-0.31 -0.41,-0.68 -0.41,-1.11l0 -37.7c0,-0.43 0.14,-0.8 0.41,-1.11 0.27,-0.31 0.6,-0.47 0.97,-0.47l5.34 0c0.58,0 1.05,0.17 1.41,0.53 0.36,0.35 0.59,0.62 0.69,0.82l11.76 19.96 0 -19.72c0,-0.43 0.14,-0.8 0.41,-1.11 0.27,-0.31 0.6,-0.47 0.97,-0.47l6.73 0c0.38,0 0.7,0.16 0.98,0.47 0.27,0.31 0.41,0.68 0.41,1.11l0 37.7c0,0.43 -0.14,0.8 -0.41,1.11 -0.27,0.31 -0.6,0.47 -0.98,0.47l-5.34 0z"
           class="fil0" /><path
           id="path31"
           d="M178.16 113.47c2.36,0 4.52,0.4 6.47,1.2 1.95,0.8 3.64,1.92 5.06,3.36 1.42,1.44 2.53,3.16 3.34,5.16 0.8,2 1.26,4.19 1.36,6.57 0.03,0.82 0.05,1.57 0.05,2.25 0,0.68 0,1.33 0,1.96 0,0.62 0,1.26 0,1.93 0,0.66 -0.02,1.38 -0.05,2.16 -0.1,2.41 -0.55,4.61 -1.34,6.6 -0.79,1.98 -1.87,3.7 -3.26,5.14 -1.39,1.44 -3.04,2.56 -4.96,3.36 -1.92,0.8 -4.06,1.2 -6.42,1.2l-13.87 0c-0.38,0 -0.7,-0.16 -0.97,-0.47 -0.27,-0.31 -0.41,-0.68 -0.41,-1.11l0 -37.7c0,-0.43 0.14,-0.8 0.41,-1.11 0.27,-0.31 0.6,-0.47 0.97,-0.47l13.61 0zm6.73 16.05l0 0c-0.21,-4.47 -2.53,-6.71 -6.98,-6.71l-5.24 0 0 22.18 5.5 0c4.31,0 6.56,-2.24 6.73,-6.71 0.03,-0.82 0.05,-1.58 0.05,-2.3 0,-0.72 0,-1.42 0,-2.1 0,-0.68 0,-1.37 0,-2.07 0,-0.7 -0.02,-1.46 -0.05,-2.28z"
           class="fil0" /></g><g
         id="_881685120"><g
           id="g36"><path
             id="path34"
             d="M212.74 72.69c-0.21,-0.58 -0.42,-1.16 -0.63,-1.74 -0.09,-0.25 -0.2,-0.52 -0.43,-0.64 -0.14,-0.07 -0.31,-0.08 -0.46,-0.05 -0.55,0.13 -0.84,0.73 -0.99,1.27 -0.25,0.89 -0.36,1.84 -0.75,2.68 -0.09,0.19 -0.19,0.38 -0.24,0.58 -0.14,0.65 0.35,1.73 1.16,1.59 0.13,-0.02 0.24,-0.07 0.36,-0.11 0.5,-0.19 0.85,-0.04 1.34,0.09 0.45,0.13 0.94,0.04 1.34,-0.2 0.45,-0.26 0.78,-0.71 0.91,-1.22l-1.59 -2.26z"
             class="fil0" /></g><g
           id="g108"><g
             id="g70"><g
               id="g40"><path
                 id="path38"
                 d="M203.91 165.18c-0.06,0 -0.12,-0.01 -0.18,-0.04 -0.29,-0.14 -0.47,-0.58 -0.38,-0.99 2.18,-10.66 4.25,-21.44 6.26,-31.86 2.01,-10.41 4.08,-21.18 6.24,-31.74 0.08,-0.41 0.39,-0.64 0.69,-0.5 0.3,0.14 0.47,0.58 0.38,0.99 -2.15,10.54 -4.23,21.31 -6.23,31.72 -2.01,10.43 -4.08,21.21 -6.26,31.88 -0.07,0.33 -0.28,0.54 -0.51,0.54z"
                 class="fil5" /></g><g
               id="g44"><path
                 id="path42"
                 d="M191.09 165.18c-0.06,0 -0.12,-0.01 -0.17,-0.04 -0.3,-0.14 -0.47,-0.58 -0.38,-0.99 2.18,-10.66 4.25,-21.44 6.26,-31.86 2,-10.41 4.08,-21.18 6.24,-31.74 0.08,-0.41 0.39,-0.64 0.69,-0.5 0.29,0.14 0.47,0.58 0.38,0.99 -2.16,10.54 -4.23,21.31 -6.23,31.72 -2.01,10.43 -4.09,21.21 -6.27,31.88 -0.07,0.33 -0.28,0.54 -0.51,0.54z"
                 class="fil5" /></g><g
               id="g48"><path
                 id="path46"
                 d="M207.31 146.41l-12.16 0c-0.31,0 -0.57,-0.35 -0.58,-0.78 -0.01,-0.43 0.23,-0.78 0.53,-0.78l12.16 0c0.31,0 0.57,0.35 0.58,0.78 0.01,0.43 -0.23,0.78 -0.53,0.78z"
                 class="fil5" /></g><g
               id="g52"><path
                 id="path50"
                 d="M209.25 135.82l-12.16 0c-0.31,0 -0.57,-0.35 -0.58,-0.78 -0.01,-0.43 0.23,-0.78 0.54,-0.78l12.16 0c0.31,0 0.57,0.35 0.58,0.78 0.01,0.43 -0.23,0.78 -0.53,0.78z"
                 class="fil5" /></g><g
               id="g56"><path
                 id="path54"
                 d="M205.38 157l-12.16 0c-0.31,0 -0.57,-0.35 -0.58,-0.78 -0.01,-0.43 0.23,-0.78 0.53,-0.78l12.16 0c0.31,0 0.57,0.35 0.58,0.78 0.01,0.43 -0.23,0.78 -0.54,0.78z"
                 class="fil5" /></g><g
               id="g60"><path
                 id="path58"
                 d="M211.56 125.22l-12.16 0c-0.31,0 -0.57,-0.35 -0.58,-0.78 -0.01,-0.43 0.23,-0.78 0.54,-0.78l12.16 0c0.31,0 0.57,0.35 0.58,0.78 0.01,0.43 -0.23,0.78 -0.54,0.78z"
                 class="fil5" /></g><g
               id="g64"><path
                 id="path62"
                 d="M213.32 114.63l-12.16 0c-0.31,0 -0.57,-0.35 -0.58,-0.78 -0.01,-0.43 0.23,-0.78 0.53,-0.78l12.16 0c0.31,0 0.57,0.35 0.58,0.78 0.01,0.43 -0.23,0.78 -0.53,0.78z"
                 class="fil5" /></g><g
               id="g68"><path
                 id="path66"
                 d="M215.82 104.03l-12.16 0c-0.31,0 -0.57,-0.35 -0.58,-0.78 -0.01,-0.43 0.23,-0.78 0.53,-0.78l12.16 0c0.31,0 0.57,0.35 0.58,0.78 0.01,0.43 -0.23,0.78 -0.53,0.78z"
                 class="fil5" /></g></g><g
             id="g104"><g
               id="g74"><path
                 id="path72"
                 d="M210.54 165.18c0.06,0 0.12,-0.01 0.18,-0.04 0.31,-0.14 0.52,-0.58 0.47,-0.99 -1.28,-10.66 -2.44,-21.44 -3.57,-31.86 -1.13,-10.41 -2.29,-21.18 -3.56,-31.74 -0.05,-0.41 -0.34,-0.64 -0.65,-0.5 -0.31,0.14 -0.52,0.58 -0.47,0.99 1.26,10.54 2.43,21.31 3.55,31.72 1.13,10.43 2.29,21.21 3.57,31.88 0.04,0.33 0.23,0.54 0.47,0.54z"
                 class="fil6" /></g><g
               id="g78"><path
                 id="path76"
                 d="M223.36 165.18c0.06,0 0.12,-0.01 0.18,-0.04 0.31,-0.14 0.52,-0.58 0.47,-0.99 -1.28,-10.66 -2.44,-21.44 -3.57,-31.86 -1.13,-10.41 -2.29,-21.18 -3.55,-31.74 -0.05,-0.41 -0.34,-0.64 -0.65,-0.5 -0.31,0.14 -0.52,0.58 -0.47,0.99 1.26,10.54 2.43,21.31 3.55,31.72 1.13,10.43 2.29,21.21 3.57,31.88 0.04,0.33 0.23,0.54 0.47,0.54z"
                 class="fil6" /></g><g
               id="g82"><path
                 id="path80"
                 d="M208.72 146.41l12.16 0c0.31,0 0.6,-0.35 0.65,-0.78 0.05,-0.43 -0.16,-0.78 -0.47,-0.78l-12.16 0c-0.31,0 -0.6,0.35 -0.65,0.78 -0.05,0.43 0.16,0.78 0.47,0.78z"
                 class="fil6" /></g><g
               id="g86"><path
                 id="path84"
                 d="M207.68 135.82l12.16 0c0.31,0 0.6,-0.35 0.65,-0.78 0.05,-0.43 -0.16,-0.78 -0.47,-0.78l-12.16 0c-0.31,0 -0.6,0.35 -0.65,0.78 -0.05,0.43 0.16,0.78 0.47,0.78z"
                 class="fil6" /></g><g
               id="g90"><path
                 id="path88"
                 d="M209.76 157l12.16 0c0.31,0 0.6,-0.35 0.65,-0.78 0.05,-0.43 -0.16,-0.78 -0.47,-0.78l-12.16 0c-0.31,0 -0.6,0.35 -0.65,0.78 -0.05,0.43 0.16,0.78 0.47,0.78z"
                 class="fil6" /></g><g
               id="g94"><path
                 id="path92"
                 d="M206.26 125.22l12.16 0c0.31,0 0.6,-0.35 0.65,-0.78 0.05,-0.43 -0.16,-0.78 -0.47,-0.78l-12.16 0c-0.31,0 -0.6,0.35 -0.65,0.78 -0.05,0.43 0.16,0.78 0.47,0.78z"
                 class="fil6" /></g><g
               id="g98"><path
                 id="path96"
                 d="M205.4 114.63l12.16 0c0.31,0 0.6,-0.35 0.65,-0.78 0.05,-0.43 -0.16,-0.78 -0.47,-0.78l-12.16 0c-0.31,0 -0.6,0.35 -0.65,0.78 -0.05,0.43 0.16,0.78 0.47,0.78z"
                 class="fil6" /></g><g
               id="g102"><path
                 id="path100"
                 d="M203.8 104.03l12.16 0c0.31,0 0.6,-0.35 0.65,-0.78 0.05,-0.43 -0.16,-0.78 -0.47,-0.78l-12.16 0c-0.31,0 -0.6,0.35 -0.65,0.78 -0.05,0.43 0.16,0.78 0.47,0.78z"
                 class="fil6" /></g></g><path
             id="path106"
             d="M201.3 101.02l17.17 0 0 -1.56c0,-0.74 -0.6,-1.34 -1.34,-1.34l-14.49 0c-0.74,0 -1.34,0.6 -1.34,1.34l0 1.56z"
             class="fil0" /></g><g
           id="g160"><g
             id="g114"><path
               id="path110"
               d="M211.44 80.66c0,0 -1.06,0.16 -2.4,0.31 -2.01,0.23 -4.66,0.45 -5.33,0.12 -1.11,-0.56 -4.77,-3.7 -4.77,-3.7l-0.57 -0.37c-0.1,-0.06 -0.2,-0.09 -0.32,-0.11 -0.12,-0.01 -0.33,-0.04 -0.6,-0.11 -0.14,-0.04 -0.27,-0.09 -0.38,-0.17 -0.02,-0.01 -0.04,-0.02 -0.06,-0.04 -0.01,-0.01 -0.02,-0.01 -0.02,-0.01 -0.25,-0.16 -0.45,-0.37 -0.62,-0.5 -0.25,-0.21 0.13,-0.34 0.55,-0.13 0.42,0.21 0.15,0.16 0.42,0.15 0.27,-0.01 -0.02,-0.41 -0.26,-0.7 -0.23,-0.27 -0.2,-0.27 -0.42,-0.59 -0.22,-0.31 -0.43,-0.55 -0.56,-0.75 -0.08,-0.14 -0.12,-0.32 0.04,-0.27 0.17,0.05 0.87,0.74 1.05,0.86 0.18,0.12 0.44,-0.1 0.94,0.17 0.5,0.27 0.69,1.08 0.85,1.34 0.16,0.26 5.22,3.22 5.85,3.19 0.63,-0.03 5.39,-1.17 6.86,-1.08 0.8,0.05 -0.26,2.38 -0.26,2.38z"
               class="fil7" /><path
               id="path112"
               d="M209.04 80.97c-2.01,0.23 -4.66,0.45 -5.33,0.12 -1.11,-0.56 -4.77,-3.7 -4.77,-3.7l-0.57 -0.37c-0.1,-0.06 -0.2,-0.09 -0.32,-0.11 -0.12,-0.01 -0.33,-0.04 -0.6,-0.11 -0.14,-0.04 -0.27,-0.09 -0.38,-0.17 0.34,0.17 1.04,0.03 1.38,0.21 0.37,0.19 2.94,2.29 4.11,3.03 1.16,0.74 1.6,0.99 2.65,0.98 1.04,0 3.53,-0.44 3.53,-0.44l0.3 0.55z"
               class="fil8" /></g><path
             id="path116"
             d="M199.61 113.03c0,0 -0.2,1.04 -0.16,1.86 0.12,0.57 0.02,0.74 0.02,0.74l-2.17 -0.12c0,0 0.94,-0.5 0.81,-2.73 -0.13,-2.23 1.49,0.25 1.49,0.25z"
             class="fil9" /><path
             id="path118"
             d="M199.48 115.06c0,0 -0.93,0.38 -1.87,0.14 -1.08,0.54 -1.84,0.76 -2.84,0.91 -0.99,0.15 -0.79,0.97 0.9,0.8 1.7,-0.16 2.88,-0.12 3.26,-0.09 0.38,0.03 0.98,0.06 1,-0.21 0.02,-0.26 -0.16,-1.66 -0.46,-1.56z"
             class="fil10" /><path
             id="path120"
             d="M206.25 113.99c0,0 -0.2,1.04 -0.16,1.86 0.12,0.57 0.02,0.74 0.02,0.74l-2.17 -0.12c0,0 0.94,-0.5 0.81,-2.73 -0.13,-2.23 1.49,0.25 1.49,0.25z"
             class="fil9" /><path
             id="path122"
             d="M206.12 116.03c0,0 -0.93,0.37 -1.87,0.14 -1.08,0.54 -1.84,0.76 -2.84,0.91 -0.99,0.15 -0.79,0.97 0.9,0.8 1.7,-0.16 2.88,-0.12 3.26,-0.09 0.38,0.03 0.98,0.06 1,-0.2 0.02,-0.27 -0.16,-1.66 -0.47,-1.56z"
             class="fil10" /><path
             id="path124"
             d="M208.23 92.88c0,0 -9.87,3.19 -10.29,7.07 -0.21,1.89 -1.83,12.86 -1.83,12.86 0,0 3.81,1.31 4.62,0.53 0,0 0.89,-10.94 1.25,-12.77 0.36,-1.83 10.01,-5.98 10.01,-5.98l-0.39 -2.49 -3.38 0.78z"
             class="fil11" /><path
             id="path126"
             d="M208.23 92.88c0,0 -9.87,3.19 -10.29,7.07 -0.21,1.89 -1.83,12.86 -1.83,12.86 0,0 3.81,1.31 4.62,0.53 0,0 0.89,-10.94 1.25,-12.77 0.36,-1.83 10.01,-5.98 10.01,-5.98l-0.39 -2.49 -3.38 0.78z"
             class="fil12" /><g
             id="g130"><path
               id="path128"
               d="M209.47 92.88l2.31 0.4 0.21 1.31c0,0 -9.65,4.15 -10.01,5.98 -0.08,0.4 -0.18,1.25 -0.3,2.31 -0.18,-0.68 -0.35,-1.36 -0.53,-2.04 -0.07,-0.26 -0.14,-0.53 -0.14,-0.8 -0.01,-0.59 0.29,-1.14 0.62,-1.62 1.64,-2.35 5.26,-4.32 7.84,-5.54z"
               class="fil13" /></g><path
             id="path132"
             d="M206.47 100.79c-0.41,-2.72 7.54,-1.15 9.09,-3.48 0.54,-0.81 0.86,-3.28 0,-3.95 -1.67,-1.3 -5.1,-0.86 -5.1,-0.86 0,0 -8.08,4.84 -8.08,6.83 -0.01,2.24 1.11,14.87 1.11,14.87 0,0 3.64,0.51 3.9,-0.18 0.47,-3.53 -0.92,-13.23 -0.92,-13.23z"
             class="fil12" /><path
             id="path134"
             d="M209.36 84.73c0.34,4.52 -1.65,4.6 -1.79,8.45 0,0 4.92,-0.62 8.43,0.85 0,0 -0.28,-2.19 -1.05,-4.23 -0.02,-0.06 -0.05,-0.12 -0.07,-0.18 -0.15,-0.38 -0.31,-0.75 -0.5,-1.1 -0.01,-0.02 -0.02,-0.04 -0.03,-0.06 -0.02,-0.05 -0.04,-0.09 -0.06,-0.15 -0.02,-0.02 -0.02,-0.03 -0.03,-0.05 -0.22,-0.59 -0.13,-1.35 0.14,-2.17 0.25,-0.76 0.64,-1.56 1.07,-2.3 0.25,-0.44 0.52,-0.87 0.78,-1.25l0 -0c0.73,-1.09 1.36,-1.88 1.36,-1.88 0,0 0.43,-1.44 -0.44,-2.69 0,-0 -0,-0 -0.01,-0.01 -0.1,-0.15 -0.22,-0.29 -0.36,-0.43 -0.37,-0.37 -1.41,-0.85 -2.25,-1.13 -0.22,-0.07 -0.42,-0.13 -0.6,-0.17 -0.14,-0.03 -0.27,-0.06 -0.37,-0.06 -0.49,-0.04 -0.86,-0.02 -1.17,0.05 -0.92,0.21 -1.21,0.39 -2.57,0.8l-2.98 1.29c0,0 0.4,2.49 0.09,3.24l2.06 -0.06c0,0 0.28,2.7 0.32,3.23z"
             class="fil14" /><path
             id="path136"
             d="M214.27 88.27c-0.55,-1.46 0.84,-3.99 1.99,-5.72l0 -0.01 -1.27 -1.34c0,0 0.02,2.2 -0.36,3.06 -0.37,0.85 -0.97,2.61 -0.36,4z"
             class="fil15" /><path
             id="path138"
             d="M209.65 79.44c0,0 -0.86,1.39 -0.61,2.06 -2.06,0.06 -2.06,0.06 -2.06,0.06 0,0 0.13,-0.32 0.12,-0.91 0.32,0.08 1.56,0.39 2.56,-1.21z"
             class="fil15" /><g
             id="g150"><path
               id="path140"
               d="M211.38 92.54l-8.2 -0.33c-0.19,-0.01 -0.36,-0.15 -0.4,-0.34l-1.14 -5.55c-0.05,-0.27 0.16,-0.52 0.43,-0.51l8.21 0.33c0.19,0.01 0.36,0.15 0.4,0.34l1.14 5.55c0.06,0.27 -0.16,0.52 -0.43,0.51z"
               class="fil1" /><path
               id="path142"
               d="M211.4 92.34l-8.17 -0.33c-0.12,-0.01 -0.22,-0.09 -0.24,-0.2l-1.12 -5.49c-0.03,-0.16 0.09,-0.31 0.26,-0.31l7.98 0.32c0.18,0.01 0.34,0.14 0.37,0.32l1.12 5.45c0.03,0.13 -0.07,0.24 -0.2,0.24z"
               class="fil0" /><path
               id="path144"
               d="M212.05 89.55l0.06 0.33 0.17 -0.02 0.1 0.48c0,0 0.13,-0.03 0.38,-0.07 0,-0 0,-0 0,-0 0.01,0 0.01,0 0.01,-0 0.42,-0.07 1.18,-0.23 2.18,-0.46 0.65,-0.15 1.4,-0.33 2.25,-0.55 1.11,-0.28 1.84,-0.85 1.85,-1.01 0.03,-0.25 -0.01,-0.74 -0.1,-1.34 -0.04,-0.31 -0.09,-0.64 -0.15,-0.98 -0.21,-1.23 -0.48,-2.54 -0.58,-3.01 -0.01,-0.05 -0.02,-0.09 -0.02,-0.12 -0.01,-0.04 -0.01,-0.06 -0.01,-0.06l-0.32 0.13 -1.76 0.68 0.12 0.33 1.09 3.14c0.01,0.01 0.01,0.03 0.01,0.04 0.01,0.09 -0.05,0.18 -0.14,0.22 -0.86,0.31 -1.9,0.8 -2.8,1.25 -0.77,0.38 -1.45,0.75 -1.82,0.95 -0.03,0.02 -0.05,0.03 -0.08,0.04 -0.09,0.05 -0.19,0.06 -0.27,0.06 -0.1,-0.01 -0.17,-0.03 -0.17,-0.03z"
               class="fil7" /><path
               id="path146"
               d="M212.78 90.26c0.42,-0.07 1.17,-0.23 2.18,-0.46 0.65,-0.15 1.4,-0.33 2.25,-0.55 1.11,-0.29 1.84,-0.86 1.86,-1.01 0.03,-0.25 -0.01,-0.75 -0.1,-1.34 -0.19,-1.42 -0.61,-3.39 -0.73,-3.99 -0.01,-0.05 -0.02,-0.09 -0.03,-0.12l-0.44 0.23c0,0 0.02,0.08 0.05,0.22 0.14,0.65 0.57,2.61 0.77,3.76 0.06,0.38 0.11,0.67 0.1,0.79 -0.02,0.57 -0.34,0.65 -0.73,0.81 -0.22,0.1 -1.73,0.59 -3.07,1.02 -1.02,0.33 -1.94,0.61 -2.11,0.64z"
               class="fil1" /><path
               id="path148"
               d="M212.57 89.47c0,0 -0.23,0.05 -0.3,0.05 -0.12,-0.01 -0.16,-0.03 -0.16,-0.03 0,0 -0.47,-0.32 -0.89,-0.37l0.07 0.34c0,0 -0.56,0.32 -0.73,0.43 0,0 -0.18,0.08 -0.26,0.11 -0.07,0.02 -0.73,-0.04 -0.88,-0.04 -0.15,0 -0.24,0.09 -0.23,0.19 0,0 0.01,0.05 0.09,0.06 0.02,0 0.06,0.01 0.11,0.02 -0.08,-0.01 -0.14,-0.01 -0.17,-0.01 -0.15,0 -0.24,0.09 -0.23,0.19 0,0 0.01,0.05 0.09,0.06 0.02,0.01 0.14,0.02 0.29,0.04 -0.12,0.02 -0.19,0.09 -0.18,0.18 0,0 0.01,0.05 0.09,0.06 0.03,0.01 0.15,0.02 0.31,0.04 -0.05,0.04 -0.07,0.08 -0.07,0.14 0,0 0.01,0.05 0.09,0.06 0.08,0.02 1.22,0.2 1.34,0.18 0.22,-0.04 1.03,-0.63 1.07,-0.66 0.15,-0.09 0.36,-0.17 0.36,-0.17l0.19 -0.87z"
               class="fil7" /></g><path
             id="path152"
             d="M214.74 81.07c0.46,1.58 0.66,2.41 0.74,2.73 0.02,0.1 0.03,0.15 0.03,0.15 0,0 0.29,0 0.71,-0.08 0.44,-0.09 1.03,-0.27 1.59,-0.63 0.04,-0.03 0.08,-0.05 0.12,-0.08 0.1,-0.07 0.2,-0.15 0.3,-0.24 0.17,-0.15 0.33,-0.32 0.47,-0.51 0,0 -0.47,-3.1 -1.51,-4.43 0,-0.01 -0.01,-0.01 -0.01,-0.01 -0.19,-0.24 -0.4,-0.43 -0.63,-0.52 -0.04,-0.02 -0.07,-0.03 -0.1,-0.04 -0.54,-0.18 -1,0.01 -1.33,0.43 -0.3,0.37 -0.49,0.93 -0.55,1.57 -0.04,0.52 0.01,1.08 0.17,1.65z"
             class="fil14" /><path
             id="path154"
             d="M211.29 75.4c0.38,0.2 0.78,0.28 1.18,0.29 -0,0.16 -0.02,0.34 -0.04,0.52 -0.1,0.03 -0.15,0.04 -0.22,0.06 -0.15,0.06 -0.08,0.36 -0.06,0.47 0.08,0.52 0.56,0.73 1.04,0.6 0.47,-0.14 0.65,-0.66 0.82,-1.07 0.07,-0.17 -0.01,-0.72 -0.01,-0.83 0.22,-0.09 0.79,-0.32 0.79,-0.32 0,0 1,-0.82 1.02,-1.55 0,-0.2 -0.36,-0.74 -0.36,-0.96 -0.01,-1.05 -0.72,-1.66 -1.09,-2.26 -0.47,-0.75 -1.69,-0.63 -2.53,-0.43 -0.51,0.12 -0.89,0.27 -0.89,0.27 0,0 -1.13,4.44 0.36,5.22z"
             class="fil7" /><g
             id="g158"><path
               id="path156"
               d="M210.08 68.79c0.06,-0.12 0.13,-0.23 0.19,-0.34 0.1,0.2 0.37,0.24 0.6,0.24 0.95,-0.02 1.92,-0.42 2.83,-0.14 0.27,0.08 0.54,0.25 0.63,0.51 0.75,-0.23 1.51,-0.01 2.05,0.58 1.08,1.18 0.08,2.96 0.63,4.31 0.19,0.47 0.55,0.85 0.68,1.34 0.11,0.44 0.01,0.92 -0.27,1.27 -0.31,0.39 -0.79,0.6 -1.26,0.79 -0.19,0.08 -0.39,0.16 -0.6,0.21 -0.43,0.1 -0.89,0.07 -1.29,-0.1 -0.3,-0.12 -0.59,-0.34 -0.68,-0.65 -0.08,-0.31 0.04,-0.63 0.17,-0.92 0.23,-0.52 0.56,-0.86 0.88,-1.3 0.32,-0.46 0.64,-0.67 0.57,-1.28 -0.01,-0.09 -0.03,-0.19 -0.09,-0.26 -0.11,-0.11 -0.3,-0.07 -0.41,0.03 -0.11,0.11 -0.15,0.26 -0.19,0.41 -0.12,-0.41 -0.39,-0.77 -0.75,-1 -0.29,-0.18 -0.53,-0.31 -0.75,-0.58 -0.13,-0.17 -0.5,-0.68 -0.37,-0.88 -0.42,0.24 -1.26,0.16 -1.71,0.04 -0.53,-0.14 -1.03,-0.51 -1.14,-1.05 -0.09,-0.43 0.07,-0.85 0.28,-1.24z"
               class="fil0" /></g></g></g><g
         id="_881685072"><path
           id="path163"
           d="M22.09 160.78c0,0.54 -4.95,0.97 -11.05,0.97 -6.1,0 -11.04,-0.44 -11.04,-0.97 0,-0.54 4.95,-0.97 11.04,-0.97 6.1,0 11.05,0.44 11.05,0.97z"
           class="fil16" /><g
           id="g167"><path
             id="path165"
             d="M13.2 100.96c0.42,0.42 0.8,0.88 1.01,1.43 0.2,0.55 0.2,1.21 -0.14,1.69 -0.18,0.26 -0.49,0.46 -0.79,0.38 -0.08,-0.02 -0.15,-0.06 -0.23,-0.11 -0.75,-0.47 -1.26,-1.28 -1.38,-2.15l1.53 -1.24z"
             class="fil0" /></g><g
           id="g229"><g
             id="g173"><path
               id="path169"
               d="M4.51 156.66c0,0 -0.49,1.43 -0.63,1.79 -0.14,0.36 -1.2,0.03 -1.27,-0.21 -0.06,-0.23 0.42,-1.94 0.42,-1.94l1.48 0.35z"
               class="fil7" /><path
               id="path171"
               d="M2.3 158.28c-0.13,0.38 -0.37,0.92 -0.32,1.12 0.05,0.19 1.4,0.76 1.7,0.95 0.22,0.14 0.72,0.32 0.97,0.37 0.89,0.16 1.58,0.01 1.65,-0.13 0.28,-0.58 -1.49,-0.97 -2.25,-2.61 0,0 -0.13,-0.01 -0.27,0.13 -0.22,0.21 -0.51,0.3 -0.76,0.15 -0.14,-0.08 -0.31,-0.26 -0.37,-0.43 0,0 -0.23,0.08 -0.36,0.46z"
               class="fil17" /></g><g
             id="g179"><path
               id="path175"
               d="M16.36 157.25c0,0 -0.03,1.52 -0.06,1.9 -0.03,0.38 -1.14,0.39 -1.27,0.19 -0.13,-0.2 -0.19,-1.97 -0.19,-1.97l1.52 -0.12z"
               class="fil7" /><path
               id="path177"
               d="M14.75 159.47c-0.01,0.4 -0.07,0.99 0.04,1.16 0.11,0.17 1.56,0.3 1.91,0.39 0.25,0.06 0.78,0.09 1.04,0.06 0.9,-0.12 1.51,-0.48 1.53,-0.63 0.09,-0.64 -1.71,-0.47 -2.93,-1.8 0,0 -0.13,0.03 -0.23,0.2 -0.14,0.27 -0.4,0.44 -0.67,0.38 -0.16,-0.04 -0.37,-0.16 -0.48,-0.29 0,0 -0.19,0.14 -0.2,0.54z"
               class="fil17" /></g><path
             id="path181"
             d="M27.39 97.23c-0.02,-0.16 -0.23,-0.08 -0.28,0.05 -0.01,0.02 -0.02,0.06 -0.03,0.12 0.02,-0.27 0.03,-0.49 0.02,-0.54 -0.02,-0.16 -0.21,-0.1 -0.28,0.03 0,-0.11 0.01,-0.19 0,-0.23 -0.02,-0.2 -0.23,-0.12 -0.28,0.05 -0.01,0.04 -0.03,0.14 -0.05,0.28 0,-0.07 0,-0.13 0,-0.15 -0.02,-0.16 -0.21,-0.12 -0.26,0.02 -0.02,0.05 -0.03,0.13 -0.06,0.32 -0.02,0.16 -0.07,0.34 -0.09,0.51 -0.02,0.15 -0.19,0.86 -0.55,0.93 -0.54,0.12 -0.2,-0.82 -0.58,-1.03 -0.12,-0.06 -0.25,0.66 -0.25,1.07 -0.01,0.41 -0.01,0.62 0.03,0.86 0.03,0.24 0.17,0.58 0.15,0.73 -0.03,0.24 -0.31,0.72 -0.31,0.72l1.36 0.31c0,0 0.32,-0.75 0.48,-0.92 0.42,-0.41 0.67,-0.88 0.83,-1.46 0.09,-0.36 0.13,-0.73 0.15,-1.1 0,0 -0.01,-0.5 -0.01,-0.56z"
             class="fil7" /><path
             id="path183"
             d="M14.59 108.61c0,0 4.31,-0.04 6.66,-2.66 1.87,-2.62 3.68,-5.52 3.81,-5.79 0.37,0.14 1.16,0.5 1.16,0.5 0,0 -2.47,5.53 -3.43,6.79 -0.96,1.26 -2.86,3.33 -6.86,4.36 -1.92,-2.2 -1.34,-3.19 -1.34,-3.19z"
             class="fil7" /><path
             id="path185"
             d="M17.83 142.99c0.25,-3.25 -0.87,-13.45 -0.98,-14.32 -0.11,-0.88 -0.73,-0.99 -1.2,-1.13 -2.35,-0.71 -5.14,2.94 -4.4,6.22 0.01,0.05 0.03,0.11 0.04,0.17 0.44,1.9 2.94,7.99 2.76,9.75 -1.37,3.69 0.18,11.33 0.65,14.55 0.06,0 0.12,0 0.17,-0 1.17,-0.04 1.84,-0.2 1.84,-0.2 0,0 0.87,-11.77 1.12,-15.02z"
             class="fil3" /><g
             id="g189"><path
               id="path187"
               d="M14.84 143.63c0.08,-1.2 -1.13,-10.75 -1.43,-10.62 -0.1,0.04 -0.16,0.14 -0.22,0.24 -0.25,0.43 -0.49,0.87 -0.7,1.32 -0.22,0.47 -0.4,0.95 -0.56,1.44 0.88,2.6 2.24,6.34 2.11,7.66 -0.81,2.19 -0.59,5.76 -0.19,8.98 -0.16,-4.24 0.91,-8.07 0.98,-9.02z"
               class="fil17" /></g><path
             id="path191"
             d="M16.47 125.19c0,0 -0.89,0.22 -2.67,0.17 -2.26,-0.06 -5.12,-1.2 -5.12,-1.2 -2.88,3.12 -1.3,6.77 -1.4,7.98 -0.1,1.2 -0.33,6.91 -0.59,10.09 -2.93,2.86 -3.03,10.48 -3.89,14.48 -0.01,0.05 -0.02,0.09 -0.03,0.14 1.2,0.45 1.94,0.54 1.94,0.54 0,0 0.11,-0.32 0.11,-0.32 0.87,-2.63 4.89,-10.18 5.89,-13.13 0.91,-2.68 3.26,-10.8 3.3,-10.79l2.99 0.51c0.01,-5.18 -0.53,-8.45 -0.53,-8.45z"
             class="fil3" /><g
             id="g199"><g
               id="g197"><g
                 id="g195"><path
                   id="path193"
                   d="M14.66 105.69c0.01,0.28 0.02,1.35 -0.55,1.61 -0.57,0.26 -0.94,0.37 -0.92,0.46 0.01,0.04 0.06,0.23 0.12,0.42 0.13,0.42 0.33,0.52 0.33,0.52l0.08 1.38 -1.03 1.03 -0.34 0.34 -0.51 -0.46 -1.64 -1.5c0,0 0.68,-0.84 0.21,-1.73 -0.07,-0.13 -0.82,-0.96 -1.42,-1.79 -0.35,-0.49 -0.65,-0.98 -0.72,-1.33 -0.22,-0.96 -0.39,-1.97 0.15,-2.57 0.55,-0.6 4.6,-2.53 5.32,0.61 0,0 0.61,0.81 0.89,1.06 0.28,0.25 0.21,0.6 -0.04,0.74 -0.25,0.14 0.04,0.95 0.05,1.23z"
                   class="fil7" /></g></g></g><path
             id="path201"
             d="M17.23 128.64c0,0 -4.68,1.15 -10.55,0.06 0.28,-1.82 0.76,-7.28 0.84,-9.35l0.01 -0.21c0.05,-1.32 0.07,-2.26 0.1,-2.3 0.06,-0.08 -0.15,-4.3 0.2,-5.95 0.06,-0.31 0.15,-0.52 0.25,-0.61 0.69,-0.57 1.49,-1.17 2.4,-1.62 0,0 2.1,2.26 3.18,-0.24 1.18,-0.11 1.78,0.13 2.12,1.31 1.89,6.56 1.46,18.91 1.46,18.91z"
             class="fil14" /><path
             id="path203"
             d="M14.53 108.43c0,0 1.96,0.03 3.95,-0.85 1.11,1.31 1.78,3.69 1.78,3.69 0,0 -2.69,1.71 -4.66,1.87 -0.42,-2.87 -1.08,-4.72 -1.08,-4.72z"
             class="fil14" /><path
             id="path205"
             d="M14.91 108.84c0,0 1.21,1.54 1.61,4.14 1.36,-0.26 3.48,-1.44 3.75,-1.71 -0.6,0.19 -3.15,1.14 -3.49,0.36 -0.65,-1.46 -1.86,-2.79 -1.86,-2.79z"
             class="fil18" /><g
             id="g211"><path
               id="path207"
               d="M14.41 110.31l8.65 0.94 -1.8 4.94 -7.25 -4.98c-0.22,-0.1 -0.31,-0.31 -0.21,-0.49l0.09 -0.18c0.09,-0.16 0.3,-0.26 0.52,-0.23z"
               class="fil0" /><path
               id="path209"
               d="M22.84 113.86c-0.5,1.36 -1.21,2.41 -1.58,2.33 -0.38,-0.08 -0.28,-1.24 0.21,-2.61 0.5,-1.36 1.21,-2.41 1.59,-2.33 0.38,0.08 0.28,1.24 -0.22,2.61z"
               class="fil13" /></g><g
             id="g221"><g
               id="g215"><path
                 id="path213"
                 d="M6.78 116.82c0,0 0.9,3.12 3.26,4.59 0.68,0.43 1.55,0.19 2.08,-0.42 1.61,-1.8 3.22,-5.86 3.74,-7.39 -0.94,-0.5 -1.25,-0.42 -1.25,-0.42 0,0 -2.28,3.17 -3.59,5.29l-0.98 -1.71 -3.26 0.05z"
                 class="fil7" /></g><g
               id="g219"><path
                 id="path217"
                 d="M14.55 113.3c0,0 0.42,-0.68 0.44,-1.19 0.02,-0.52 -0.22,-1.4 0.28,-1.87 0.18,-0.17 0.84,-0.44 1.57,-0.31 1.09,0.18 1.38,0.5 1.33,0.73 -0.06,0.23 -0.81,0.31 -1.01,0.7 -0.2,0.39 -0.09,0.64 -0.14,1.06 -0.08,0.65 -0.97,0.92 -1.17,1.24 -0.14,0.23 -1.29,-0.37 -1.29,-0.37z"
                 class="fil7" /></g></g><path
             id="path223"
             d="M7.82 126.88c0.27,-0.94 0.54,-6.47 0.57,-7.29 0.73,-0.08 2.15,-0.62 2.98,-1.95 -0.31,-0.53 -1.07,-2.35 -2.49,-3.9l-0.82 -3.07c0,0 -0.09,0.07 -0.24,0.21 -0.35,1.65 -0.14,5.87 -0.2,5.95 -0.03,0.04 -0.05,0.98 -0.1,2.3l-0.01 0.21c0,0 0,0 0,0 -0.08,2.07 -0.55,7.53 -0.84,9.35 5.87,1.09 10.55,-0.06 10.55,-0.06 0,0 -9.71,-0.69 -9.41,-1.76z"
             class="fil15" /><g
             id="g227"><path
               id="path225"
               d="M8.61 109.84c0,0 -2.43,1.59 -2.53,4.29 -0.08,2.09 1.3,5.14 1.3,5.14 0,0 2.4,0.26 3.66,-1.7 -0.37,-0.95 -0.7,-1.8 -1.42,-2.92l-1.02 -4.81z"
               class="fil14" /></g></g><g
           id="g233"><path
             id="path231"
             d="M12.27 101.68c0.9,-0.28 2.11,-0.34 1.58,-1.65 -0.31,-0.77 -1.36,-1.39 -2.63,-1.33 -0.7,0.04 -1.47,0.8 -1.91,1.74 -2.01,0.79 -2.26,2.41 -1.85,4.05 0,0 0.89,3.08 3.22,3.2 0,0 -0.01,-0.62 -0.24,-1.42 0,0 -0.95,-0.32 -1.12,-0.88 -0.24,-0.78 0.87,-0.26 0.87,-0.26 0,0 0.01,-0.62 -0.11,-1.17 -0.04,-0.21 -0.17,-0.38 -0.33,-0.52 0.04,-0.08 0.5,-1.13 2.52,-1.76z"
             class="fil0" /></g></g><g
         id="_891988768"><g
           id="g280"><path
             id="path236"
             d="M102.96 169.78c0,0.75 -5.05,1.36 -11.28,1.36 -6.23,0 -11.28,-0.61 -11.28,-1.36 0,-0.75 5.05,-1.36 11.28,-1.36 6.23,0 11.28,0.61 11.28,1.36z"
             class="fil7" /><g
             id="g242"><path
               id="path238"
               d="M86.94 166.59c0,0 -0,1.16 0.07,1.57 0.07,0.42 1.2,0.32 1.31,0.09 0.11,-0.23 -0.04,-2.15 -0.04,-2.15l-1.34 0.49z"
               class="fil7" /><path
               id="path240"
               d="M88.5 168.29c0.01,0.37 0.08,0.92 -0.02,1.07 -0.11,0.15 -1.59,0.28 -1.94,0.35 -0.26,0.06 -0.8,0.08 -1.06,0.05 -0.92,-0.11 -1.55,-0.44 -1.57,-0.58 -0.11,-0.59 1.74,-0.43 2.97,-1.66 0,0 0.13,0.02 0.23,0.18 0.15,0.25 0.41,0.41 0.69,0.35 0.16,-0.03 0.32,-0.1 0.44,-0.23 0,0 0.25,0.09 0.27,0.46z"
               class="fil12" /></g><path
             id="path244"
             d="M96.7 134.41c0.47,-0.35 0.98,-0.74 1.47,-1.14 1.11,-0.93 2.1,-1.94 2.22,-2.68 0.27,-1.65 0.06,-6.55 -0.07,-8.87 -0.01,-0.14 -0.01,-0.27 -0.02,-0.39 -0.13,-2.19 -1.31,-3.16 -1.89,-3.51 -0.3,2.84 -0.98,9.26 -1.03,9.59 -0.07,0.42 -0.67,7 -0.67,7z"
             class="fil14" /><path
             id="path246"
             d="M96.7 134.41c0.47,-0.35 0.98,-0.74 1.47,-1.14 0.04,-1.81 0.58,-4.33 1.34,-7.49 0.9,-3.98 0.33,-4.72 0.33,-4.72l-1.81 0.27c-0.3,2.81 -0.63,5.85 -0.66,6.08 -0.07,0.42 -0.67,7 -0.67,7z"
             class="fil18" /><g
             id="g258"><g
               id="g252"><path
                 id="path248"
                 d="M96.53 165.99c0,0 0.16,1.39 0.21,1.74 0.06,0.35 1.19,0.28 1.3,0.08 0.12,-0.2 0.04,-1.83 0.04,-1.83l-1.56 0z"
                 class="fil12" /><path
                 id="path250"
                 d="M98.35 167.91c0.04,0.37 0.15,0.91 0.05,1.07 -0.09,0.16 -1.57,0.39 -1.91,0.49 -0.25,0.07 -0.79,0.14 -1.05,0.13 -0.93,-0.04 -1.57,-0.33 -1.61,-0.47 -0.15,-0.58 1.71,-0.56 2.84,-1.87 0,0 0.14,0.01 0.24,0.17 0.16,0.24 0.44,0.38 0.72,0.3 0.16,-0.05 0.36,-0.17 0.47,-0.31 0,0 0.21,0.12 0.25,0.49z"
                 class="fil12" /></g><path
               id="path254"
               d="M97.09 133.83l-5.4 -0.03 0.52 6.68 0.18 2.26c0,0 0.51,9.05 0.92,10.48 0.68,3.99 3.14,13.87 3.14,13.87 0.65,0.18 1.41,0.17 1.87,-0.11 -0.48,-5.27 0.49,-11.13 -1.6,-14.89 0.33,-2.42 0.83,-4.58 1.32,-10.1 0.1,-1.12 0.48,-1.29 0.61,-3.61 0.13,-2.32 -1.55,-4.55 -1.55,-4.55z"
               class="fil12" /><path
               id="path256"
               d="M92.83 149.31c0.24,-1.12 0.99,-3.47 1.43,-4.69 0.63,-1.7 1.31,-2.49 1.31,-2.49 2.47,-3.09 0.28,-6.61 0.28,-6.61 0,0 -2.05,2.03 -2.19,2.23 -0.13,0.19 -0.88,1.83 -1.46,2.73l0.18 2.26c0,0 0.21,3.14 0.45,6.57z"
               class="fil13" /></g><path
             id="path260"
             d="M95.89 133.83l-6.98 0.32c0,0 -1.9,14.9 -1.79,17.75 0.19,5.16 -0.33,15.13 -0.33,15.13 0,0 0.85,0.8 1.81,0.33 0,0 3.61,-8.84 2.53,-14.52 0.5,-2.07 2.39,-8.9 3,-9.84 0.85,-1.32 4.09,-2.57 1.76,-9.16z"
             class="fil12" /><path
             id="path262"
             d="M95.58 116.54c0,0 -0.39,-1.31 -0.22,-2.28 0.17,-0.97 0.75,-2.71 0.53,-4.02 -0.22,-1.3 -1.86,-2.39 -3.6,-2.23 -1.74,0.17 -2.25,1.84 -2.54,2.81 -0.29,0.97 -0.24,2.44 -0.17,3.24 0.07,0.8 0.51,1.43 0.8,1.6 0.29,0.17 1.38,-0.05 1.57,0.15 0.19,0.21 0.34,1.44 0.34,1.44l3.29 -0.72z"
             class="fil7" /><path
             id="path264"
             d="M96.4 117.57c0,0 -0.1,-0.76 -0.39,-1.04 -0.29,-0.27 -2.23,-0.27 -2.81,-0.2 -0.58,0.07 -2.01,0.74 -2.2,0.88 -0.19,0.14 0.18,0.87 0.18,0.87l5.21 -0.52z"
             class="fil14" /><g
             id="g268"><path
               id="path266"
               d="M95.6 114.85c-0.02,0.02 -0.05,0.03 -0.07,0.04 -0.42,0.22 -0.97,0.18 -1.35,-0.1 -0.32,0.25 -0.72,0.43 -1.12,0.34 -0.39,-0.08 -0.72,-0.51 -0.57,-0.88 -0.31,0.05 -0.64,-0.05 -0.86,-0.27 -0.46,-0.44 -0.16,-0.83 -0.16,-1.34 -0,-0.36 -0.03,-0.99 -0.5,-1.06 -0.18,-0.03 -0.37,0.06 -0.46,0.22 -0.03,0.06 -0.06,0.14 -0.12,0.18 -0.08,0.05 -0.2,0.02 -0.26,-0.06 -0.06,-0.07 -0.08,-0.17 -0.09,-0.27 -0.03,-0.44 0.15,-0.91 0.47,-1.22 -0.65,-0.37 -1.01,-1 -1.08,-1.74 -0.03,-0.31 -0.01,-0.63 0.13,-0.9 0.2,-0.38 0.61,-0.61 1.01,-0.77 0.53,-0.22 1.05,-0.27 1.61,-0.17 0.64,0.12 0.85,0.51 1.34,0.67 0.79,-0.26 1.85,-0.01 2.01,0.86 0.41,-0.07 0.85,0.02 1.12,0.37 0.38,0.49 0.08,0.89 -0.04,1.4 -0.18,0.7 0.05,1.3 0.01,1.98 -0.03,0.58 -0.45,1.08 -0.6,1.63 -0.12,0.41 -0.02,0.84 -0.44,1.1z"
               class="fil10" /></g><g
             id="g274"><path
               id="path270"
               d="M88.78 132.66c-0.09,0.76 -0.75,2.61 -0.3,2.78 0.18,0.06 0.92,0.02 1.83,-0.05l0.03 0c0.02,0 0.03,-0.01 0.04,-0.01 0.8,-0.07 1.72,-0.16 2.49,-0.22 3.08,-0.13 4.65,-0.2 4.96,-0.37 0.15,-0.09 0.15,-0.36 0.11,-0.63 -0.11,-0.68 -0.14,-1.36 -0.05,-2.04 0.08,-0.57 0.18,-1.25 0.33,-2.03 0.51,-2.69 1.5,-6.81 1.65,-9.29 0.24,-3.88 -3.92,-3.51 -3.92,-3.51 -5.29,-0.33 -7.77,1.19 -8.06,3.46 -0.02,0.16 -0.04,0.34 -0.05,0.52 -0.13,2.34 0.58,6.13 0.92,8.95 0.09,0.78 0.08,1.68 0.03,2.44z"
               class="fil14" /><path
               id="path272"
               d="M88.78 132.66c-0.09,0.76 -0.75,2.61 -0.3,2.78 0.18,0.06 0.92,0.02 1.83,-0.05 -0.82,0.06 -0.97,-1.25 -0.79,-1.67 0.18,-0.43 0.56,-1.38 0.53,-2.5 -0.04,-1.13 -0.46,-3.67 -0.71,-6.06 -0.24,-2.23 -0.03,-3.97 -0,-4.21 -0.13,0.25 -0.49,0.61 -1.52,0.85 -0.02,2.36 0.62,5.81 0.93,8.44 0.09,0.78 0.08,1.68 0.03,2.44z"
               class="fil14" /></g><path
             id="path276"
             d="M75.29 131.21c-0.12,-0.06 0.01,-0.21 0.13,-0.2 0.02,0 0.05,0.01 0.1,0.01 -0.22,-0.07 -0.39,-0.13 -0.43,-0.15 -0.12,-0.06 -0.01,-0.19 0.11,-0.21 -0.08,-0.03 -0.15,-0.05 -0.17,-0.07 -0.15,-0.08 -0.02,-0.22 0.13,-0.21 0.03,0 0.12,0.02 0.23,0.05 -0.06,-0.02 -0.1,-0.04 -0.12,-0.05 -0.12,-0.06 -0.03,-0.2 0.09,-0.2 0.04,0 0.11,0.02 0.27,0.06 0.13,0.03 0.29,0.05 0.42,0.09 0.19,0.05 0.39,0.07 0.4,0.07 0.47,-0.15 0.7,-0.4 0.7,-0.4l-0.46 -0.26c0,0 -0.03,-0.41 1.26,0.08 0.19,0.07 0.36,0.34 0.48,0.37 0.12,0.03 0.47,0.03 0.47,0.03l-0 1.13c0,0 -0.63,-0.11 -0.81,-0.04 -0.18,0.08 -0.94,0.32 -1.06,0.33 -0.05,0.01 -0.27,-0.02 -0.54,-0.05l-0.39 -0.08 -0.36 -0.12c0,0 -0.39,-0.16 -0.43,-0.18z"
             class="fil7" /><path
             id="path278"
             d="M78.59 131.43c0,0 2.02,0.46 3.65,0.76 1.27,0.23 2.61,0.42 3.93,0.32 0.01,0 0.02,0 0.03,0 0.82,-0.03 1.9,-0.27 2.16,-0.64 0.25,-0.37 0.75,-1.82 0.75,-1.82 0.41,-0.85 1.04,-3.17 1.57,-5.15 0.01,-0.03 0.02,-0.06 0.03,-0.09 0.24,-0.92 0.47,-1.76 0.64,-2.33 0.08,-0.27 0.07,-0.55 -0.02,-0.8 -0.07,-0.22 -0.22,-0.42 -0.43,-0.56 -0,-0.01 -0,-0.01 -0.01,-0.01 -0.55,-0.38 -0.38,-0.91 -0.95,-0.55 -0.03,0.02 -0.37,-0.09 -0.4,-0.07 -0.37,-0.9 -0.12,-2.11 -0.12,-2.11 0,0 -1.6,0.7 -2.18,4 -0.13,0.73 -0.93,5.89 -0.99,6.52 -0,0.05 -0.01,0.09 -0.01,0.14 0,0 -0.02,0.07 -0.04,0.19 -0.01,0.03 -0.01,0.08 -0.01,0.12 -0.47,-0.01 -1,0.02 -1.56,0.15 -1.82,0.42 -5.9,0.63 -5.9,0.63l-0.11 1.02 -0 0.01 0 0.01 -0.02 0.27z"
             class="fil14" /></g></g><g
         id="_891989344"><g
           id="g285"><path
             id="path283"
             d="M146.18 172.68c0,0.53 3.26,0.96 7.27,0.96 4.01,0 7.27,-0.43 7.27,-0.96 0,-0.53 -3.25,-0.96 -7.27,-0.96 -4.01,0 -7.27,0.43 -7.27,0.96z"
             class="fil19" /></g><g
           id="g333"><g
             id="g289"><path
               id="path287"
               d="M161.23 169.99c0.68,-1.33 0.86,-2.93 0.26,-4.33 -0.35,-0.81 -0.83,-1.6 -1.53,-2.15 -0.61,-0.47 -1.33,-0.82 -2.08,-1.01 -1.29,-0.34 -2.72,-0.23 -3.87,0.45 -0.96,0.56 -1.67,1.48 -2.13,2.48 -0.45,0.98 -0.64,2.19 -1.62,2.82 -0.28,0.18 -0.74,0.25 -0.88,0.59 -0.16,0.4 0.13,0.79 0.29,1.14 0.19,0.41 0.38,0.82 0.56,1.23 0.14,0.29 0.26,0.8 0.62,0.91 0.34,0.12 0.7,-0.17 1.02,-0.26 0.84,-0.23 1.75,0.1 2.52,0.43 0.88,0.38 1.79,0.59 2.75,0.51 1.79,-0.16 3.27,-1.22 4.08,-2.8z"
               class="fil0" /></g><g
             id="g293"><path
               id="path291"
               d="M153.56 168.2l0.1 0.17 0 0 -0.13 0.07 -0.13 0.07 -0.14 0.08 -0.15 0.08 -0.15 0.08 -0.16 0.08 -0.16 0.08 -0.16 0.08 -0.16 0.08 -0.17 0.09 -0.17 0.09 -0.17 0.08 -0.17 0.09 -0.16 0.08 -0.16 0.08 -0.16 0.08 -0.16 0.08 -0.15 0.08 -0.15 0.07 -0.14 0.07 -0.13 0.07 -0.13 0.06 -0.12 0.06 -0.11 0.05 -0.1 0.05 -0.09 0.04 -0.08 0.04 -0.06 0.03 -0.05 0.03 -0.04 0.02 -0.02 0.01 -0.01 0.01 -0.09 -0.18 0.01 -0.01 0.03 -0.01 0.03 -0.02 0.05 -0.03 0.07 -0.03 0.07 -0.04 0.09 -0.04 0.1 -0.05 0.11 -0.05 0.12 -0.06 0.12 -0.06 0.13 -0.07 0.14 -0.07 0.15 -0.07 0.15 -0.08 0.16 -0.08 0.16 -0.08 0.16 -0.08 0.16 -0.08 0.17 -0.09 0.17 -0.08 0.17 -0.09 0.17 -0.09 0.16 -0.08 0.16 -0.08 0.16 -0.08 0.16 -0.08 0.15 -0.08 0.15 -0.08 0.14 -0.07 0.13 -0.07 0.13 -0.07 0 0zm0 0l0 0 0 0 0 0zm1.16 -0.79l0.13 0.15 0 0 -0.04 0.04 -0.04 0.04 -0.04 0.04 -0.04 0.04 -0.04 0.04 -0.04 0.03 -0.04 0.03 -0.04 0.03 -0.04 0.03 -0.04 0.03 -0.03 0.03 -0.04 0.03 -0.04 0.03 -0.04 0.03 -0.04 0.02 -0.03 0.02 -0.04 0.03 -0.04 0.02 -0.03 0.02 -0.04 0.02 -0.04 0.02 -0.03 0.02 -0.03 0.02 -0.04 0.02 -0.03 0.02 -0.03 0.02 -0.04 0.02 -0.03 0.02 -0.03 0.02 -0.04 0.02 -0.03 0.02 -0.03 0.02 -0.1 -0.17 0.03 -0.02 0.03 -0.02 0.03 -0.02 0.03 -0.02 0.04 -0.02 0.03 -0.02 0.03 -0.02 0.03 -0.02 0.03 -0.02 0.03 -0.02 0.04 -0.02 0.04 -0.02 0.03 -0.02 0.04 -0.03 0.03 -0.02 0.03 -0.03 0.04 -0.02 0.03 -0.02 0.04 -0.02 0.04 -0.03 0.04 -0.03 0.04 -0.03 0.04 -0.03 0.04 -0.03 0.04 -0.03 0.04 -0.03 0.04 -0.03 0.04 -0.03 0.04 -0.04 0.04 -0.04 0.04 -0.04 0.04 -0.04 0 0zm0.13 0.15l0 0 0 0 0 0zm0.38 -1.34l0.15 -0.14 0 0 0.04 0.05 0.03 0.05 0.03 0.05 0.02 0.05 0.02 0.05 0.01 0.05 0.01 0.05 0 0.06 -0.01 0.05 -0.01 0.06 -0.02 0.06 -0.02 0.05 -0.02 0.05 -0.02 0.05 -0.03 0.05 -0.03 0.05 -0.03 0.05 -0.03 0.05 -0.03 0.05 -0.04 0.05 -0.03 0.04 -0.03 0.05 -0.04 0.04 -0.04 0.04 -0.03 0.04 -0.04 0.04 -0.04 0.04 -0.03 0.03 -0.04 0.03 -0.03 0.03 -0.03 0.03 -0.03 0.03 -0.13 -0.15 0.03 -0.03 0.03 -0.03 0.03 -0.03 0.03 -0.03 0.03 -0.03 0.04 -0.03 0.03 -0.04 0.03 -0.04 0.04 -0.04 0.03 -0.04 0.03 -0.04 0.03 -0.04 0.03 -0.04 0.03 -0.04 0.03 -0.04 0.03 -0.04 0.02 -0.04 0.02 -0.04 0.02 -0.04 0.02 -0.04 0.01 -0.04 0.01 -0.04 0.01 -0.04 0.01 -0.04 0 -0.04 -0.01 -0.03 -0.01 -0.04 -0.01 -0.03 -0.01 -0.03 -0.02 -0.03 -0.03 -0.03 -0.03 -0.03 0 0zm0 0l0 0 0 0 0 0zm-0.84 0.7l-0.2 0 0 0 0 -0.05 0 -0.05 0.01 -0.05 0.01 -0.05 0.01 -0.05 0.02 -0.06 0.02 -0.05 0.02 -0.05 0.02 -0.05 0.03 -0.05 0.03 -0.05 0.03 -0.05 0.04 -0.05 0.03 -0.05 0.04 -0.05 0.04 -0.04 0.04 -0.04 0.05 -0.04 0.05 -0.03 0.05 -0.03 0.05 -0.03 0.05 -0.02 0.06 -0.02 0.06 -0.01 0.05 -0 0.06 0 0.06 0.01 0.05 0.02 0.05 0.02 0.06 0.04 0.05 0.04 0.05 0.05 -0.15 0.14 -0.04 -0.04 -0.03 -0.03 -0.04 -0.02 -0.03 -0.02 -0.03 -0.01 -0.03 -0.01 -0.03 -0 -0.04 0 -0.03 0.01 -0.03 0.01 -0.03 0.02 -0.04 0.02 -0.03 0.02 -0.04 0.02 -0.03 0.03 -0.03 0.03 -0.03 0.04 -0.03 0.04 -0.03 0.04 -0.03 0.04 -0.03 0.04 -0.03 0.04 -0.02 0.05 -0.02 0.05 -0.02 0.05 -0.02 0.05 -0.01 0.04 -0.01 0.04 -0.01 0.04 -0.01 0.04 -0 0.04 -0 0.04 0 0zm-0.2 0l0 0 0 0 0 0zm0.79 1.06l-0.12 0.16 0 0 -0.03 -0.02 -0.03 -0.03 -0.03 -0.03 -0.03 -0.03 -0.03 -0.03 -0.03 -0.03 -0.03 -0.03 -0.03 -0.04 -0.03 -0.04 -0.03 -0.03 -0.03 -0.04 -0.03 -0.04 -0.02 -0.04 -0.03 -0.04 -0.03 -0.04 -0.02 -0.04 -0.03 -0.04 -0.02 -0.04 -0.02 -0.04 -0.02 -0.04 -0.02 -0.04 -0.02 -0.04 -0.02 -0.04 -0.02 -0.04 -0.02 -0.04 -0.01 -0.04 -0.01 -0.04 -0.01 -0.04 -0.01 -0.05 -0 -0.04 -0.01 -0.04 0 -0.04 0.2 0 0 0.03 0.01 0.03 0 0.04 0.01 0.03 0.01 0.04 0.01 0.04 0.01 0.04 0.01 0.03 0.02 0.04 0.02 0.04 0.02 0.04 0.02 0.04 0.02 0.04 0.02 0.04 0.02 0.04 0.02 0.04 0.02 0.04 0.02 0.04 0.03 0.04 0.02 0.04 0.02 0.03 0.03 0.04 0.03 0.03 0.03 0.03 0.03 0.03 0.03 0.03 0.03 0.03 0.03 0.03 0.03 0.03 0.02 0.02 0.03 0.02 0.03 0.02 0 0zm-0.12 0.16l0 0 0 0 0 0zm1.91 -0.2l0.11 0.17 0 0 -0.05 0.03 -0.05 0.03 -0.06 0.03 -0.06 0.03 -0.06 0.03 -0.06 0.02 -0.06 0.02 -0.06 0.02 -0.06 0.02 -0.07 0.02 -0.06 0.02 -0.07 0.01 -0.06 0.01 -0.07 0.01 -0.07 0.01 -0.07 0.01 -0.07 0 -0.06 0 -0.07 0 -0.07 -0.01 -0.07 -0.01 -0.06 -0.01 -0.07 -0.01 -0.06 -0.02 -0.06 -0.02 -0.07 -0.02 -0.06 -0.02 -0.06 -0.03 -0.06 -0.03 -0.06 -0.03 -0.06 -0.04 -0.06 -0.04 0.12 -0.16 0.05 0.03 0.05 0.03 0.05 0.03 0.05 0.03 0.05 0.02 0.06 0.02 0.06 0.02 0.05 0.02 0.06 0.01 0.06 0.01 0.06 0.01 0.06 0.01 0.06 0.01 0.06 0 0.06 0 0.06 0 0.06 -0.01 0.06 -0.01 0.06 -0.01 0.06 -0.01 0.06 -0.01 0.06 -0.01 0.06 -0.02 0.06 -0.02 0.06 -0.02 0.06 -0.02 0.06 -0.02 0.05 -0.02 0.05 -0.02 0.05 -0.03 0.05 -0.03 0.04 -0.03 0 0zm0 0l0 0 0 0 0 0zm-0.21 -0.61l-0.02 -0.2 0 0 0.05 0 0.05 0 0.05 0.01 0.05 0.01 0.04 0.02 0.04 0.02 0.04 0.03 0.04 0.02 0.03 0.02 0.03 0.03 0.03 0.04 0.02 0.03 0.02 0.03 0.02 0.04 0.02 0.04 0.02 0.04 0.01 0.04 0.01 0.04 0.01 0.04 0 0.04 -0 0.04 -0 0.04 -0.01 0.05 -0.01 0.04 -0.01 0.04 -0.02 0.04 -0.02 0.04 -0.03 0.04 -0.03 0.03 -0.03 0.03 -0.04 0.03 -0.04 0.03 -0.11 -0.17 0.03 -0.02 0.02 -0.02 0.02 -0.02 0.02 -0.02 0.02 -0.02 0.01 -0.02 0.01 -0.02 0.01 -0.03 0.01 -0.03 0 -0.02 0 -0.03 0 -0.03 -0 -0.02 -0.01 -0.03 -0.01 -0.02 -0.01 -0.03 -0.01 -0.03 -0.01 -0.02 -0.02 -0.02 -0.02 -0.03 -0.02 -0.02 -0.01 -0.02 -0.02 -0.02 -0.02 -0.02 -0.03 -0.02 -0.02 -0.01 -0.03 -0.01 -0.03 -0.01 -0.03 -0.01 -0.03 -0.01 -0.03 -0 -0.03 0 0 0zm-0.02 -0.2l0 0 0 0 0 0zm-1.23 1.69l-0.19 0.07 0 0 -0.02 -0.08 -0.02 -0.08 -0.01 -0.08 0 -0.08 0.01 -0.08 0.02 -0.08 0.02 -0.07 0.03 -0.08 0.04 -0.08 0.04 -0.07 0.04 -0.07 0.05 -0.07 0.05 -0.07 0.06 -0.07 0.06 -0.06 0.06 -0.06 0.06 -0.06 0.06 -0.06 0.07 -0.05 0.06 -0.05 0.07 -0.05 0.07 -0.05 0.07 -0.04 0.07 -0.04 0.06 -0.04 0.06 -0.03 0.06 -0.03 0.06 -0.03 0.06 -0.02 0.05 -0.02 0.05 -0.01 0.05 -0.01 0.02 0.2 -0.03 0.01 -0.04 0.01 -0.04 0.02 -0.05 0.02 -0.05 0.02 -0.05 0.03 -0.06 0.03 -0.06 0.03 -0.06 0.04 -0.06 0.04 -0.06 0.04 -0.06 0.05 -0.06 0.05 -0.06 0.05 -0.06 0.05 -0.06 0.06 -0.06 0.06 -0.05 0.06 -0.05 0.06 -0.05 0.06 -0.04 0.06 -0.04 0.06 -0.04 0.06 -0.03 0.06 -0.02 0.06 -0.02 0.06 -0.01 0.06 -0.01 0.06 -0 0.06 0.01 0.06 0.01 0.06 0.02 0.05 0 0zm-0.19 0.07l0 0 0 0 0 0zm0.95 0.72l-0.09 0.18 0 0 -0.04 -0.02 -0.03 -0.02 -0.04 -0.02 -0.03 -0.02 -0.03 -0.02 -0.04 -0.02 -0.03 -0.02 -0.03 -0.02 -0.03 -0.02 -0.03 -0.03 -0.03 -0.03 -0.03 -0.03 -0.03 -0.02 -0.03 -0.03 -0.03 -0.03 -0.03 -0.03 -0.03 -0.03 -0.03 -0.03 -0.02 -0.03 -0.03 -0.03 -0.03 -0.04 -0.02 -0.03 -0.02 -0.03 -0.02 -0.04 -0.02 -0.04 -0.02 -0.03 -0.02 -0.03 -0.02 -0.03 -0.02 -0.04 -0.02 -0.04 -0.02 -0.04 -0.01 -0.04 0.19 -0.07 0.01 0.03 0.01 0.03 0.01 0.03 0.02 0.03 0.02 0.03 0.02 0.03 0.02 0.03 0.02 0.03 0.02 0.03 0.02 0.03 0.02 0.03 0.02 0.03 0.03 0.03 0.02 0.03 0.02 0.03 0.03 0.03 0.02 0.03 0.03 0.02 0.03 0.02 0.03 0.02 0.03 0.03 0.02 0.02 0.03 0.02 0.03 0.02 0.03 0.02 0.03 0.02 0.03 0.02 0.03 0.02 0.03 0.02 0.03 0.02 0.03 0.02 0.03 0.02 0 0zm0 0l0 0 0 0 0 0zm0.51 -0.61l0.06 -0.19 0 0 0.09 0.03 0.08 0.04 0.07 0.04 0.06 0.04 0.05 0.05 0.04 0.05 0.03 0.05 0.02 0.06 0.02 0.06 0 0.06 -0 0.05 -0.01 0.06 -0.02 0.06 -0.03 0.05 -0.03 0.05 -0.04 0.05 -0.04 0.04 -0.04 0.04 -0.05 0.04 -0.05 0.03 -0.06 0.03 -0.06 0.03 -0.06 0.02 -0.07 0.02 -0.06 0.01 -0.07 0.01 -0.07 0 -0.07 -0 -0.07 -0.01 -0.07 -0.02 -0.07 -0.02 -0.07 -0.03 0.09 -0.18 0.05 0.02 0.05 0.02 0.05 0.01 0.05 0.01 0.05 0 0.05 -0 0.05 -0.01 0.05 -0.01 0.05 -0.01 0.05 -0.02 0.05 -0.02 0.04 -0.03 0.04 -0.03 0.04 -0.03 0.03 -0.03 0.03 -0.03 0.02 -0.03 0.02 -0.03 0.02 -0.03 0.01 -0.03 0.01 -0.03 0 -0.03 -0 -0.03 -0.01 -0.03 -0.01 -0.03 -0.02 -0.03 -0.02 -0.03 -0.03 -0.03 -0.04 -0.03 -0.05 -0.03 -0.06 -0.03 -0.07 -0.03 0 0zm-2.02 0.25l-0.07 -0.19 0 0 0.06 -0.02 0.06 -0.02 0.06 -0.02 0.06 -0.02 0.06 -0.02 0.06 -0.02 0.06 -0.02 0.07 -0.02 0.07 -0.02 0.07 -0.02 0.07 -0.02 0.07 -0.02 0.07 -0.02 0.07 -0.01 0.07 -0.01 0.07 -0.01 0.07 -0.01 0.07 -0.01 0.07 -0.01 0.07 -0.01 0.07 -0.01 0.07 -0 0.07 0 0.07 0 0.07 0 0.07 0.01 0.07 0.01 0.07 0.01 0.07 0.01 0.07 0.02 0.06 0.02 0.07 0.02 -0.06 0.19 -0.06 -0.02 -0.06 -0.02 -0.06 -0.01 -0.06 -0.01 -0.06 -0.01 -0.06 -0.01 -0.06 -0.01 -0.06 -0 -0.07 0 -0.06 0 -0.06 0 -0.06 0.01 -0.07 0.01 -0.07 0.01 -0.07 0.01 -0.06 0.01 -0.07 0.01 -0.07 0.01 -0.06 0.01 -0.06 0.01 -0.07 0.02 -0.07 0.02 -0.07 0.02 -0.06 0.02 -0.06 0.02 -0.06 0.02 -0.06 0.02 -0.06 0.02 -0.06 0.02 -0.06 0.02 -0.06 0.02 -0.06 0.02 0 0zm-4.6 1.87l-0.08 -0.18 0.15 -0.06 0.15 -0.06 0.15 -0.06 0.15 -0.06 0.15 -0.06 0.14 -0.06 0.14 -0.06 0.14 -0.06 0.14 -0.06 0.14 -0.06 0.14 -0.06 0.14 -0.06 0.14 -0.06 0.14 -0.06 0.14 -0.06 0.14 -0.06 0.14 -0.06 0.14 -0.06 0.14 -0.05 0.14 -0.06 0.14 -0.06 0.14 -0.06 0.14 -0.06 0.14 -0.06 0.14 -0.06 0.14 -0.06 0.15 -0.06 0.14 -0.06 0.15 -0.06 0.15 -0.06 0.15 -0.06 0.15 -0.06 0.07 0.19 -0.15 0.06 -0.15 0.06 -0.15 0.06 -0.15 0.06 -0.15 0.06 -0.14 0.06 -0.14 0.06 -0.14 0.06 -0.14 0.06 -0.14 0.06 -0.14 0.06 -0.14 0.05 -0.14 0.06 -0.14 0.06 -0.14 0.06 -0.14 0.06 -0.14 0.06 -0.14 0.05 -0.14 0.06 -0.14 0.06 -0.14 0.06 -0.14 0.06 -0.14 0.06 -0.14 0.06 -0.14 0.06 -0.14 0.06 -0.14 0.06 -0.15 0.06 -0.15 0.06 -0.15 0.06 -0.15 0.06 -0.15 0.06z"
               class="fil14" /></g><polygon
             id="polygon295"
             points="150.29,172.04 149.04,169.25 149.32,169.12 150.57,171.92 "
             class="fil17" /><path
             id="path297"
             d="M149.41 172.63c0.04,-0.07 0.13,-0.12 0.21,-0.09l0.03 0.01c0.08,0.03 0.17,-0.01 0.21,-0.08l0.02 -0.04c0.04,-0.08 0.14,-0.11 0.22,-0.08 0.07,0.03 0.17,-0.01 0.21,-0.08l0.07 -0.12c0.03,-0.04 0.03,-0.09 0.01,-0.14l-1.25 -2.78c-0.02,-0.05 -0.06,-0.08 -0.11,-0.09l-0.13 -0.03c-0.08,-0.02 -0.17,0.03 -0.2,0.11 -0.03,0.08 -0.12,0.13 -0.21,0.11l-0.05 -0.01c-0.08,-0.02 -0.17,0.03 -0.2,0.1l-0.01 0.03c-0.03,0.07 -0.13,0.12 -0.21,0.1l-0.04 -0.01c-0.08,-0.02 -0.18,0.03 -0.21,0.1l-0.01 0.02c-0.03,0.09 -0.03,0.18 0,0.25l1.2 2.68c0.04,0.08 0.1,0.14 0.19,0.17l0.02 0.01c0.08,0.03 0.18,-0.01 0.22,-0.09l0.02 -0.03z"
             class="fil3" /><g
             id="g327"><g
               id="g301"><path
                 id="path299"
                 d="M150.02 172.24c0.01,0 0.02,-0 0.02,-0.01 0.03,-0.01 0.04,-0.04 0.03,-0.07l-0.58 -1.29c-0.01,-0.02 -0.04,-0.04 -0.07,-0.02 -0.02,0.01 -0.04,0.04 -0.02,0.06l0.58 1.29c0.01,0.02 0.03,0.03 0.04,0.03z"
                 class="fil17" /></g><g
               id="g305"><path
                 id="path303"
                 d="M149.18 170.37c0.01,0 0.02,-0 0.02,-0.01 0.03,-0.01 0.04,-0.04 0.03,-0.07l-0.32 -0.72c-0.01,-0.03 -0.04,-0.04 -0.07,-0.03 -0.03,0.01 -0.04,0.04 -0.03,0.07l0.32 0.72c0.01,0.02 0.03,0.03 0.04,0.03z"
                 class="fil17" /></g><g
               id="g309"><path
                 id="path307"
                 d="M149.3 171.48c0.01,0 0.02,-0 0.02,-0.01 0.03,-0.01 0.04,-0.04 0.03,-0.07l-0.84 -1.88c-0.01,-0.02 -0.04,-0.04 -0.06,-0.02 -0.03,0.01 -0.04,0.04 -0.03,0.06l0.84 1.88c0.01,0.02 0.03,0.03 0.04,0.03z"
                 class="fil17" /></g><g
               id="g313"><path
                 id="path311"
                 d="M149.7 172.39c0.01,0 0.01,-0 0.02,-0.01 0.03,-0.01 0.04,-0.04 0.03,-0.06l-0.25 -0.55c-0.01,-0.03 -0.04,-0.04 -0.07,-0.03 -0.03,0.01 -0.04,0.04 -0.03,0.07l0.25 0.55c0.01,0.02 0.03,0.03 0.05,0.03z"
                 class="fil17" /></g><g
               id="g317"><path
                 id="path315"
                 d="M148.67 170.94c0.01,0 0.01,0 0.02,-0.01 0.03,-0.01 0.04,-0.04 0.03,-0.06l-0.45 -1c-0.01,-0.03 -0.04,-0.04 -0.06,-0.03 -0.03,0.01 -0.04,0.04 -0.03,0.07l0.45 1c0.01,0.02 0.03,0.03 0.05,0.03z"
                 class="fil17" /></g><g
               id="g321"><path
                 id="path319"
                 d="M149.15 172c0.01,0 0.02,-0 0.02,-0.01 0.03,-0.01 0.04,-0.04 0.03,-0.07l-0.18 -0.4c-0.01,-0.03 -0.04,-0.04 -0.06,-0.03 -0.03,0.01 -0.04,0.04 -0.03,0.07l0.18 0.4c0.01,0.02 0.03,0.03 0.05,0.03z"
                 class="fil17" /></g><g
               id="g325"><path
                 id="path323"
                 d="M149.32 170.69c0.01,0 0.02,0 0.02,-0 0.03,-0.01 0.04,-0.04 0.03,-0.07l-0.06 -0.15c-0.01,-0.02 -0.04,-0.04 -0.07,-0.02 -0.03,0.01 -0.04,0.04 -0.03,0.06l0.07 0.15c0.01,0.02 0.03,0.03 0.04,0.03z"
                 class="fil17" /></g></g><g
             id="g331"><path
               id="path329"
               d="M161.23 169.99c0.68,-1.33 0.86,-2.93 0.26,-4.33 -0.07,-0.16 -0.14,-0.32 -0.22,-0.48 0.86,2.28 -0.21,5.07 -2.56,6.03 -1.98,0.81 -3.79,0.48 -5.53,-1.1 -0.36,-0.33 -0.77,-0.51 -1.27,-0.36 -0.46,0.13 -0.84,0.47 -1.32,0.57 -0.07,0.02 -0.15,0.03 -0.22,0 -0.06,-0.02 -0.12,-0.07 -0.16,-0.12 -0.39,-0.41 -0.64,-0.92 -0.77,-1.47 -0.02,0.03 -0.04,0.06 -0.05,0.09 -0.16,0.4 0.13,0.79 0.29,1.14 0.19,0.41 0.38,0.82 0.56,1.23 0.14,0.29 0.26,0.8 0.62,0.91 0.34,0.12 0.7,-0.17 1.02,-0.26 0.84,-0.23 1.75,0.1 2.52,0.43 0.88,0.38 1.79,0.59 2.75,0.51 1.79,-0.16 3.27,-1.22 4.08,-2.8z"
               class="fil0" /></g></g></g></g></g></svg>