<?xml version="1.0" encoding="UTF-8" standalone="no"?>
<svg
   xmlns:dc="http://purl.org/dc/elements/1.1/"
   xmlns:cc="http://creativecommons.org/ns#"
   xmlns:rdf="http://www.w3.org/1999/02/22-rdf-syntax-ns#"
   xmlns:svg="http://www.w3.org/2000/svg"
   xmlns="http://www.w3.org/2000/svg"
   id="svg242"
   viewBox="0 0 744.75 501.48"
   style="shape-rendering:geometricPrecision; text-rendering:geometricPrecision; image-rendering:optimizeQuality; fill-rule:evenodd; clip-rule:evenodd"
   version="1.1"
   height="6.8152mm"
   width="10.1213mm"
   xml:space="preserve"><metadata
     id="metadata246"><rdf:RDF><cc:Work
         rdf:about=""><dc:format>image/svg+xml</dc:format><dc:type
           rdf:resource="http://purl.org/dc/dcmitype/StillImage" /></cc:Work></rdf:RDF></metadata><defs
     id="defs44"><style
       id="style2"
       type="text/css"><![CDATA[
    .fil1 {fill:#0082A6;fill-rule:nonzero}
    .fil0 {fill:#12BDEB;fill-rule:nonzero}
    .fil3 {fill:#E6E6E6;fill-rule:nonzero}
    .fil2 {fill:white;fill-rule:nonzero}
   ]]></style><mask
       id="id0"><linearGradient
         y2="454.19"
         x2="399.47"
         y1="348.2"
         x1="293.49"
         gradientUnits="userSpaceOnUse"
         id="id1"><stop
           id="stop4"
           style="stop-opacity:0.447059; stop-color:white"
           offset="0" /><stop
           id="stop6"
           style="stop-opacity:0.447059; stop-color:white"
           offset="0.0117647" /><stop
           id="stop8"
           style="stop-opacity:0; stop-color:white"
           offset="1" /></linearGradient><rect
         id="rect11"
         height="129.05"
         width="79.47"
         y="344.9"
         x="314.98"
         style="fill:url(#id1)" /></mask><mask
       id="id2"><linearGradient
         y2="441.97"
         x2="411.47"
         y1="335.32"
         x1="304.82"
         gradientUnits="userSpaceOnUse"
         id="id3"><stop
           id="stop14"
           style="stop-opacity:0.447059; stop-color:white"
           offset="0" /><stop
           id="stop16"
           style="stop-opacity:0.447059; stop-color:white"
           offset="0.0117647" /><stop
           id="stop18"
           style="stop-opacity:0; stop-color:white"
           offset="1" /></linearGradient><rect
         id="rect21"
         height="157.3"
         width="99.65"
         y="316.66"
         x="314.98"
         style="fill:url(#id3)" /></mask><mask
       id="id4"><linearGradient
         y2="389.92"
         x2="463.74"
         y1="283.94"
         x1="357.76"
         gradientUnits="userSpaceOnUse"
         id="id5"><stop
           id="stop24"
           style="stop-opacity:0.447059; stop-color:white"
           offset="0" /><stop
           id="stop26"
           style="stop-opacity:0.447059; stop-color:white"
           offset="0.0117647" /><stop
           id="stop28"
           style="stop-opacity:0; stop-color:white"
           offset="1" /></linearGradient><rect
         id="rect31"
         height="52.1"
         width="32.08"
         y="316.66"
         x="400.49"
         style="fill:url(#id5)" /></mask><mask
       id="id6"><linearGradient
         y2="399.89"
         x2="453.77"
         y1="293.91"
         x1="347.79"
         gradientUnits="userSpaceOnUse"
         id="id7"><stop
           id="stop34"
           style="stop-opacity:0.447059; stop-color:white"
           offset="0" /><stop
           id="stop36"
           style="stop-opacity:0.447059; stop-color:white"
           offset="0.0117647" /><stop
           id="stop38"
           style="stop-opacity:0; stop-color:white"
           offset="1" /></linearGradient><rect
         id="rect41"
         height="76.79"
         width="47.28"
         y="316.66"
         x="385.29"
         style="fill:url(#id7)" /></mask></defs><g
     id="Camada_x0020_1"><metadata
       id="CorelCorpID_0Corel-Layer" /><g
       id="_4676899824"><g
         id="g188"><g
           id="g81"><g
             id="g59"><g
               id="g57"><path
                 id="path47"
                 d="M382.03 93.74c0,-5 -4.05,-9.05 -9.05,-9.05 -5,0 -9.05,4.05 -9.05,9.05 0,5 4.05,9.05 9.05,9.05 5,0 9.05,-4.05 9.05,-9.05z"
                 class="fil0" /><g
                 id="g55"><path
                   id="path49"
                   d="M385.96 78.31c-3.63,-3.07 -8.18,-4.74 -12.98,-4.74 -4.8,0 -9.35,1.67 -12.98,4.74l-5.36 -5.36c5.08,-4.5 11.52,-6.95 18.34,-6.95 6.82,0 13.27,2.46 18.34,6.95l-5.36 5.36z"
                   class="fil0" /><path
                   id="path51"
                   d="M342.35 60.66c8.37,-7.77 19.18,-12.02 30.63,-12.02 11.45,0 22.27,4.25 30.63,12.02l-5.35 5.35c-6.93,-6.34 -15.85,-9.81 -25.28,-9.81 -9.43,0 -18.34,3.47 -25.28,9.81l-5.35 -5.35z"
                   class="fil0" /><path
                   id="path53"
                   d="M329.66 47.98c11.77,-11.16 27.09,-17.28 43.33,-17.28 16.24,0 31.55,6.12 43.33,17.28l-5.35 5.34c-10.34,-9.72 -23.75,-15.06 -37.98,-15.06 -14.22,0 -27.64,5.34 -37.98,15.06l-5.35 -5.34z"
                   class="fil0" /></g></g></g><g
             id="g75"><g
               id="g73"><g
                 id="g63"><path
                   id="path61"
                   d="M371.42 130.4c0,-0.86 0.7,-1.56 1.56,-1.56 0.86,0 1.56,0.7 1.56,1.56l-3.12 0zm0 4.16l0 -4.16 3.12 0 0 4.16 -3.12 0zm3.12 0c0,0.86 -0.7,1.56 -1.56,1.56 -0.86,0 -1.56,-0.7 -1.56,-1.56l3.12 0z"
                   class="fil0" /></g><g
                 id="g67"><path
                   id="path65"
                   d="M371.42 146.66c0,-0.86 0.7,-1.56 1.56,-1.56 0.86,0 1.56,0.7 1.56,1.56l-3.12 0zm3.12 7.98l-3.12 0 0 -7.98 3.12 0 0 7.98zm0 0c0,0.86 -0.7,1.56 -1.56,1.56 -0.86,0 -1.56,-0.7 -1.56,-1.56l3.12 0zm-3.12 11.97c0,-0.86 0.7,-1.56 1.56,-1.56 0.86,0 1.56,0.7 1.56,1.56l-3.12 0zm3.12 7.98l-3.12 0 0 -7.98 3.12 0 0 7.98zm0 0c0,0.86 -0.7,1.56 -1.56,1.56 -0.86,0 -1.56,-0.7 -1.56,-1.56l3.12 0zm-3.12 11.97c0,-0.86 0.7,-1.56 1.56,-1.56 0.86,0 1.56,0.7 1.56,1.56l-3.12 0zm3.12 7.98l-3.12 0 0 -7.98 3.12 0 0 7.98zm0 0c0,0.86 -0.7,1.56 -1.56,1.56 -0.86,0 -1.56,-0.7 -1.56,-1.56l3.12 0zm-3.12 11.97c0,-0.86 0.7,-1.56 1.56,-1.56 0.86,0 1.56,0.7 1.56,1.56l-3.12 0zm3.12 7.98l-3.12 0 0 -7.98 3.12 0 0 7.98zm0 0c0,0.86 -0.7,1.56 -1.56,1.56 -0.86,0 -1.56,-0.7 -1.56,-1.56l3.12 0zm-3.12 11.98c0,-0.86 0.7,-1.56 1.56,-1.56 0.86,0 1.56,0.7 1.56,1.56l-3.12 0zm3.12 7.98l-3.12 0 0 -7.98 3.12 0 0 7.98zm0 0c0,0.86 -0.7,1.56 -1.56,1.56 -0.86,0 -1.56,-0.7 -1.56,-1.56l3.12 0zm-3.12 11.98c0,-0.86 0.7,-1.56 1.56,-1.56 0.86,0 1.56,0.7 1.56,1.56l-3.12 0zm3.12 7.98l-3.12 0 0 -7.98 3.12 0 0 7.98zm0 0c0,0.86 -0.7,1.56 -1.56,1.56 -0.86,0 -1.56,-0.7 -1.56,-1.56l3.12 0zm-3.12 11.98c0,-0.86 0.7,-1.56 1.56,-1.56 0.86,0 1.56,0.7 1.56,1.56l-3.12 0zm3.12 7.98l-3.12 0 0 -7.98 3.12 0 0 7.98zm0 0c0,0.86 -0.7,1.56 -1.56,1.56 -0.86,0 -1.56,-0.7 -1.56,-1.56l3.12 0zm-3.12 11.98c0,-0.86 0.7,-1.56 1.56,-1.56 0.86,0 1.56,0.7 1.56,1.56l-3.12 0zm3.12 7.98l-3.12 0 0 -7.98 3.12 0 0 7.98zm0 0c0,0.86 -0.7,1.56 -1.56,1.56 -0.86,0 -1.56,-0.7 -1.56,-1.56l3.12 0zm-3.12 11.98c0,-0.86 0.7,-1.56 1.56,-1.56 0.86,0 1.56,0.7 1.56,1.56l-3.12 0zm3.12 7.98l-3.12 0 0 -7.98 3.12 0 0 7.98zm0 0c0,0.86 -0.7,1.56 -1.56,1.56 -0.86,0 -1.56,-0.7 -1.56,-1.56l3.12 0zm-3.12 11.98c0,-0.86 0.7,-1.56 1.56,-1.56 0.86,0 1.56,0.7 1.56,1.56l-3.12 0zm3.12 7.98l-3.12 0 0 -7.98 3.12 0 0 7.98zm0 0c0,0.86 -0.7,1.56 -1.56,1.56 -0.86,0 -1.56,-0.7 -1.56,-1.56l3.12 0zm-3.12 11.98c0,-0.86 0.7,-1.56 1.56,-1.56 0.86,0 1.56,0.7 1.56,1.56l-3.12 0zm3.12 7.98l-3.12 0 0 -7.98 3.12 0 0 7.98zm0 0c0,0.86 -0.7,1.56 -1.56,1.56 -0.86,0 -1.56,-0.7 -1.56,-1.56l3.12 0zm-3.12 11.98c0,-0.86 0.7,-1.56 1.56,-1.56 0.86,0 1.56,0.7 1.56,1.56l-3.12 0zm3.12 7.98l-3.12 0 0 -7.98 3.12 0 0 7.98zm0 0c0,0.86 -0.7,1.56 -1.56,1.56 -0.86,0 -1.56,-0.7 -1.56,-1.56l3.12 0zm-3.12 11.99c0,-0.86 0.7,-1.56 1.56,-1.56 0.86,0 1.56,0.7 1.56,1.56l-3.12 0zm3.12 7.99l-3.12 0 0 -7.99 3.12 0 0 7.99zm0 0c0,0.86 -0.7,1.56 -1.56,1.56 -0.86,0 -1.56,-0.7 -1.56,-1.56l3.12 0z"
                   class="fil0" /></g><g
                 id="g71"><path
                   id="path69"
                   d="M371.42 408.7c0,-0.86 0.7,-1.56 1.56,-1.56 0.86,0 1.56,0.7 1.56,1.56l-3.12 0zm0 4.16l0 -4.16 3.12 0 0 4.16 -3.12 0zm3.12 0c0,0.86 -0.7,1.56 -1.56,1.56 -0.86,0 -1.56,-0.7 -1.56,-1.56l3.12 0z"
                   class="fil0" /></g></g></g><g
             id="g79"><path
               id="path77"
               d="M372.98 6.17l0 -6.17 0 0 3.43 0.09 3.39 0.26 3.34 0.43 3.29 0.59 3.22 0.74 3.17 0.91 3.11 1.05 3.02 1.19 2.96 1.34 2.88 1.47 2.8 1.61 2.7 1.74 2.62 1.86 2.52 1.98 2.43 2.1 2.31 2.21 2.21 2.32 2.1 2.43 1.97 2.52 1.87 2.61 1.74 2.72 1.6 2.79 1.47 2.88 1.34 2.96 1.19 3.03 1.05 3.11 0.91 3.17 0.74 3.22 0.59 3.29 0.43 3.34 0.26 3.39 0.09 3.43 -6.17 0 -0.07 -3.12 -0.24 -3.08 -0.38 -3.03 -0.53 -2.98 -0.68 -2.93 -0.82 -2.88 -0.95 -2.81 -1.09 -2.75 -1.21 -2.68 -1.34 -2.61 -1.46 -2.54 -1.57 -2.45 -1.69 -2.38 -1.8 -2.3 -1.91 -2.19 -2.01 -2.11 -2.1 -2 -2.19 -1.91 -2.3 -1.8 -2.37 -1.69 -2.47 -1.57 -2.53 -1.46 -2.6 -1.34 -2.69 -1.21 -2.74 -1.09 -2.81 -0.95 -2.88 -0.82 -2.93 -0.68 -2.98 -0.53 -3.03 -0.38 -3.08 -0.24 -3.12 -0.07 0 0zm-60.57 60.58l-6.17 0 0 0 0.09 -3.43 0.26 -3.39 0.43 -3.34 0.59 -3.29 0.74 -3.22 0.91 -3.17 1.05 -3.11 1.19 -3.03 1.34 -2.96 1.47 -2.88 1.6 -2.79 1.74 -2.72 1.87 -2.61 1.97 -2.52 2.1 -2.43 2.21 -2.32 2.31 -2.21 2.43 -2.1 2.52 -1.98 2.62 -1.86 2.7 -1.74 2.8 -1.61 2.88 -1.47 2.96 -1.34 3.02 -1.19 3.11 -1.05 3.17 -0.91 3.22 -0.74 3.29 -0.59 3.34 -0.43 3.39 -0.26 3.43 -0.09 0 6.17 -3.12 0.07 -3.08 0.24 -3.03 0.38 -2.98 0.53 -2.93 0.68 -2.88 0.82 -2.81 0.95 -2.74 1.09 -2.69 1.21 -2.6 1.34 -2.53 1.46 -2.47 1.57 -2.37 1.69 -2.3 1.8 -2.19 1.91 -2.1 2 -2.01 2.11 -1.91 2.19 -1.8 2.3 -1.69 2.38 -1.57 2.45 -1.46 2.54 -1.34 2.61 -1.21 2.68 -1.09 2.75 -0.95 2.81 -0.82 2.88 -0.68 2.93 -0.53 2.98 -0.38 3.03 -0.24 3.08 -0.07 3.12 0 0zm60.57 60.57l0 6.17 0 0 -3.43 -0.09 -3.39 -0.26 -3.34 -0.43 -3.29 -0.59 -3.22 -0.74 -3.17 -0.91 -3.11 -1.05 -3.02 -1.19 -2.96 -1.34 -2.88 -1.47 -2.79 -1.6 -2.72 -1.74 -2.61 -1.87 -2.52 -1.97 -2.43 -2.1 -2.31 -2.21 -2.21 -2.31 -2.1 -2.43 -1.97 -2.52 -1.87 -2.61 -1.74 -2.72 -1.6 -2.79 -1.47 -2.88 -1.34 -2.96 -1.19 -3.02 -1.05 -3.11 -0.91 -3.17 -0.74 -3.22 -0.59 -3.29 -0.43 -3.34 -0.26 -3.39 -0.09 -3.43 6.17 0 0.07 3.12 0.24 3.08 0.38 3.03 0.53 2.98 0.68 2.93 0.82 2.88 0.95 2.81 1.09 2.74 1.21 2.69 1.34 2.6 1.46 2.54 1.57 2.45 1.69 2.38 1.8 2.3 1.91 2.19 2.01 2.1 2.1 2.01 2.19 1.91 2.3 1.8 2.38 1.69 2.45 1.57 2.54 1.46 2.6 1.34 2.69 1.21 2.74 1.09 2.81 0.95 2.88 0.82 2.93 0.68 2.98 0.53 3.03 0.38 3.08 0.24 3.12 0.07 0 0zm60.57 -60.57l6.17 0 0 0 -0.09 3.43 -0.26 3.39 -0.43 3.34 -0.59 3.29 -0.74 3.22 -0.91 3.17 -1.05 3.11 -1.19 3.02 -1.34 2.96 -1.47 2.88 -1.6 2.79 -1.74 2.72 -1.87 2.61 -1.97 2.52 -2.1 2.43 -2.21 2.31 -2.31 2.21 -2.43 2.1 -2.52 1.97 -2.61 1.87 -2.72 1.74 -2.79 1.6 -2.88 1.47 -2.96 1.34 -3.02 1.19 -3.11 1.05 -3.17 0.91 -3.22 0.74 -3.29 0.59 -3.34 0.43 -3.39 0.26 -3.43 0.09 0 -6.17 3.12 -0.07 3.08 -0.24 3.03 -0.38 2.98 -0.53 2.93 -0.68 2.88 -0.82 2.81 -0.95 2.74 -1.09 2.69 -1.21 2.6 -1.34 2.54 -1.46 2.45 -1.57 2.38 -1.69 2.3 -1.8 2.19 -1.91 2.1 -2.01 2.01 -2.1 1.91 -2.19 1.8 -2.3 1.69 -2.38 1.57 -2.45 1.46 -2.54 1.34 -2.6 1.21 -2.69 1.09 -2.74 0.95 -2.81 0.82 -2.88 0.68 -2.93 0.53 -2.98 0.38 -3.03 0.24 -3.08 0.07 -3.12 0 0z"
               class="fil0" /></g></g><g
           id="g106"><g
             id="g96"><g
               id="_4684299792"><g
                 id="g85"><path
                   id="path83"
                   d="M513.55 167.86c0.43,-0.74 1.39,-0.99 2.13,-0.56 0.74,0.43 0.99,1.39 0.56,2.13l-2.69 -1.57zm-2.09 3.59l2.09 -3.59 2.69 1.57 -2.09 3.59 -2.69 -1.57zm2.69 1.57c-0.43,0.74 -1.39,0.99 -2.13,0.56 -0.74,-0.43 -0.99,-1.39 -0.56,-2.13l2.69 1.57z"
                   class="fil0" /></g><g
                 id="g89"><path
                   id="path87"
                   d="M505.38 181.9c0.43,-0.74 1.39,-0.99 2.13,-0.56 0.74,0.43 0.99,1.39 0.56,2.13l-2.69 -1.57zm-1.32 8.48l-2.69 -1.57 4.01 -6.9 2.69 1.57 -4.01 6.9zm0 0c-0.43,0.74 -1.39,0.99 -2.13,0.56 -0.74,-0.43 -0.99,-1.39 -0.56,-2.13l2.69 1.57zm-8.7 8.78c0.43,-0.74 1.39,-0.99 2.13,-0.56 0.74,0.43 0.99,1.39 0.56,2.13l-2.69 -1.57zm-1.32 8.48l-2.69 -1.57 4.01 -6.9 2.69 1.57 -4.01 6.9zm0 0c-0.43,0.74 -1.39,0.99 -2.13,0.56 -0.74,-0.43 -0.99,-1.39 -0.56,-2.13l2.69 1.57zm-8.7 8.78c0.43,-0.74 1.39,-0.99 2.13,-0.56 0.74,0.43 0.99,1.39 0.56,2.13l-2.69 -1.57zm-1.32 8.48l-2.69 -1.57 4.01 -6.9 2.69 1.57 -4.01 6.9zm0 0c-0.43,0.74 -1.39,0.99 -2.13,0.56 -0.74,-0.43 -0.99,-1.39 -0.56,-2.13l2.69 1.57zm-8.7 8.78c0.43,-0.74 1.39,-0.99 2.13,-0.56 0.74,0.43 0.99,1.39 0.56,2.13l-2.69 -1.57zm-1.32 8.48l-2.69 -1.57 4.01 -6.9 2.69 1.57 -4.01 6.9zm0 0c-0.43,0.74 -1.39,0.99 -2.13,0.56 -0.74,-0.43 -0.99,-1.39 -0.56,-2.13l2.69 1.57zm-8.71 8.78c0.43,-0.74 1.39,-0.99 2.13,-0.56 0.74,0.43 0.99,1.39 0.56,2.13l-2.69 -1.57zm-1.32 8.48l-2.69 -1.57 4.01 -6.9 2.69 1.57 -4.01 6.9zm0 0c-0.43,0.74 -1.39,0.99 -2.13,0.56 -0.74,-0.43 -0.99,-1.39 -0.56,-2.13l2.69 1.57zm-8.71 8.78c0.43,-0.74 1.39,-0.99 2.13,-0.56 0.74,0.43 0.99,1.39 0.56,2.13l-2.69 -1.57zm-1.32 8.48l-2.69 -1.57 4.01 -6.9 2.69 1.57 -4.01 6.9zm0 0c-0.43,0.74 -1.39,0.99 -2.13,0.56 -0.74,-0.43 -0.99,-1.39 -0.56,-2.13l2.69 1.57zm-8.71 8.78c0.43,-0.74 1.39,-0.99 2.13,-0.56 0.74,0.43 0.99,1.39 0.56,2.13l-2.69 -1.57zm-1.32 8.48l-2.69 -1.57 4.01 -6.9 2.69 1.57 -4.01 6.9zm0 0c-0.43,0.74 -1.39,0.99 -2.13,0.56 -0.74,-0.43 -0.99,-1.39 -0.56,-2.13l2.69 1.57zm-8.71 8.78c0.43,-0.74 1.39,-0.99 2.13,-0.56 0.74,0.43 0.99,1.39 0.56,2.13l-2.69 -1.57zm-1.32 8.48l-2.69 -1.57 4.01 -6.9 2.69 1.57 -4.01 6.9zm0 0c-0.43,0.74 -1.39,0.99 -2.13,0.56 -0.74,-0.43 -0.99,-1.39 -0.56,-2.13l2.69 1.57zm-8.71 8.79c0.43,-0.74 1.39,-0.99 2.13,-0.56 0.74,0.43 0.99,1.39 0.56,2.13l-2.69 -1.57zm-1.32 8.48l-2.69 -1.57 4.01 -6.9 2.69 1.57 -4.01 6.9zm0 0c-0.43,0.74 -1.39,0.99 -2.13,0.56 -0.74,-0.43 -0.99,-1.39 -0.56,-2.13l2.69 1.57zm-8.71 8.79c0.43,-0.74 1.39,-0.99 2.13,-0.56 0.74,0.43 0.99,1.39 0.56,2.13l-2.69 -1.57zm-1.32 8.48l-2.69 -1.57 4.01 -6.9 2.69 1.57 -4.01 6.9zm0 0c-0.43,0.74 -1.39,0.99 -2.13,0.56 -0.74,-0.43 -0.99,-1.39 -0.56,-2.13l2.69 1.57zm-8.71 8.79c0.43,-0.74 1.39,-0.99 2.13,-0.56 0.74,0.43 0.99,1.39 0.56,2.13l-2.69 -1.57zm-1.32 8.48l-2.69 -1.57 4.01 -6.91 2.69 1.57 -4.01 6.91zm0 0c-0.43,0.74 -1.39,0.99 -2.13,0.56 -0.74,-0.43 -0.99,-1.39 -0.56,-2.13l2.69 1.57zm-8.71 8.79c0.43,-0.74 1.39,-0.99 2.13,-0.56 0.74,0.43 0.99,1.39 0.56,2.13l-2.69 -1.57zm-1.32 8.48l-2.69 -1.57 4.02 -6.91 2.69 1.57 -4.02 6.91zm0 0c-0.43,0.74 -1.39,0.99 -2.13,0.56 -0.74,-0.43 -0.99,-1.39 -0.56,-2.13l2.69 1.57zm-8.72 8.79c0.43,-0.74 1.39,-0.99 2.13,-0.56 0.74,0.43 0.99,1.39 0.56,2.13l-2.69 -1.57zm-1.32 8.48l-2.69 -1.57 4.02 -6.91 2.69 1.57 -4.02 6.91zm0 0c-0.43,0.74 -1.39,0.99 -2.13,0.56 -0.74,-0.43 -0.99,-1.39 -0.56,-2.13l2.69 1.57z"
                   class="fil0" /></g><g
                 id="g93"><path
                   id="path91"
                   d="M373.73 408.49c0.43,-0.74 1.38,-0.99 2.13,-0.57 0.74,0.43 0.99,1.38 0.57,2.13l-2.69 -1.56zm-2.09 3.6l2.09 -3.6 2.69 1.56 -2.09 3.6 -2.69 -1.56zm2.69 1.56c-0.43,0.74 -1.38,0.99 -2.13,0.57 -0.74,-0.43 -0.99,-1.38 -0.57,-2.13l2.69 1.56z"
                   class="fil0" /></g></g></g><g
             id="g100"><path
               id="path98"
               d="M577.32 61.22l3.09 -5.33 0 0 2.92 1.8 2.8 1.93 2.68 2.05 2.55 2.16 2.42 2.27 2.29 2.37 2.15 2.47 2.02 2.55 1.88 2.64 1.75 2.72 1.6 2.8 1.47 2.86 1.32 2.92 1.18 2.98 1.04 3.03 0.9 3.08 0.74 3.11 0.6 3.15 0.45 3.18 0.29 3.19 0.15 3.21 -0.02 3.23 -0.18 3.23 -0.32 3.23 -0.49 3.22 -0.65 3.21 -0.81 3.19 -0.98 3.17 -1.14 3.13 -1.32 3.11 -1.48 3.05 -1.65 3.01 -5.33 -3.09 1.5 -2.74 1.35 -2.77 1.18 -2.81 1.04 -2.86 0.89 -2.86 0.74 -2.9 0.59 -2.91 0.45 -2.92 0.29 -2.92 0.16 -2.94 0.01 -2.92 -0.13 -2.91 -0.26 -2.91 -0.4 -2.88 -0.54 -2.86 -0.68 -2.83 -0.81 -2.8 -0.95 -2.75 -1.07 -2.7 -1.21 -2.66 -1.34 -2.6 -1.46 -2.53 -1.59 -2.47 -1.71 -2.39 -1.83 -2.32 -1.96 -2.24 -2.07 -2.15 -2.2 -2.05 -2.31 -1.96 -2.43 -1.85 -2.54 -1.75 -2.66 -1.63 0 0zm-82.82 21.94l-5.33 -3.09 0 0 1.8 -2.92 1.93 -2.8 2.05 -2.68 2.16 -2.55 2.27 -2.42 2.37 -2.28 2.46 -2.16 2.56 -2.02 2.64 -1.88 2.72 -1.75 2.8 -1.6 2.86 -1.47 2.92 -1.32 2.99 -1.18 3.02 -1.04 3.08 -0.9 3.11 -0.74 3.15 -0.6 3.17 -0.45 3.19 -0.29 3.21 -0.15 3.23 0.02 3.23 0.18 3.23 0.32 3.22 0.49 3.21 0.65 3.19 0.81 3.17 0.98 3.14 1.14 3.11 1.32 3.05 1.48 3.01 1.65 -3.09 5.33 -2.74 -1.5 -2.77 -1.35 -2.81 -1.18 -2.85 -1.04 -2.88 -0.89 -2.89 -0.74 -2.91 -0.59 -2.93 -0.45 -2.92 -0.29 -2.94 -0.16 -2.92 -0.01 -2.91 0.13 -2.91 0.26 -2.88 0.4 -2.86 0.54 -2.83 0.68 -2.79 0.81 -2.75 0.95 -2.71 1.07 -2.66 1.21 -2.6 1.34 -2.53 1.46 -2.47 1.59 -2.41 1.71 -2.31 1.83 -2.24 1.95 -2.15 2.08 -2.05 2.2 -1.96 2.31 -1.85 2.43 -1.75 2.54 -1.63 2.66 0 0zm21.94 82.82l-3.09 5.33 0 0 -2.92 -1.8 -2.81 -1.93 -2.67 -2.05 -2.55 -2.16 -2.42 -2.27 -2.28 -2.37 -2.16 -2.47 -2.02 -2.55 -1.88 -2.64 -1.74 -2.72 -1.61 -2.79 -1.47 -2.87 -1.32 -2.92 -1.18 -2.98 -1.04 -3.03 -0.9 -3.08 -0.74 -3.11 -0.6 -3.15 -0.45 -3.18 -0.29 -3.2 -0.14 -3.21 0.01 -3.22 0.18 -3.23 0.33 -3.23 0.49 -3.22 0.65 -3.21 0.81 -3.19 0.98 -3.17 1.14 -3.13 1.32 -3.11 1.48 -3.05 1.65 -3.01 5.33 3.09 -1.5 2.74 -1.35 2.77 -1.18 2.81 -1.04 2.86 -0.89 2.86 -0.74 2.9 -0.6 2.91 -0.44 2.92 -0.3 2.92 -0.15 2.94 -0.01 2.93 0.13 2.91 0.26 2.91 0.4 2.88 0.54 2.86 0.68 2.83 0.81 2.8 0.95 2.75 1.07 2.7 1.21 2.66 1.34 2.59 1.46 2.54 1.58 2.47 1.71 2.39 1.83 2.32 1.96 2.24 2.08 2.15 2.2 2.05 2.31 1.96 2.42 1.85 2.55 1.75 2.66 1.63 0 0zm82.82 -21.94l5.33 3.09 0 0 -1.8 2.92 -1.93 2.8 -2.05 2.68 -2.16 2.55 -2.27 2.42 -2.37 2.29 -2.47 2.15 -2.55 2.02 -2.64 1.88 -2.72 1.75 -2.8 1.6 -2.86 1.47 -2.92 1.32 -2.98 1.18 -3.03 1.04 -3.08 0.9 -3.11 0.74 -3.15 0.6 -3.18 0.45 -3.19 0.29 -3.21 0.15 -3.23 -0.02 -3.23 -0.18 -3.23 -0.32 -3.22 -0.49 -3.21 -0.65 -3.19 -0.81 -3.17 -0.98 -3.13 -1.14 -3.11 -1.32 -3.05 -1.48 -3.01 -1.65 3.09 -5.33 2.74 1.5 2.77 1.35 2.81 1.18 2.86 1.04 2.86 0.89 2.9 0.74 2.91 0.59 2.92 0.45 2.92 0.29 2.94 0.16 2.92 0.01 2.91 -0.13 2.91 -0.26 2.88 -0.4 2.86 -0.54 2.83 -0.68 2.8 -0.81 2.75 -0.95 2.7 -1.07 2.66 -1.21 2.6 -1.34 2.53 -1.46 2.47 -1.59 2.39 -1.71 2.32 -1.83 2.24 -1.96 2.15 -2.07 2.05 -2.2 1.96 -2.31 1.85 -2.43 1.75 -2.54 1.63 -2.66 0 0z"
               class="fil0" /></g><g
             id="g104"><path
               id="path102"
               d="M558.07 98.15c2.53,-4.36 6.18,-4.76 9.58,-2.78 1.27,0.74 2.2,1.66 2.99,2.82l7.72 -5.52c-1.77,-2.65 -3.8,-4.98 -6.62,-6.62 -8.01,-4.66 -18.93,-4.12 -25.19,6.68l-1.31 2.25 -6.1 -3.55 -5.17 8.9 6.09 3.54 -20.74 35.7 10.97 6.37 20.74 -35.7 9.65 5.61 5.17 -8.9 -9.66 -5.61 1.87 -3.21z"
               class="fil0" /></g></g><g
           id="g132"><g
             id="g122"><g
               id="g120"><g
                 id="g110"><path
                   id="path108"
                   d="M221.89 174.21c-0.46,-0.73 -0.24,-1.7 0.49,-2.16 0.73,-0.46 1.7,-0.24 2.16,0.49l-2.65 1.66zm2.21 3.52l-2.21 -3.52 2.65 -1.66 2.21 3.52 -2.65 1.66zm2.65 -1.66c0.46,0.73 0.24,1.7 -0.49,2.16 -0.73,0.46 -1.7,0.24 -2.16,-0.49l2.65 -1.66z"
                   class="fil0" /></g><g
                 id="g114"><path
                   id="path112"
                   d="M230.51 187.99c-0.45,-0.73 -0.23,-1.7 0.5,-2.15 0.73,-0.45 1.7,-0.23 2.15,0.5l-2.65 1.65zm6.88 5.12l-2.65 1.65 -4.23 -6.77 2.65 -1.65 4.23 6.77zm0 0c0.45,0.73 0.23,1.7 -0.5,2.15 -0.73,0.45 -1.7,0.23 -2.15,-0.5l2.65 -1.65zm3.7 11.8c-0.45,-0.73 -0.23,-1.7 0.5,-2.15 0.73,-0.45 1.7,-0.23 2.15,0.5l-2.65 1.65zm6.88 5.12l-2.65 1.65 -4.23 -6.77 2.65 -1.65 4.23 6.77zm0 0c0.45,0.73 0.23,1.7 -0.5,2.15 -0.73,0.45 -1.7,0.23 -2.15,-0.5l2.65 -1.65zm3.7 11.8c-0.45,-0.73 -0.23,-1.7 0.5,-2.15 0.73,-0.45 1.7,-0.23 2.15,0.5l-2.65 1.65zm6.88 5.12l-2.65 1.65 -4.23 -6.77 2.65 -1.65 4.23 6.77zm0 0c0.45,0.73 0.23,1.7 -0.5,2.15 -0.73,0.45 -1.7,0.23 -2.15,-0.5l2.65 -1.65zm3.7 11.8c-0.45,-0.73 -0.23,-1.7 0.5,-2.15 0.73,-0.45 1.7,-0.23 2.15,0.5l-2.65 1.65zm6.88 5.12l-2.65 1.65 -4.23 -6.77 2.65 -1.65 4.23 6.77zm0 0c0.45,0.73 0.23,1.7 -0.5,2.15 -0.73,0.45 -1.7,0.23 -2.15,-0.5l2.65 -1.65zm3.7 11.8c-0.45,-0.73 -0.23,-1.7 0.5,-2.15 0.73,-0.45 1.7,-0.23 2.15,0.5l-2.65 1.65zm6.88 5.12l-2.65 1.65 -4.23 -6.77 2.65 -1.65 4.23 6.77zm0 0c0.45,0.73 0.23,1.7 -0.5,2.15 -0.73,0.45 -1.7,0.23 -2.15,-0.5l2.65 -1.65zm3.7 11.8c-0.45,-0.73 -0.23,-1.7 0.5,-2.15 0.73,-0.45 1.7,-0.23 2.15,0.5l-2.65 1.65zm6.88 5.12l-2.65 1.65 -4.23 -6.77 2.65 -1.65 4.23 6.77zm0 0c0.45,0.73 0.23,1.7 -0.5,2.15 -0.73,0.45 -1.7,0.23 -2.15,-0.5l2.65 -1.65zm3.7 11.8c-0.45,-0.73 -0.23,-1.7 0.5,-2.15 0.73,-0.45 1.7,-0.23 2.15,0.5l-2.65 1.65zm6.88 5.12l-2.65 1.65 -4.23 -6.77 2.65 -1.65 4.23 6.77zm0 0c0.45,0.73 0.23,1.7 -0.5,2.15 -0.73,0.45 -1.7,0.23 -2.15,-0.5l2.65 -1.65zm3.7 11.8c-0.45,-0.73 -0.23,-1.7 0.5,-2.15 0.73,-0.45 1.7,-0.23 2.15,0.5l-2.65 1.65zm6.88 5.12l-2.65 1.65 -4.23 -6.77 2.65 -1.65 4.23 6.77zm0 0c0.45,0.73 0.23,1.7 -0.5,2.15 -0.73,0.45 -1.7,0.23 -2.15,-0.5l2.65 -1.65zm3.7 11.8c-0.45,-0.73 -0.23,-1.7 0.5,-2.15 0.73,-0.45 1.7,-0.23 2.15,0.5l-2.65 1.65zm6.88 5.12l-2.65 1.65 -4.23 -6.77 2.65 -1.65 4.23 6.77zm0 0c0.45,0.73 0.23,1.7 -0.5,2.15 -0.73,0.45 -1.7,0.23 -2.15,-0.5l2.65 -1.65zm3.7 11.8c-0.45,-0.73 -0.23,-1.7 0.5,-2.15 0.73,-0.45 1.7,-0.23 2.15,0.5l-2.65 1.65zm6.88 5.12l-2.65 1.65 -4.23 -6.77 2.65 -1.65 4.23 6.77zm0 0c0.45,0.73 0.23,1.7 -0.5,2.15 -0.73,0.45 -1.7,0.23 -2.15,-0.5l2.65 -1.65zm3.71 11.8c-0.45,-0.73 -0.23,-1.7 0.5,-2.15 0.73,-0.45 1.7,-0.23 2.15,0.5l-2.65 1.65zm6.89 5.12l-2.65 1.65 -4.24 -6.77 2.65 -1.65 4.24 6.77zm0 0c0.45,0.73 0.23,1.7 -0.5,2.15 -0.73,0.45 -1.7,0.23 -2.15,-0.5l2.65 -1.65zm3.71 11.8c-0.45,-0.73 -0.23,-1.7 0.5,-2.15 0.73,-0.45 1.7,-0.23 2.15,0.5l-2.65 1.65zm6.89 5.12l-2.65 1.65 -4.24 -6.77 2.65 -1.65 4.24 6.77zm0 0c0.45,0.73 0.23,1.7 -0.5,2.15 -0.73,0.45 -1.7,0.23 -2.15,-0.5l2.65 -1.65zm3.71 11.81c-0.45,-0.73 -0.23,-1.7 0.5,-2.15 0.73,-0.45 1.7,-0.23 2.15,0.5l-2.65 1.65zm6.89 5.13l-2.65 1.65 -4.24 -6.78 2.65 -1.65 4.24 6.78zm0 0c0.45,0.73 0.23,1.7 -0.5,2.15 -0.73,0.45 -1.7,0.23 -2.15,-0.5l2.65 -1.65z"
                   class="fil0" /></g><g
                 id="g118"><path
                   id="path116"
                   d="M369.45 410.16c-0.45,-0.73 -0.23,-1.7 0.5,-2.15 0.73,-0.45 1.7,-0.23 2.15,0.5l-2.65 1.65zm2.21 3.53l-2.21 -3.53 2.65 -1.65 2.21 3.53 -2.65 1.65zm2.65 -1.65c0.45,0.73 0.23,1.7 -0.5,2.15 -0.73,0.45 -1.7,0.23 -2.15,-0.5l2.65 -1.65z"
                   class="fil0" /></g></g></g><g
             id="g126"><path
               id="path124"
               d="M157.34 68.04l-3.27 -5.22 0 0 2.95 -1.74 3.02 -1.58 3.05 -1.41 3.1 -1.24 3.13 -1.08 3.16 -0.92 3.19 -0.76 3.21 -0.59 3.21 -0.43 3.23 -0.28 3.22 -0.12 3.22 0.04 3.2 0.19 3.18 0.34 3.18 0.49 3.13 0.65 3.1 0.79 3.07 0.94 3.01 1.08 2.97 1.23 2.91 1.38 2.84 1.51 2.77 1.66 2.7 1.8 2.63 1.94 2.53 2.08 2.44 2.2 2.35 2.35 2.24 2.47 2.13 2.61 2.01 2.73 1.9 2.86 -5.22 3.27 -1.72 -2.6 -1.83 -2.49 -1.94 -2.36 -2.02 -2.25 -2.13 -2.12 -2.22 -2.01 -2.3 -1.88 -2.38 -1.75 -2.45 -1.63 -2.52 -1.5 -2.58 -1.38 -2.64 -1.25 -2.69 -1.11 -2.74 -0.99 -2.77 -0.85 -2.82 -0.72 -2.85 -0.59 -2.87 -0.45 -2.9 -0.31 -2.91 -0.18 -2.91 -0.02 -2.94 0.1 -2.92 0.25 -2.91 0.39 -2.91 0.54 -2.88 0.68 -2.86 0.83 -2.86 0.98 -2.8 1.13 -2.77 1.29 -2.74 1.43 -2.69 1.58 0 0zm-19.24 83.49l-5.22 3.27 0 0 -1.75 -2.95 -1.57 -3.02 -1.41 -3.05 -1.25 -3.09 -1.08 -3.14 -0.92 -3.16 -0.75 -3.19 -0.59 -3.2 -0.44 -3.22 -0.27 -3.23 -0.13 -3.22 0.04 -3.22 0.18 -3.2 0.35 -3.19 0.49 -3.17 0.65 -3.13 0.79 -3.11 0.94 -3.07 1.09 -3.02 1.23 -2.96 1.38 -2.91 1.52 -2.85 1.66 -2.77 1.8 -2.71 1.94 -2.61 2.08 -2.54 2.21 -2.44 2.34 -2.34 2.48 -2.24 2.61 -2.13 2.73 -2.01 2.86 -1.9 3.27 5.22 -2.6 1.72 -2.49 1.83 -2.36 1.93 -2.24 2.04 -2.13 2.13 -2 2.21 -1.88 2.3 -1.75 2.38 -1.63 2.44 -1.51 2.52 -1.38 2.58 -1.24 2.64 -1.13 2.69 -0.99 2.74 -0.85 2.77 -0.71 2.83 -0.59 2.85 -0.45 2.88 -0.32 2.89 -0.17 2.91 -0.03 2.91 0.11 2.94 0.24 2.92 0.4 2.91 0.54 2.92 0.68 2.89 0.83 2.86 0.98 2.85 1.13 2.81 1.29 2.77 1.43 2.74 1.59 2.69 0 0zm83.48 19.24l3.27 5.22 0 0 -2.95 1.74 -3.02 1.58 -3.05 1.41 -3.1 1.24 -3.13 1.08 -3.16 0.92 -3.19 0.76 -3.21 0.59 -3.21 0.43 -3.23 0.28 -3.22 0.12 -3.22 -0.04 -3.2 -0.19 -3.18 -0.34 -3.18 -0.49 -3.13 -0.65 -3.1 -0.79 -3.07 -0.94 -3.01 -1.08 -2.97 -1.23 -2.91 -1.38 -2.84 -1.51 -2.77 -1.66 -2.7 -1.8 -2.63 -1.94 -2.53 -2.08 -2.44 -2.2 -2.35 -2.35 -2.24 -2.47 -2.13 -2.61 -2.01 -2.73 -1.9 -2.86 5.22 -3.27 1.72 2.6 1.83 2.49 1.94 2.36 2.02 2.25 2.13 2.12 2.22 2.01 2.3 1.88 2.38 1.75 2.45 1.63 2.52 1.5 2.58 1.38 2.64 1.25 2.69 1.11 2.74 0.99 2.77 0.85 2.82 0.72 2.85 0.59 2.87 0.45 2.9 0.31 2.91 0.18 2.91 0.02 2.94 -0.1 2.92 -0.25 2.91 -0.39 2.91 -0.54 2.88 -0.68 2.86 -0.83 2.86 -0.98 2.8 -1.13 2.77 -1.29 2.74 -1.43 2.69 -1.58 0 0zm19.24 -83.49l5.22 -3.27 0 0 1.75 2.95 1.57 3.02 1.41 3.05 1.25 3.09 1.08 3.14 0.92 3.16 0.75 3.19 0.59 3.2 0.44 3.22 0.27 3.23 0.13 3.22 -0.04 3.22 -0.18 3.2 -0.35 3.19 -0.49 3.17 -0.65 3.13 -0.79 3.11 -0.94 3.07 -1.09 3.02 -1.23 2.96 -1.38 2.91 -1.52 2.85 -1.66 2.77 -1.8 2.71 -1.94 2.61 -2.08 2.54 -2.21 2.44 -2.34 2.34 -2.48 2.24 -2.61 2.13 -2.73 2.01 -2.86 1.9 -3.27 -5.22 2.6 -1.72 2.49 -1.83 2.36 -1.93 2.24 -2.04 2.13 -2.13 2 -2.21 1.88 -2.3 1.75 -2.38 1.63 -2.44 1.51 -2.52 1.38 -2.58 1.24 -2.64 1.13 -2.69 0.99 -2.74 0.85 -2.77 0.71 -2.83 0.59 -2.85 0.45 -2.88 0.32 -2.89 0.17 -2.91 0.03 -2.91 -0.11 -2.94 -0.24 -2.92 -0.4 -2.91 -0.54 -2.92 -0.68 -2.89 -0.83 -2.86 -0.98 -2.85 -1.13 -2.81 -1.29 -2.77 -1.43 -2.74 -1.59 -2.69 0 0z"
               class="fil0" /></g><g
             id="g130"><path
               id="path128"
               d="M208.3 84.98c-0.79,1.07 -5.31,5.45 -5.31,5.45 1.99,-4.1 0.58,-9.23 0.58,-9.23 -1.07,2.92 -4.37,6.07 -6.09,7.57 -3.98,-1.35 -8.4,-0.56 -12.79,3.75 -6.91,6.77 -4.13,14.03 -0.49,19.65 -6.44,3.79 -20.04,7.76 -31.64,2.88 0,0 0.2,11.51 13.34,13.38 0,0 -3.31,1.74 -6.26,1.96 0,0 5.42,9.06 16.82,6.08 0,0 -2.67,2.24 -5.03,3.15 0,0 7.14,5.95 16.25,1.3 -4.97,10.88 -14.43,15.78 -14.43,15.78 31.63,-1.07 44.05,-29.02 38.34,-49.94 -1.09,-3.99 -3.08,-8.11 -5.68,-11.46 1.62,-4.39 2.39,-10.33 2.39,-10.33z"
               class="fil0" /></g></g><g
           id="g156"><g
             id="g148"><g
               id="g146"><g
                 id="g136"><path
                   id="path134"
                   d="M122.35 282.6c-0.76,-0.4 -1.04,-1.35 -0.65,-2.1 0.4,-0.76 1.35,-1.04 2.1,-0.65l-1.46 2.75zm3.68 1.94l-3.68 -1.94 1.46 -2.75 3.68 1.94 -1.46 2.75zm1.46 -2.75c0.76,0.4 1.04,1.35 0.65,2.1 -0.4,0.76 -1.35,1.04 -2.1,0.65l1.46 -2.75z"
                   class="fil0" /></g><g
                 id="g140"><path
                   id="path138"
                   d="M136.72 290.19c-0.76,-0.4 -1.05,-1.35 -0.65,-2.11 0.4,-0.76 1.35,-1.05 2.11,-0.65l-1.46 2.77zm8.52 0.95l-1.46 2.77 -7.06 -3.72 1.46 -2.77 7.06 3.72zm0 0c0.76,0.4 1.05,1.35 0.65,2.11 -0.4,0.76 -1.35,1.05 -2.11,0.65l1.46 -2.77zm9.14 8.34c-0.76,-0.4 -1.05,-1.35 -0.65,-2.11 0.4,-0.76 1.35,-1.05 2.11,-0.65l-1.46 2.77zm8.52 0.95l-1.46 2.77 -7.06 -3.72 1.46 -2.77 7.06 3.72zm0 0c0.76,0.4 1.05,1.35 0.65,2.11 -0.4,0.76 -1.35,1.05 -2.11,0.65l1.46 -2.77zm9.14 8.34c-0.76,-0.4 -1.05,-1.35 -0.65,-2.11 0.4,-0.76 1.35,-1.05 2.11,-0.65l-1.46 2.77zm8.52 0.95l-1.46 2.77 -7.06 -3.72 1.46 -2.77 7.06 3.72zm0 0c0.76,0.4 1.05,1.35 0.65,2.11 -0.4,0.76 -1.35,1.05 -2.11,0.65l1.46 -2.77zm9.14 8.34c-0.76,-0.4 -1.05,-1.35 -0.65,-2.11 0.4,-0.76 1.35,-1.05 2.11,-0.65l-1.46 2.77zm8.52 0.95l-1.46 2.77 -7.06 -3.72 1.46 -2.77 7.06 3.72zm0 0c0.76,0.4 1.05,1.35 0.65,2.11 -0.4,0.76 -1.35,1.05 -2.11,0.65l1.46 -2.77zm9.14 8.34c-0.76,-0.4 -1.05,-1.35 -0.65,-2.11 0.4,-0.76 1.35,-1.05 2.11,-0.65l-1.46 2.77zm8.52 0.95l-1.46 2.77 -7.06 -3.72 1.46 -2.77 7.06 3.72zm0 0c0.76,0.4 1.05,1.35 0.65,2.11 -0.4,0.76 -1.35,1.05 -2.11,0.65l1.46 -2.77zm9.14 8.35c-0.76,-0.4 -1.05,-1.35 -0.65,-2.11 0.4,-0.76 1.35,-1.05 2.11,-0.65l-1.46 2.77zm8.52 0.96l-1.46 2.77 -7.06 -3.72 1.46 -2.77 7.06 3.72zm0 0c0.76,0.4 1.05,1.35 0.65,2.11 -0.4,0.76 -1.35,1.05 -2.11,0.65l1.46 -2.77zm9.14 8.35c-0.76,-0.4 -1.05,-1.35 -0.65,-2.11 0.4,-0.76 1.35,-1.05 2.11,-0.65l-1.46 2.77zm8.52 0.96l-1.46 2.77 -7.06 -3.72 1.46 -2.77 7.06 3.72zm0 0c0.76,0.4 1.05,1.35 0.65,2.11 -0.4,0.76 -1.35,1.05 -2.11,0.65l1.46 -2.77zm9.14 8.35c-0.76,-0.4 -1.05,-1.35 -0.65,-2.11 0.4,-0.76 1.35,-1.05 2.11,-0.65l-1.46 2.77zm8.52 0.96l-1.46 2.77 -7.06 -3.72 1.46 -2.77 7.06 3.72zm0 0c0.76,0.4 1.05,1.35 0.65,2.11 -0.4,0.76 -1.35,1.05 -2.11,0.65l1.46 -2.77zm9.14 8.35c-0.76,-0.4 -1.05,-1.35 -0.65,-2.11 0.4,-0.76 1.35,-1.05 2.11,-0.65l-1.46 2.77zm8.52 0.96l-1.46 2.77 -7.06 -3.72 1.46 -2.77 7.06 3.72zm0 0c0.76,0.4 1.05,1.35 0.65,2.11 -0.4,0.76 -1.35,1.05 -2.11,0.65l1.46 -2.77zm9.14 8.35c-0.76,-0.4 -1.05,-1.35 -0.65,-2.11 0.4,-0.76 1.35,-1.05 2.11,-0.65l-1.46 2.77zm8.52 0.96l-1.46 2.77 -7.06 -3.72 1.46 -2.77 7.06 3.72zm0 0c0.76,0.4 1.05,1.35 0.65,2.11 -0.4,0.76 -1.35,1.05 -2.11,0.65l1.46 -2.77zm9.15 8.35c-0.76,-0.4 -1.05,-1.35 -0.65,-2.11 0.4,-0.76 1.35,-1.05 2.11,-0.65l-1.46 2.77zm8.52 0.96l-1.46 2.77 -7.06 -3.72 1.46 -2.77 7.06 3.72zm0 0c0.76,0.4 1.05,1.35 0.65,2.11 -0.4,0.76 -1.35,1.05 -2.11,0.65l1.46 -2.77zm9.15 8.35c-0.76,-0.4 -1.05,-1.35 -0.65,-2.11 0.4,-0.76 1.35,-1.05 2.11,-0.65l-1.46 2.77zm8.52 0.96l-1.46 2.77 -7.06 -3.72 1.46 -2.77 7.06 3.72zm0 0c0.76,0.4 1.05,1.35 0.65,2.11 -0.4,0.76 -1.35,1.05 -2.11,0.65l1.46 -2.77zm9.15 8.35c-0.76,-0.4 -1.05,-1.35 -0.65,-2.11 0.4,-0.76 1.35,-1.05 2.11,-0.65l-1.46 2.77zm8.53 0.96l-1.46 2.77 -7.07 -3.72 1.46 -2.77 7.07 3.72zm0 0c0.76,0.4 1.05,1.35 0.65,2.11 -0.4,0.76 -1.35,1.05 -2.11,0.65l1.46 -2.77z"
                   class="fil0" /></g><g
                 id="g144"><path
                   id="path142"
                   d="M368.58 412.3c-0.76,-0.4 -1.04,-1.35 -0.65,-2.1 0.4,-0.76 1.35,-1.04 2.1,-0.65l-1.46 2.75zm3.68 1.94l-3.68 -1.94 1.46 -2.75 3.68 1.94 -1.46 2.75zm1.46 -2.75c0.76,0.4 1.04,1.35 0.65,2.1 -0.4,0.76 -1.35,1.04 -2.1,0.65l1.46 -2.75z"
                   class="fil0" /></g></g></g><g
             id="g152"><path
               id="path150"
               d="M13.15 223.33l-5.45 -2.87 0 0 1.67 -3 1.81 -2.88 1.93 -2.75 2.05 -2.63 2.16 -2.51 2.27 -2.38 2.37 -2.27 2.48 -2.12 2.55 -1.99 2.65 -1.86 2.72 -1.73 2.8 -1.59 2.87 -1.44 2.92 -1.31 2.99 -1.17 3.04 -1.02 3.08 -0.88 3.12 -0.73 3.16 -0.58 3.18 -0.42 3.2 -0.28 3.23 -0.12 3.23 0.04 3.24 0.19 3.24 0.35 3.23 0.52 3.22 0.68 3.21 0.85 3.18 1.01 3.16 1.18 3.11 1.35 3.08 1.53 -2.87 5.45 -2.8 -1.38 -2.83 -1.23 -2.86 -1.07 -2.88 -0.92 -2.91 -0.77 -2.91 -0.61 -2.94 -0.47 -2.94 -0.32 -2.94 -0.18 -2.94 -0.03 -2.92 0.1 -2.91 0.25 -2.9 0.39 -2.86 0.52 -2.83 0.65 -2.8 0.8 -2.76 0.93 -2.71 1.05 -2.66 1.19 -2.6 1.31 -2.53 1.44 -2.49 1.57 -2.4 1.69 -2.32 1.81 -2.24 1.93 -2.15 2.05 -2.07 2.16 -1.96 2.27 -1.86 2.4 -1.75 2.5 -1.65 2.61 -1.52 2.72 0 0zm25.36 81.83l-2.87 5.45 0 0 -3 -1.67 -2.88 -1.81 -2.75 -1.93 -2.63 -2.05 -2.51 -2.17 -2.38 -2.27 -2.26 -2.38 -2.12 -2.47 -1.99 -2.56 -1.86 -2.65 -1.72 -2.72 -1.59 -2.8 -1.44 -2.86 -1.31 -2.93 -1.17 -2.99 -1.02 -3.03 -0.88 -3.08 -0.73 -3.13 -0.58 -3.16 -0.42 -3.17 -0.28 -3.21 -0.12 -3.22 0.04 -3.23 0.19 -3.24 0.35 -3.24 0.52 -3.23 0.68 -3.22 0.85 -3.21 1.01 -3.18 1.18 -3.16 1.35 -3.11 1.53 -3.08 5.45 2.87 -1.38 2.8 -1.23 2.83 -1.07 2.86 -0.92 2.88 -0.77 2.91 -0.61 2.91 -0.47 2.94 -0.32 2.94 -0.18 2.94 -0.03 2.94 0.1 2.91 0.25 2.91 0.39 2.89 0.52 2.86 0.65 2.83 0.8 2.8 0.93 2.75 1.05 2.71 1.19 2.66 1.31 2.6 1.44 2.55 1.56 2.47 1.69 2.4 1.82 2.33 1.93 2.24 2.04 2.16 2.16 2.06 2.27 1.96 2.4 1.86 2.5 1.75 2.61 1.65 2.72 1.52 0 0zm81.84 -25.37l5.45 2.87 0 0 -1.67 3 -1.81 2.88 -1.93 2.75 -2.05 2.63 -2.17 2.51 -2.27 2.38 -2.38 2.27 -2.47 2.12 -2.56 1.99 -2.64 1.85 -2.72 1.73 -2.8 1.59 -2.86 1.44 -2.93 1.31 -2.99 1.17 -3.03 1.02 -3.08 0.88 -3.13 0.73 -3.16 0.58 -3.17 0.42 -3.21 0.28 -3.22 0.12 -3.24 -0.04 -3.23 -0.19 -3.24 -0.35 -3.23 -0.52 -3.23 -0.68 -3.2 -0.85 -3.19 -1.01 -3.15 -1.18 -3.12 -1.35 -3.08 -1.53 2.87 -5.45 2.8 1.38 2.84 1.23 2.86 1.07 2.89 0.92 2.91 0.77 2.92 0.61 2.94 0.47 2.94 0.32 2.94 0.18 2.94 0.03 2.91 -0.1 2.91 -0.25 2.89 -0.39 2.86 -0.52 2.83 -0.65 2.8 -0.8 2.75 -0.93 2.71 -1.05 2.66 -1.19 2.6 -1.31 2.54 -1.44 2.47 -1.57 2.41 -1.69 2.33 -1.8 2.24 -1.93 2.16 -2.05 2.06 -2.16 1.96 -2.27 1.86 -2.4 1.75 -2.5 1.65 -2.61 1.52 -2.72 0 0zm-25.37 -81.83l2.87 -5.45 0 0 3 1.67 2.88 1.81 2.75 1.93 2.63 2.05 2.51 2.17 2.38 2.27 2.26 2.38 2.12 2.47 1.99 2.56 1.86 2.65 1.72 2.72 1.59 2.8 1.45 2.86 1.3 2.94 1.17 2.98 1.02 3.03 0.88 3.08 0.73 3.13 0.58 3.16 0.42 3.17 0.28 3.21 0.12 3.22 -0.04 3.24 -0.2 3.24 -0.35 3.24 -0.52 3.23 -0.68 3.22 -0.84 3.22 -1.01 3.18 -1.18 3.16 -1.35 3.11 -1.52 3.08 -5.45 -2.87 1.38 -2.8 1.24 -2.83 1.07 -2.86 0.92 -2.88 0.77 -2.91 0.61 -2.92 0.47 -2.94 0.32 -2.94 0.18 -2.94 0.02 -2.93 -0.1 -2.92 -0.25 -2.91 -0.39 -2.89 -0.52 -2.86 -0.65 -2.83 -0.8 -2.8 -0.93 -2.75 -1.05 -2.72 -1.18 -2.66 -1.32 -2.6 -1.44 -2.55 -1.56 -2.47 -1.69 -2.4 -1.82 -2.33 -1.93 -2.24 -2.04 -2.16 -2.16 -2.06 -2.27 -1.96 -2.4 -1.86 -2.5 -1.75 -2.61 -1.65 -2.72 -1.52 0 0z"
               class="fil0" /></g><path
             id="path154"
             d="M93.14 230.08l-23.61 -12.44c-4.33,-2.28 -9.7,-0.62 -11.98,3.72l-20.91 39.71c-2.29,4.33 -0.63,9.7 3.71,11.98l23.61 12.44c4.33,2.28 9.69,0.62 11.98,-3.72l20.91 -39.71c2.28,-4.33 0.62,-9.69 -3.72,-11.98zm-18.09 34.75l0 0 -11.6 -6.11 -11.6 -6.11c-0.77,-0.4 -0.76,-1.5 0.01,-1.9l20.38 -10.57c0.66,-0.34 1.46,0.08 1.55,0.82l2.81 22.79c0.11,0.85 -0.79,1.48 -1.56,1.07z"
             class="fil0" /></g><g
           id="g186"><g
             id="g172"><g
               id="g170"><g
                 id="g160"><path
                   id="path158"
                   d="M621.16 277.98c0.76,-0.4 1.71,-0.12 2.11,0.64 0.4,0.76 0.12,1.71 -0.64,2.11l-1.47 -2.75zm-3.66 1.96l3.66 -1.96 1.47 2.75 -3.66 1.96 -1.47 -2.75zm1.47 2.75c-0.76,0.4 -1.71,0.12 -2.11,-0.64 -0.4,-0.76 -0.12,-1.71 0.64,-2.11l1.47 2.75z"
                   class="fil0" /></g><g
                 id="g164"><path
                   id="path162"
                   d="M606.84 285.66c0.76,-0.4 1.71,-0.12 2.11,0.64 0.4,0.76 0.12,1.71 -0.64,2.11l-1.47 -2.75zm-5.56 6.52l-1.47 -2.75 7.03 -3.77 1.47 2.75 -7.03 3.77zm0 0c-0.76,0.4 -1.71,0.12 -2.11,-0.64 -0.4,-0.76 -0.12,-1.71 0.64,-2.11l1.47 2.75zm-12.02 2.91c0.76,-0.4 1.71,-0.12 2.11,0.64 0.4,0.76 0.12,1.71 -0.64,2.11l-1.47 -2.75zm-5.56 6.52l-1.47 -2.75 7.03 -3.77 1.47 2.75 -7.03 3.77zm0 0c-0.76,0.4 -1.71,0.12 -2.11,-0.64 -0.4,-0.76 -0.12,-1.71 0.64,-2.11l1.47 2.75zm-12.02 2.91c0.76,-0.4 1.71,-0.12 2.11,0.64 0.4,0.76 0.12,1.71 -0.64,2.11l-1.47 -2.75zm-5.56 6.53l-1.47 -2.75 7.03 -3.77 1.47 2.75 -7.03 3.77zm0 0c-0.76,0.4 -1.71,0.12 -2.11,-0.64 -0.4,-0.76 -0.12,-1.71 0.64,-2.11l1.47 2.75zm-12.02 2.91c0.76,-0.4 1.71,-0.12 2.11,0.64 0.4,0.76 0.12,1.71 -0.64,2.11l-1.47 -2.75zm-5.56 6.53l-1.47 -2.75 7.03 -3.77 1.47 2.75 -7.03 3.77zm0 0c-0.76,0.4 -1.71,0.12 -2.11,-0.64 -0.4,-0.76 -0.12,-1.71 0.64,-2.11l1.47 2.75zm-12.02 2.91c0.76,-0.4 1.71,-0.12 2.11,0.64 0.4,0.76 0.12,1.71 -0.64,2.11l-1.47 -2.75zm-5.56 6.53l-1.47 -2.75 7.03 -3.77 1.47 2.75 -7.03 3.77zm0 0c-0.76,0.4 -1.71,0.12 -2.11,-0.64 -0.4,-0.76 -0.12,-1.71 0.64,-2.11l1.47 2.75zm-12.02 2.91c0.76,-0.4 1.71,-0.12 2.11,0.64 0.4,0.76 0.12,1.71 -0.64,2.11l-1.47 -2.75zm-5.56 6.53l-1.47 -2.75 7.03 -3.77 1.47 2.75 -7.03 3.77zm0 0c-0.76,0.4 -1.71,0.12 -2.11,-0.64 -0.4,-0.76 -0.12,-1.71 0.64,-2.11l1.47 2.75zm-12.02 2.91c0.76,-0.4 1.71,-0.12 2.11,0.64 0.4,0.76 0.12,1.71 -0.64,2.11l-1.47 -2.75zm-5.56 6.53l-1.47 -2.75 7.03 -3.77 1.47 2.75 -7.03 3.77zm0 0c-0.76,0.4 -1.71,0.12 -2.11,-0.64 -0.4,-0.76 -0.12,-1.71 0.64,-2.11l1.47 2.75zm-12.03 2.91c0.76,-0.4 1.71,-0.12 2.11,0.64 0.4,0.76 0.12,1.71 -0.64,2.11l-1.47 -2.75zm-5.56 6.53l-1.47 -2.75 7.03 -3.77 1.47 2.75 -7.03 3.77zm0 0c-0.76,0.4 -1.71,0.12 -2.11,-0.64 -0.4,-0.76 -0.12,-1.71 0.64,-2.11l1.47 2.75zm-12.03 2.91c0.76,-0.4 1.71,-0.12 2.11,0.64 0.4,0.76 0.12,1.71 -0.64,2.11l-1.47 -2.75zm-5.56 6.53l-1.47 -2.75 7.03 -3.77 1.47 2.75 -7.03 3.77zm0 0c-0.76,0.4 -1.71,0.12 -2.11,-0.64 -0.4,-0.76 -0.12,-1.71 0.64,-2.11l1.47 2.75zm-12.03 2.91c0.76,-0.4 1.71,-0.12 2.11,0.64 0.4,0.76 0.12,1.71 -0.64,2.11l-1.47 -2.75zm-5.56 6.53l-1.47 -2.75 7.03 -3.77 1.47 2.75 -7.03 3.77zm0 0c-0.76,0.4 -1.71,0.12 -2.11,-0.64 -0.4,-0.76 -0.12,-1.71 0.64,-2.11l1.47 2.75zm-12.03 2.91c0.76,-0.4 1.71,-0.12 2.11,0.64 0.4,0.76 0.12,1.71 -0.64,2.11l-1.47 -2.75zm-5.57 6.53l-1.47 -2.75 7.04 -3.77 1.47 2.75 -7.04 3.77zm0 0c-0.76,0.4 -1.71,0.12 -2.11,-0.64 -0.4,-0.76 -0.12,-1.71 0.64,-2.11l1.47 2.75zm-12.03 2.91c0.76,-0.4 1.71,-0.12 2.11,0.64 0.4,0.76 0.12,1.71 -0.64,2.11l-1.47 -2.75zm-5.57 6.53l-1.47 -2.75 7.04 -3.77 1.47 2.75 -7.04 3.77zm0 0c-0.76,0.4 -1.71,0.12 -2.11,-0.64 -0.4,-0.76 -0.12,-1.71 0.64,-2.11l1.47 2.75zm-12.03 2.91c0.76,-0.4 1.71,-0.12 2.11,0.64 0.4,0.76 0.12,1.71 -0.64,2.11l-1.47 -2.75zm-5.57 6.53l-1.47 -2.75 7.04 -3.77 1.47 2.75 -7.04 3.77zm0 0c-0.76,0.4 -1.71,0.12 -2.11,-0.64 -0.4,-0.76 -0.12,-1.71 0.64,-2.11l1.47 2.75z"
                   class="fil0" /></g><g
                 id="g168"><path
                   id="path166"
                   d="M375.91 409.52c0.76,-0.4 1.71,-0.12 2.11,0.64 0.4,0.76 0.12,1.71 -0.64,2.11l-1.47 -2.75zm-3.66 1.97l3.66 -1.97 1.47 2.75 -3.66 1.97 -1.47 -2.75zm1.47 2.75c-0.76,0.4 -1.71,0.12 -2.11,-0.64 -0.4,-0.76 -0.12,-1.71 0.64,-2.11l1.47 2.75z"
                   class="fil0" /></g></g></g><g
             id="g176"><path
               id="path174"
               d="M731.38 220.63l5.43 -2.91 0 0 1.54 3.07 1.38 3.11 1.21 3.14 1.03 3.18 0.88 3.19 0.7 3.22 0.54 3.23 0.38 3.23 0.22 3.24 0.07 3.23 -0.1 3.23 -0.26 3.2 -0.4 3.18 -0.55 3.16 -0.71 3.13 -0.85 3.08 -0.99 3.04 -1.15 2.99 -1.29 2.94 -1.43 2.88 -1.56 2.8 -1.7 2.74 -1.85 2.66 -1.97 2.57 -2.1 2.49 -2.24 2.39 -2.36 2.29 -2.49 2.19 -2.63 2.08 -2.74 1.95 -2.86 1.83 -2.98 1.69 -2.91 -5.43 2.72 -1.55 2.6 -1.66 2.49 -1.77 2.38 -1.88 2.26 -1.98 2.14 -2.08 2.03 -2.16 1.91 -2.27 1.8 -2.33 1.67 -2.41 1.54 -2.48 1.43 -2.55 1.3 -2.61 1.17 -2.67 1.03 -2.72 0.91 -2.76 0.78 -2.8 0.63 -2.83 0.51 -2.87 0.37 -2.9 0.23 -2.91 0.08 -2.92 -0.05 -2.94 -0.21 -2.94 -0.35 -2.94 -0.49 -2.94 -0.64 -2.91 -0.79 -2.9 -0.94 -2.88 -1.09 -2.85 -1.25 -2.83 -1.41 -2.79 0 0zm-82.02 -24.75l-2.91 -5.43 0 0 3.07 -1.55 3.11 -1.38 3.14 -1.21 3.17 -1.03 3.2 -0.88 3.22 -0.7 3.23 -0.54 3.24 -0.38 3.23 -0.21 3.23 -0.07 3.22 0.1 3.22 0.25 3.17 0.4 3.16 0.54 3.13 0.71 3.08 0.85 3.05 0.99 2.99 1.16 2.93 1.28 2.88 1.43 2.81 1.56 2.74 1.71 2.66 1.83 2.58 1.98 2.48 2.1 2.4 2.24 2.29 2.36 2.19 2.49 2.07 2.62 1.95 2.74 1.83 2.86 1.7 2.99 -5.43 2.91 -1.54 -2.71 -1.67 -2.6 -1.77 -2.49 -1.88 -2.37 -1.98 -2.26 -2.08 -2.16 -2.16 -2.02 -2.26 -1.91 -2.33 -1.79 -2.42 -1.67 -2.49 -1.55 -2.55 -1.43 -2.61 -1.3 -2.66 -1.16 -2.72 -1.04 -2.77 -0.91 -2.8 -0.77 -2.83 -0.64 -2.87 -0.5 -2.89 -0.38 -2.91 -0.22 -2.93 -0.08 -2.94 0.05 -2.94 0.2 -2.94 0.34 -2.92 0.5 -2.92 0.64 -2.91 0.79 -2.88 0.94 -2.85 1.09 -2.83 1.24 -2.79 1.41 0 0zm-24.75 82.02l-5.43 2.91 0 0 -1.54 -3.07 -1.38 -3.11 -1.21 -3.14 -1.03 -3.18 -0.88 -3.19 -0.7 -3.22 -0.54 -3.23 -0.38 -3.23 -0.22 -3.24 -0.07 -3.23 0.1 -3.23 0.26 -3.2 0.4 -3.18 0.55 -3.16 0.71 -3.13 0.85 -3.08 0.99 -3.04 1.15 -2.99 1.29 -2.94 1.43 -2.88 1.56 -2.8 1.7 -2.74 1.85 -2.66 1.97 -2.57 2.1 -2.49 2.24 -2.39 2.36 -2.29 2.49 -2.19 2.63 -2.08 2.74 -1.95 2.86 -1.83 2.98 -1.69 2.91 5.43 -2.72 1.55 -2.6 1.66 -2.49 1.77 -2.38 1.88 -2.26 1.98 -2.14 2.08 -2.03 2.16 -1.91 2.27 -1.8 2.33 -1.67 2.41 -1.54 2.48 -1.43 2.55 -1.3 2.61 -1.17 2.67 -1.03 2.72 -0.91 2.76 -0.78 2.8 -0.63 2.83 -0.51 2.87 -0.37 2.9 -0.23 2.91 -0.08 2.92 0.05 2.94 0.21 2.94 0.35 2.94 0.49 2.94 0.64 2.91 0.79 2.9 0.94 2.88 1.09 2.85 1.25 2.83 1.41 2.79 0 0zm82.02 24.75l2.91 5.43 0 0 -3.07 1.55 -3.11 1.38 -3.14 1.21 -3.17 1.03 -3.2 0.88 -3.22 0.7 -3.23 0.54 -3.24 0.38 -3.23 0.21 -3.23 0.07 -3.22 -0.1 -3.22 -0.25 -3.18 -0.4 -3.16 -0.54 -3.13 -0.71 -3.08 -0.85 -3.05 -0.99 -2.99 -1.16 -2.94 -1.27 -2.88 -1.43 -2.81 -1.56 -2.74 -1.71 -2.66 -1.84 -2.58 -1.97 -2.48 -2.1 -2.4 -2.24 -2.29 -2.36 -2.19 -2.49 -2.07 -2.62 -1.96 -2.74 -1.83 -2.86 -1.69 -2.98 5.43 -2.91 1.55 2.72 1.66 2.6 1.78 2.49 1.88 2.37 1.98 2.26 2.08 2.16 2.16 2.02 2.26 1.91 2.34 1.8 2.41 1.66 2.49 1.55 2.55 1.43 2.61 1.29 2.67 1.17 2.72 1.04 2.77 0.91 2.8 0.77 2.83 0.64 2.86 0.5 2.9 0.38 2.91 0.22 2.93 0.08 2.94 -0.05 2.94 -0.2 2.94 -0.34 2.92 -0.5 2.92 -0.64 2.91 -0.79 2.88 -0.94 2.85 -1.09 2.83 -1.24 2.79 -1.41 0 0z"
               class="fil0" /></g><g
             id="g184"><path
               id="path178"
               d="M710.51 246.47l-11.67 -22.31c-3.04,-5.81 -9.02,-9.42 -15.6,-9.42 -2.8,0 -5.61,0.69 -8.12,2l-22.21 11.62c-4.15,2.17 -7.21,5.84 -8.62,10.32 -1.41,4.49 -0.98,9.24 1.19,13.39l11.67 22.31c3.04,5.81 9.02,9.42 15.59,9.42 2.81,0 5.62,-0.69 8.12,-2l22.21 -11.62c8.58,-4.49 11.91,-15.13 7.42,-23.71zm-37.76 31.17l0 0c-4.27,0 -8.15,-2.35 -10.12,-6.12l-11.67 -22.3c-1.41,-2.69 -1.69,-5.78 -0.77,-8.7 0.91,-2.91 2.9,-5.29 5.59,-6.7l22.21 -11.62c1.63,-0.85 3.45,-1.3 5.27,-1.3 4.28,0 8.15,2.35 10.13,6.12l11.66 22.3c1.41,2.69 1.69,5.78 0.78,8.7 -0.91,2.91 -2.9,5.29 -5.59,6.7l-22.21 11.62c-1.62,0.85 -3.44,1.3 -5.27,1.3z"
               class="fil0" /><path
               id="path180"
               d="M692.85 241.49c-2.9,-5.55 -8.6,-8.99 -14.89,-8.99 -2.68,0 -5.36,0.66 -7.74,1.91 -3.97,2.08 -6.89,5.57 -8.23,9.85 -1.34,4.28 -0.93,8.82 1.14,12.78 2.9,5.55 8.6,8.99 14.89,8.99 2.68,0 5.36,-0.66 7.74,-1.91 8.2,-4.29 11.38,-14.44 7.09,-22.63zm-14.83 18.38l0 0 -0.01 0c-3.97,0 -7.58,-2.18 -9.41,-5.69 -2.72,-5.19 -0.71,-11.6 4.48,-14.32 1.53,-0.8 3.18,-1.21 4.89,-1.21 3.97,0 7.59,2.18 9.42,5.69 2.72,5.19 0.7,11.6 -4.48,14.32 -1.53,0.8 -3.18,1.21 -4.89,1.21z"
               class="fil0" /><path
               id="path182"
               d="M702.33 253.85c-0.72,-1.38 -2.13,-2.23 -3.68,-2.23 -0.66,0 -1.32,0.16 -1.92,0.47 -0.98,0.52 -1.71,1.38 -2.04,2.44 -0.33,1.06 -0.23,2.19 0.29,3.16 0.72,1.38 2.13,2.23 3.68,2.23 0.66,0 1.32,-0.17 1.91,-0.48 2.03,-1.06 2.82,-3.57 1.76,-5.59z"
               class="fil0" /></g></g></g><g
         id="g238"><g
           id="g236"><g
             id="g220"><g
               id="g206"><g
                 id="g198"><g
                   id="g192"><path
                     id="path190"
                     d="M427.18 501.48l-106.81 0c-6.2,0 -11.22,-5.02 -11.22,-11.21l0 -199.36c0,-6.2 5.03,-11.22 11.22,-11.22l106.81 0c6.2,0 11.22,5.03 11.22,11.22l0 199.36c0,6.2 -5.03,11.21 -11.22,11.21z"
                     class="fil0" /></g><path
                   id="path194"
                   d="M306.27 326.69c0,0 -0.01,0.01 -0.01,0.01l0 9.29c0.01,0 0.01,0.01 0.01,0.01l2.88 0 0 -9.3 -2.88 0z"
                   class="fil1" /><path
                   id="path196"
                   d="M306.27 343.66c0,0 -0.01,0.01 -0.01,0.01l0 9.28c0.01,0.01 0.01,0.01 0.01,0.01l2.88 0 0 -9.29 -2.88 0z"
                   class="fil1" /></g><g
                 id="g204"><path
                   id="path200"
                   d="M381 291.8l-14.44 0c-0.98,0 -1.77,-0.79 -1.77,-1.77l0 -0.28c0,-0.98 0.79,-1.77 1.77,-1.77l14.44 0c0.98,0 1.77,0.79 1.77,1.77l0 0.28c0,0.98 -0.79,1.77 -1.77,1.77z"
                   class="fil1" /><path
                   id="path202"
                   d="M359.98 289.89c0,-1.05 -0.85,-1.91 -1.91,-1.91 -1.05,0 -1.91,0.86 -1.91,1.91 0,1.06 0.86,1.91 1.91,1.91 1.06,0 1.91,-0.85 1.91,-1.91z"
                   class="fil1" /></g></g><g
               id="g218"><g
                 id="g212"><path
                   id="path208"
                   d="M382.67 487.1c0,-4.92 -3.98,-8.9 -8.89,-8.9 -4.92,0 -8.9,3.98 -8.9,8.9 0,4.91 3.98,8.9 8.9,8.9 4.91,0 8.89,-3.99 8.89,-8.9z"
                   class="fil1" /><path
                   id="path210"
                   d="M373.78 493.99c-3.8,0 -6.9,-3.09 -6.9,-6.89 0,-3.8 3.1,-6.9 6.9,-6.9 3.8,0 6.89,3.1 6.89,6.9 0,3.8 -3.1,6.89 -6.89,6.89z"
                   class="fil2" /></g><g
                 id="g216"><path
                   id="path214"
                   d="M376.01 491.11l-4.47 0c-0.99,0 -1.79,-0.8 -1.79,-1.78l0 -4.47c0,-0.99 0.8,-1.79 1.79,-1.79l4.47 0c0.98,0 1.78,0.8 1.78,1.79l0 4.47c0,0.98 -0.8,1.78 -1.78,1.78zm-4.47 -6.64l0 0c-0.21,0 -0.39,0.18 -0.39,0.39l0 4.47c0,0.21 0.18,0.38 0.39,0.38l4.47 0c0.21,0 0.38,-0.17 0.38,-0.38l0 -4.47c0,-0.21 -0.17,-0.39 -0.38,-0.39l-4.47 0z"
                   class="fil0" /></g></g></g><g
             id="g234"><path
               id="path222"
               d="M429.84 473.95l-112.13 0c-1.51,0 -2.73,-1.22 -2.73,-2.73l0 -151.84c0,-1.51 1.22,-2.73 2.73,-2.73l112.13 0c1.51,0 2.73,1.22 2.73,2.73l0 151.84c0,1.51 -1.22,2.73 -2.73,2.73z"
               class="fil3" /><g
               id="g232"><polygon
                 id="polygon224"
                 mask="url(#id0)"
                 points="346.98,473.95 394.45,473.95 314.98,344.9 314.98,421.99 "
                 style="mask:url(#id0)"
                 class="fil2" /><path
                 id="path226"
                 mask="url(#id2)"
                 d="M317.77 316.66l-0.06 0c-1.51,0 -2.73,1.22 -2.73,2.73l0 13.65 86.78 140.92 12.88 0 -96.86 -157.3z"
                 style="mask:url(#id2)"
                 class="fil2" /><polygon
                 id="polygon228"
                 mask="url(#id4)"
                 points="424.22,316.66 400.49,316.66 432.57,368.76 432.57,330.22 "
                 style="mask:url(#id4)"
                 class="fil2" /><polygon
                 id="polygon230"
                 mask="url(#id6)"
                 points="432.57,393.45 432.57,382.99 391.72,316.66 385.29,316.66 "
                 style="mask:url(#id6)"
                 class="fil2" /></g></g></g></g></g></g></svg>