<?xml version="1.0" encoding="UTF-8" standalone="no"?>
<svg
   xmlns:dc="http://purl.org/dc/elements/1.1/"
   xmlns:cc="http://creativecommons.org/ns#"
   xmlns:rdf="http://www.w3.org/1999/02/22-rdf-syntax-ns#"
   xmlns:svg="http://www.w3.org/2000/svg"
   xmlns="http://www.w3.org/2000/svg"
   id="svg455"
   viewBox="0 0 663.63 373.87"
   style="shape-rendering:geometricPrecision; text-rendering:geometricPrecision; image-rendering:optimizeQuality; fill-rule:evenodd; clip-rule:evenodd"
   version="1.1"
   height="8.3978mm"
   width="14.9061mm"
   xml:space="preserve"><metadata
     id="metadata459"><rdf:RDF><cc:Work
         rdf:about=""><dc:format>image/svg+xml</dc:format><dc:type
           rdf:resource="http://purl.org/dc/dcmitype/StillImage" /></cc:Work></rdf:RDF></metadata><defs
     id="defs4"><style
       id="style2"
       type="text/css"><![CDATA[
    .str0 {stroke:gray;stroke-width:5.65;stroke-linecap:round;stroke-linejoin:round;stroke-miterlimit:22.9256}
    .fil14 {fill:none}
    .fil13 {fill:#12BDEB}
    .fil0 {fill:white}
    .fil1 {fill:#12BDEB;fill-rule:nonzero}
    .fil5 {fill:#263138;fill-rule:nonzero}
    .fil9 {fill:#445964;fill-rule:nonzero}
    .fil2 {fill:#4D4D4D;fill-rule:nonzero}
    .fil3 {fill:#B3B3B3;fill-rule:nonzero}
    .fil4 {fill:#CCCCCC;fill-rule:nonzero}
    .fil8 {fill:#E8505B;fill-rule:nonzero}
    .fil7 {fill:#EB996E;fill-rule:nonzero}
    .fil12 {fill:#F9F9F9;fill-rule:nonzero}
    .fil6 {fill:#FFBD9C;fill-rule:nonzero}
    .fil10 {fill:white;fill-rule:nonzero}
    .fil11 {fill:white;fill-rule:nonzero;fill-opacity:0.600000}
   ]]></style></defs><g
     id="Camada_x0020_1"><metadata
       id="CorelCorpID_0Corel-Layer" /><g
       id="_4684305408"><g
         id="g447"><g
           id="g423"><rect
             id="rect7"
             ry="0.68"
             rx="5.08"
             height="190.05"
             width="319.73"
             y="60.67"
             x="177.66"
             class="fil0" /><g
             id="g421"><path
               id="path9"
               d="M494.83 47.87l-313.96 0c-5.41,0 -9.8,4.39 -9.8,9.8l0 221.76c0,5.41 4.39,9.8 9.8,9.8l120.5 0c0,0 7.67,23.7 -16.09,35.96l112.67 0c0,0 -26.83,-9.19 -19.93,-35.96l116.82 0c5.41,0 9.8,-4.39 9.8,-9.8l0 -221.76c0,-5.41 -4.39,-9.8 -9.8,-9.8zm-152.79 218.03c4.27,6.1 -2.41,12.79 -8.52,8.52 -0.2,-0.14 -0.39,-0.32 -0.53,-0.53 -4.26,-6.1 2.42,-12.78 8.52,-8.52 0.2,0.14 0.39,0.32 0.53,0.53zm151.61 -15.18l-312.26 0c-2.06,0 -3.74,-1.68 -3.74,-3.74l0 -182.58c0,-2.06 1.68,-3.74 3.74,-3.74l312.26 0c2.06,0 3.74,1.67 3.74,3.74l0 182.58c0,2.06 -1.67,3.74 -3.74,3.74z"
               class="fil1" /><g
               id="g35"><g
                 id="g17"><g
                   id="g15"><g
                     id="g13"><path
                       id="path11"
                       d="M204.29 68.46c0,1.41 -1.14,2.55 -2.54,2.55 -1.41,0 -2.55,-1.14 -2.55,-2.55 0,-1.41 1.14,-2.55 2.55,-2.55 1.4,0 2.54,1.14 2.54,2.55z"
                       class="fil2" /></g></g></g><g
                 id="g25"><g
                   id="g23"><g
                     id="g21"><path
                       id="path19"
                       d="M188.87 68.46c0,1.41 -1.14,2.55 -2.55,2.55 -1.41,0 -2.55,-1.14 -2.55,-2.55 0,-1.41 1.14,-2.55 2.55,-2.55 1.41,0 2.55,1.14 2.55,2.55z"
                       class="fil2" /></g></g></g><g
                 id="g33"><g
                   id="g31"><g
                     id="g29"><path
                       id="path27"
                       d="M196.27 68.46c0,1.41 -1.14,2.55 -2.54,2.55 -1.41,0 -2.55,-1.14 -2.55,-2.55 0,-1.41 1.14,-2.55 2.55,-2.55 1.4,0 2.54,1.14 2.54,2.55z"
                       class="fil2" /></g></g></g></g><g
               id="g41"><g
                 id="g39"><path
                   id="path37"
                   d="M516.1 99.19c-29.11,-18.65 -68.93,-18.98 -98.34,-0.81 -14.48,8.94 -26.5,21.89 -42.07,28.76 -19.34,8.53 -41.64,6.6 -62.36,2.36 -20.71,-4.25 -41.25,-10.68 -62.39,-10.64 -21.14,0.03 -44.48,8.26 -55.42,26.35l-0.09 3.22 318.98 9.21 1.69 -58.44zm-169.54 44.57l0 0c-0.69,-0.02 -1.24,-0.6 -1.22,-1.29 0.02,-0.69 0.6,-1.24 1.29,-1.22 0.69,0.02 1.24,0.6 1.22,1.29 -0.02,0.69 -0.6,1.24 -1.29,1.22zm7.96 0.23l0 0c-0.69,-0.02 -1.24,-0.6 -1.22,-1.29 0.02,-0.69 0.6,-1.24 1.29,-1.22 0.69,0.02 1.24,0.6 1.22,1.29 -0.02,0.69 -0.6,1.24 -1.29,1.22zm7.96 0.23l0 0c-0.69,-0.02 -1.24,-0.6 -1.22,-1.29 0.02,-0.69 0.6,-1.24 1.29,-1.22 0.69,0.02 1.24,0.6 1.22,1.29 -0.02,0.69 -0.6,1.24 -1.29,1.22zm122.23 -20.61l0 0c-1.42,1.33 -3.64,1.27 -4.97,-0.14 -1.33,-1.42 -1.27,-3.64 0.14,-4.97 1.42,-1.33 3.64,-1.27 4.97,0.15 1.33,1.41 1.27,3.64 -0.14,4.97z"
                   class="fil3" /></g></g><g
               id="g45"><path
                 id="path43"
                 d="M240.7 98.24c9.38,-3.97 17.18,-12.06 27.29,-13.31 5.06,-0.63 10.24,0.57 15.27,-0.25 5.04,-0.82 10.28,-4.88 9.59,-9.93l-95.21 -2.92 -0.36 12.35 0 0.05c8.49,14.42 28,20.53 43.42,14.02z"
                 class="fil3" /></g><g
               id="g49"><path
                 id="path47"
                 d="M328.81 91.94c-5.96,-0.17 -10.93,4.51 -11.1,10.47 -0.17,5.96 4.52,10.93 10.47,11.1 5.96,0.17 10.93,-4.52 11.1,-10.47 0.17,-5.96 -4.51,-10.93 -10.47,-11.1z"
                 class="fil2" /></g><g
               id="g419"><g
                 id="g53"><path
                   id="path51"
                   d="M197.64 71.82l-0.36 12.35 0.36 -12.35 95.21 2.92c0.69,5.05 -4.55,9.11 -9.59,9.93 -5.04,0.82 -10.21,-0.37 -15.27,0.25 -10.12,1.25 -17.91,9.34 -27.29,13.31 -15.42,6.51 -34.92,0.4 -43.42,-14.02l-1.86 64.19 0.09 -3.22c10.94,-18.09 34.28,-26.32 55.42,-26.35 21.14,-0.03 41.68,6.4 62.39,10.64 20.71,4.25 43.01,6.18 62.36,-2.36 15.57,-6.87 27.59,-19.82 42.07,-28.76 29.41,-18.16 69.23,-17.83 98.34,0.81l-1.69 58.44 -318.98 -9.21 319.34 9.42 2.22 -76.6 -319.34 -9.42zm130.54 41.69l0 0c-5.95,-0.17 -10.64,-5.14 -10.47,-11.1 0.17,-5.96 5.14,-10.64 11.1,-10.47 5.96,0.17 10.64,5.14 10.47,11.1 -0.17,5.95 -5.14,10.64 -11.1,10.47z"
                   class="fil4" /></g><g
                 id="g417"><g
                   id="g139"><g
                     id="g57"><path
                       id="path55"
                       d="M468.02 157.99c2.64,-4.43 3.41,-10.34 4.09,-15.45 0.32,-2.4 0.88,-5.83 -0.81,-7.34 -1.81,-1.62 -1.98,-4.1 -4.06,-5.36 -2.08,-1.25 -4.91,-1.36 -6.87,0.06l7.65 28.09z"
                       class="fil5" /></g><g
                     id="g137"><g
                       id="g77"><g
                         id="g71"><g
                           id="g69"><g
                             id="g67"><g
                               id="g65"><g
                                 id="g63"><g
                                   id="g61"><path
                                   id="path59"
                                   d="M460.69 173.69c-4.03,0.31 -7.51,-2.79 -7.66,-6.83 -0.15,-3.87 -0.28,-7.8 -0.28,-7.8 0,0 -5.87,-0.55 -6.3,-6.36 -0.42,-5.81 -0.23,-19.23 -0.23,-19.23 6.56,-3.3 14.39,-2.8 20.47,1.31l-0.37 20.46 0 11.01c-0.04,3.7 -1.95,7.15 -5.64,7.44z"
                                   class="fil6" /></g></g></g></g></g></g><g
                         id="g75"><path
                           id="path73"
                           d="M452.25 145.61c1,-1.24 2.63,-1.74 3.97,-0.87 1.34,0.87 1.86,2.8 1.13,4.22 -0.52,1 -1.68,1.91 -2.85,2.15 -1.1,0.23 -1.87,1.29 -1.75,2.4 0.16,1.46 2.59,2.01 3.69,3.21 1.7,1.88 5.44,2.68 7.96,2.97 2.48,0.29 2.18,0.32 3.62,-1.72 1.05,-1.48 1.38,-2.91 1.41,-4.72 0.09,-4.29 0.18,-8.57 0.27,-12.86 0.03,-1.55 0.06,-3.11 -0.29,-4.62 -0.35,-1.5 -1.14,-2.97 -2.43,-3.82 -1.42,-0.93 -3.21,-1.01 -4.82,-1.53 -2.01,-0.65 -3.72,-1.99 -5.61,-2.95 -1.88,-0.97 -4.19,-1.54 -6.08,-0.59 -1.36,0.68 -2.27,2.03 -3.59,2.79 -1.88,1.07 -4.44,0.83 -5.35,3.59 -0.32,0.96 -0.29,2 0.03,2.96 1.27,3.76 5.93,5.28 9.29,3.66 0.07,0.64 -0.56,2.05 0.11,4.06 0.21,0.65 0.29,1.62 1.3,1.64z"
                           class="fil5" /></g></g><g
                       id="g83"><g
                         id="g81"><path
                           id="path79"
                           d="M453.29 149.24c0.06,-0.04 0.27,0.28 0.73,0.24 0.44,-0.03 1.02,-0.57 1.04,-1.3 0.06,-0.74 -0.5,-1.26 -0.96,-1.42 -0.47,-0.18 -0.81,-0.11 -0.83,-0.18 -0.03,-0.05 0.32,-0.29 0.93,-0.17 0.3,0.06 0.65,0.22 0.93,0.53 0.29,0.3 0.47,0.78 0.45,1.26 -0.03,0.99 -0.89,1.71 -1.56,1.64 -0.34,-0.02 -0.56,-0.2 -0.66,-0.34 -0.1,-0.15 -0.09,-0.25 -0.07,-0.27z"
                           class="fil7" /></g></g><g
                       id="g87"><path
                         id="path85"
                         d="M470.05 141.8c0.99,-1.92 2.85,-3.42 4.99,-3.8 2.13,-0.39 4.47,0.41 5.8,2.13 1.33,1.71 1.49,4.28 0.26,6.06 -1.41,2.04 -4.1,2.68 -6.55,3.01 1.79,2.07 4.45,3.34 7.17,3.45 -1.93,1.31 -4.6,1.44 -6.65,0.32 1.34,1.14 2.67,2.27 4,3.41 -3.99,0.98 -8.53,-1.21 -10.24,-4.94 -1.71,-3.74 -0.42,-8.6 2.92,-10.99l-1.7 1.36z"
                         class="fil5" /></g><g
                       id="g93"><g
                         id="g91"><path
                           id="path89"
                           d="M473.73 148.92c0.04,0.04 -0.8,0.47 -2.07,-0.04 -1.25,-0.46 -2.64,-1.98 -2.91,-4.01 -0.15,-1 -0.01,-1.99 0.32,-2.8 0.32,-0.81 0.81,-1.45 1.29,-1.9 0.96,-0.91 1.79,-1.1 1.79,-1.05 0.04,0.08 -0.7,0.39 -1.54,1.3 -0.83,0.88 -1.65,2.52 -1.36,4.37 0.25,1.85 1.46,3.25 2.55,3.75 1.11,0.54 1.92,0.28 1.93,0.37z"
                           class="fil8" /></g></g><g
                       id="g99"><g
                         id="g97"><path
                           id="path95"
                           d="M482.14 143.08c-0.07,0.06 -0.49,-0.65 -1.65,-1.08 -1.13,-0.45 -2.88,-0.53 -4.73,-0.15 -1.85,0.38 -3.4,1.17 -4.42,1.87 -1.03,0.69 -1.58,1.26 -1.64,1.2 -0.04,-0.03 0.41,-0.7 1.42,-1.49 1,-0.8 2.59,-1.69 4.53,-2.08 1.92,-0.4 3.78,-0.25 4.98,0.32 1.22,0.57 1.56,1.41 1.5,1.42z"
                           class="fil9" /></g></g><g
                       id="g105"><g
                         id="g103"><path
                           id="path101"
                           d="M480.39 146.98c0.02,0.06 -0.5,0.3 -1.41,0.4 -0.9,0.1 -2.21,-0 -3.49,-0.6 -1.28,-0.6 -2.19,-1.54 -2.7,-2.29 -0.51,-0.76 -0.65,-1.31 -0.6,-1.34 0.07,-0.04 0.33,0.45 0.89,1.11 0.55,0.67 1.44,1.49 2.62,2.05 1.19,0.55 2.4,0.71 3.25,0.7 0.87,0 1.41,-0.11 1.43,-0.04z"
                           class="fil9" /></g></g><g
                       id="g111"><g
                         id="g109"><path
                           id="path107"
                           d="M471.53 154.78c-0.03,0.05 -0.68,-0.21 -1.52,-0.97 -0.83,-0.74 -1.81,-2.04 -2.24,-3.73 -0.44,-1.69 -0.21,-3.29 0.16,-4.35 0.37,-1.06 0.81,-1.61 0.86,-1.58 0.07,0.04 -0.25,0.64 -0.51,1.68 -0.27,1.03 -0.42,2.54 -0.01,4.11 0.41,1.57 1.26,2.82 2,3.6 0.73,0.78 1.3,1.15 1.26,1.22z"
                           class="fil9" /></g></g><g
                       id="g117"><g
                         id="g115"><path
                           id="path113"
                           d="M459.34 131.71c-0.05,0 0.59,-0.96 2.25,-1.21 0.8,-0.12 1.81,-0.03 2.8,0.42 1,0.45 1.9,1.28 2.59,2.31 1.37,2.09 1.62,4.37 1.8,5.9 0.15,1.57 0.19,2.53 0.12,2.55 -0.08,0.01 -0.25,-0.95 -0.49,-2.5 -0.26,-1.52 -0.58,-3.71 -1.87,-5.67 -0.64,-0.96 -1.47,-1.73 -2.36,-2.16 -0.89,-0.43 -1.81,-0.55 -2.56,-0.49 -1.53,0.13 -2.24,0.93 -2.29,0.85z"
                           class="fil9" /></g></g><g
                       id="g123"><g
                         id="g121"><path
                           id="path119"
                           d="M442.97 137.66c0,0.02 -0.33,0.04 -0.81,-0.27 -0.45,-0.28 -1.1,-1.05 -0.88,-2.12 0.11,-0.51 0.43,-1.03 0.96,-1.38 0.53,-0.37 1.24,-0.38 1.86,-0.37 0.64,0.01 1.23,-0.04 1.73,-0.44 0.51,-0.38 0.9,-0.97 1.42,-1.53 1.04,-1.12 2.38,-1.8 3.64,-2.1 1.27,-0.31 2.47,-0.28 3.43,-0.07 0.96,0.2 1.69,0.54 2.15,0.84 0.46,0.3 0.67,0.51 0.65,0.53 -0.05,0.1 -1,-0.71 -2.87,-1.01 -0.92,-0.15 -2.05,-0.15 -3.25,0.17 -1.18,0.31 -2.42,0.96 -3.38,1.99 -0.48,0.51 -0.89,1.13 -1.49,1.58 -0.29,0.23 -0.65,0.39 -1.02,0.46 -0.36,0.07 -0.7,0.06 -1.02,0.05 -0.63,-0.02 -1.2,-0.02 -1.62,0.25 -0.43,0.26 -0.72,0.69 -0.83,1.1 -0.23,0.86 0.27,1.58 0.64,1.88 0.4,0.33 0.7,0.38 0.69,0.43z"
                           class="fil9" /></g></g><g
                       id="g129"><g
                         id="g127"><path
                           id="path125"
                           d="M458.52 153.83c-0.02,-0.04 0.29,-0.16 0.76,-0.48 0.47,-0.32 1.11,-0.87 1.57,-1.77 0.46,-0.88 0.67,-2.13 0.26,-3.38 -0.2,-0.62 -0.55,-1.23 -1.05,-1.73 -0.5,-0.51 -1.13,-0.93 -1.81,-1.32 -0.68,-0.4 -1.37,-0.76 -2,-1.2 -0.63,-0.43 -1.19,-0.96 -1.62,-1.53 -0.85,-1.14 -1.26,-2.4 -1.36,-3.46 -0.12,-1.06 0.04,-1.93 0.2,-2.49 0.16,-0.57 0.35,-0.85 0.37,-0.84 0.11,0.02 -0.51,1.25 -0.21,3.28 0.14,1 0.56,2.17 1.37,3.22 0.8,1.08 2.11,1.79 3.51,2.57 0.69,0.4 1.36,0.85 1.91,1.41 0.55,0.57 0.93,1.25 1.14,1.94 0.43,1.39 0.16,2.77 -0.39,3.7 -0.54,0.94 -1.26,1.49 -1.78,1.77 -0.53,0.28 -0.85,0.33 -0.86,0.31z"
                           class="fil9" /></g></g><g
                       id="g135"><g
                         id="g133"><path
                           id="path131"
                           d="M468.6 145.3c0,0.04 -0.26,0.1 -0.75,0.18 -0.49,0.07 -1.21,0.13 -2.09,0.08 -1.77,-0.08 -4.25,-0.68 -6.51,-2.22 -2.25,-1.53 -3.81,-3.62 -4.26,-5.38 -0.23,-0.87 -0.19,-1.63 -0.07,-2.11 0.12,-0.49 0.28,-0.73 0.3,-0.72 0.1,0.01 -0.42,1.08 0.12,2.73 0.5,1.62 2.03,3.58 4.2,5.06 2.17,1.49 4.54,2.12 6.25,2.29 1.72,0.2 2.8,0 2.81,0.1z"
                           class="fil9" /></g></g></g></g><g
                   id="g161"><g
                     id="g143"><polygon
                       id="polygon141"
                       points="448.46,342.61 445.56,348.73 458.53,348.58 459.1,342.09 "
                       class="fil8" /></g><g
                     id="g149"><g
                       id="g147"><path
                         id="path145"
                         d="M458.78 347.34c0,0.06 -0.72,0.12 -1.89,0.15 -1.17,0.03 -2.78,0.02 -4.56,-0.02 -1.7,-0.05 -3.23,-0.1 -4.55,-0.15 -1.17,-0.04 -1.89,-0.09 -1.89,-0.15 0,-0.05 0.72,-0.12 1.89,-0.14 1.17,-0.03 2.78,-0.02 4.56,0.03 1.7,0.05 3.23,0.1 4.55,0.14 1.17,0.04 1.89,0.08 1.89,0.14z"
                         class="fil5" /></g></g><g
                     id="g155"><g
                       id="g153"><path
                         id="path151"
                         d="M453.22 341.84c0.11,0 0.14,1.23 0.05,2.73 -0.08,1.5 -0.24,2.72 -0.36,2.72 -0.12,-0.01 -0.14,-1.23 -0.05,-2.74 0.08,-1.5 0.24,-2.72 0.36,-2.71z"
                         class="fil5" /></g></g><g
                     id="g159"><polygon
                       id="polygon157"
                       points="445.58,348.87 458.54,348.44 458.62,347.21 446.23,347.31 445.57,348.72 "
                       class="fil10" /></g></g><g
                   id="g165"><path
                     id="path163"
                     d="M504.84 345.12l-20.17 -116.04 0.03 -0.01c-0.04,-0.17 -0.08,-0.33 -0.13,-0.5l-0 -0.02 0 0c-3.44,-13.64 -6.16,-16.98 -6.16,-16.98l-33.52 0.92c-2.63,4.73 -2.96,16.07 -2.96,16.07 -0.36,1.39 6.53,114.07 6.53,114.07l10.35 -0.28 5.61 -106.6 29.98 109.63 10.44 -0.23z"
                     class="fil6" /></g><g
                   id="g169"><path
                     id="path167"
                     d="M392.41 154.1c-0.08,-2.11 0.81,-6.17 1.31,-6.48 0.49,-0.31 1.1,0.28 0.85,0.89 -0.2,0.49 -0.28,1.41 -0.31,2.1 -0.03,0.57 0.04,1.15 0.2,1.7 0.14,0.48 0.28,0.89 0.41,1.26l0.23 0.68 22.16 19.84 13.84 -0.85 2.74 14.13 -22.52 -1.96 -23.15 -25.55 0 0c-1.96,-1.41 -3.97,-3.14 -5.23,-3.96 -2.27,-1.49 -1.62,-1.9 -1.34,-2.14l10.81 0.32z"
                     class="fil6" /></g><g
                   id="g173"><path
                     id="path171"
                     d="M516.85 142.31l-13.79 28.18 -13.82 5.89 -5.16 -12.44 10.15 -2.68 15.79 -25.21 0.03 -0.72c0.02,-0.39 0.04,-0.82 0.04,-1.31 0,-0.57 -0.09,-1.15 -0.28,-1.7 -0.23,-0.66 -0.56,-1.52 -0.89,-1.94 -0.4,-0.52 0.01,-1.26 0.57,-1.09 0.57,0.16 1.71,1.55 2.22,3.6 0.5,2.05 1.87,-0.94 2.39,-2.02 0.52,-1.08 2.27,-4.34 2.72,-4.43 0.67,-0.14 0.94,0.57 0.41,1.63 -0.55,1.08 -1.94,4.38 -1.37,4.64l0.97 -0.06 0.77 3.82c0.4,1.97 0.14,4.02 -0.75,5.83z"
                     class="fil6" /></g><g
                   id="g343"><g
                     id="g341"><g
                       id="g191"><g
                         id="g181"><g
                           id="g179"><g
                             id="g177"><path
                               id="path175"
                               d="M507.79 346.22l-0.05 -1.32 -13.39 0.39 0.12 4.36 0.83 0.03c3.69,0.09 18.74,0.22 21.18,-0.54 2.72,-0.85 -8.69,-2.91 -8.69,-2.91z"
                               class="fil8" /></g></g></g><g
                         id="g189"><g
                           id="g187"><g
                             id="g185"><path
                               id="path183"
                               d="M499.3 349.42c-0.22,-1.03 -0.87,-1.98 -1.79,-2.6 -0.91,-0.62 -2.02,-0.93 -3.14,-0.82l0.11 3.46 4.82 -0.05z"
                               class="fil10" /></g></g></g></g><g
                       id="g199"><g
                         id="g197"><g
                           id="g195"><path
                             id="path193"
                             d="M513.37 347.42c0,0 4,0.96 3.53,1.58 -0.48,0.62 -15.7,1.02 -22.43,0.65l0.01 -0.28 17.76 -0.33c0,0 0.36,-1.58 1.13,-1.62z"
                             class="fil11" /></g></g></g><g
                       id="g209"><g
                         id="g207"><g
                           id="g205"><g
                             id="g203"><path
                               id="path201"
                               d="M494.27 349.37c0,0 0.08,0.01 0.23,0.02 0.2,0 0.41,0.01 0.66,0.02 0.66,0.01 1.47,0.02 2.43,0.04 2.05,0.01 4.88,0 8,-0.08 3.13,-0.08 5.96,-0.21 8,-0.33 0.96,-0.06 1.76,-0.12 2.42,-0.16 0.24,-0.02 0.46,-0.04 0.66,-0.05 0.15,-0.02 0.23,-0.03 0.23,-0.03 0,-0 -0.08,-0 -0.23,0 -0.2,0.01 -0.41,0.01 -0.66,0.02 -0.66,0.03 -1.47,0.07 -2.42,0.11 -2.05,0.09 -4.87,0.2 -8,0.28 -3.12,0.08 -5.95,0.11 -8,0.12 -0.96,0 -1.77,0.01 -2.43,0.01 -0.24,0 -0.46,0.01 -0.66,0.01 -0.15,0 -0.23,0.01 -0.23,0.01z"
                               class="fil5" /></g></g></g></g><g
                       id="g219"><g
                         id="g217"><g
                           id="g215"><g
                             id="g213"><path
                               id="path211"
                               d="M512.24 349.24c0.05,0 0.07,-0.53 0.42,-1.09 0.34,-0.56 0.83,-0.85 0.8,-0.88 -0.01,-0.04 -0.57,0.21 -0.94,0.81 -0.37,0.59 -0.32,1.17 -0.28,1.16z"
                               class="fil5" /></g></g></g></g><g
                       id="g229"><g
                         id="g227"><g
                           id="g225"><g
                             id="g223"><path
                               id="path221"
                               d="M508.25 347.48c0.04,0.02 0.22,-0.2 0.41,-0.49 0.19,-0.29 0.31,-0.54 0.27,-0.57 -0.04,-0.02 -0.22,0.2 -0.41,0.49 -0.18,0.29 -0.3,0.54 -0.27,0.57z"
                               class="fil5" /></g></g></g></g><g
                       id="g239"><g
                         id="g237"><g
                           id="g235"><g
                             id="g233"><path
                               id="path231"
                               d="M507.16 346.98c0.03,0.03 0.24,-0.11 0.46,-0.3 0.22,-0.2 0.38,-0.38 0.35,-0.41 -0.03,-0.03 -0.24,0.11 -0.46,0.31 -0.23,0.2 -0.38,0.38 -0.35,0.41z"
                               class="fil5" /></g></g></g></g><g
                       id="g249"><g
                         id="g247"><g
                           id="g245"><g
                             id="g243"><path
                               id="path241"
                               d="M506.44 345.83c0,0.04 0.31,0.07 0.7,0.07 0.38,-0 0.69,-0.04 0.69,-0.09 0,-0.04 -0.31,-0.07 -0.7,-0.06 -0.38,0 -0.69,0.04 -0.69,0.08z"
                               class="fil5" /></g></g></g></g><g
                       id="g259"><g
                         id="g257"><g
                           id="g255"><g
                             id="g253"><path
                               id="path251"
                               d="M506.18 345.01c-0.01,0.04 0.33,0.17 0.78,0.19 0.45,0.02 0.81,-0.08 0.8,-0.12 -0.01,-0.04 -0.36,-0.01 -0.79,-0.03 -0.43,-0.02 -0.78,-0.08 -0.79,-0.04z"
                               class="fil5" /></g></g></g></g><g
                       id="g269"><g
                         id="g267"><g
                           id="g265"><g
                             id="g263"><path
                               id="path261"
                               d="M508.67 346.39c-0,0.01 0.33,0.04 0.85,-0.03 0.26,-0.04 0.57,-0.1 0.91,-0.21 0.16,-0.06 0.34,-0.11 0.51,-0.21 0.08,-0.05 0.18,-0.13 0.2,-0.25 0.04,-0.12 -0.04,-0.25 -0.14,-0.32 -0.83,-0.37 -1.64,0.08 -1.93,0.48 -0.16,0.2 -0.24,0.4 -0.27,0.54 -0.03,0.14 -0.02,0.21 -0.01,0.21 0.03,0.01 0.05,-0.31 0.37,-0.69 0.16,-0.18 0.4,-0.37 0.72,-0.46 0.3,-0.09 0.73,-0.12 1.02,0.04 0.14,0.09 0.09,0.24 -0.06,0.33 -0.14,0.09 -0.32,0.14 -0.48,0.2 -0.32,0.11 -0.62,0.19 -0.88,0.24 -0.51,0.1 -0.84,0.11 -0.83,0.13z"
                               class="fil5" /></g></g></g></g><g
                       id="g279"><g
                         id="g277"><g
                           id="g275"><g
                             id="g273"><path
                               id="path271"
                               d="M508.9 346.42c0.01,0.01 0.13,-0.2 0.08,-0.56 -0.03,-0.17 -0.1,-0.38 -0.25,-0.57 -0.16,-0.17 -0.36,-0.41 -0.73,-0.39 -0.2,0.03 -0.29,0.24 -0.25,0.37 0.02,0.14 0.09,0.26 0.16,0.35 0.13,0.2 0.28,0.35 0.42,0.47 0.28,0.24 0.49,0.32 0.5,0.31 0.02,-0.02 -0.17,-0.14 -0.42,-0.39 -0.12,-0.12 -0.25,-0.28 -0.37,-0.47 -0.12,-0.16 -0.21,-0.47 0,-0.51 0.21,-0.03 0.44,0.17 0.57,0.32 0.14,0.17 0.22,0.35 0.26,0.51 0.08,0.32 0,0.53 0.03,0.53z"
                               class="fil5" /></g></g></g></g><g
                       id="g289"><g
                         id="g287"><g
                           id="g285"><g
                             id="g283"><path
                               id="path281"
                               d="M494.44 345.97c0,0.03 0.38,-0.04 0.99,0 0.6,0.04 1.43,0.25 2.17,0.77 0.74,0.52 1.18,1.21 1.4,1.73 0.22,0.53 0.25,0.88 0.28,0.88 0.01,0 0.01,-0.09 -0.01,-0.25 -0.02,-0.16 -0.07,-0.39 -0.16,-0.66 -0.19,-0.55 -0.64,-1.28 -1.41,-1.82 -0.77,-0.53 -1.65,-0.73 -2.26,-0.75 -0.31,-0.01 -0.57,0.01 -0.73,0.04 -0.17,0.03 -0.26,0.05 -0.26,0.06z"
                               class="fil5" /></g></g></g></g><g
                       id="g299"><g
                         id="g297"><g
                           id="g295"><g
                             id="g293"><path
                               id="path291"
                               d="M500.94 348.17c-0,0.04 0.87,0.15 1.95,0.12 1.08,-0.02 1.95,-0.16 1.95,-0.2 -0,-0.04 -0.87,0.03 -1.95,0.05 -1.07,0.02 -1.95,-0.02 -1.95,0.02z"
                               class="fil5" /></g></g></g></g><g
                       id="g309"><g
                         id="g307"><g
                           id="g305"><g
                             id="g303"><path
                               id="path301"
                               d="M498.33 348.23c-0.04,0.03 0.08,0.17 0.17,0.36 0.1,0.18 0.15,0.34 0.2,0.34 0.04,-0 0.06,-0.2 -0.05,-0.41 -0.11,-0.21 -0.29,-0.32 -0.32,-0.29z"
                               class="fil5" /></g></g></g></g><g
                       id="g319"><g
                         id="g317"><g
                           id="g315"><g
                             id="g313"><path
                               id="path311"
                               d="M497.31 347.12c-0.03,0.03 0.06,0.16 0.2,0.28 0.14,0.12 0.28,0.2 0.31,0.17 0.03,-0.03 -0.06,-0.16 -0.2,-0.28 -0.14,-0.12 -0.28,-0.2 -0.31,-0.17z"
                               class="fil5" /></g></g></g></g><g
                       id="g329"><g
                         id="g327"><g
                           id="g325"><g
                             id="g323"><path
                               id="path321"
                               d="M495.88 346.63c0.01,0.04 0.19,0.04 0.39,0.1 0.2,0.05 0.34,0.15 0.38,0.12 0.03,-0.02 -0.08,-0.2 -0.33,-0.27 -0.24,-0.07 -0.45,0.01 -0.44,0.05z"
                               class="fil5" /></g></g></g></g><g
                       id="g339"><g
                         id="g337"><g
                           id="g335"><g
                             id="g333"><path
                               id="path331"
                               d="M494.87 346.41c-0.01,0.04 0.07,0.1 0.18,0.14 0.11,0.04 0.21,0.04 0.23,-0 0.02,-0.04 -0.06,-0.1 -0.17,-0.14 -0.11,-0.04 -0.21,-0.04 -0.23,0z"
                               class="fil5" /></g></g></g></g></g></g><g
                   id="g403"><g
                     id="g347"><path
                       id="path345"
                       d="M475.39 186.96l0.41 -1.49c1.03,-0.64 13.14,-8.19 13.6,-8.26 0.48,-0.07 -5.4,-13.89 -5.4,-13.89l-13.77 1.97c-1.39,-0.39 -3.9,-0.48 -3.9,-0.48l-13.06 -0.11c0,0 -5.85,0.7 -7.71,2.05l-14.65 5.53 3.31 17.05 12.77 -2.25c-0.62,1.75 -0.02,4.78 0.52,8.22 0.66,4.24 1.03,10.17 -1.14,13.85 0,0 -2.7,9.32 -2.71,16.72l37.47 -4.38c0,0 -0.11,-8.04 -7.53,-17.59l0.35 -10.07 1.44 -6.87z"
                       class="fil5" /></g><g
                     id="g353"><g
                       id="g351"><path
                         id="path349"
                         d="M448.19 182.64c-0.07,0.01 -0.28,-1.23 -0.56,-3.24l0.28 0.12c-1.03,0.77 -2.23,1.65 -3.53,2.63l-0.35 0.26 -0.04 -0.44c-0.09,-1.1 -0.18,-2.29 -0.28,-3.52l0.4 0.2c-0.05,0.04 -0.11,0.07 -0.16,0.11 -1.38,0.92 -2.7,1.79 -3.9,2.59l-0.26 0.17 -0.09 -0.29c-0.39,-1.22 -0.57,-2.36 -0.61,-3.33l0.26 0.15c-0.92,0.42 -1.53,1.01 -1.91,1.44 -0.37,0.44 -0.53,0.72 -0.57,0.7 -0.03,-0.01 0.08,-0.33 0.41,-0.82 0.34,-0.49 0.94,-1.16 1.91,-1.65l0.24 -0.12 0.03 0.27c0.09,0.94 0.29,2.05 0.69,3.21l-0.36 -0.12c1.2,-0.81 2.51,-1.7 3.88,-2.64 0.06,-0.04 0.11,-0.08 0.16,-0.11l0.37 -0.25 0.03 0.44c0.09,1.24 0.17,2.43 0.25,3.53l-0.38 -0.18c1.34,-0.93 2.56,-1.79 3.61,-2.52l0.25 -0.18 0.03 0.3c0.19,2.03 0.27,3.28 0.2,3.29z"
                         class="fil12" /></g></g><g
                     id="g359"><g
                       id="g357"><path
                         id="path355"
                         d="M466.98 176.25c-0.06,0.04 -0.9,-0.88 -2.23,-2.42l0.31 -0.05c-0.45,1.2 -0.97,2.59 -1.55,4.12l-0.15 0.41 -0.27 -0.35c-0.67,-0.88 -1.39,-1.83 -2.15,-2.81l0.45 -0.05c-0.03,0.06 -0.05,0.12 -0.08,0.18 -0.66,1.53 -1.3,2.97 -1.87,4.3l-0.12 0.28 -0.24 -0.2c-0.99,-0.81 -1.75,-1.68 -2.32,-2.48l0.3 -0.01c-0.55,0.85 -0.74,1.68 -0.82,2.24 -0.07,0.57 -0.05,0.89 -0.09,0.9 -0.03,0 -0.12,-0.32 -0.11,-0.91 0.02,-0.59 0.16,-1.48 0.71,-2.42l0.13 -0.23 0.17 0.21c0.58,0.74 1.35,1.56 2.32,2.32l-0.37 0.09c0.57,-1.33 1.18,-2.79 1.83,-4.32 0.03,-0.06 0.05,-0.12 0.08,-0.18l0.18 -0.41 0.27 0.35c0.74,0.99 1.46,1.94 2.12,2.83l-0.42 0.06c0.61,-1.51 1.18,-2.89 1.67,-4.08l0.12 -0.29 0.19 0.24c1.26,1.6 2,2.6 1.95,2.65z"
                         class="fil12" /></g></g><g
                     id="g365"><g
                       id="g363"><path
                         id="path361"
                         d="M450.96 186.77c0.07,0.03 -0.3,1.22 -0.95,3.15l-0.2 -0.24c1.27,-0.22 2.73,-0.48 4.34,-0.77l0.43 -0.08 -0.16 0.41c-0.41,1.02 -0.86,2.13 -1.32,3.28l-0.27 -0.35c0.06,-0.01 0.13,-0.02 0.2,-0.03 1.65,-0.2 3.22,-0.4 4.65,-0.57l0.31 -0.04 -0.05 0.3c-0.19,1.26 -0.55,2.36 -0.95,3.25l-0.16 -0.25c1.02,0.04 1.83,-0.22 2.35,-0.44 0.53,-0.23 0.8,-0.41 0.82,-0.37 0.02,0.02 -0.21,0.26 -0.73,0.56 -0.52,0.28 -1.36,0.61 -2.45,0.62l-0.26 0 0.1 -0.25c0.34,-0.88 0.66,-1.96 0.82,-3.18l0.26 0.27c-1.43,0.19 -3,0.4 -4.65,0.62 -0.07,0.01 -0.14,0.02 -0.2,0.02l-0.44 0.06 0.17 -0.41c0.47,-1.14 0.93,-2.24 1.35,-3.27l0.26 0.33c-1.62,0.24 -3.09,0.45 -4.36,0.64l-0.31 0.04 0.11 -0.28c0.73,-1.9 1.22,-3.05 1.29,-3.03z"
                         class="fil12" /></g></g><g
                     id="g371"><g
                       id="g369"><path
                         id="path367"
                         d="M473.13 167.9c0.07,0.03 -0.3,1.22 -0.95,3.15l-0.2 -0.24c1.26,-0.23 2.73,-0.49 4.34,-0.77l0.43 -0.08 -0.16 0.41c-0.41,1.02 -0.86,2.13 -1.32,3.28l-0.27 -0.36c0.06,-0 0.13,-0.01 0.2,-0.02 1.65,-0.2 3.22,-0.4 4.66,-0.57l0.31 -0.04 -0.04 0.31c-0.2,1.26 -0.56,2.36 -0.95,3.25l-0.16 -0.25c1.01,0.04 1.82,-0.21 2.35,-0.43 0.53,-0.23 0.8,-0.41 0.82,-0.37 0.02,0.02 -0.21,0.26 -0.73,0.56 -0.52,0.28 -1.35,0.61 -2.44,0.62l-0.27 0 0.1 -0.25c0.34,-0.89 0.66,-1.96 0.82,-3.18l0.26 0.27c-1.43,0.19 -3,0.4 -4.65,0.61 -0.07,0.01 -0.13,0.02 -0.2,0.03l-0.44 0.06 0.17 -0.41c0.47,-1.14 0.93,-2.25 1.35,-3.27l0.26 0.33c-1.61,0.24 -3.08,0.45 -4.35,0.64l-0.31 0.04 0.11 -0.28c0.74,-1.9 1.22,-3.05 1.29,-3.03z"
                         class="fil12" /></g></g><g
                     id="g377"><g
                       id="g375"><path
                         id="path373"
                         d="M445.97 168.37c0.07,-0.02 0.57,1.13 1.32,3.01l-0.31 -0.05c0.82,-0.99 1.76,-2.14 2.8,-3.4l0.28 -0.34 0.14 0.42c0.35,1.05 0.73,2.18 1.12,3.35l-0.44 -0.09c0.04,-0.04 0.09,-0.1 0.13,-0.15 1.12,-1.22 2.19,-2.39 3.17,-3.46l0.21 -0.23 0.16 0.26c0.68,1.09 1.12,2.16 1.39,3.09l-0.29 -0.08c0.8,-0.63 1.25,-1.35 1.5,-1.86 0.26,-0.51 0.34,-0.83 0.38,-0.82 0.03,0.01 0.01,0.34 -0.2,0.9 -0.21,0.55 -0.63,1.34 -1.46,2.06l-0.2 0.17 -0.09 -0.26c-0.31,-0.89 -0.77,-1.92 -1.44,-2.96l0.37 0.03c-0.97,1.08 -2.02,2.25 -3.13,3.49 -0.04,0.05 -0.09,0.1 -0.13,0.15l-0.3 0.33 -0.14 -0.42c-0.38,-1.18 -0.75,-2.31 -1.1,-3.36l0.42 0.08c-1.07,1.23 -2.05,2.35 -2.9,3.32l-0.2 0.24 -0.1 -0.29c-0.67,-1.92 -1.05,-3.11 -0.98,-3.14z"
                         class="fil12" /></g></g><g
                     id="g383"><g
                       id="g381"><path
                         id="path379"
                         d="M465.86 184.94c0.04,-0.05 1.04,0.71 2.61,1.99l-0.29 0.1c0.24,-1.26 0.51,-2.72 0.81,-4.33l0.08 -0.43 0.32 0.3c0.81,0.75 1.69,1.55 2.6,2.39l-0.43 0.13c0.01,-0.06 0.03,-0.12 0.04,-0.19 0.39,-1.62 0.77,-3.15 1.1,-4.56l0.08 -0.3 0.27 0.15c1.11,0.63 2.02,1.35 2.71,2.03l-0.29 0.07c0.4,-0.93 0.44,-1.79 0.42,-2.35 -0.03,-0.57 -0.1,-0.89 -0.06,-0.9 0.03,-0.01 0.17,0.29 0.26,0.88 0.08,0.59 0.1,1.49 -0.28,2.51l-0.09 0.24 -0.2 -0.18c-0.7,-0.63 -1.6,-1.3 -2.69,-1.89l0.34 -0.15c-0.32,1.41 -0.69,2.95 -1.06,4.57 -0.02,0.07 -0.03,0.13 -0.04,0.19l-0.1 0.43 -0.32 -0.3c-0.9,-0.85 -1.78,-1.66 -2.58,-2.41l0.41 -0.13c-0.35,1.59 -0.66,3.05 -0.93,4.3l-0.07 0.31 -0.23 -0.2c-1.52,-1.36 -2.43,-2.22 -2.38,-2.27z"
                         class="fil12" /></g></g><g
                     id="g389"><g
                       id="g387"><path
                         id="path385"
                         d="M467.8 193.26c0.03,0.06 -1.04,0.7 -2.82,1.69l0.01 -0.31c1.09,0.69 2.34,1.48 3.73,2.35l0.37 0.23 -0.4 0.19c-0.99,0.48 -2.07,1 -3.18,1.54l0.04 -0.44c0.05,0.04 0.11,0.08 0.16,0.11 1.36,0.96 2.65,1.87 3.83,2.7l0.25 0.18 -0.24 0.19c-0.99,0.81 -2,1.38 -2.89,1.78l0.05 -0.3c0.72,0.71 1.5,1.06 2.03,1.26 0.54,0.19 0.87,0.24 0.86,0.28 -0,0.03 -0.34,0.05 -0.92,-0.08 -0.57,-0.14 -1.42,-0.46 -2.23,-1.18l-0.2 -0.18 0.24 -0.12c0.85,-0.42 1.8,-1.01 2.75,-1.8l0.01 0.37c-1.19,-0.82 -2.49,-1.72 -3.86,-2.67 -0.05,-0.04 -0.11,-0.08 -0.16,-0.11l-0.37 -0.26 0.4 -0.19c1.12,-0.53 2.19,-1.04 3.19,-1.51l-0.03 0.42c-1.36,-0.91 -2.59,-1.74 -3.66,-2.45l-0.26 -0.17 0.28 -0.14c1.82,-0.91 2.95,-1.43 2.99,-1.37z"
                         class="fil12" /></g></g><g
                     id="g395"><g
                       id="g393"><path
                         id="path391"
                         d="M447.51 207.63c0.03,-0.07 1.21,0.35 3.1,1.09l-0.24 0.19c-0.17,-1.28 -0.37,-2.75 -0.58,-4.37l-0.05 -0.43 0.4 0.18c1,0.46 2.09,0.95 3.21,1.46l-0.37 0.25c-0,-0.06 -0.01,-0.13 -0.02,-0.2 -0.13,-1.66 -0.25,-3.23 -0.37,-4.67l-0.03 -0.31 0.3 0.06c1.26,0.25 2.34,0.66 3.21,1.09l-0.26 0.15c0.08,-1.01 -0.13,-1.83 -0.33,-2.36 -0.2,-0.54 -0.37,-0.82 -0.33,-0.84 0.02,-0.02 0.25,0.23 0.52,0.76 0.26,0.53 0.56,1.38 0.51,2.47l-0.01 0.27 -0.25 -0.11c-0.86,-0.38 -1.93,-0.74 -3.14,-0.96l0.28 -0.25c0.12,1.44 0.27,3.01 0.41,4.67 0,0.07 0.01,0.14 0.02,0.2l0.04 0.44 -0.4 -0.19c-1.13,-0.52 -2.2,-1.02 -3.21,-1.49l0.34 -0.25c0.17,1.62 0.32,3.1 0.45,4.38l0.03 0.31 -0.28 -0.12c-1.86,-0.82 -2.99,-1.36 -2.97,-1.42z"
                         class="fil12" /></g></g><g
                     id="g401"><g
                       id="g399"><path
                         id="path397"
                         d="M446.37 167.01c-0,-0.03 0.37,-0.1 1.04,-0.04 0.67,0.06 1.65,0.3 2.68,0.95 1.03,0.63 2.08,1.72 2.78,3.16 0.71,1.44 1.1,3.2 1.07,5.04 -0.04,3.73 -1.79,6.81 -3.41,8.54 -0.81,0.89 -1.59,1.47 -2.15,1.84 -0.57,0.35 -0.9,0.51 -0.92,0.48 -0.06,-0.08 1.26,-0.78 2.79,-2.56 1.5,-1.75 3.13,-4.74 3.17,-8.31 0.03,-1.76 -0.34,-3.45 -0.99,-4.82 -0.65,-1.38 -1.6,-2.43 -2.56,-3.06 -1.95,-1.31 -3.54,-1.1 -3.51,-1.21z"
                         class="fil9" /></g></g></g><g
                   id="g415"><g
                     id="g407"><path
                       id="path405"
                       d="M444.27 212.96c-9.76,30.79 1.62,69.12 -1.39,105 -0.28,3.29 -1.54,7.19 0.98,9.33 1.46,1.23 3.59,1.34 5.44,0.88 1.85,-0.46 3.54,-1.41 5.31,-2.12 4.47,-1.78 9.55,-1.98 14.14,-0.55 3.12,0.97 6.2,2.68 9.42,2.2 4.28,-0.65 7.06,-4.88 11,-6.67 3.69,-1.68 7.95,-1.06 12,-1.15 4.06,-0.1 8.69,-1.45 10.24,-5.2 0,0 -27.99,-104.53 -37.81,-110.77l-26 1.65 -3.34 7.41z"
                       class="fil9" /></g><g
                     id="g413"><g
                       id="g411"><path
                         id="path409"
                         d="M473.28 232.1c0.03,0.11 -3.7,1.17 -8.33,2.37 -4.63,1.2 -8.41,2.08 -8.44,1.97 -0.03,-0.11 3.7,-1.17 8.33,-2.37 4.63,-1.2 8.41,-2.08 8.44,-1.97z"
                         class="fil5" /></g></g></g></g></g></g></g><g
           id="g433"><g
             id="g429"><path
               id="path425"
               d="M22.32 309.73l254.56 0 0 -148.14c0,-3.81 -3.12,-6.93 -6.93,-6.93l-240.7 0c-3.81,0 -6.93,3.12 -6.93,6.93l0 148.14zm245.82 -7.42l-237.81 0 0 -139.78 237.81 0 0 139.78z"
               class="fil13" /><path
               id="path427"
               d="M273.89 325.28l-248.63 0c-7.5,0 -13.58,-6.08 -13.58,-13.58l0 -1.14 112.83 0 3.42 5.44 48.15 0 3.18 -5.44 108.21 0 0 1.14c0,7.5 -6.08,13.58 -13.58,13.58z"
               class="fil1" /></g><rect
             id="rect431"
             height="139.78"
             width="237.8"
             y="162.54"
             x="30.34"
             class="fil0" /></g><g
           id="g439"><path
             id="path435"
             d="M53.11 325.42l-43.64 -0.2c-5.25,-0.02 -9.48,-4.28 -9.46,-9.52l0.46 -109.11c0.03,-5.24 4.3,-9.47 9.55,-9.44l43.64 0.2c5.25,0.02 9.49,4.29 9.47,9.52l-0.46 109.11c-0.02,5.24 -4.3,9.47 -9.55,9.44zm0.49 -124.3l-8.46 -0.04c-1.14,-0 -2.06,0.95 -2.07,2.13l-0 1.53c-0,1.18 -0.93,2.14 -2.07,2.13l-16.49 -0.08c-1.14,-0.01 -2.05,-0.97 -2.05,-2.15l0.01 -1.53c0,-1.18 -0.91,-2.15 -2.05,-2.15l-2.97 -0.01 -7.41 -0.03c-3.68,-0.02 -6.67,2.94 -6.69,6.61l-0.45 106.49c-0.02,3.67 2.95,6.65 6.62,6.67l43.55 0.2c3.68,0.02 6.67,-2.94 6.69,-6.61l0.45 -106.5c0.01,-3.66 -2.95,-6.65 -6.63,-6.66z"
             class="fil1" /><path
             id="path437"
             d="M9.53 320.69l43.55 0.2c3.68,0.02 6.67,-2.94 6.69,-6.61l0.45 -106.5c0.01,-3.66 -2.95,-6.65 -6.63,-6.66l-8.46 -0.04c-1.14,-0 -2.06,0.95 -2.07,2.13l-0 1.53c-0,1.18 -0.93,2.14 -2.07,2.13l-16.49 -0.08c-1.14,-0.01 -2.05,-0.97 -2.05,-2.15l0.01 -1.53c0,-1.18 -0.91,-2.15 -2.05,-2.15l-2.97 -0.01 -7.41 -0.03c-3.68,-0.02 -6.67,2.94 -6.69,6.61l-0.45 106.49c-0.02,3.67 2.95,6.65 6.62,6.67z"
             class="fil0" /></g><g
           id="g445"><path
             id="path441"
             d="M492.9 176.89l82.62 0c5.71,0 10.39,4.67 10.39,10.39l0 127.6c0,5.71 -4.67,10.39 -10.39,10.39l-82.62 0c-5.72,0 -10.39,-4.67 -10.39,-10.39l0 -127.6c0,-5.72 4.67,-10.39 10.39,-10.39zm56.14 5.92l-29.52 0c-0.45,0 -0.81,-0.37 -0.81,-0.81l0 -0.02c0,-0.45 0.37,-0.81 0.81,-0.81l29.52 0c0.45,0 0.81,0.37 0.81,0.81l0 0.02c0,0.45 -0.36,0.81 -0.81,0.81zm-10.79 135.01c0,2.19 -1.78,3.97 -3.97,3.97 -2.19,0 -3.97,-1.78 -3.97,-3.97 0,-2.19 1.78,-3.97 3.97,-3.97 2.19,0 3.97,1.78 3.97,3.97zm44.32 -6.86l-96.72 0 0 -123.91 96.72 0 0 123.91z"
             class="fil13" /><polygon
             id="polygon443"
             points="582.57,310.96 582.57,187.05 485.85,187.05 485.85,310.96 "
             class="fil0" /></g></g><g
         id="g451"><line
           id="line449"
           y2="371.05"
           x2="660.8"
           y1="2.83"
           x1="660.8"
           class="fil14 str0" /></g></g></g></svg>