<?xml version="1.0" encoding="UTF-8" standalone="no"?>
<svg
   xmlns:dc="http://purl.org/dc/elements/1.1/"
   xmlns:cc="http://creativecommons.org/ns#"
   xmlns:rdf="http://www.w3.org/1999/02/22-rdf-syntax-ns#"
   xmlns:svg="http://www.w3.org/2000/svg"
   xmlns="http://www.w3.org/2000/svg"
   id="svg12"
   viewBox="0 0 112.23 201.58"
   style="shape-rendering:geometricPrecision; text-rendering:geometricPrecision; image-rendering:optimizeQuality; fill-rule:evenodd; clip-rule:evenodd"
   version="1.1"
   height="7.6713mm"
   width="4.271mm"
   xml:space="preserve"><metadata
     id="metadata16"><rdf:RDF><cc:Work
         rdf:about=""><dc:format>image/svg+xml</dc:format><dc:type
           rdf:resource="http://purl.org/dc/dcmitype/StillImage" /></cc:Work></rdf:RDF></metadata><defs
     id="defs4"><style
       id="style2"
       type="text/css"><![CDATA[
    .fil0 {fill:#12BDEB}
   ]]></style></defs><g
     id="Camada_x0020_1"><metadata
       id="CorelCorpID_0Corel-Layer" /><g
       id="g9"><path
         id="path7"
         d="M67.73 189.73l0 -0.33 0 0.33zm0 0.97l0 -0.49 0 0.49zm-11.87 -5.85c2.76,0 4.88,2.11 4.88,4.87 0,2.59 -2.11,4.87 -4.88,4.87 -2.6,0 -4.87,-2.28 -4.87,-4.87 0,-2.77 2.27,-4.87 4.87,-4.87zm-0.65 -7.15c0.32,0 0.49,0 0.65,0 -0.16,0 -0.33,0 -0.65,0zm-0.16 0.16l0.16 -0.16 -0.16 0.16zm-0.32 0l0.16 0 -0.16 0zm-0.32 0l0.16 0 -0.16 0zm-0.34 0l0.34 0 -0.34 0zm-0.32 0l0.32 0 -0.32 0zm13.98 13.64l-0.17 0.33 0.17 -0.33zm0 -0.32l0 0.32 0 -0.32zm0 -0.33l0 0.33 0 -0.33zm0 -0.16l0 0.16 0 -0.16zm0 -0.65l0 0.16 0 -0.16zm0 -0.32l0 0.32 0 -0.32zm0 -0.98c0,0.16 0,0.32 0,0.65 0,-0.33 0,-0.49 0,-0.65zm0 -0.33l0 0.33 0 -0.33zm0 -0.32l0 0.32 0 -0.32zm0 -0.16l0 0.16 0 -0.16zm-0.17 -0.32l0.17 0.16 -0.17 -0.16zm0 -0.33l0 0.33 0 -0.33zm-9.91 -9.42l0.32 0 -0.32 0zm-0.17 0l0.17 0 -0.17 0zm-0.33 0l0.17 0 -0.17 0zm-0.32 0l0.32 0 -0.32 0zm-0.33 -0.16l0.33 0.16 -0.33 -0.16zm-0.65 0l0.65 0 -0.65 0zm-11.53 14.62l0 0.32 0 -0.32zm-0.17 -0.81l0 0.33 0 -0.33zm-0.15 -0.32l0.15 0.32 -0.15 -0.32zm0 -0.33l0 0.33 0 -0.33zm0 -0.65l0 0.65 0 -0.16 0 -0.49zm0 -0.16l0 0.16 0 -0.16zm0 -0.65l0 0.65 0 -0.32 0 -0.33zm0 -0.65c0,0.16 0,0.32 0,0.65 0,-0.33 0,-0.49 0,-0.65zm0 -0.33l0 0.33 0 -0.33zm0 -0.32l0 0.32 0 -0.32zm0.15 -0.16l-0.15 0.16 0.15 -0.16zm0 -0.32l0 0.16 0 -0.16zm0 -0.33l0 0.33 0 -0.33zm0.17 -0.33l-0.17 0.33 0.17 -0.33zm-43.86 -0.48l44.01 0c0.98,-3.74 3.74,-6.66 7.16,-7.96l0 -14.62c0,-0.33 0.16,-0.49 0.48,-0.49l7.48 0c0.32,0 0.48,0.16 0.48,0.49l0 14.62c3.58,1.3 6.18,4.22 7.32,7.96l43.85 0c0.33,0 0.49,0.16 0.49,0.48l0 7.47c0,0.17 -0.17,0.49 -0.49,0.49l-44.67 0c-1.95,3.9 -6.01,6.66 -10.72,6.66 -4.71,0 -8.78,-2.76 -10.72,-6.66l-44.67 0c-0.33,0 -0.48,-0.32 -0.48,-0.49l0 -7.47c0,-0.32 0.16,-0.48 0.48,-0.48zm48.08 -57.01l15.27 0 -2.76 -14.14 -0.16 -1.46 0.98 -1.14c0.81,-0.65 1.46,-1.62 1.94,-2.76 0.49,-0.97 0.65,-2.11 0.65,-3.24 0,-2.44 -0.81,-4.55 -2.43,-6.01 -1.46,-1.47 -3.58,-2.44 -6.01,-2.44 -2.28,0 -4.39,0.97 -5.85,2.44 -1.62,1.46 -2.6,3.57 -2.6,6.01 0,1.14 0.33,2.27 0.81,3.4 0.48,1.14 1.13,2.12 1.95,2.77l1.13 1.13 -0.33 1.46 -2.6 13.98zm40.28 -59.94l-65.46 0 0 -19.66c0,-18.03 14.63,-32.65 32.66,-32.65 18.03,0 32.8,14.62 32.8,32.65l0 19.66zm-22.08 60.91c0.16,0.97 -0.49,1.78 -1.47,1.78l-18.2 0c-0.97,0 -1.62,-0.81 -1.46,-1.78l2.92 -15.43c-2.27,-2.11 -3.57,-5.04 -3.57,-8.28 0,-6.17 4.87,-11.21 11.05,-11.21 6.16,0 11.2,5.04 11.2,11.21 0,3.08 -1.3,6.01 -3.41,8.12l2.93 15.6zm39.3 -59.94l0 -20.63c0,-27.45 -22.41,-49.87 -50.02,-49.87 -27.45,0 -49.88,22.42 -49.88,49.87l0 20.46c-3.08,1.14 -6.16,3.74 -6.16,9.09l0 66.27c0,22.09 18.03,17.7 39.95,17.7l31.83 0c21.94,0 39.97,4.39 39.97,-17.7l0 -31.84c0.32,-2.11 0.48,-4.39 0.48,-6.5l0 -27.94c0,-5.03 -3.08,-7.8 -6.17,-8.93z"
         class="fil0" /></g></g></svg>