<?xml version="1.0" encoding="UTF-8" standalone="no"?>
<svg
   xmlns:dc="http://purl.org/dc/elements/1.1/"
   xmlns:cc="http://creativecommons.org/ns#"
   xmlns:rdf="http://www.w3.org/1999/02/22-rdf-syntax-ns#"
   xmlns:svg="http://www.w3.org/2000/svg"
   xmlns="http://www.w3.org/2000/svg"
   xmlns:xlink="http://www.w3.org/1999/xlink"
   id="svg434"
   viewBox="0 0 325.54 237.76"
   style="shape-rendering:geometricPrecision; text-rendering:geometricPrecision; image-rendering:optimizeQuality; fill-rule:evenodd; clip-rule:evenodd"
   version="1.1"
   height="7.62mm"
   width="10.4334mm"
   xml:space="preserve"><metadata
     id="metadata438"><rdf:RDF><cc:Work
         rdf:about=""><dc:format>image/svg+xml</dc:format><dc:type
           rdf:resource="http://purl.org/dc/dcmitype/StillImage" /></cc:Work></rdf:RDF></metadata><defs
     id="defs19"><style
       id="style2"
       type="text/css"><![CDATA[
    .fil22 {fill:#009933}
    .fil2 {fill:#12BDEB}
    .fil1 {fill:#D7D3F5}
    .fil0 {fill:#D8DAF5}
    .fil23 {fill:white}
    .fil21 {fill:#009933;fill-rule:nonzero}
    .fil16 {fill:#12BDEB;fill-rule:nonzero}
    .fil54 {fill:#1B4D8F;fill-rule:nonzero}
    .fil44 {fill:#1D2033;fill-rule:nonzero}
    .fil12 {fill:#1D3B54;fill-rule:nonzero}
    .fil38 {fill:#202338;fill-rule:nonzero}
    .fil58 {fill:#23344A;fill-rule:nonzero}
    .fil34 {fill:#292C47;fill-rule:nonzero}
    .fil39 {fill:#323657;fill-rule:nonzero}
    .fil62 {fill:#3A3F47;fill-rule:nonzero}
    .fil33 {fill:#424773;fill-rule:nonzero}
    .fil45 {fill:#434343;fill-rule:nonzero}
    .fil3 {fill:#4A3E46;fill-rule:nonzero}
    .fil31 {fill:#4DA8F2;fill-rule:nonzero}
    .fil37 {fill:#518AFA;fill-rule:nonzero}
    .fil47 {fill:#5282FC;fill-rule:nonzero}
    .fil49 {fill:#5C5049;fill-rule:nonzero}
    .fil64 {fill:#5E5853;fill-rule:nonzero}
    .fil61 {fill:#5F8CC9;fill-rule:nonzero}
    .fil14 {fill:#6B5A65;fill-rule:nonzero}
    .fil66 {fill:#6E6760;fill-rule:nonzero}
    .fil27 {fill:#706865;fill-rule:nonzero}
    .fil59 {fill:#807066;fill-rule:nonzero}
    .fil42 {fill:#81807E;fill-rule:nonzero}
    .fil65 {fill:#91887F;fill-rule:nonzero}
    .fil63 {fill:#A32D3B;fill-rule:nonzero}
    .fil13 {fill:#A77860;fill-rule:nonzero}
    .fil41 {fill:#AAB1E0;fill-rule:nonzero}
    .fil4 {fill:#B07042;fill-rule:nonzero}
    .fil29 {fill:#B5DEFF;fill-rule:nonzero}
    .fil57 {fill:#BC8551;fill-rule:nonzero}
    .fil10 {fill:#BD7947;fill-rule:nonzero}
    .fil28 {fill:#BDAFAA;fill-rule:nonzero}
    .fil48 {fill:#C4C1CC;fill-rule:nonzero}
    .fil20 {fill:#CC3300;fill-rule:nonzero}
    .fil6 {fill:#CF8C6C;fill-rule:nonzero}
    .fil24 {fill:#D46946;fill-rule:nonzero}
    .fil52 {fill:#D4C3BD;fill-rule:nonzero}
    .fil7 {fill:#D88A51;fill-rule:nonzero}
    .fil9 {fill:#DB9C7C;fill-rule:nonzero}
    .fil43 {fill:#DBD8E3;fill-rule:nonzero}
    .fil53 {fill:#DE9673;fill-rule:nonzero}
    .fil56 {fill:#DED1C5;fill-rule:nonzero}
    .fil36 {fill:#DFE1E8;fill-rule:nonzero}
    .fil35 {fill:#E2D2CA;fill-rule:nonzero}
    .fil40 {fill:#E2E3ED;fill-rule:nonzero}
    .fil60 {fill:#E64053;fill-rule:nonzero}
    .fil55 {fill:#E6D3CC;fill-rule:nonzero}
    .fil8 {fill:#EB4747;fill-rule:nonzero}
    .fil11 {fill:#EDDAD3;fill-rule:nonzero}
    .fil5 {fill:#EEA886;fill-rule:nonzero}
    .fil46 {fill:#EEA987;fill-rule:nonzero}
    .fil32 {fill:#EFAA88;fill-rule:nonzero}
    .fil50 {fill:#FAB46C;fill-rule:nonzero}
    .fil51 {fill:#FCCCA2;fill-rule:nonzero}
    .fil15 {fill:#FF6600;fill-rule:nonzero}
    .fil30 {fill:#FFC655;fill-rule:nonzero}
    .fil19 {fill:#FFCC00;fill-rule:nonzero}
    .fil17 {fill:white;fill-rule:nonzero}
    .fil25 {fill:url(#id0)}
    .fil26 {fill:url(#id1)}
    .fil18 {fill:url(#id2)}
   ]]></style><linearGradient
       y2="194.13"
       x2="270.94"
       y1="194.13"
       x1="69.62"
       gradientUnits="userSpaceOnUse"
       id="id0"><stop
         id="stop4"
         style="stop-opacity:1; stop-color:#FF9F55"
         offset="0" /><stop
         id="stop6"
         style="stop-opacity:1; stop-color:#FFD255"
         offset="1" /></linearGradient><linearGradient
       y2="194.13"
       x2="202.7"
       y1="194.13"
       x1="143.67"
       xlink:href="#id0"
       gradientUnits="userSpaceOnUse"
       id="id1" /><radialGradient
       fy="55.85"
       fx="148.68"
       r="461.27"
       cy="55.85"
       cx="148.68"
       gradientTransform="matrix(4.16958 -0 -0 -4.16921 -471 289)"
       gradientUnits="userSpaceOnUse"
       id="id2"><stop
         id="stop10"
         style="stop-opacity:1; stop-color:#FFDD91"
         offset="0" /><stop
         id="stop12"
         style="stop-opacity:1; stop-color:#FFDD91"
         offset="0.0117647" /><stop
         id="stop14"
         style="stop-opacity:1; stop-color:#FFE655"
         offset="0.988235" /><stop
         id="stop16"
         style="stop-opacity:1; stop-color:#FFE655"
         offset="1" /></radialGradient></defs><g
     id="Camada_x0020_1"><metadata
       id="CorelCorpID_0Corel-Layer" /><g
       id="_4672493824"><path
         id="path22"
         d="M305.74 231.3c-11.02,-0.61 -25.74,-0.99 -41.95,-0.99 -34.09,0 -61.74,1.67 -61.74,3.73 0,2.05 27.65,3.72 61.74,3.72l0 0c11.8,0 22.82,-0.2 32.19,-0.55 17.72,-0.65 29.55,-1.83 29.55,-3.17 0,-1.08 -7.64,-2.05 -19.79,-2.73z"
         class="fil0" /><path
         id="path24"
         d="M79.65 230.41c-4.83,-0.07 -9.88,-0.1 -15.08,-0.1 -35.66,0 -64.57,1.67 -64.57,3.73 0,2.05 28.91,3.72 64.57,3.72l2.88 -0.01c34.29,-0.08 61.66,-1.72 61.66,-3.71 0,-1.76 -21.1,-3.23 -49.45,-3.62z"
         class="fil1" /><g
         id="g430"><path
           id="path26"
           d="M147.44 120.54l4.19 4.15 6.56 -6.64 6.76 6.69 6.79 -6.86 6.99 6.9 5.89 -5.94 0.27 -2.32 1.83 0.22 -6.72 57.99 10.65 -0.04c3.76,-4.55 5.99,-10.1 5.96,-16.08 2.33,-32.95 19.94,-67.74 19.94,-67.74 3.2,-6.16 4.99,-12.98 4.93,-20.19 -0.07,-12.19 -5.39,-23.38 -14.08,-31.94 -10.65,-10.45 -26.37,-17.09 -43.98,-17.09 -0.1,0 -0.2,0 -0.33,0 -32.13,0.17 -58.06,22.37 -57.92,49.64 0.03,7.17 1.9,13.98 5.16,20.1 0,0 4.1,7.91 8.66,19.71 5,12.94 10.55,30.59 11.95,47.81 0.03,5.9 2.23,11.36 5.93,15.82l13.88 0 -6.86 -54.27 -0.43 -3.5 1.83 -0.26 0.23 1.92 1.93 1.93zm5.16 54.19l-6.82 -54.06 5.86 5.81 6.56 -6.64 6.76 6.69 6.82 -6.86 6.96 6.9 5.66 -5.68 -6.26 53.84 -25.54 0z"
           class="fil2" /><path
           id="path28"
           d="M280.86 228.1c0,0.73 0.59,1.32 1.32,1.32 0.73,0 1.32,-0.59 1.32,-1.32 0,-0.73 -0.59,-1.32 -1.32,-1.32 -0.72,0 -1.32,0.59 -1.32,1.32z"
           class="fil3" /><polygon
           id="polygon30"
           points="310.57,226.79 310.23,227.73 296.12,223.36 296.79,221.46 "
           class="fil3" /><polygon
           id="polygon32"
           points="295.63,222.69 297.24,222.69 297.24,205.65 295.63,205.65 "
           class="fil3" /><polygon
           id="polygon34"
           points="282.18,226.79 282.51,227.73 296.63,223.36 296.01,221.33 "
           class="fil3" /><polygon
           id="polygon36"
           points="292.13,227.63 292.13,228.72 296.63,223.36 296.01,221.33 "
           class="fil3" /><path
           id="path38"
           d="M292.01 228.1c0,0.73 0.59,1.32 1.32,1.32 0.73,0 1.32,-0.59 1.32,-1.32 0,-0.73 -0.59,-1.32 -1.32,-1.32 -0.73,0 -1.32,0.59 -1.32,1.32z"
           class="fil3" /><path
           id="path40"
           d="M276.3 223.51c0,0 -0.02,0.9 -0.31,1.94 -0.21,0.76 -0.64,3.73 -1.19,4.14 -0.55,0.41 -2.31,1.51 -2.05,2.64 0.26,1.13 0.48,1.91 2.38,1.24 1.9,-0.67 3.17,-1.05 3.54,-2.72 0.37,-1.67 1.4,-3.19 1.4,-3.19l1.38 3.42 0.72 -0.29c0,0 -1.1,-3.69 -1,-4.02 0.09,-0.33 -0.51,-3.26 -2.81,-3.99 -2.3,-0.73 -2.08,0.83 -2.08,0.83z"
           class="fil4" /><path
           id="path42"
           d="M263.59 224.59c0,0 -0.35,0.82 -1,1.68 -0.48,0.63 -1.98,3.22 -2.65,3.4 -0.66,0.18 -2.71,0.54 -2.89,1.68 -0.18,1.15 -0.27,1.96 1.74,2.04 2.01,0.09 3.34,0.21 4.3,-1.2 0.96,-1.41 2.49,-2.43 2.49,-2.43l0 3.68 0.78 0c0,0 0.36,-3.83 0.57,-4.11 0.21,-0.27 0.75,-3.22 -1.11,-4.75 -1.87,-1.53 -2.24,0 -2.24,0z"
           class="fil4" /><path
           id="path44"
           d="M284.07 174.5c0,0 -0.45,-1.59 -0.49,-1.79 -0.04,-0.21 -0.46,-0.62 -1,-1.05 -0.53,-0.43 -1.43,-0.78 -1.54,-0.74 -0.11,0.04 -0.24,0.02 -0.42,0.26 -0.18,0.24 -0.21,0.54 -0.21,0.54 0,0 -0.37,0.18 -0.37,0.56 0,0 -0.34,0.19 -0.27,0.62 0,0 -0.32,0.19 -0.25,0.5 0,0 0.42,0.41 0.54,0.61 0.11,0.2 1.05,1 2.07,1.62 0,0 1.3,0.96 1.95,-1.13z"
           class="fil5" /><path
           id="path46"
           d="M282.12 173.24c0,0 -0.19,0.67 -0.15,0.88 0.04,0.22 -1.53,0.25 -1.53,0.25 0,0 0.86,-1.34 1.68,-1.13z"
           class="fil6" /><path
           id="path48"
           d="M299.76 177.23c-0.63,-1.02 -1.48,-1.49 -4.16,0.37 -2.68,1.85 -2.05,1.49 -2.69,2.08 -0.64,0.59 -3.45,2.06 -3.45,2.06 0,0 -1.64,-1.63 -2.43,-2.79 -0.89,-1.31 -2.74,-4.8 -2.74,-4.8l-2.6 1.93c0,0 5.05,9.15 6.1,9.83 1.05,0.68 4.24,-0.46 5.89,-1.15 1.65,-0.7 3.4,-1.6 4.16,-1.78 0.76,-0.19 3.57,-3.07 1.92,-5.74z"
           class="fil7" /><polygon
           id="polygon50"
           points="281.5,172.43 281.98,172.33 280.72,166.59 280.23,166.7 "
           class="fil8" /><path
           id="path52"
           d="M281.18 171.03c0,0 1.31,1.12 1.16,1.35 -0.16,0.23 -0.36,0.23 -0.36,0.23l0.33 0.71c0,0 -0.04,0.59 -0.68,0.37 0,0 0.02,0.56 -0.57,0.27 0,0 -0.15,0.37 -0.45,0.29 -0.29,-0.08 -1.11,-0.84 -1.11,-0.84 0,0 -0.12,-0.24 0.23,-0.51 0,0 -0.08,-0.41 0.27,-0.62 0,0 -0.03,-0.34 0.36,-0.57 0,0 0.04,-0.74 0.66,-0.78l0.14 0.11z"
           class="fil9" /><path
           id="path54"
           d="M283.56 172.73c0,0 -0.88,-0.8 -1.55,-1.02 -0.15,-0.05 -0.31,-0.07 -0.41,0.05 -0.1,0.12 -0.06,0.42 0.31,0.79 0.36,0.36 0.66,1 0.66,1 0,0 0.48,0.27 0.99,-0.82z"
           class="fil5" /><path
           id="path56"
           d="M287.27 182.79c0,0 -0.53,-1.91 0.09,-3.39 0,0 -0.24,1.54 0.43,2.62 0.49,0.79 -0.53,0.77 -0.53,0.77z"
           class="fil10" /><path
           id="path58"
           d="M277.69 183.09c0,0 -1.42,-10.48 -3.88,-15.05l3.63 0c0,0 4.06,7.16 3.3,14.39l-3.05 0.66z"
           class="fil11" /><path
           id="path60"
           d="M276.82 175.24c0,0 -0.41,-0.77 -0.51,-1.02 -0.1,-0.25 -0.51,0.18 -0.44,0.51 0.06,0.32 0.96,0.51 0.96,0.51z"
           class="fil5" /><path
           id="path62"
           d="M273.6 176.99c0,0 0.11,0.38 0.24,0.52 0,0 0.26,0.24 0.42,0.42l0.12 0.15c0.11,0.15 0.3,0.52 0.66,0.81 0.36,0.29 1.74,1.19 1.74,1.19l0.98 -1.04 0.78 -0.81c0,0 -0.66,-2.48 -0.97,-2.79l-0.09 -0.08c-0.28,-0.24 -0.59,-0.29 -0.76,-0.4 -0.06,-0.04 -0.69,-0.39 -0.89,-0.31 -0.28,0.11 -0.43,0.29 -0.47,0.49 0,0 -0.54,0.23 -0.71,0.58 0,0 -0.5,0.2 -0.6,0.7 0,0 -0.49,0.26 -0.47,0.58z"
           class="fil5" /><path
           id="path64"
           d="M267.18 204.06c0,0 2.4,5.39 4.11,9.24 0.29,0.65 0.55,1.25 0.79,1.78 0.27,0.62 0.5,1.13 0.66,1.49 1.09,2.45 3.77,7.79 3.77,7.79 0,0 2.01,0.07 2.13,-1.63 0,0 -1.93,-3.71 -1.93,-6.32 0,-2.61 -0.35,-10.28 -2.84,-11.94 -3.04,-2.02 -5.01,-2.41 -6.68,-0.41z"
           class="fil5" /><path
           id="path66"
           d="M289.35 193.81c0,0 -0.51,0.51 -0.94,0.62 -0.43,0.12 -7.58,0.66 -10.89,1.75 -3.3,1.09 -7.7,1.79 -8.52,2.72 -0.82,0.93 -2.18,6.07 -2.14,7.04 0.04,0.97 -2.9,17.36 -3.27,18.64 -0.19,0.68 2.66,0.42 2.66,0.42 0,0 4.06,-9.68 4.93,-11.47 1.59,-3.29 1.67,-7.31 2.26,-7.93 0.58,-0.62 7.08,-2.02 10.81,-2.02 3.73,0 12.1,0.31 12.99,-0.19 0.9,-0.51 6.5,-4.2 4.16,-9.14 -2.33,-4.94 -12.06,-0.43 -12.06,-0.43z"
           class="fil5" /><path
           id="path68"
           d="M273.21 197.38l5.91 11.37c0,0 1.78,-4.23 4.9,-4.96 3.11,-0.73 15.54,-0.34 15.54,-0.34 0,0 5.7,-7.21 0.82,-11 -4.88,-3.78 -10.58,0.59 -10.58,0.59 0,0 -1.18,1.28 -1.75,1.31 -0.57,0.03 -5.13,-0.09 -14.83,3.02z"
           class="fil12" /><path
           id="path70"
           d="M259.94 229.67c0,0 1.8,0.45 2.5,0 0.69,-0.45 3.04,-4.42 3.82,-4.66 0,0 -0.76,-1.53 -2.66,-0.42 0,0 -3.14,4.42 -3.65,5.08z"
           class="fil5" /><path
           id="path72"
           d="M274.8 229.58c0,0 1.84,-0.25 2.32,-0.93 0.47,-0.68 1.17,-5.24 1.81,-5.75 0,0 -1.27,-1.14 -2.63,0.61 0,0 -1.27,5.27 -1.49,6.07z"
           class="fil5" /><path
           id="path74"
           d="M309.25 228.1c0,0.73 0.59,1.32 1.32,1.32 0.73,0 1.32,-0.59 1.32,-1.32 0,-0.73 -0.59,-1.32 -1.32,-1.32 -0.73,0 -1.32,0.59 -1.32,1.32z"
           class="fil3" /><path
           id="path76"
           d="M293.62 158.01c-1.42,-0.07 -4.58,0.65 -5.07,4.42 0,0 0.12,1.02 0.36,1.82 0.25,0.8 -0.47,3.15 -0.28,3.27 0.18,0.12 0.95,0.27 0.95,0.27 0,0 0.83,2.57 1.73,2.55 0.9,-0.02 4.32,-0.73 5.93,-3.93 1.61,-3.2 2.11,-8.11 -3.64,-8.39z"
           class="fil5" /><path
           id="path78"
           d="M292.55 169.16c0,0 0.11,0.36 0.24,0.9 0.07,0.27 0.13,0.59 0.19,0.93 0.17,0.94 0.26,2.04 0.02,2.77 0,0 1.99,0.69 3.57,-2.13 0,0 -0.68,-3.04 0.2,-4.88 0.88,-1.84 -4.22,2.42 -4.22,2.42z"
           class="fil5" /><path
           id="path80"
           d="M288.55 162.43c0,0 2.18,1.96 4.49,1.8 2.35,-0.16 3.87,2.77 3.87,2.77 0,0 3.49,-4.38 0.68,-7.92 -2.81,-3.54 -9.54,-1.05 -9.04,3.34z"
           class="fil12" /><path
           id="path82"
           d="M294.11 164.22c0.01,-0.44 0.51,-1.11 1.23,-0.51 0.73,0.61 -0.25,2.72 -0.85,2.51 -0.6,-0.21 -0.4,-1.55 -0.39,-2.01z"
           class="fil5" /><path
           id="path84"
           d="M292.78 170.05c0.07,0.27 0.13,0.59 0.19,0.93 1.85,-1.18 2.79,-2.61 2.79,-2.61 -1.06,0.96 -2.98,1.68 -2.98,1.68z"
           class="fil13" /><path
           id="path86"
           d="M287.37 180.84c0.42,1.95 1.53,2.05 1.46,3.49 -0.07,1.44 -0.5,1.56 0.25,3.83 0.14,0.42 0.25,0.88 0.34,1.34l0.03 0.17c0.05,0.26 0.09,0.52 0.12,0.79 0.07,0.48 0.12,0.95 0.15,1.38 0.09,1.12 -0.74,1.98 -0.74,1.98 0,0 7.28,4.36 12.28,3.75 0,0 -1.29,-5.44 -2.01,-7.31 -0.71,-1.87 -0.5,-10.5 0.03,-12.36 0.77,-2.73 -0.77,-6.83 -2.89,-7.36l-3.28 1.52c0,0 -3.3,3.94 -4.04,4.54 -0.74,0.6 -2.14,2.27 -1.71,4.24z"
           class="fil7" /><path
           id="path88"
           d="M298.2 172.86c-0.93,-0.77 -2.27,-2.09 -4.22,0.52 -1.95,2.61 -3.38,4.29 -3.8,5.05 -0.42,0.76 -4.09,6.06 -4.09,6.06 0,0 -1.95,-1.81 -3.06,-2.66 -1.26,-0.96 -4.68,-4.53 -4.68,-4.53l-2.27 2.51c0,0 7.86,8.72 9.07,9.02 1.21,0.31 4.62,-2.76 5.97,-3.94 1.34,-1.19 5.13,-5.51 5.78,-5.93 0.66,-0.42 3.71,-4.1 1.3,-6.11z"
           class="fil7" /><path
           id="path90"
           d="M271.29 213.31c0.29,0.65 0.55,1.25 0.79,1.78 0.88,-2.83 0.81,-7.57 0.81,-7.57 -0.53,3.3 -1.59,5.76 -1.6,5.8z"
           class="fil13" /><polygon
           id="polygon92"
           points="284.02,206.23 309.25,206.23 309.25,203.46 284.02,203.46 "
           class="fil14" /><path
           id="path94"
           d="M296.12 194.6c0,0 0.64,2.57 -2.36,3.16 -2.99,0.58 -6.68,1.33 -6.68,5.95l10.39 0 -1.35 -9.11z"
           class="fil14" /><polygon
           id="polygon96"
           points="280.72,166.59 280.29,165.8 280.23,166.7 "
           class="fil5" /><path
           id="path98"
           d="M309.25 206.23l8.82 -37.08c0,0 -15.95,-2.49 -17.85,4.67 -1.9,7.16 -5.03,28.43 -8.83,29.75 -3.8,1.31 17.85,2.66 17.85,2.66z"
           class="fil14" /><path
           id="path100"
           d="M288.74 186.92c0,0 0.16,0.68 0.34,1.24l3.88 -5.03 -4.22 3.79z"
           class="fil10" /><path
           id="path102"
           d="M298.46 163.86c0,0 -1.54,4.05 -1.12,5.16 0,0 -2.39,-1.02 -1.96,-3.68 0.44,-2.65 3.07,-1.48 3.07,-1.48z"
           class="fil12" /><polygon
           id="polygon104"
           points="292.93,172.29 292.93,171.48 296.34,169.83 297.52,171.19 "
           class="fil7" /><path
           id="path106"
           d="M72.79 35.99c-4.24,-1.23 -8.7,1.22 -9.93,5.46 -0.75,2.59 -0.16,5.36 1.59,7.42l0.07 0.08 0.02 0.1c0.21,1.43 0.4,3.55 0.13,5.52l-0 0.03c-0.16,0.71 0.03,1.46 0.52,2.11 0.51,0.66 1.27,1.13 2.16,1.32 1.8,0.39 3.54,-0.51 3.86,-2.01l0 -0.01 0 -0.02c0.44,-1.47 1.2,-3.07 2.27,-4.76l0.06 -0.1 0.1 -0.04c2.26,-0.94 3.95,-2.82 4.63,-5.17 1.23,-4.25 -1.22,-8.7 -5.47,-9.93zm-5.93 22.66c-0.91,-0.27 -1.7,-0.79 -2.25,-1.5 -0.62,-0.81 -0.85,-1.76 -0.66,-2.68 0.25,-1.84 0.08,-3.83 -0.12,-5.21 -1.85,-2.23 -2.47,-5.22 -1.66,-8 1.34,-4.62 6.19,-7.29 10.81,-5.95 4.62,1.34 7.29,6.19 5.95,10.82 -0.73,2.51 -2.52,4.54 -4.93,5.58 -1,1.6 -1.72,3.11 -2.12,4.48 -0.42,1.88 -2.52,3.02 -4.71,2.54 -0.11,-0.02 -0.22,-0.05 -0.32,-0.08z"
           class="fil15" /><polygon
           id="polygon108"
           points="65.89,55.4 66.72,45.86 68.32,47.87 69.81,46.78 70.59,48.26 72.72,47.1 69.67,56.19 68.99,55.97 71.47,48.59 70.29,49.23 69.56,47.85 68.19,48.85 67.28,47.7 66.6,55.46 "
           class="fil15" /><polygon
           id="polygon110"
           points="69.86,60.97 63.81,59.66 64.33,57.22 70.39,58.53 "
           class="fil15" /><polygon
           id="polygon112"
           points="71.05,60.18 63.05,58.44 63.9,54.52 71.9,56.25 "
           class="fil15" /><polygon
           id="polygon114"
           points="255.68,109.88 254.98,109.64 260.83,92.61 273.9,88.99 278.4,70.32 288.46,65.74 290.56,51.24 291.29,51.35 289.13,66.24 279.03,70.84 274.51,89.59 261.4,93.22 "
           class="fil16" /><path
           id="path116"
           d="M275.72 88.03c0.7,0.83 0.59,2.07 -0.25,2.77 -0.84,0.7 -2.07,0.59 -2.77,-0.25 -0.7,-0.83 -0.59,-2.07 0.25,-2.77 0.83,-0.7 2.07,-0.59 2.77,0.25z"
           class="fil17" /><path
           id="path118"
           d="M273.18 88.06c-0.68,0.56 -0.77,1.58 -0.2,2.25 0.56,0.68 1.58,0.77 2.25,0.2 0.68,-0.56 0.77,-1.58 0.2,-2.25 -0.57,-0.68 -1.58,-0.77 -2.25,-0.2zm2.52 3.02c-0.99,0.83 -2.46,0.7 -3.29,-0.29 -0.82,-0.99 -0.69,-2.46 0.29,-3.29 0.99,-0.83 2.46,-0.7 3.29,0.29 0.83,0.99 0.7,2.46 -0.29,3.29z"
           class="fil16" /><path
           id="path120"
           d="M280.28 69.43c0.7,0.83 0.59,2.07 -0.25,2.77 -0.83,0.7 -2.07,0.59 -2.77,-0.25 -0.7,-0.83 -0.59,-2.07 0.25,-2.77 0.84,-0.7 2.07,-0.59 2.77,0.25z"
           class="fil17" /><path
           id="path122"
           d="M277.74 69.47c-0.67,0.56 -0.76,1.58 -0.2,2.25 0.56,0.68 1.58,0.77 2.25,0.2 0.68,-0.56 0.77,-1.58 0.2,-2.25 -0.56,-0.68 -1.58,-0.77 -2.25,-0.2zm2.53 3.02c-0.99,0.83 -2.46,0.7 -3.29,-0.29 -0.83,-0.99 -0.7,-2.46 0.29,-3.29 0.99,-0.83 2.47,-0.7 3.29,0.29 0.83,0.99 0.69,2.46 -0.29,3.29z"
           class="fil16" /><path
           id="path124"
           d="M290.18 64.72c0.7,0.83 0.59,2.07 -0.25,2.77 -0.83,0.7 -2.07,0.59 -2.77,-0.25 -0.7,-0.84 -0.59,-2.07 0.25,-2.77 0.83,-0.7 2.07,-0.59 2.77,0.25z"
           class="fil17" /><path
           id="path126"
           d="M287.65 64.76c-0.67,0.56 -0.76,1.58 -0.2,2.25 0.56,0.67 1.58,0.76 2.25,0.2 0.68,-0.57 0.77,-1.58 0.2,-2.25 -0.56,-0.67 -1.57,-0.76 -2.25,-0.2zm2.52 3.02c-0.99,0.83 -2.46,0.7 -3.29,-0.29 -0.83,-0.99 -0.7,-2.46 0.29,-3.29 0.99,-0.83 2.46,-0.7 3.29,0.29 0.83,0.99 0.7,2.46 -0.29,3.29z"
           class="fil16" /><path
           id="path128"
           d="M262.7 91.82c0.7,0.83 0.59,2.07 -0.25,2.77 -0.83,0.7 -2.08,0.59 -2.77,-0.25 -0.7,-0.83 -0.59,-2.07 0.25,-2.77 0.84,-0.7 2.08,-0.59 2.77,0.25z"
           class="fil17" /><path
           id="path130"
           d="M260.16 91.85c-0.67,0.56 -0.76,1.58 -0.2,2.25 0.57,0.67 1.58,0.76 2.25,0.2 0.68,-0.56 0.76,-1.58 0.2,-2.25 -0.56,-0.68 -1.58,-0.77 -2.25,-0.2zm2.53 3.02c-0.99,0.83 -2.46,0.7 -3.29,-0.29 -0.83,-0.99 -0.7,-2.46 0.29,-3.29 0.99,-0.83 2.46,-0.69 3.29,0.29 0.83,0.99 0.7,2.46 -0.29,3.29z"
           class="fil16" /><path
           id="path132"
           d="M163.7 186.61c-11.11,0 -20.93,-4.69 -26.86,-11.86l13.9 -0.01 0.77 6.11 1.84 -0.23 -0.74 -5.88 25.52 -0.02 -0.67 5.78 1.84 0.22 0.7 -5.99 10.66 -0.01c-5.91,7.15 -15.68,11.85 -26.76,11.91 -0.07,0 -0.13,0 -0.19,0z"
           class="fil18" /><polygon
           id="polygon134"
           points="231.44,4.13 237.95,4.13 235.96,0 229.45,0 "
           class="fil19" /><polygon
           id="polygon136"
           points="228.39,4.13 229.94,4.13 227.95,0 226.4,0 "
           class="fil19" /><polygon
           id="polygon138"
           points="94.18,9.1 110.91,9.1 110.91,7.93 94.18,7.93 "
           class="fil20" /><polygon
           id="polygon140"
           points="94.18,15.07 110.91,15.07 110.91,10.14 94.18,10.14 "
           class="fil20" /><polygon
           id="polygon142"
           points="86.33,17.46 96.19,17.46 96.19,16.73 86.33,16.73 "
           class="fil19" /><polygon
           id="polygon144"
           points="86.33,19.78 96.19,19.78 96.19,17.78 86.33,17.78 "
           class="fil19" /><polygon
           id="polygon146"
           points="113.66,15.42 114.39,15.42 114.39,1.61 113.66,1.61 "
           class="fil19" /><polygon
           id="polygon148"
           points="67.72,87.94 80.89,87.94 80.89,85.55 67.72,85.55 "
           class="fil19" /><polygon
           id="polygon150"
           points="67.72,84.89 80.89,84.89 80.89,84.44 67.72,84.44 "
           class="fil19" /><path
           id="path152"
           d="M238.17 82.82l-2.05 -0.41c4.9,-24.62 0.74,-44.54 -12.01,-57.61 -9.64,-9.89 -20.93,-12.49 -21.04,-12.51l0.45 -2.04c0.48,0.11 11.93,2.72 22.01,13.02 9.29,9.48 19.02,27.5 12.64,59.56z"
           class="fil15" /><path
           id="path154"
           d="M99.44 113.84c-19.68,-37.31 -7.38,-57.58 -6.85,-58.42l1.77 1.11c-0.12,0.2 -12.14,20.18 6.93,56.33l-1.85 0.98z"
           class="fil21" /><path
           id="path156"
           d="M168.94 79.25c-3.83,-2.72 -4.73,-8.04 -2,-11.87 2.72,-3.83 8.04,-4.73 11.87,-2 3.83,2.72 4.72,8.04 2,11.87 -2.73,3.83 -8.04,4.72 -11.87,2zm20.21 -1.1c0.55,-1.44 0.88,-2.93 1.01,-4.42l2.99 -1.14 -0.58 -3.42 -0.58 -3.42 -3.2 -0.1c-0.61,-1.37 -1.41,-2.67 -2.4,-3.84l1.3 -2.91 -2.83 -2.01 -2.83 -2.01 -2.33 2.18c-1.44,-0.55 -2.92,-0.88 -4.42,-1.01l-1.14 -2.98 -3.42 0.58 -3.42 0.58 -0.1 3.19c-1.37,0.61 -2.67,1.41 -3.84,2.41l-2.91 -1.3 -2.01 2.83 -2.01 2.83 2.18 2.33c-0.55,1.44 -0.88,2.92 -1.01,4.42l-2.98 1.14 0.58 3.42 0.58 3.42 3.19 0.1c0.61,1.37 1.42,2.66 2.41,3.84l-1.3 2.91 2.83 2.01 2.83 2.01 2.33 -2.18c1.44,0.55 2.92,0.88 4.42,1.01l1.14 2.98 3.42 -0.57 3.42 -0.58 0.1 -3.19c1.37,-0.61 2.67,-1.42 3.85,-2.41l2.91 1.3 2.01 -2.83 2.01 -2.83 -2.18 -2.33z"
           class="fil17" /><path
           id="path158"
           d="M145.01 97.4c-2.42,-1.73 -2.99,-5.09 -1.26,-7.51 1.72,-2.42 5.08,-2.99 7.5,-1.26 2.42,1.72 2.99,5.08 1.27,7.5 -1.73,2.42 -5.09,2.99 -7.51,1.27zm12.78 -0.7c0.35,-0.91 0.56,-1.85 0.64,-2.8l1.89 -0.72 -0.37 -2.17 -0.37 -2.17 -2.02 -0.06c-0.39,-0.87 -0.9,-1.69 -1.52,-2.43l0.82 -1.84 -1.79 -1.27 -1.79 -1.27 -1.47 1.38c-0.91,-0.35 -1.85,-0.56 -2.8,-0.64l-0.72 -1.88 -2.16 0.36 -2.17 0.37 -0.07 2.02c-0.86,0.39 -1.68,0.9 -2.43,1.52l-1.84 -0.82 -1.27 1.79 -1.27 1.79 1.38 1.47c-0.35,0.91 -0.56,1.85 -0.64,2.8l-1.89 0.72 0.37 2.17 0.37 2.16 2.02 0.07c0.39,0.87 0.9,1.69 1.52,2.43l-0.82 1.84 1.79 1.27 1.79 1.27 1.47 -1.38c0.91,0.35 1.85,0.56 2.8,0.64l0.72 1.88 2.16 -0.36 2.17 -0.37 0.07 -2.02c0.87,-0.39 1.68,-0.9 2.43,-1.52l1.84 0.82 1.27 -1.79 1.27 -1.79 -1.38 -1.47z"
           class="fil17" /><path
           id="path160"
           d="M99.44 113.84c-1.13,-2.13 -2.15,-4.21 -3.07,-6.23 0.05,-1.62 0.11,-3.25 0.18,-4.87 1.31,3.22 2.87,6.6 4.74,10.13l-1.85 0.98z"
           class="fil22" /><path
           id="path162"
           d="M173.6 91.59l-1.14 -2.98c-1.49,-0.13 -2.98,-0.46 -4.42,-1.01l-2.33 2.18 -2.83 -2.01 -2.83 -2.01 1.3 -2.91c-0.99,-1.18 -1.79,-2.47 -2.41,-3.84l-3.19 -0.1 -0.58 -3.42 -0.58 -3.42 2.98 -1.14c0.13,-1.49 0.46,-2.98 1.01,-4.42l-2.18 -2.33 2.01 -2.83 2.01 -2.83 2.91 1.3c1.18,-0.99 2.47,-1.79 3.84,-2.41l0.1 -3.19 3.42 -0.58 3.42 -0.58 1.14 2.98c1.5,0.13 2.99,0.46 4.42,1.01l2.33 -2.18 2.83 2.01 2.83 2.01 -1.3 2.91c0.99,1.18 1.79,2.47 2.4,3.84l3.2 0.1 0.58 3.42 0.58 3.42 -2.99 1.14c-0.13,1.49 -0.46,2.99 -1.01,4.42l2.18 2.33 -2.01 2.83 -2.01 2.83 -2.91 -1.3c-1.18,0.99 -2.47,1.8 -3.85,2.41l-0.1 3.19 -3.42 0.58 -3.42 0.57zm0.28 -27.78c-2.66,0 -5.28,1.24 -6.94,3.58 -2.73,3.83 -1.83,9.14 2,11.87 1.49,1.06 3.22,1.58 4.92,1.58 2.66,0 5.28,-1.24 6.94,-3.58 2.72,-3.83 1.83,-9.14 -2,-11.87 -1.49,-1.07 -3.22,-1.58 -4.93,-1.58z"
           class="fil23" /><path
           id="path164"
           d="M147.96 105.21l-0.72 -1.88c-0.95,-0.08 -1.88,-0.29 -2.8,-0.64l-1.47 1.38 -1.79 -1.27 -1.79 -1.27 0.82 -1.84c-0.63,-0.74 -1.14,-1.56 -1.52,-2.43l-2.02 -0.07 -0.37 -2.16 -0.37 -2.17 1.89 -0.72c0.08,-0.95 0.29,-1.88 0.64,-2.8l-1.38 -1.47 1.27 -1.79 1.27 -1.79 1.84 0.82c0.75,-0.63 1.57,-1.14 2.43,-1.52l0.07 -2.02 2.17 -0.37 2.16 -0.36 0.72 1.88c0.95,0.08 1.89,0.29 2.8,0.64l1.47 -1.38 1.79 1.27 1.79 1.27 -0.82 1.84c0.63,0.75 1.14,1.57 1.52,2.43l2.02 0.06 0.37 2.17 0.37 2.17 -1.89 0.72c-0.08,0.95 -0.29,1.89 -0.64,2.8l1.38 1.47 -1.27 1.79 -1.27 1.79 -1.84 -0.82c-0.75,0.62 -1.56,1.13 -2.43,1.52l-0.07 2.02 -2.17 0.37 -2.16 0.36zm0.18 -17.57c-1.68,0 -3.34,0.79 -4.39,2.26 -1.73,2.42 -1.16,5.78 1.26,7.51 0.95,0.67 2.04,1 3.11,1 1.68,0 3.34,-0.79 4.39,-2.26 1.72,-2.42 1.15,-5.78 -1.27,-7.5 -0.95,-0.67 -2.04,-1 -3.11,-1z"
           class="fil23" /><g
           id="g180"><path
             id="path166"
             d="M145.5 118.64c0,-0.33 -0.06,-0.64 -0.1,-0.96 -0.03,-0.29 -0.11,-0.68 -0.13,-0.98 -0.41,0.01 -1.39,0.23 -1.85,0.23 0,0.51 1.27,10.12 1.42,11.38l0.19 1.66 1.89 0c0,-0.39 -0.22,-1.81 -0.27,-2.32l-0.88 -6.94 5.87 5.78 4.7 -4.73c0.47,-0.56 1.65,-1.63 1.82,-1.88l5.93 5.82c0.22,0.22 0.65,0.7 0.87,0.84l5.51 -5.54c0.34,-0.38 0.92,-1.06 1.28,-1.3 0.21,0.14 3.22,3.2 3.48,3.46l2.61 2.56c0.22,0.22 0.67,0.72 0.89,0.87 0.32,-0.21 5.27,-5.39 5.64,-5.64 -0.06,0.26 -0.08,0.6 -0.12,0.9l-0.33 2.86c-0.17,1.28 -0.3,2.52 -0.44,3.82 -0.14,1.24 -0.31,2.55 -0.45,3.8l-0.42 3.8 1.85 0c0.09,-0.11 0.56,-4.64 0.58,-4.8 0.32,-2.27 0.58,-5 0.85,-7.29l0.84 -7.35c-0.63,0 -1.23,-0.19 -1.85,-0.19 -0.04,0.51 -0.14,1.04 -0.19,1.57 -0.01,0.15 -0.07,0.65 -0.12,0.76 -0.04,0.09 -0.36,0.39 -0.45,0.48l-2.71 2.71c-0.32,0.32 -0.56,0.61 -0.88,0.92l-1.82 1.79c-0.24,-0.16 -0.62,-0.61 -0.86,-0.85l-4.38 -4.31c-0.52,-0.4 -1.44,-1.5 -1.78,-1.73 -0.21,0.31 -0.56,0.54 -0.8,0.86 -0.44,0.57 -3.81,3.72 -4.23,4.27 -0.17,0.23 -1.5,1.57 -1.71,1.71 -0.32,-0.22 -1.43,-1.36 -1.7,-1.63 -0.9,-0.9 -1.79,-1.86 -2.75,-2.71 -0.08,-0.07 -0.13,-0.13 -0.21,-0.21l-2.14 -2.12c-0.24,0.35 -1.26,1.2 -1.62,1.67 -0.43,0.56 -4.08,4 -4.51,4.55 -0.12,0.16 -0.23,0.34 -0.43,0.4 -0.27,-0.18 -3.04,-3.08 -3.59,-3.57 -0.67,-0.59 -1.1,-1.05 -1.73,-1.69 -0.2,-0.2 -0.57,-0.61 -0.77,-0.75z"
             class="fil23" /><path
             id="path168"
             d="M150.08 154.71l-1.9 0 0.32 2.49c0.09,0.82 0.2,1.7 0.32,2.51 0.35,2.44 0.61,5.05 0.95,7.51l0.95 7.51 1.9 0 -2.37 -18.76c-0.05,-0.37 -0.14,-0.87 -0.17,-1.26z"
             class="fil23" /><path
             id="path170"
             d="M182.34 154.71l-1.9 0 -0.3 2.47c-0.12,0.84 -0.18,1.69 -0.29,2.49l-0.29 2.48c-0.07,0.85 -0.19,1.67 -0.29,2.53 -0.07,0.66 -1.15,9.42 -1.15,10.04l0.02 0 0.02 0 0.02 0 0.02 0c0.43,0 0.86,-0.01 1.29,0l0.45 0c0.07,-0.02 0.06,-0.1 0.08,-0.31 0.02,-0.21 0.06,-0.48 0.08,-0.71l1.25 -10.86c0.1,-0.89 0.23,-1.82 0.32,-2.73 0.08,-0.87 0.24,-1.81 0.32,-2.69l0.32 -2.72z"
             class="fil23" /><path
             id="path172"
             d="M146.89 144.48l1.89 0c0,-0.25 -0.07,-0.63 -0.11,-0.91 -0.19,-1.47 -1.68,-13.48 -1.74,-13.6l-1.89 0c0.06,0.12 0.21,1.51 0.24,1.79 0.07,0.58 0.16,1.19 0.23,1.8l1.38 10.92z"
             class="fil23" /><path
             id="path174"
             d="M148.18 154.71l1.9 0c0,-0.18 -0.05,-0.43 -0.07,-0.62l-1.05 -8.3c-0.05,-0.4 -0.15,-0.9 -0.18,-1.31l-1.89 0 1.29 10.23z"
             class="fil23" /><path
             id="path176"
             d="M180.44 154.71l1.9 0c0,-0.43 1.19,-10.26 1.2,-10.27l-1.89 0c-0.07,0.16 -0.8,6.85 -0.91,7.69l-0.29 2.58z"
             class="fil23" /><path
             id="path178"
             d="M181.65 144.44l1.89 0c0,-0.5 0.4,-3.42 0.46,-4.12 0.08,-0.94 0.46,-3.53 0.46,-4.19l-1.85 0c-0.06,0.14 -0.22,1.76 -0.27,2.08l-0.61 5.17c-0.04,0.35 -0.1,0.71 -0.1,1.05z"
             class="fil23" /></g><path
           id="path182"
           d="M182.55 204.1l-37.23 0.18c-4.13,0.02 -7.5,-3.31 -7.52,-7.44l-0.07 -14.65 52.2 -0.26 0.07 14.65c0.02,4.13 -3.31,7.5 -7.44,7.52z"
           class="fil24" /><path
           id="path184"
           d="M187.14 194.96l-46.51 0.23c-6.21,0.03 -11.26,-4.98 -11.29,-11.18l-0.12 -24.39 68.98 -0.34 0.12 24.39c0.03,6.21 -4.98,11.26 -11.18,11.29z"
           class="fil23" /><polygon
           id="polygon186"
           points="101.56,213.59 225.98,213.59 225.98,174.67 101.56,174.67 "
           class="fil25" /><polygon
           id="polygon188"
           points="225.98,213.59 225.98,174.67 180.7,174.67 156.37,213.15 "
           class="fil26" /><polygon
           id="polygon190"
           points="104,225.65 105.52,225.65 105.52,156.86 104,156.86 "
           class="fil27" /><path
           id="path192"
           d="M107.65 214.29l-40.71 0c-2.51,0 -4.54,-2.03 -4.54,-4.54l0 -77.09c0,-2.51 2.03,-4.54 4.54,-4.54l40.71 0c2.51,0 4.54,2.03 4.54,4.54l0 77.09c0,2.51 -2.03,4.54 -4.54,4.54z"
           class="fil28" /><path
           id="path194"
           d="M106.33 210.93l-38.08 0c-2.48,0 -4.49,-2.01 -4.49,-4.49l0 -72.44c0,-2.48 2.01,-4.49 4.49,-4.49l38.08 0c2.48,0 4.49,2.01 4.49,4.49l0 72.44c0,2.48 -2.01,4.49 -4.49,4.49z"
           class="fil17" /><polygon
           id="polygon196"
           points="79.87,130.81 94.71,130.81 94.71,127.46 79.87,127.46 "
           class="fil27" /><path
           id="path198"
           d="M73.59 146.93c0,-7.01 5.71,-12.72 12.72,-12.72l0 0.57c-6.7,0 -12.15,5.45 -12.15,12.15 0,7.37 6.48,12.95 13.64,12.06 5.99,-0.73 10.66,-5.84 10.66,-12.06 0,-0.6 -0.04,-1.2 -0.13,-1.78l0.56 -0.08c0.09,0.61 0.14,1.24 0.14,1.87 0,6.51 -4.88,11.86 -11.15,12.62 -7.53,0.94 -14.28,-4.93 -14.28,-12.62z"
           class="fil29" /><path
           id="path200"
           d="M57.44 187.01c0,0 0.34,0.56 0.38,1.02 0.03,0.36 0.34,0.9 0.47,1.2 0.13,0.3 0.56,1.65 0.57,2 0.01,0.14 -0.32,1.05 -0.27,1.34 0.04,0.29 0.21,0.86 -0.05,0.9 -0.26,0.04 -0.56,-0.43 -0.56,-0.43 0,0 0.02,0.27 -0.19,0.37 -0.43,0.2 -0.66,0.02 -0.66,0.02 0,0 -0.16,0.29 -0.36,0.33 -0.44,0.09 -0.65,-0.09 -0.65,-0.09 0,0 -0.19,0.17 -0.49,0.16 -0.39,-0.01 -0.55,-0.34 -0.55,-0.34 0,0 -0.49,0.1 -0.63,-0.13 -0.14,-0.23 -0.12,-0.47 -0.18,-0.68 -0.06,-0.21 -0.01,-2.07 0.62,-3.42 0.63,-1.34 -0.16,-2.66 -0.16,-2.66l2.7 0.4z"
           class="fil5" /><path
           id="path202"
           d="M58.06 192.86c0,0 0.04,-1.68 -0.4,-2.03 -0.44,-0.36 -0.49,0.25 -0.49,0.25 0,0 0.06,-0.6 -0.42,-0.68 -0.48,-0.08 -0.5,0.63 -0.5,0.63 0,0 -0.08,-0.46 -0.58,-0.37 -0.51,0.09 -0.39,0.68 -0.39,0.68 0,0 -0.48,-0.58 -0.8,-0.02 -0.53,0.93 -0.05,2.05 -0.05,2.05 0,0 0.17,0.27 0.66,0.14 0,0 0.33,0.66 1.05,0.19 0,0 0.75,0.41 1.01,-0.24 0,0 0.87,0.34 0.91,-0.6z"
           class="fil9" /><path
           id="path204"
           d="M63.12 162.88c0,0 -2.87,9.56 -3.84,13.08 -0.3,1.1 -1.04,11.66 -1.17,12.09 -0.13,0.42 -3.77,1.01 -3.77,1.01 0,0 0.44,-13.21 0.48,-13.93 0.04,-0.72 4.01,-15.47 5.17,-16 0.87,-0.4 1.32,-0.07 2.41,0.74 1.53,1.14 0.71,3.01 0.71,3.01z"
           class="fil30" /><polygon
           id="polygon206"
           points="91.4,149.98 91.09,149.49 97.65,145.2 97.97,145.68 "
           class="fil31" /><path
           id="path208"
           d="M98.67 147.67c0,0 -0.06,0.37 -0.17,0.52 0,0 -0.22,0.26 -0.36,0.45 -0.04,0.06 -0.08,0.11 -0.1,0.15 -0.09,0.16 -0.23,0.52 -0.54,0.84 -0.31,0.32 -1.53,1.32 -1.53,1.32l-1.04 -0.88 -1.08 -0.49c0,0 0.61,-2.64 0.86,-2.96l0.07 -0.09c0.25,-0.26 0.54,-0.35 0.68,-0.47 0.05,-0.04 0.61,-0.45 0.81,-0.39 0.28,0.07 0.44,0.23 0.5,0.42 0,0 0.53,0.16 0.74,0.48 0,0 0.5,0.13 0.65,0.6 0,0 0.49,0.19 0.51,0.51z"
           class="fil32" /><path
           id="path210"
           d="M60.79 228.14c0,0 -0.26,1.81 -0.29,2.09 -0.03,0.27 -2.91,-0.16 -2.91,-0.16l-0.23 -2.16c0,0 3.08,-0.02 3.44,0.23z"
           class="fil33" /><path
           id="path212"
           d="M60.53 229.99c0,0 0.91,1.09 1.79,1.57 0.88,0.48 2.27,0.66 2.79,1.16 0.38,0.36 1.37,1.89 -2.29,1.86 -3.66,-0.03 -5.42,0.22 -5.81,-0.37 -0.39,-0.59 0.56,-4.34 0.56,-4.34 0,0 0.87,0.31 2.96,0.12z"
           class="fil34" /><path
           id="path214"
           d="M81.4 228.14c0,0 -0.26,1.81 -0.3,2.09 -0.03,0.27 -2.9,-0.16 -2.9,-0.16l-0.23 -2.16c0,0 3.08,-0.02 3.44,0.23z"
           class="fil33" /><path
           id="path216"
           d="M81.13 229.99c0,0 0.91,1.09 1.79,1.57 0.88,0.48 4.12,0.87 4.65,1.36 0.37,0.36 1,1.79 -4.15,1.66 -3.66,-0.1 -5.42,0.22 -5.82,-0.37 -0.39,-0.59 0.57,-4.34 0.57,-4.34 0,0 0.81,0.33 2.96,0.12z"
           class="fil34" /><path
           id="path218"
           d="M63.17 181.51c0,0 -2.7,4.29 -2.5,8.17 0.2,3.88 -0.98,8.12 -1.39,12.17 -0.45,4.52 -2.3,15.22 -2.37,17.64 -0.07,2.41 0.29,10.13 0.29,10.13l3.71 0.09c0,0 3.11,-18.7 3.92,-20.61 0.8,-1.91 4.81,-15.51 4.94,-17.04 0.13,-1.53 -6.6,-10.55 -6.6,-10.55z"
           class="fil34" /><path
           id="path220"
           d="M77.4 182.09c0,0 2.04,10.63 2.31,13.01 0.27,2.37 0.45,11.49 0.58,12.97 0.13,1.49 1.26,19.38 1.61,21.63l-4.74 0c0,0 -3.64,-13.04 -3.64,-19.21 0,-6.17 -2.81,-13.41 -4.62,-17.48 -1.82,-4.07 -5.97,-4.17 -7.08,-11.72 0,0 14.07,-1.59 15.58,0.8z"
           class="fil34" /><path
           id="path222"
           d="M67.68 145.43c0,0 3.63,-1.36 5.3,1.4 1.67,2.76 1.51,8.29 -0.32,8.97 -1.83,0.68 -4.57,0.32 -5.51,-1.4 -0.94,-1.73 -1.78,-4.22 -1.74,-5.89 0.04,-1.67 1.32,-2.59 2.27,-3.07z"
           class="fil5" /><path
           id="path224"
           d="M72.27 155.93c0,0 -0.15,0.98 0.1,1.46 0.25,0.48 -4.7,0.5 -4.7,0.5 0,0 -0.4,-2.62 -1.16,-4.84 -0.76,-2.22 5.76,2.88 5.76,2.88z"
           class="fil5" /><path
           id="path226"
           d="M66.51 153.04c0,0 0.34,0.56 1.73,0.34 1.39,-0.22 3.09,-2.07 3.68,-2.27 0.58,-0.2 0.59,-0.55 0.59,-0.55l0.37 0.53 0.62 0.04c0,0 -0.56,-1.66 0.29,-2.33 0.85,-0.68 -0.88,-5.37 -5.35,-3.81 0,0 -3.43,0.95 -3.31,2.9 0.12,1.95 0.62,4.17 1.39,5.15z"
           class="fil34" /><path
           id="path228"
           d="M72.66 157.33c0,0 -0.02,-0.92 -0.43,-1.01 -0.42,-0.09 -4.61,-0.49 -5.12,-0.29l0 1.07c0,0 0.99,0.61 5.56,0.23z"
           class="fil35" /><path
           id="path230"
           d="M72.41 149.85c-0.08,-0.33 -0.91,-1.26 -1.23,-0.26 -0.32,1 0.48,2.35 0.93,2.24 0.45,-0.12 0.5,-1.14 0.3,-1.98z"
           class="fil5" /><path
           id="path232"
           d="M79.59 158.73c-2.87,-0.38 -6.93,-1.39 -6.93,-1.39l-5.56 -0.23c0,0 -5.1,1.12 -7.11,2.03 -0.19,0.08 -0.19,4.55 -0.71,5.72l1.67 3.51c0,0 0.96,6.96 1.16,10.05 0.09,1.42 -1.98,13.32 -1.98,13.32 0,0 2.22,0.66 6.02,1.07 3.79,0.42 13.27,-0.15 13.33,-0.6 0.06,-0.45 -1.83,-16.68 -1.92,-17.52 -0.13,-1.29 0.44,-8.14 0.44,-8.14 0.88,-0.68 8.56,-4.25 10.66,-6.11 0.56,-0.5 2.93,-2.81 3.6,-3.6 2.38,-2.82 4.34,-5.24 4.58,-5.76 0.27,-0.3 -2.68,-1.9 -2.94,-1.98 -0.23,-0.07 -3.36,4.15 -4.6,5.49 -0.56,0.6 -2.85,2.27 -2.85,2.27 0,0 -5.05,1.97 -6.85,1.87z"
           class="fil30" /><path
           id="path234"
           d="M66.65 145.75c0,0 -4.62,0.36 -0.14,7.29l0.14 -7.29z"
           class="fil34" /><polygon
           id="polygon236"
           points="97.97,145.68 98.35,145.11 97.65,145.2 "
           class="fil36" /><polygon
           id="polygon238"
           points="322.7,133.6 301.08,133.6 301.08,152.57 304.38,149.27 322.7,149.27 "
           class="fil37" /><path
           id="path240"
           d="M24.32 230.05c0,0 -0.67,1.24 -1.1,1.74 -0.44,0.49 -2.11,1.38 -2.12,2.85 -0.01,1.59 2.82,1.15 3.93,1.09 1.1,-0.06 1.19,-0.91 1.65,-1.81 0.46,-0.9 0.94,-0.75 1.02,-1.48 0.09,-0.73 -0.45,-2.39 -0.45,-2.39l-2.93 0z"
           class="fil38" /><path
           id="path242"
           d="M41.07 187.58c0,0 -3.12,-7.26 -3.49,-9.05 -0.17,-0.81 -0.64,-2.82 -0.93,-4.47 -0.1,-0.55 -0.18,-1.11 -0.25,-1.65l0 -0c-0.28,-2.19 -0.35,-4.19 -0.35,-4.19 0,0 -1.65,-5.67 1.89,-6.01 0,0 1.26,0.44 1.3,0.54 0.6,1.39 0.83,4.95 0.85,5.72 0.02,0.62 0.93,6.93 0.95,7.15 0.03,0.43 0.97,2.71 1.48,4.39 1.1,3.67 1.68,6.57 1.68,6.57l-3.13 1.02z"
           class="fil39" /><polygon
           id="polygon244"
           points="34.01,188.96 49.98,188.96 49.98,174.99 34.01,174.99 "
           class="fil40" /><polygon
           id="polygon246"
           points="44.37,186.48 45.26,186.48 45.26,182.19 44.37,182.19 "
           class="fil41" /><polygon
           id="polygon248"
           points="45.61,186.48 46.5,186.48 46.5,183.32 45.61,183.32 "
           class="fil41" /><polygon
           id="polygon250"
           points="46.84,186.48 47.73,186.48 47.73,181.65 46.84,181.65 "
           class="fil41" /><path
           id="path252"
           d="M46.31 188.09c0,0 -0.09,1.88 -1.1,2.21 -1.01,0.32 -2.12,0.03 -2.58,-0.25 -0.46,-0.28 -1.64,-1.11 -1.2,-1.63 1.41,-1.67 4.89,-0.32 4.89,-0.32z"
           class="fil5" /><path
           id="path254"
           d="M45.8 189.84c0,0 1.26,0.09 1.2,-0.44 -0.07,-0.54 -0.98,-0.33 -0.98,-0.33l-0.22 0.77z"
           class="fil5" /><polygon
           id="polygon256"
           points="40.51,186.48 41.4,186.48 41.4,183.22 40.51,183.22 "
           class="fil41" /><polygon
           id="polygon258"
           points="41.78,186.48 42.67,186.48 42.67,182.88 41.78,182.88 "
           class="fil41" /><polygon
           id="polygon260"
           points="43.06,186.48 43.95,186.48 43.95,183.57 43.06,183.57 "
           class="fil41" /><polygon
           id="polygon262"
           points="39.2,186.48 40.09,186.48 40.09,183.57 39.2,183.57 "
           class="fil41" /><polygon
           id="polygon264"
           points="36.07,181.41 36.09,181.45 36.06,181.47 35.1,182.12 35.08,182.08 36.03,181.44 "
           class="fil41" /><polygon
           id="polygon266"
           points="39.51,181.6 39.5,181.64 39.46,181.64 36.73,181.31 36.69,181.31 36.69,181.26 36.74,181.27 39.46,181.59 "
           class="fil41" /><polygon
           id="polygon268"
           points="42.18,179.56 42.15,179.59 40.13,181.42 40.1,181.45 40.07,181.42 40.1,181.39 42.13,179.56 42.16,179.53 "
           class="fil41" /><polygon
           id="polygon270"
           points="45.49,179.32 45.49,179.34 42.75,179.34 42.75,179.32 42.75,179.3 45.49,179.3 "
           class="fil41" /><polygon
           id="polygon272"
           points="47.85,177.14 46.1,179.06 46.07,179.09 46.03,179.06 46.07,179.02 47.82,177.11 "
           class="fil41" /><path
           id="path274"
           d="M36.69 181.31c-0.03,0.16 -0.17,0.27 -0.33,0.27 -0.11,0 -0.2,-0.05 -0.27,-0.13l-0.02 -0.03c-0.03,-0.05 -0.04,-0.11 -0.04,-0.17 0,-0.19 0.15,-0.34 0.33,-0.34 0.18,0 0.33,0.15 0.33,0.34l0 0.02 -0.01 0.04zm-0.33 -0.44c-0.21,0 -0.38,0.17 -0.38,0.38 0,0.07 0.02,0.13 0.05,0.19l0.02 0.04c0.07,0.09 0.18,0.15 0.3,0.15 0.19,0 0.34,-0.14 0.37,-0.31l0.01 -0.04 0 -0.02c0,-0.21 -0.17,-0.38 -0.38,-0.38z"
           class="fil41" /><path
           id="path276"
           d="M39.83 181.99c-0.18,0 -0.33,-0.15 -0.33,-0.33l0 -0.02 0.01 -0.04c0.03,-0.16 0.17,-0.27 0.33,-0.27 0.09,0 0.17,0.04 0.23,0.09l0.03 0.03c0.05,0.06 0.07,0.13 0.07,0.21 0,0.18 -0.15,0.33 -0.33,0.33zm0.29 -0.57l-0.03 -0.03c-0.07,-0.07 -0.16,-0.11 -0.27,-0.11 -0.18,0 -0.34,0.13 -0.37,0.31l-0.01 0.04 0 0.02c0,0.21 0.17,0.38 0.38,0.38 0.21,0 0.38,-0.17 0.38,-0.38 0,-0.09 -0.03,-0.17 -0.08,-0.24z"
           class="fil41" /><path
           id="path278"
           d="M42.42 179.65c-0.09,0 -0.17,-0.03 -0.23,-0.09l-0.03 -0.03c-0.05,-0.06 -0.07,-0.13 -0.07,-0.21 0,-0.18 0.15,-0.33 0.33,-0.33 0.18,0 0.32,0.14 0.33,0.31l0 0.02 0 0.02c-0.01,0.17 -0.16,0.31 -0.33,0.31zm0.38 -0.36c-0.01,-0.2 -0.18,-0.36 -0.38,-0.36 -0.21,0 -0.38,0.17 -0.38,0.38 0,0.09 0.03,0.17 0.08,0.24l0.03 0.03c0.07,0.07 0.16,0.11 0.27,0.11 0.2,0 0.37,-0.16 0.38,-0.36l0 -0.02 0 -0.02z"
           class="fil41" /><path
           id="path280"
           d="M45.83 179.65c-0.18,0 -0.32,-0.14 -0.33,-0.31l0 -0.02 0 -0.02c0.01,-0.17 0.16,-0.31 0.33,-0.31 0.08,0 0.15,0.03 0.21,0.07l0.03 0.03c0.06,0.06 0.09,0.14 0.09,0.23 0,0.18 -0.15,0.33 -0.33,0.33zm0.27 -0.6l-0.03 -0.03c-0.07,-0.05 -0.15,-0.08 -0.24,-0.08 -0.2,0 -0.37,0.16 -0.38,0.36l0 0.02 0 0.02c0.01,0.2 0.18,0.36 0.38,0.36 0.21,0 0.38,-0.17 0.38,-0.38 0,-0.1 -0.04,-0.19 -0.11,-0.26z"
           class="fil41" /><path
           id="path282"
           d="M15.84 187.85c0,0 -0.55,0.96 -1.2,0.94 -0.55,-0.02 -1.29,0.34 -1.52,0.45 -0.31,0.14 -1.41,0.27 -1.23,0.63 0.18,0.36 1.83,-0.12 2.19,-0.16 0.37,-0.03 -0.58,1.24 -0.56,1.6 0.02,0.36 2.31,1.65 2.86,0.71 0.55,-0.95 0.47,-2.27 0.61,-2.42 0.13,-0.15 0.42,-0.67 0.42,-0.67l-1.56 -1.06z"
           class="fil5" /><path
           id="path284"
           d="M13.59 191.05c0,0 -1.47,2.99 -1.39,3.26 0.08,0.27 0.25,0.33 0.4,0.06 0.15,-0.27 1.51,-2.85 1.51,-2.85 0,0 -1.12,3.8 -1.1,4.03 0.01,0.14 0.34,0.27 0.43,0.13 0.09,-0.14 1.43,-3.85 1.43,-3.85 0,0 -1.03,3.55 -0.96,3.74 0.06,0.17 0.4,0.22 0.5,-0.04 0.1,-0.26 1.25,-3.51 1.25,-3.51 0,0 -0.58,2.62 -0.41,2.75 0.1,0.08 0.38,0.21 0.51,-0.47 0.13,-0.68 0.61,-2.26 0.61,-2.26l-2.76 -1z"
           class="fil5" /><path
           id="path286"
           d="M41.16 229.9c0,0 1.36,1.52 2.75,1.84 1.38,0.32 2.35,0.73 2.36,1.6 0.01,0.87 -3.98,1.45 -5.56,0.57 -2.36,-1.31 -2.6,-0.92 -2.86,-1.58 -0.26,-0.66 0.32,-2.41 0.3,-2.62 -0.02,-0.26 3.03,0.19 3.03,0.19z"
           class="fil38" /><path
           id="path288"
           d="M41 229.18l0.15 0.73c-0.03,0.02 -3.12,0.38 -3.03,-0.19 0.08,-0.46 0.18,-0.97 0.18,-0.97l2.69 0.43z"
           class="fil42" /><path
           id="path290"
           d="M27.21 229.57l0.1 0.7c-0.02,0.02 -3.13,0.57 -3.11,0.01 0.01,-0.45 0.28,-0.97 0.28,-0.97l2.73 0.27z"
           class="fil42" /><path
           id="path292"
           d="M38.19 186.51c0,0 1.12,10.92 1.71,14.65 0.68,4.37 0.91,7.98 1.1,10.24 0.24,2.85 0.29,16.84 0.45,17.67 0.17,0.83 -3.72,0.23 -3.72,0.23 0,0 -1.91,-18.28 -2.63,-21.31 -0.66,-2.82 -3.13,-14.96 -3.74,-14.19 -0.61,0.77 -1.36,14.17 -1.81,16.4 -0.45,2.22 -1.82,19.64 -1.82,19.64 0,0 -3.1,0.62 -3.92,-0.08 0,0 -0.37,-15.01 -0.09,-19.18 0.11,-1.59 -1.86,-19.06 0.66,-26.09 1.34,-3.72 13.79,2.03 13.79,2.03z"
           class="fil34" /><path
           id="path294"
           d="M16.26 188.05c0,0 0.85,0.98 1.64,0.83 0.8,-0.15 4.12,-10.27 4.15,-12.3 0.02,-1.64 0.92,-5.98 0.92,-5.98l0 0.01 0 0.01 0 0.01c0.09,0.32 1.3,4.83 1.35,6.99 0.04,2.25 -0.13,9.97 -0.13,9.97l3.01 0.8 9.6 0.09 2.19 -0.89c0,0 -0.24,-2.49 -0.33,-4.23 -0.06,-1.11 -0.27,-3.09 -0.22,-5.03 0,0 -0.03,-2.04 0.17,-2.92 0.02,-3.88 0.26,-7.71 0.26,-7.71 0.13,-1.76 0.22,-3.4 0.27,-4.93 -0.42,-0.22 -0.93,-0.49 -1.34,-0.68 -1.26,-0.6 -3.02,-1.41 -4.15,-1.93 -0.66,-0.3 -1.31,-0.52 -1.31,-0.52 0,0 -4.51,-0.43 -4.87,-0.41 -0.12,0.01 -0.68,0.21 -1.42,0.49 -1.6,0.61 -4.68,1.84 -5.17,2.2 -0.72,0.51 -2.24,12.76 -2.31,13.62 -0.12,1.54 -2.31,12.53 -2.31,12.53z"
           class="fil43" /><path
           id="path296"
           d="M38.7 186.76c0,0 -6.6,0.56 -12.38,0l0 1.9c0,0 8.61,0.82 12.67,-0.36l-0.29 -1.54z"
           class="fil44" /><path
           id="path298"
           d="M33.07 159.91c0,0 1.07,2.52 1.88,8.16 0.31,2.17 0.89,5.81 1.3,9.53l0 0c0.33,2.93 1.08,5.94 1.32,8.18 0.25,2.32 0.99,9.18 0.99,9.18l1.8 -1.14c0.26,-0.24 0.62,-0.55 0.51,-0.88 -0.5,-1.6 -1.44,-6.9 -2.01,-11.52l-0 -0.01c-0.02,-0.22 -0.05,-0.44 -0.08,-0.66l-0 -0.03c-0.11,-0.92 -0.19,-1.81 -0.26,-2.62 -0.05,-0.62 -0.01,-1.23 0.08,-1.82 0.25,-4.14 0.37,-8.51 0.37,-8.51 0.13,-1.79 0.21,-3.46 0.26,-5.02 0,0 -5.66,-2.68 -6.17,-2.83z"
           class="fil39" /><path
           id="path300"
           d="M22.18 176.68c-0.14,1.88 -3.58,12.86 -4.04,12.81 -0.8,-0.08 -3.5,-0.93 -3.5,-0.93 0,0 3.33,-11.16 3.44,-12.34 0.08,-0.86 1.45,-13.7 2.17,-14.22 0.41,-0.3 3.49,-1.39 5.01,-1.99 0.27,-0.11 1.19,-0.45 1.43,-0.55 0.32,0.36 2.56,2.78 3.34,12 0.13,1.55 -0.28,4.84 -0.56,7.53 -0.3,2.86 -0.62,5.1 -0.86,7.49 -0.47,4.72 -0.8,8.47 -0.8,8.47l-4.7 -2.09c-0.76,-0.38 -1.81,-1.94 -1.53,-2.74 1.09,-3.04 2.45,-8.24 2.46,-10.9 0,0 -0.52,-6.53 -0.94,-7.97 0,0 -0.74,3.03 -0.92,5.42z"
           class="fil39" /><path
           id="path302"
           d="M30.26 147.76c0,0 4.71,-1.74 4.41,4.51 -0.29,6.26 -1.4,6.89 -4.49,6.02 -3.1,-0.87 -3.36,-4.82 -3.76,-6.72 -0.4,-1.9 2.3,-3.54 3.84,-3.81z"
           class="fil5" /><path
           id="path304"
           d="M27.07 154.68c0,0 -0.02,-1.67 0.68,-1.83 0.7,-0.15 1.05,0.81 1.05,0.81l0.56 -0.03c0,0 -0.5,-1.69 0.16,-2.08 0.66,-0.39 4.62,-0.05 5.12,-0.62 0.5,-0.57 -0.22,-3.96 -1.31,-4.29 -1.08,-0.33 -4.03,-1.01 -5.91,0.66 0,0 -1.63,0.03 -1.7,1.36 -0.07,1.33 0.77,5.1 1.34,6.01z"
           class="fil45" /><path
           id="path306"
           d="M28.54 152.14c-0.21,-0.55 -1.38,-0.48 -1.26,0.39 0.12,0.88 1.09,2.22 1.48,1.97 0.39,-0.25 0.07,-1.6 -0.22,-2.36z"
           class="fil5" /><path
           id="path308"
           d="M27.88 159.7c0,0 0.41,-0.34 -0.18,-3.48 -0.16,-0.84 4.42,1 4.42,1 0,0 -0.04,0.69 -0.03,1.38 0,0.31 0.01,0.62 0.04,0.86 0.02,0.19 0.13,0.51 0.17,0.61 0.21,0.48 -2.72,0.84 -4.41,-0.37z"
           class="fil46" /><path
           id="path310"
           d="M32.13 159.47c-2.75,-0.03 -3.63,-2.12 -3.66,-2.19 1.45,1.47 3.62,1.33 3.62,1.33 0,0.31 0.01,0.62 0.04,0.86z"
           class="fil13" /><path
           id="path312"
           d="M31.02 161.32l0.83 1.12c0,0 -0.49,0.66 -1.35,0.17l0.52 -1.29z"
           class="fil47" /><path
           id="path314"
           d="M31.62 162.49c0,0 3.09,11.9 2.45,21.16l-1.04 1.83 -0.97 -1.92c0,0 -0.27,-16.56 -1.11,-21.1l0.67 0.03z"
           class="fil47" /><path
           id="path316"
           d="M31.91 160.28l-0.89 1.04c0,0 -1.43,-0.28 -1.85,-1.03 -0.42,-0.75 2.75,-0.02 2.75,-0.02z"
           class="fil46" /><path
           id="path318"
           d="M32.12 159.37c0,0 -0.1,0.8 -1.1,1.96l1.08 1.46 0.59 -3.02 -0.57 -0.39z"
           class="fil48" /><path
           id="path320"
           d="M28.02 158.55c0,0 1.56,2.2 3,2.77l-0.67 1.67 -3.08 -3.72 0.75 -0.72z"
           class="fil48" /><polygon
           id="polygon322"
           points="255.4,230.48 251.6,205.17 252.33,205.06 256.13,230.36 "
           class="fil49" /><polygon
           id="polygon324"
           points="250.76,230.48 246.95,205.17 247.68,205.06 251.49,230.36 "
           class="fil49" /><polygon
           id="polygon326"
           points="227.87,230.48 227.14,230.36 230.94,205.06 231.68,205.17 "
           class="fil49" /><path
           id="path328"
           d="M252.79 205.43l2.98 -31.36c0,0 -5.21,-0.68 -8.36,-0.51l-4.73 31.87 10.12 0z"
           class="fil50" /><polygon
           id="polygon330"
           points="242.67,205.43 252.79,205.43 252.79,203.84 242.67,203.84 "
           class="fil50" /><path
           id="path332"
           d="M236.05 204.15l-1.58 -29.88c0,0 13.19,-1.43 21.3,-0.2l-19.71 30.08z"
           class="fil50" /><path
           id="path334"
           d="M246.59 164.6c0,0 2.04,-5.98 -1.85,-7.83 -3.89,-1.85 -7.19,0.83 -7.81,2.27 -0.62,1.45 -0.46,4.08 0.07,5.92 0.53,1.84 0.45,4.63 -0.7,5.57 -1.16,0.94 -2.59,2.49 -2.52,5.65 0.04,1.96 7.72,-5.02 7.72,-5.02l5.09 -6.57z"
           class="fil51" /><path
           id="path336"
           d="M241.4 228.88c0,0 -0.12,4.22 0.48,4.47 0.6,0.26 2.89,-1.21 3.89,-2.66 1.01,-1.45 -1.26,-4.83 -1.63,-6.7 -0.16,-0.78 -1.93,-2.18 -2.79,-1.78 -0.87,0.4 -1.5,1.43 -1.5,1.43 0,0 2.2,1.51 1.55,5.24z"
           class="fil52" /><path
           id="path338"
           d="M239.85 223.64c0,0 0.75,1.44 1.14,2.56 0.38,1.12 0.46,4.21 0.7,4.43 0.24,0.22 2.15,-0.75 2.41,-1.91 0.26,-1.16 -0.52,-3.47 -1.26,-4.69 -0.74,-1.22 -1.49,-1.83 -1.49,-1.83 0,0 -1.3,0.26 -1.5,1.43z"
           class="fil53" /><polygon
           id="polygon340"
           points="244.14,223.99 246.2,226.99 245.81,227.26 244.22,224.94 "
           class="fil52" /><path
           id="path342"
           d="M236.75 190.84c0,0 1,1.7 0,2.93 -1.01,1.24 -7.76,4.63 -7.71,6.59 0.05,1.96 1.29,5.03 1.73,5.81 0.45,0.78 2.09,4.01 2.94,5.89 0.85,1.89 5.78,10.93 6.74,12.97 0.96,2.04 0.37,-8.15 0.37,-8.15l-4.93 -14.45 11.51 -11.22c0,0 -1.39,-3.1 -10.66,-0.37z"
           class="fil53" /><path
           id="path344"
           d="M241.13 171.7c0,0 -3.2,0.71 -4.46,1.45 -1.27,0.74 -4.08,4.15 -4.08,5.62 0,1.47 12.32,2.84 12.32,2.84l2.34 8.52c0,0 6.22,-1.52 6.96,-2.78 0.74,-1.26 -2.45,-10.23 -2.9,-12.12 -0.44,-1.89 -2.77,-3.16 -5.37,-3.53 -2.6,-0.36 -4.81,0 -4.81,0z"
           class="fil54" /><path
           id="path346"
           d="M248.68 191.12c0,0 -0.22,1.46 0.37,2.07 0.59,0.61 3.32,4.22 1.88,7.76 -1.33,3.25 -3.91,3.19 -3.91,3.19l-3.98 0c0,0 1.16,5.85 0.78,9.7 -0.37,3.85 -2.13,12.65 -2.17,13.1 -0.04,0.44 -1.68,1.83 -2.17,1.13 0,0 -0.05,-5.3 -0.31,-7.3 -0.26,-2 -1.36,-10 -1.7,-11.19 -0.33,-1.19 -2.3,-4.78 -2.3,-5.15 0,-0.37 -1.92,-6.17 2.27,-7.65 4.19,-1.48 5.67,-5.63 11.22,-5.65z"
           class="fil5" /><path
           id="path348"
           d="M237.5 232.16c0,0 -2.75,3.2 -2.44,3.78 0.31,0.58 3,0.87 4.7,0.37 1.7,-0.5 2.06,-4.55 2.94,-6.23 0.37,-0.71 -0.12,-2.91 -1.05,-3.14 -0.92,-0.23 -2.07,0.17 -2.07,0.17 0,0 0.76,2.56 -2.08,5.05z"
           class="fil55" /><path
           id="path350"
           d="M239.59 227.11c0,0 -0.32,1.59 -0.73,2.7 -0.4,1.11 -2.29,3.56 -2.24,3.88 0.05,0.32 2.15,0.77 3.07,0.03 0.92,-0.74 1.78,-3.03 1.97,-4.43 0.19,-1.41 -0.01,-2.36 -0.01,-2.36 0,0 -1.17,-0.62 -2.07,0.17z"
           class="fil5" /><polygon
           id="polygon352"
           points="242.7,230.08 242.42,233.71 241.95,233.67 242.17,230.87 "
           class="fil55" /><path
           id="path354"
           d="M250.93 200.95c-1.26,3.29 -3.91,3.19 -3.91,3.19l-3.98 0c0,0 -1.66,-2.63 -5.73,-3.09 -0.9,-0.1 -1.92,-0.09 -3.07,0.07l-0.04 0.01c-5.41,0.8 -4.37,2.79 -4.35,2.84 -0.45,-1.1 -0.92,-2.84 -0.81,-3.78 0.52,-4.28 6.71,-5.18 7.71,-6.42 1,-1.23 0,-2.93 0,-2.93 9.26,-2.73 10.66,0.37 10.66,0.37 0.41,-0.06 1.45,-0.66 1.89,-0.66 0,0 0.46,1.01 0.79,1.93 0.29,0.8 2.2,4.9 0.84,8.47z"
           class="fil54" /><polygon
           id="polygon356"
           points="247.08,177.38 248.45,190.13 230.41,190.13 229.03,177.38 "
           class="fil56" /><polygon
           id="polygon358"
           points="246.88,190.13 249.89,190.13 249.89,188.98 246.88,188.98 "
           class="fil56" /><polygon
           id="polygon360"
           points="217.97,191.86 275.44,191.86 275.44,190.13 217.97,190.13 "
           class="fil57" /><path
           id="path362"
           d="M243.13 157.79c0,0 4.04,1.2 3.46,6.81 -0.58,5.61 -3.22,5.32 -3.46,5.36 -0.25,0.04 -3.39,0.25 -4.37,-6.56 -0.99,-6.81 4.37,-5.61 4.37,-5.61z"
           class="fil5" /><path
           id="path364"
           d="M245.05 168.93c0,0 -0.22,1.86 0.14,3.01 0.36,1.16 -4.71,1.19 -4.71,0.24 0.01,-1.08 0.52,-1.98 0.03,-3.83 -0.48,-1.85 4.53,0.58 4.53,0.58z"
           class="fil5" /><path
           id="path366"
           d="M242.08 160.29c0,0 2.2,3.49 4.51,4.31 0,0 1.26,-5.87 -3.95,-7.09 -5.22,-1.23 -4.4,5.92 -4.01,7.83 0,0 1.09,-2.81 3.45,-5.04z"
           class="fil51" /><path
           id="path368"
           d="M241.12 169.17c0,0 1.6,1.67 3.65,0.17 0,0 -0.17,1.07 -1.64,1.2 -1.47,0.14 -2.01,-1.38 -2.01,-1.38z"
           class="fil13" /><path
           id="path370"
           d="M239.13 159.76c0,0 1.15,-2.24 3.11,-2.34 1.95,-0.1 3.11,1.59 3.11,1.59 0,0 -0.76,-1.91 -3.11,-1.91 -2.35,0 -3.11,2.65 -3.11,2.65z"
           class="fil58" /><path
           id="path372"
           d="M245.71 171.67c0,0 -0.07,3.88 -3.15,4 -3.08,0.12 -2.44,-3.72 -2.44,-3.72 0,0 2.25,-0.91 5.59,-0.27z"
           class="fil5" /><polygon
           id="polygon374"
           points="274.17,235.66 275.44,235.66 275.44,191.86 274.17,191.86 "
           class="fil59" /><polygon
           id="polygon376"
           points="217.97,235.66 219.25,235.66 219.25,191.86 217.97,191.86 "
           class="fil59" /><path
           id="path378"
           d="M171.12 199.52c0,0 -0.98,0.86 -1.85,2.17 -0.88,1.32 -3.2,1.39 -3.3,3.18 -0.1,1.79 3.16,1.85 4.88,1.27 1.72,-0.59 1.98,-2.34 3.01,-2.78 1.04,-0.44 1.58,-0.79 1.5,-1.65 -0.08,-0.85 -0.66,-2.25 -0.66,-2.25 0,0 -0.64,0.21 -1.02,0.25 -0.38,0.04 -1.65,0.06 -2.55,-0.2z"
           class="fil17" /><path
           id="path380"
           d="M182.87 150.87c0,0 -0.66,3.91 -1.19,6.49 -0.22,1.05 -0.41,1.88 -0.53,2.14 -0.15,0.33 -1.39,1.65 -2.89,3.2 -2.65,2.73 -6.15,6.16 -6.15,6.16l-1.37 -2.6c0,0 3.11,-3.64 5.21,-6.07 0.98,-1.13 1.74,-1.99 1.88,-2.12 0.44,-0.4 0.95,-4.28 1.67,-7.48 0.72,-3.2 2.16,-4.97 2.16,-4.97l1.2 5.24z"
           class="fil60" /><path
           id="path382"
           d="M178.26 162.7c-2.65,2.73 -6.15,6.16 -6.15,6.16l-1.37 -2.6c0,0 3.11,-3.64 5.21,-6.07 0.65,0.32 1.83,1.07 2.3,2.51z"
           class="fil5" /><path
           id="path384"
           d="M195.24 198.45c0,0 0.9,1 1.43,1.6 0.53,0.61 2.57,1.68 2.58,3.47 0.01,1.94 -1.5,1.77 -2.85,1.7 -1.35,-0.07 -2.44,-1 -3.01,-2.1 -0.57,-1.1 -2.08,-1.39 -2.18,-2.27 -0.11,-0.89 0.7,-2.48 0.7,-2.48l3.34 0.09z"
           class="fil17" /><path
           id="path386"
           d="M192.08 196.71l-0.17 1.65c0,0 2.81,1.22 3.34,0.09l-0.12 -1.47 -3.04 -0.27z"
           class="fil61" /><path
           id="path388"
           d="M171.27 198.33l-0.15 1.2c0,0 1.7,0.6 3.57,-0.05l0.04 -1.06 -3.46 -0.08z"
           class="fil61" /><path
           id="path390"
           d="M195.4 168.33c0.1,0.35 -18.01,0 -18.01,0 0,0 5.01,-3.64 5.33,-4.62 0.33,-0.97 -1.27,-6.81 -1.48,-8.71 -0.17,-1.52 -0.59,-8.33 0.42,-9.37 1.05,-1.09 4.82,-2.22 4.82,-2.22l5.5 0.2c0,0 0.91,0.19 1.56,0.49 0.65,0.3 4.36,1.62 4.96,3.48 0.61,1.86 -3.7,7.82 -3.7,7.82 0,0 -0.01,0.27 -0.02,0.71 -0.02,0.58 -0.04,1.47 -0.06,2.44 -0.03,1.25 -0.05,2.63 -0.05,3.63 0,2.37 0.64,5.81 0.74,6.15z"
           class="fil60" /><path
           id="path392"
           d="M195.4 168.33c0,0 2.46,3.62 2.5,6.08 0.03,2.47 -0.91,9.31 -0.98,10.67 -0.07,1.36 -1.35,12.66 -1.35,12.66 0,0 -0.98,0.91 -3.94,-0.23 0,0 -0.65,-10.71 -0.72,-11.86 -0.07,-1.15 -0.07,-6.43 -0.73,-7.2 -0.66,-0.76 -4.66,-3.16 -5.18,-3.62 -0.52,-0.45 -9.61,1.72 -10.56,1.96 -2.47,0.64 -1.34,4.93 -0.8,6.85 0.91,3.22 1.71,14.84 1.71,14.84 0,0 -1.76,0.75 -4.7,0.12 0,0 -5.78,-20.98 -5.96,-23.07 -0.18,-2.09 -0.27,-5.53 13.96,-8.14l16.75 0.94z"
           class="fil54" /><path
           id="path394"
           d="M187.99 131.45c0,0 -4.77,-1.08 -3.68,4.93 1.09,6.01 2.24,6.48 5.12,5.24 2.88,-1.24 2.62,-5.1 2.77,-6.98 0.15,-1.89 -2.68,-3.12 -4.2,-3.19z"
           class="fil5" /><path
           id="path396"
           d="M186.73 144.95c0,0 2.12,2.24 5.46,0.21 0,0 -0.75,-4.86 -0.35,-7.23 0.39,-2.37 -4.36,3.67 -4.36,3.67 0.06,0.03 0.1,0.26 0.11,0.58 0.01,0.27 -0.01,0.61 -0.05,0.96 -0.1,0.79 -0.34,1.62 -0.81,1.81z"
           class="fil5" /><path
           id="path398"
           d="M190.55 135.59c0.07,-0.53 1.11,-0.72 1.2,0.07 0.08,0.8 -0.48,2.19 -0.88,2.05 -0.4,-0.14 -0.41,-1.39 -0.32,-2.12z"
           class="fil5" /><path
           id="path400"
           d="M191.96 137.73c0,0 -0.12,-1.89 -0.82,-1.95 -0.69,-0.06 -0.8,0.71 -0.8,0.71l-0.7 0.13c0,0 0.22,-1.66 -0.47,-1.95 -0.69,-0.29 -4.47,0.91 -5.03,0.43 -0.56,-0.49 -0.29,-3.85 0.71,-4.32 1,-0.46 3.78,-1.49 5.8,-0.12 0,0 1.58,-0.18 1.82,1.1 0.23,1.28 -0.08,5.03 -0.51,5.98z"
           class="fil62" /><path
           id="path402"
           d="M187.53 143.14c3.45,-1.06 3.71,-3.14 3.71,-3.17 -1.14,1.95 -3.66,2.21 -3.66,2.21 0.01,0.27 -0.01,0.61 -0.05,0.96z"
           class="fil13" /><path
           id="path404"
           d="M193.6 144.13c0,0 -2.52,5.03 -6.6,4.7 -4.08,-0.32 -0.7,-5.38 -0.51,-5.42 0.2,-0.05 4.18,-1.04 7.11,0.72z"
           class="fil5" /><path
           id="path406"
           d="M175.32 168.08c0,0 12.5,1.54 20.08,0.25l-14.47 -1.81c0,0 -0.09,0.37 -5.6,1.55z"
           class="fil60" /><path
           id="path408"
           d="M184.68 165.95l-0.93 0.47c0,0 0.21,1.48 0.72,1.93l1.05 -0.27c0,0 -0.22,-1.62 -0.83,-2.13z"
           class="fil5" /><path
           id="path410"
           d="M199.14 162.93c-0.19,0.22 -2.65,1.2 -5.42,2.27 -3.79,1.46 -8.07,2.84 -8.07,2.84l-0.97 -2.09c0,0 4.48,-2.43 7.51,-4.14 1.43,-0.81 2.54,-1.45 2.69,-1.6 0.49,-0.46 0.61,-1.21 0.25,-2.5 -0.36,-1.3 -1.18,-7.26 -1.27,-7.95 -0.09,-0.7 0.23,-2.55 1.97,-2.64 1.74,-0.09 2.62,0.4 2.62,0.4 0,0 0.44,0.18 0.76,4.4 0.32,4.22 0.37,10.5 -0.07,11.01z"
           class="fil60" /><path
           id="path412"
           d="M194.78 156.11l0 0c-0.02,0.58 -0.04,1.47 -0.06,2.44 -1.7,-4.16 -0.72,-7.48 -0.7,-7.54 -0.18,1.13 0.75,5.04 0.76,5.1z"
           class="fil63" /><path
           id="path414"
           d="M181.68 157.36l0 0c-0.22,1.05 -0.41,1.88 -0.53,2.14 -0.58,-2.81 -0.06,-6.4 -0.06,-6.4 0.08,1.72 0.59,4.26 0.59,4.26z"
           class="fil63" /><path
           id="path416"
           d="M193.72 165.2l0 0c-3.79,1.46 -8.21,2.89 -8.21,2.89l-0.83 -2.13c0,0 4.48,-2.43 7.51,-4.14 0,0 1.1,0.54 1.54,3.39z"
           class="fil5" /><polygon
           id="polygon418"
           points="184.4,168.21 166.64,167.95 175.61,172.5 "
           class="fil64" /><polygon
           id="polygon420"
           points="175.61,172.5 184.4,169.1 184.4,168.21 174.91,171.64 "
           class="fil65" /><path
           id="path422"
           d="M183.95 166.46c0,0 -1.11,-0.17 -1.88,-0.35 -0.59,-0.14 -2.07,0.05 -2.45,0.43 -0.38,0.38 -1.57,3.04 -1.8,3.2 -0.23,0.16 0.12,0.54 0.51,0.35 0,0 0.37,1.16 1.26,0.73 0.9,-0.44 1.51,-1.39 1.98,-1.55 0.47,-0.17 3.21,-1.01 3.21,-1.01 0,0 -0.15,-2.07 -0.85,-1.79z"
           class="fil5" /><path
           id="path424"
           d="M179.89 166.37c0,0 -0.71,0.35 -0.9,0.5 -0.19,0.15 -0.94,0.72 -1.12,0.85 -0.18,0.13 0.27,0.51 1.62,-0.07 1.35,-0.58 0.4,-1.28 0.4,-1.28z"
           class="fil5" /><polygon
           id="polygon426"
           points="175.61,172.5 170.32,158.08 153.28,158.35 158.32,171.65 "
           class="fil66" /><path
           id="path428"
           d="M164.87 164.46c0.52,1.04 0.36,2.17 -0.35,2.53 -0.71,0.36 -1.71,-0.2 -2.23,-1.24 -0.52,-1.04 -0.37,-2.17 0.35,-2.53 0.71,-0.36 1.71,0.2 2.23,1.24z"
           class="fil59" /></g></g></g></svg>