<?xml version="1.0" encoding="UTF-8" standalone="no"?>
<svg
   xmlns:dc="http://purl.org/dc/elements/1.1/"
   xmlns:cc="http://creativecommons.org/ns#"
   xmlns:rdf="http://www.w3.org/1999/02/22-rdf-syntax-ns#"
   xmlns:svg="http://www.w3.org/2000/svg"
   xmlns="http://www.w3.org/2000/svg"
   id="svg89"
   viewBox="0 0 1254.32 734.89445"
   style="clip-rule:evenodd;fill-rule:evenodd;image-rendering:optimizeQuality;shape-rendering:geometricPrecision;text-rendering:geometricPrecision"
   version="1.1"
   height="6.773241mm"
   width="11.5605mm"
   xml:space="preserve"><metadata
   id="metadata93"><rdf:RDF><cc:Work
       rdf:about=""><dc:format>image/svg+xml</dc:format><dc:type
         rdf:resource="http://purl.org/dc/dcmitype/StillImage" /></cc:Work></rdf:RDF></metadata>
 <defs
   id="defs4">
  <style
   id="style2"
   type="text/css">
   <![CDATA[
    .fil0 {fill:#12BDEB;fill-rule:nonzero}
   ]]>
  </style>
 </defs>
 <g
   transform="translate(0,-0.00278444)"
   id="Camada_x0020_1">
  <metadata
   id="CorelCorpID_0Corel-Layer" />
  <g
   id="_4738537424">
   <path
   style="fill:#12bdeb;fill-rule:nonzero"
   id="path7"
   d="m 1017.48,515.33 c -47.54,0 -86.24,38.69 -86.24,86.24 0,47.54 38.69,86.24 86.24,86.24 47.56,0 86.24,-38.69 86.24,-86.24 0,-47.54 -38.68,-86.24 -86.24,-86.24 z m 0,193.5 c -59.13,0 -107.26,-48.12 -107.26,-107.26 0,-59.14 48.13,-107.26 107.26,-107.26 59.15,0 107.26,48.12 107.26,107.26 0,59.14 -48.11,107.26 -107.26,107.26 z"
   class="fil0" />
   <path
   style="fill:#12bdeb;fill-rule:nonzero"
   id="path9"
   d="m 1169.02,142.12 c -35.43,0 -64.25,28.83 -64.25,64.26 0,35.44 28.83,64.25 64.25,64.25 35.45,0 64.26,-28.82 64.26,-64.25 0,-35.44 -28.82,-64.26 -64.26,-64.26 z m 0,149.56 c -47.02,0 -85.28,-38.27 -85.28,-85.29 0,-47.03 38.26,-85.29 85.28,-85.29 47.05,0 85.3,38.26 85.3,85.29 0,47.02 -38.26,85.29 -85.3,85.29 z"
   class="fil0" />
   <path
   style="fill:#12bdeb;fill-rule:nonzero"
   id="path11"
   d="m 98.61,176.44 c -42.77,0 -77.58,34.81 -77.58,77.58 0,42.78 34.81,77.59 77.58,77.59 42.78,0 77.59,-34.81 77.59,-77.59 0,-42.77 -34.81,-77.58 -77.59,-77.58 z m 0,176.19 C 44.24,352.63 0,308.39 0,254.01 0,199.64 44.24,155.4 98.61,155.4 c 54.38,0 98.62,44.24 98.62,98.61 0,54.38 -44.24,98.62 -98.62,98.62 z"
   class="fil0" />
   <path
   style="fill:#12bdeb;fill-rule:nonzero"
   id="path13"
   d="m 234.83,610.58 c -28.47,0 -51.65,23.16 -51.65,51.65 0,28.47 23.18,51.65 51.65,51.65 28.48,0 51.65,-23.18 51.65,-51.65 0,-28.48 -23.16,-51.65 -51.65,-51.65 z m 0,124.32 c -40.07,0 -72.67,-32.6 -72.67,-72.67 0,-40.08 32.6,-72.68 72.67,-72.68 40.08,0 72.68,32.6 72.68,72.68 0,40.07 -32.6,72.67 -72.68,72.67 z"
   class="fil0" />
   <path
   style="fill:#12bdeb;fill-rule:nonzero"
   id="path15"
   d="m 320.99,479.24 c -8.12,0 -14.72,6.61 -14.72,14.73 0,8.12 6.61,14.72 14.72,14.72 8.13,0 14.73,-6.61 14.73,-14.72 0,-8.13 -6.61,-14.73 -14.73,-14.73 z m 0,50.49 c -19.71,0 -35.75,-16.04 -35.75,-35.75 0,-19.73 16.04,-35.76 35.75,-35.76 19.73,0 35.76,16.04 35.76,35.76 0,19.71 -16.04,35.75 -35.76,35.75 z"
   class="fil0" />
   <path
   style="fill:#12bdeb;fill-rule:nonzero"
   id="path17"
   d="m 60.61,420.11 c 0,11.03 -8.95,19.99 -19.99,19.99 -11.05,0 -20,-8.95 -20,-19.99 0,-11.03 8.95,-19.99 20,-19.99 11.03,0 19.99,8.95 19.99,19.99 z"
   class="fil0" />
   <path
   style="fill:#12bdeb;fill-rule:nonzero"
   id="path19"
   d="m 613.74,662.22 c 0,11.03 -8.95,19.99 -19.99,19.99 -11.05,0 -20,-8.95 -20,-19.99 0,-11.05 8.95,-19.99 20,-19.99 11.03,0 19.99,8.94 19.99,19.99 z"
   class="fil0" />
   <path
   style="fill:#12bdeb;fill-rule:nonzero"
   id="path21"
   d="m 1123.78,403.69 c 0,11.03 -8.94,19.99 -19.99,19.99 -11.03,0 -19.99,-8.95 -19.99,-19.99 0,-11.03 8.95,-19.99 19.99,-19.99 11.05,0 19.99,8.95 19.99,19.99 z"
   class="fil0" />
   <path
   style="fill:#12bdeb;fill-rule:nonzero"
   id="path23"
   d="m 960.86,19.99 c 0,11.05 -8.95,19.99 -19.99,19.99 -11.05,0 -20,-8.94 -20,-19.99 0,-11.03 8.95,-19.99 20,-19.99 11.03,0 19.99,8.95 19.99,19.99 z"
   class="fil0" />
   <path
   style="fill:#12bdeb;fill-rule:nonzero"
   id="path25"
   d="m 291.25,19.99 c 0,11.05 -8.95,19.99 -19.99,19.99 -11.03,0 -19.99,-8.94 -19.99,-19.99 0,-11.03 8.95,-19.99 19.99,-19.99 11.03,0 19.99,8.95 19.99,19.99 z"
   class="fil0" />
   <path
   style="fill:#12bdeb;fill-rule:nonzero"
   id="path27"
   d="m 639.64,111.48 c 0,11.05 -8.95,19.99 -19.99,19.99 -11.05,0 -19.99,-8.94 -19.99,-19.99 0,-11.03 8.94,-19.99 19.99,-19.99 11.03,0 19.99,8.95 19.99,19.99 z"
   class="fil0" />
   <path
   style="fill:#12bdeb;fill-rule:nonzero"
   id="path29"
   d="m 265.45,532.41 c 0,11.03 -8.95,19.99 -19.99,19.99 -11.03,0 -19.99,-8.95 -19.99,-19.99 0,-11.05 8.95,-19.99 19.99,-19.99 11.03,0 19.99,8.94 19.99,19.99 z"
   class="fil0" />
   <path
   style="fill:#12bdeb;fill-rule:nonzero"
   id="path31"
   d="m 746.56,664.25 c -8.13,0 -14.73,6.61 -14.73,14.72 0,8.12 6.61,14.72 14.73,14.72 8.12,0 14.72,-6.61 14.72,-14.72 0,-8.12 -6.61,-14.72 -14.72,-14.72 z m 0,50.49 c -19.73,0 -35.76,-16.05 -35.76,-35.76 0,-19.71 16.04,-35.76 35.76,-35.76 19.7,0 35.75,16.05 35.75,35.76 0,19.71 -16.05,35.76 -35.75,35.76 z"
   class="fil0" />
   <polygon
   style="fill:#12bdeb;fill-rule:nonzero"
   id="polygon33"
   points="817.6,468.88 940.87,541.03 930.25,559.18 806.99,487.04 "
   class="fil0" />
   <polygon
   style="fill:#12bdeb;fill-rule:nonzero"
   id="polygon35"
   points="1090.95,227.69 1097.55,247.65 813.06,341.67 806.46,321.7 "
   class="fil0" />
   <polygon
   style="fill:#12bdeb;fill-rule:nonzero"
   id="polygon37"
   points="187.12,265.31 413.55,333.24 407.51,353.39 181.08,285.44 "
   class="fil0" />
   <polygon
   style="fill:#12bdeb;fill-rule:nonzero"
   id="polygon39"
   points="408.31,456.09 412.75,476.65 344.89,491.3 340.44,470.75 "
   class="fil0" />
   <polygon
   style="fill:#12bdeb;fill-rule:nonzero"
   id="polygon41"
   points="447.74,532.41 457.89,550.82 294.18,641.1 284.02,622.68 "
   class="fil0" />
   <polygon
   style="fill:#12bdeb;fill-rule:nonzero"
   id="polygon43"
   points="718.7,588.68 746.7,649.32 727.6,658.14 699.6,597.49 "
   class="fil0" />
   <path
   style="fill:#12bdeb;fill-rule:nonzero"
   id="path45"
   d="m 475.69,142.35 c 8.1,-0.61 14.19,-7.69 13.58,-15.8 -0.61,-8.09 -7.69,-14.18 -15.8,-13.57 -8.09,0.61 -14.19,7.69 -13.57,15.8 0.61,8.09 7.69,14.18 15.79,13.57 z m -3.8,-50.34 c 19.67,-1.48 36.87,13.31 38.35,32.97 1.48,19.66 -13.31,36.86 -32.97,38.34 -19.66,1.48 -36.86,-13.31 -38.34,-32.97 -1.49,-19.66 13.3,-36.86 32.96,-38.34 z"
   class="fil0" />
   <polygon
   style="fill:#12bdeb;fill-rule:nonzero"
   id="polygon47"
   points="509.15,215.61 476.67,157.24 495.04,147.02 527.53,205.39 "
   class="fil0" />
   <path
   style="fill:#12bdeb;fill-rule:nonzero"
   id="path49"
   d="m 780.38,71.77 c 4.52,6.74 13.69,8.54 20.43,4 6.74,-4.52 8.55,-13.69 4.01,-20.44 -4.54,-6.74 -13.69,-8.54 -20.44,-4 -6.74,4.52 -8.54,13.69 -4,20.44 z m 41.9,-28.17 c 10.99,16.37 6.63,38.63 -9.74,49.63 -16.36,10.99 -38.63,6.63 -49.62,-9.73 -10.99,-16.37 -6.63,-38.63 9.73,-49.63 16.36,-10.99 38.63,-6.63 49.63,9.73 z"
   class="fil0" />
   <polygon
   style="fill:#12bdeb;fill-rule:nonzero"
   id="polygon51"
   points="696.04,203.39 767.91,79.98 785.88,90.9 714,214.32 "
   class="fil0" />
   <path
   style="fill:#12bdeb;fill-rule:nonzero"
   id="path53"
   d="m 810.64,367.84 23.72,-1.68 c -10,-59.01 -43.2,-110.24 -89.85,-143.95 l -12.44,20.19 c 40.39,29.71 69.28,74.2 78.58,125.44 z"
   class="fil0" />
   <path
   style="fill:#12bdeb;fill-rule:nonzero"
   id="path55"
   d="m 613.74,203.57 c 44.24,0 85.16,14.43 118.32,38.83 l 12.44,-20.19 c -36.8,-26.6 -81.98,-42.3 -130.76,-42.3 -48.08,0 -92.66,15.24 -129.18,41.14 l 15.24,18.21 c 32.37,-22.48 71.63,-35.69 113.94,-35.69 z"
   class="fil0" />
   <path
   style="fill:#12bdeb;fill-rule:nonzero"
   id="path57"
   d="m 499.81,239.25 -15.24,-18.21 c -23.83,16.9 -44.2,38.37 -59.89,63.07 l 20.51,11.86 c 14.3,-22.31 32.9,-41.61 54.63,-56.72 z"
   class="fil0" />
   <path
   style="fill:#12bdeb;fill-rule:nonzero"
   id="path59"
   d="m 834.36,366.16 -23.72,1.68 c 2.12,11.63 3.22,23.61 3.22,35.85 0,110.34 -89.77,200.12 -200.12,200.12 -110.36,0 -200.13,-89.77 -200.13,-200.12 0,-39.64 11.6,-76.59 31.56,-107.71 l -20.51,-11.86 c -21.96,34.61 -34.71,75.62 -34.71,119.57 0,123.39 100.38,223.77 223.78,223.77 123.39,0 223.77,-100.38 223.77,-223.77 0,-12.79 -1.1,-25.32 -3.16,-37.53 z"
   class="fil0" />
   <path
   style="fill:#12bdeb;fill-rule:nonzero"
   id="path61"
   d="m 234.77,678.34 c 0,0 -0.01,0 -0.01,0 l -0.21,-0.01 c -8.2,-0.14 -14.88,-6.94 -14.88,-15.17 0,-8.21 6.67,-15.02 14.86,-15.16 0.1,0 0.18,-0.01 0.27,-0.01 l 0.05,-0.01 c 8.33,0.02 15.1,6.82 15.1,15.18 0,8.38 -6.78,15.18 -15.2,15.18 z m 36.49,-23.36 c 0,-1.04 -0.72,-1.93 -1.73,-2.16 l -7.86,-1.76 4.32,-6.8 c 0.55,-0.88 0.43,-2.01 -0.3,-2.75 l -10.21,-10.22 c -0.72,-0.72 -1.91,-0.85 -2.75,-0.3 l -6.78,4.32 -1.76,-7.87 c -0.23,-1.02 -1.12,-1.73 -2.16,-1.73 H 227.6 c -1.04,0 -1.93,0.71 -2.15,1.73 l -1.76,7.87 -6.78,-4.32 c -0.86,-0.54 -2.04,-0.41 -2.76,0.3 l -10.2,10.22 c -0.74,0.74 -0.86,1.87 -0.3,2.75 l 4.32,6.8 -7.86,1.76 c -1.02,0.23 -1.73,1.12 -1.73,2.16 v 14.46 c 0,1.04 0.72,1.93 1.73,2.16 l 7.86,1.76 -4.32,6.8 c -0.55,0.88 -0.43,2.01 0.3,2.75 l 10.2,10.22 c 0.72,0.72 1.9,0.85 2.76,0.3 l 6.78,-4.32 1.76,7.87 c 0.22,1.01 1.13,1.74 2.15,1.74 v 0 l 14.44,-0.01 c 1.04,0 1.92,-0.71 2.15,-1.73 l 1.76,-7.87 6.78,4.32 c 0.86,0.54 2.04,0.41 2.75,-0.3 l 10.2,-10.22 c 0.73,-0.73 0.86,-1.88 0.31,-2.75 l -4.32,-6.8 7.86,-1.77 c 1.01,-0.22 1.73,-1.11 1.73,-2.15 z"
   class="fil0" />
   <path
   style="fill:#12bdeb;fill-rule:nonzero"
   id="path63"
   d="m 1187.65,212.78 c -3.39,0 -6.13,-2.76 -6.13,-6.13 0,-3.39 2.75,-6.14 6.13,-6.14 3.39,0 6.13,2.76 6.13,6.14 0,3.37 -2.75,6.13 -6.13,6.13 z m -18.49,0 c -3.37,0 -6.13,-2.76 -6.13,-6.13 0,-3.39 2.76,-6.14 6.13,-6.14 3.39,0 6.14,2.76 6.14,6.14 0,3.37 -2.76,6.13 -6.14,6.13 z m -19.37,0 c -3.4,0 -6.14,-2.76 -6.14,-6.13 0,-3.39 2.75,-6.14 6.14,-6.14 3.37,0 6.13,2.76 6.13,6.14 0,3.37 -2.76,6.13 -6.13,6.13 z m 19.23,-50.68 c -28.3,0 -51.33,18.09 -51.33,40.32 0,22.24 23.03,40.33 51.33,40.33 1.5,0 3.02,-0.05 4.57,-0.16 l 4.03,9.74 c 0.31,0.75 0.97,1.28 1.75,1.41 0.13,0.02 0.28,0.03 0.4,0.03 0.67,0 1.31,-0.28 1.75,-0.77 l 14.69,-16.36 c 15.14,-7.41 24.17,-20.19 24.17,-34.22 0,-22.23 -23.05,-40.32 -51.35,-40.32 z"
   class="fil0" />
   <path
   style="fill:#12bdeb;fill-rule:nonzero"
   id="path65"
   d="m 626.6,521.01 72.81,-29.36 c 2.4,-0.97 3.59,-3.65 2.72,-6.08 l -1.02,-2.84 c -0.16,-0.44 -0.07,-0.93 0.22,-1.31 14.63,-19.15 4.63,-44.64 4.63,-44.64 l -14.67,-37.5 c -0.02,-0.07 -0.03,-0.1 -0.05,-0.17 -0.28,-1.29 -4.38,-19.14 -17.7,-19.14 -7.69,0 -11.94,3.36 -14.19,6.33 -0.74,0.99 -2.27,0.75 -2.55,-0.46 -0.92,-3.85 -3.96,-8.71 -13.27,-9.77 -10.34,-1.17 -14.47,4.63 -16.09,8.84 -0.43,1.12 -2.03,1.22 -2.56,0.12 -3.34,-6.92 -10.47,-14.96 -19.46,-11.97 -6.18,2.06 -9.02,6.03 -10.32,9.06 -0.51,1.18 -2.16,1.19 -2.63,0 L 577.5,343.65 c 0,0 -7.2,-23.11 -22.21,-17.4 -15.01,5.7 -6.9,25.51 -6.9,25.51 l 34.56,91.3 c 0.48,1.26 -0.9,2.41 -2.06,1.71 l -16.48,-9.97 c -0.08,-0.04 -0.11,-0.07 -0.17,-0.12 -1.19,-1.04 -18.64,-15.88 -29.65,-4.29 -10.97,11.54 1.11,24.21 2.05,25.15 0.05,0.05 0.09,0.08 0.14,0.13 l 81.85,59.44 c 0.15,0.18 0.3,0.37 0.46,0.55 l 1.37,2.92 c 1.09,2.31 3.79,3.37 6.15,2.42 z"
   class="fil0" />
   <path
   style="fill:#12bdeb;fill-rule:nonzero"
   id="path67"
   d="M 728.52,535.64 712.1,498.72 c -1.17,-2.65 -4.25,-3.9 -6.94,-2.81 l -80.36,32.35 c -2.86,1.15 -4.18,4.46 -2.89,7.26 l 16.7,36.24 c 1.2,2.59 4.22,3.81 6.89,2.76 l 80.06,-31.66 c 2.85,-1.13 4.19,-4.41 2.95,-7.22 z"
   class="fil0" />
   <path
   style="fill:#12bdeb;fill-rule:nonzero"
   id="path69"
   d="m 530.87,293.11 c 1.46,3.82 5.1,6.15 8.96,6.15 1.15,0 2.31,-0.21 3.45,-0.64 4.95,-1.91 7.41,-7.46 5.51,-12.41 l -10.04,-26.05 c -1.91,-4.96 -7.46,-7.42 -12.41,-5.51 -4.96,1.9 -7.42,7.46 -5.51,12.41 z"
   class="fil0" />
   <path
   style="fill:#12bdeb;fill-rule:nonzero"
   id="path71"
   d="m 487.38,309.14 25.51,11.33 c 1.27,0.56 2.59,0.84 3.9,0.84 3.68,0 7.19,-2.14 8.79,-5.72 2.15,-4.85 -0.03,-10.52 -4.88,-12.67 l -25.52,-11.33 c -4.84,-2.16 -10.51,0.02 -12.67,4.87 -2.16,4.85 0.03,10.52 4.88,12.68 z"
   class="fil0" />
   <path
   style="fill:#12bdeb;fill-rule:nonzero"
   id="path73"
   d="m 622.41,347.82 -25.52,-11.33 c -4.84,-2.16 -10.52,0.03 -12.67,4.88 -2.15,4.85 0.03,10.52 4.88,12.67 l 25.52,11.34 c 1.27,0.55 2.59,0.82 3.9,0.82 3.68,0 7.19,-2.13 8.78,-5.71 2.16,-4.85 -0.03,-10.52 -4.88,-12.68 z"
   class="fil0" />
   <path
   style="fill:#12bdeb;fill-rule:nonzero"
   id="path75"
   d="m 525.04,340.09 c -1.9,-4.95 -7.46,-7.41 -12.41,-5.5 l -26.06,10.03 c -4.95,1.91 -7.41,7.46 -5.51,12.41 1.48,3.82 5.11,6.16 8.97,6.16 1.14,0 2.31,-0.22 3.45,-0.65 l 26.05,-10.04 c 4.95,-1.9 7.42,-7.45 5.51,-12.41 z"
   class="fil0" />
   <path
   style="fill:#12bdeb;fill-rule:nonzero"
   id="path77"
   d="m 584.75,316.86 c 1.46,3.81 5.11,6.15 8.96,6.15 1.15,0 2.31,-0.21 3.45,-0.64 l 26.06,-10.04 c 4.95,-1.9 7.41,-7.46 5.51,-12.41 -1.91,-4.95 -7.46,-7.41 -12.42,-5.51 l -26.05,10.04 c -4.95,1.9 -7.42,7.45 -5.51,12.41 z"
   class="fil0" />
   <path
   style="fill:#12bdeb;fill-rule:nonzero"
   id="path79"
   d="m 535.56,395.99 11.33,-25.52 c 2.16,-4.84 -0.03,-10.52 -4.88,-12.67 -4.84,-2.15 -10.52,0.03 -12.67,4.88 l -11.33,25.52 c -2.16,4.85 0.03,10.52 4.87,12.67 1.27,0.56 2.59,0.84 3.9,0.84 3.68,0 7.19,-2.14 8.79,-5.72 z"
   class="fil0" />
   <path
   style="fill:#12bdeb;fill-rule:nonzero"
   id="path81"
   d="m 567.79,299.16 c 1.27,0.56 2.59,0.84 3.9,0.84 3.68,0 7.19,-2.14 8.78,-5.72 l 11.33,-25.52 c 2.16,-4.85 -0.03,-10.52 -4.88,-12.67 -4.84,-2.16 -10.52,0.03 -12.67,4.87 l -11.33,25.53 c -2.15,4.85 0.03,10.52 4.88,12.67 z"
   class="fil0" />
   <path
   style="fill:#12bdeb;fill-rule:nonzero"
   id="path83"
   d="m 1037.38,639.54 h -39.79 c -2.71,0 -4.9,-2.19 -4.9,-4.89 v -76.72 c 0,-2.7 2.19,-4.89 4.9,-4.89 h 39.79 c 2.7,0 4.89,2.19 4.89,4.89 v 76.72 c 0,2.7 -2.19,4.89 -4.89,4.89 z m -13.65,13.63 c 0,1.36 -1.09,2.45 -2.45,2.45 h -7.6 c -1.35,0 -2.45,-1.1 -2.45,-2.45 v -4.19 c 0,-1.36 1.11,-2.44 2.45,-2.44 h 7.6 c 1.37,0 2.45,1.09 2.45,2.44 z m 17.76,-111.61 h -48 c -5.56,0 -10.06,4.59 -10.06,10.25 v 99.51 c 0,5.66 4.5,10.26 10.06,10.26 h 48 c 5.54,0 10.04,-4.6 10.04,-10.26 v -99.51 c 0,-5.66 -4.49,-10.25 -10.04,-10.25 z"
   class="fil0" />
   <path
   style="fill:#12bdeb;fill-rule:nonzero"
   id="path85"
   d="m 133.78,240.25 c -1.07,0 -2.17,0.08 -3.27,0.21 0.12,-1.04 0.17,-2.03 0.17,-2.97 0,-16.57 -13.48,-30.04 -30.04,-30.04 -13.05,0 -24.66,8.54 -28.6,20.92 -0.92,-0.08 -1.78,-0.12 -2.6,-0.12 -17.58,0 -31.87,14.3 -31.87,31.87 0,17.58 14.29,31.87 31.87,31.87 h 64.34 c 14.27,0 25.87,-11.6 25.87,-25.86 0,-14.27 -11.6,-25.87 -25.87,-25.87 z"
   class="fil0" />
  </g>
 </g>
</svg>