<?xml version="1.0" encoding="UTF-8" standalone="no"?>
<svg
   xmlns:dc="http://purl.org/dc/elements/1.1/"
   xmlns:cc="http://creativecommons.org/ns#"
   xmlns:rdf="http://www.w3.org/1999/02/22-rdf-syntax-ns#"
   xmlns:svg="http://www.w3.org/2000/svg"
   xmlns="http://www.w3.org/2000/svg"
   id="svg105"
   viewBox="0 0 79.070002 119.23448"
   style="clip-rule:evenodd;fill-rule:evenodd;image-rendering:optimizeQuality;shape-rendering:geometricPrecision;text-rendering:geometricPrecision"
   version="1.1"
   height="6.3497062mm"
   width="4.2107325mm"
   xml:space="preserve"><metadata
   id="metadata109"><rdf:RDF><cc:Work
       rdf:about=""><dc:format>image/svg+xml</dc:format><dc:type
         rdf:resource="http://purl.org/dc/dcmitype/StillImage" /></cc:Work></rdf:RDF></metadata>
 <defs
   id="defs4">
  <style
   id="style2"
   type="text/css">
   <![CDATA[
    .fil0 {fill:#12BDEB;fill-rule:nonzero}
   ]]>
  </style>
 </defs>
 <g
   transform="translate(0,0.00528353)"
   id="Camada_x0020_1">
  <metadata
   id="CorelCorpID_0Corel-Layer" />
  <g
   id="_4672483696">
   <g
   id="g101">
    <path
   style="fill:#12bdeb;fill-rule:nonzero"
   id="path7"
   d="m 21.15,6.83 c 0.98,-1.04 2,-1.98 3.06,-2.81 0.86,-0.45 1.73,-0.89 2.59,-1.31 2.03,-0.99 4.11,-1.85 6.23,-2.58 1.14,-0.15 2.32,-0.18 3.54,-0.07 -3.21,0.88 -6.32,2.05 -9.34,3.52 -2.04,0.99 -4.06,2.07 -6.08,3.24 z"
   class="fil0" />
    <path
   style="fill:#12bdeb;fill-rule:nonzero"
   id="path9"
   d="m 16.34,13.1 c 0.48,-0.75 0.96,-1.47 1.46,-2.17 2.88,-1.91 5.74,-3.64 8.59,-5.19 4.59,-2.5 9.26,-4.14 13.86,-5.1 0.81,0.16 1.61,0.35 2.4,0.55 C 37.43,2.03 32.1,3.75 26.86,6.6 23.37,8.5 19.88,10.66 16.34,13.1 Z"
   class="fil0" />
    <path
   style="fill:#12bdeb;fill-rule:nonzero"
   id="path11"
   d="m 13.12,18.84 c 0.35,-0.69 0.7,-1.37 1.06,-2.04 C 18.02,13.91 21.95,11.2 26,8.77 32.19,5.05 39.04,2.84 46.11,2.24 46.86,2.5 47.6,2.78 48.33,3.08 40.65,3.36 33.18,5.58 26.5,9.6 c -4.6,2.77 -9.05,5.89 -13.38,9.24 z"
   class="fil0" />
    <path
   style="fill:#12bdeb;fill-rule:nonzero"
   id="path13"
   d="m 26.13,12.61 c -5.37,3.54 -10.51,7.53 -15.51,11.7 0.28,-0.66 0.56,-1.32 0.85,-1.97 4.56,-3.75 9.25,-7.33 14.13,-10.55 7.89,-5.2 16.88,-7.68 26.05,-7.19 0.71,0.36 1.41,0.74 2.09,1.15 C 53.28,5.7 52.81,5.66 52.34,5.63 43.12,4.97 34.06,7.39 26.14,12.61 Z"
   class="fil0" />
    <path
   style="fill:#12bdeb;fill-rule:nonzero"
   id="path15"
   d="M 25.76,15.62 C 19.78,19.91 14.09,24.73 8.58,29.57 8.81,28.93 9.05,28.29 9.29,27.65 14.4,23.19 19.67,18.79 25.19,14.82 33.23,9.05 42.44,6.39 51.84,7.14 c 1.75,0.14 3.49,0.4 5.2,0.77 0.66,0.48 1.3,0.97 1.93,1.48 -2.35,-0.65 -4.76,-1.09 -7.2,-1.28 -9.16,-0.72 -18.15,1.87 -26,7.51 z"
   class="fil0" />
    <path
   style="fill:#12bdeb;fill-rule:nonzero"
   id="path17"
   d="M 25.4,18.62 C 19.06,23.55 13.06,29.02 7.26,34.3 7.13,34.42 7,34.53 6.87,34.65 7.07,34.03 7.27,33.4 7.47,32.78 13.01,27.73 18.73,22.55 24.79,17.84 32.76,11.65 41.92,8.8 51.28,9.61 c 3.77,0.33 7.44,1.25 10.89,2.72 0.59,0.6 1.15,1.22 1.7,1.86 C 59.92,12.21 55.63,10.97 51.2,10.59 42.09,9.8 33.17,12.57 25.4,18.62 Z"
   class="fil0" />
    <path
   style="fill:#12bdeb;fill-rule:nonzero"
   id="path19"
   d="m 25.03,21.63 c -5.27,4.41 -10.28,9.15 -15.13,13.74 -1.51,1.43 -3,2.84 -4.49,4.23 0.17,-0.61 0.34,-1.21 0.52,-1.83 1.09,-1.03 2.19,-2.07 3.3,-3.11 4.86,-4.6 9.88,-9.35 15.17,-13.78 7.91,-6.62 17.01,-9.65 26.33,-8.77 5.76,0.54 11.23,2.59 16,5.91 0.47,0.72 0.91,1.46 1.33,2.22 C 63.01,16.18 57,13.69 50.64,13.09 41.59,12.23 32.73,15.19 25.03,21.64 Z"
   class="fil0" />
    <path
   style="fill:#12bdeb;fill-rule:nonzero"
   id="path21"
   d="M 49.93,15.55 C 41.1,14.7 32.13,17.93 24.66,24.63 20.19,28.64 15.92,32.87 11.79,36.95 9.21,39.5 6.67,42 4.16,44.4 c 0.15,-0.59 0.3,-1.18 0.45,-1.78 2.15,-2.06 4.31,-4.2 6.5,-6.36 4.14,-4.09 8.42,-8.33 12.91,-12.35 7.68,-6.89 16.91,-10.21 26.01,-9.33 7.62,0.73 14.63,4.27 20.11,10.06 0.39,0.95 0.77,1.88 1.13,2.77 C 65.73,20.54 58.2,16.34 49.94,15.55 Z"
   class="fil0" />
    <path
   style="fill:#12bdeb;fill-rule:nonzero"
   id="path23"
   d="m 49.47,18.05 c -8.81,-0.94 -17.76,2.47 -25.18,9.6 -3.85,3.69 -7.54,7.52 -11.11,11.22 -3.42,3.54 -6.77,7.02 -10.12,10.21 0.13,-0.57 0.26,-1.15 0.39,-1.73 2.98,-2.9 5.98,-6 9.02,-9.16 3.58,-3.71 7.28,-7.54 11.14,-11.25 7.64,-7.33 16.86,-10.83 25.96,-9.86 8.89,0.95 16.81,5.96 22.32,14.11 0.58,0.86 1.17,1.68 1.76,2.47 0.36,0.99 0.69,1.94 1,2.86 -1.2,-1.46 -2.4,-3.05 -3.57,-4.78 C 65.74,23.83 58.07,18.97 49.47,18.06 Z"
   class="fil0" />
    <path
   style="fill:#12bdeb;fill-rule:nonzero"
   id="path25"
   d="m 48.99,20.54 c -8.79,-1.02 -17.7,2.57 -25.07,10.11 -3.35,3.42 -6.58,6.93 -9.7,10.33 -4.09,4.45 -8.09,8.8 -12.1,12.64 C 2.23,53.07 2.34,52.5 2.46,51.93 6.11,48.35 9.77,44.37 13.5,40.31 16.63,36.91 19.86,33.39 23.22,29.96 30.81,22.2 40,18.51 49.1,19.56 c 8.89,1.03 16.68,6.38 21.94,15.08 1.72,2.84 3.51,5.29 5.3,7.4 0.19,0.71 0.37,1.42 0.54,2.11 C 74.62,41.67 72.36,38.7 70.2,35.14 65.1,26.71 57.57,21.52 48.98,20.53 Z"
   class="fil0" />
    <path
   style="fill:#12bdeb;fill-rule:nonzero"
   id="path27"
   d="M 48.48,23.03 C 39.71,21.94 30.86,25.72 23.54,33.66 20.6,36.85 17.75,40.1 15,43.24 10.24,48.67 5.76,53.79 1.3,58.09 1.39,57.56 1.49,57.01 1.59,56.45 5.7,52.38 9.87,47.63 14.27,42.61 c 2.76,-3.15 5.61,-6.4 8.56,-9.6 7.54,-8.18 16.69,-12.06 25.78,-10.93 8.78,1.09 16.65,6.94 21.59,16.05 2.44,4.49 5.08,8.04 7.66,10.83 0.09,0.57 0.18,1.15 0.27,1.73 -2.96,-3.03 -6,-6.98 -8.78,-12.1 C 64.56,29.76 56.96,24.1 48.5,23.05 Z"
   class="fil0" />
    <path
   style="fill:#12bdeb;fill-rule:nonzero"
   id="path29"
   d="M 68.46,42 C 63.9,32.65 56.43,26.64 47.95,25.52 39.22,24.37 30.41,28.33 23.17,36.66 20.57,39.65 18.05,42.68 15.6,45.6 10.4,51.83 5.52,57.68 0.63,62.39 0.7,61.89 0.78,61.36 0.86,60.8 c 4.55,-4.51 9.13,-10 13.99,-15.82 2.44,-2.93 4.97,-5.96 7.58,-8.96 7.47,-8.59 16.58,-12.67 25.65,-11.47 8.8,1.16 16.55,7.36 21.26,17.02 2.91,5.96 6.2,10.31 9.28,13.47 0.05,0.51 0.09,1.02 0.13,1.54 C 75.29,53.23 71.65,48.55 68.46,42 Z"
   class="fil0" />
    <path
   style="fill:#12bdeb;fill-rule:nonzero"
   id="path31"
   d="M 67.59,45.42 C 63.25,35.53 55.9,29.18 47.42,28.01 c -4.18,-0.58 -8.4,0.09 -12.55,1.98 -4.36,1.99 -8.42,5.25 -12.07,9.68 -2.31,2.81 -4.56,5.64 -6.74,8.37 C 10.55,54.97 5.38,61.47 0.17,66.51 0.19,66.26 0.21,66 0.23,65.75 0.25,65.52 0.28,65.27 0.31,65 5.2,60.13 10.09,53.98 15.3,47.43 c 2.18,-2.74 4.43,-5.57 6.75,-8.39 3.74,-4.55 7.92,-7.89 12.42,-9.95 4.32,-1.97 8.73,-2.67 13.09,-2.06 8.83,1.22 16.46,7.78 20.94,17.99 3.23,7.38 7.07,12.37 10.52,15.71 0.02,0.44 0.03,0.91 0.05,1.38 -3.71,-3.41 -7.94,-8.67 -11.46,-16.7 z"
   class="fil0" />
    <path
   style="fill:#12bdeb;fill-rule:nonzero"
   id="path33"
   d="M 66.72,48.85 C 62.6,38.41 55.37,31.72 46.86,30.5 38.33,29.27 29.42,33.71 22.42,42.68 20.36,45.32 18.35,47.98 16.4,50.54 10.72,58.03 5.39,65.05 0,70.34 0,69.87 0.01,69.4 0.03,68.93 c 5.1,-5.15 10.18,-11.85 15.6,-18.98 1.95,-2.57 3.96,-5.23 6.03,-7.87 7.22,-9.26 16.46,-13.83 25.35,-12.55 8.86,1.28 16.38,8.19 20.63,18.96 3.44,8.73 7.73,14.22 11.43,17.63 -0.01,0.42 -0.02,0.85 -0.04,1.28 -3.93,-3.44 -8.6,-9.17 -12.3,-18.55 z"
   class="fil0" />
    <path
   style="fill:#12bdeb;fill-rule:nonzero"
   id="path35"
   d="m 21.26,45.11 c 7.15,-9.64 16.33,-14.42 25.19,-13.09 8.9,1.33 16.3,8.6 20.32,19.93 3.54,9.97 8.17,15.84 12.01,19.25 -0.04,0.4 -0.08,0.79 -0.12,1.19 C 74.61,68.96 69.6,62.88 65.84,52.28 61.94,41.29 54.82,34.26 46.29,32.99 37.8,31.72 28.96,36.35 22.03,45.69 20.19,48.18 18.38,50.67 16.64,53.08 10.91,60.99 5.55,68.39 0.09,73.9 0.06,73.46 0.04,73.02 0.02,72.57 5.21,67.19 10.36,60.08 15.85,52.51 17.6,50.1 19.4,47.6 21.25,45.11 Z"
   class="fil0" />
    <path
   style="fill:#12bdeb;fill-rule:nonzero"
   id="path37"
   d="M 20.87,48.13 C 27.94,38.11 37.05,33.14 45.89,34.5 c 8.93,1.38 16.23,9 20.03,20.91 3.5,11 8.34,17.16 12.24,20.56 -0.07,0.37 -0.14,0.74 -0.21,1.1 C 71.07,71.32 67.12,62.38 65,55.71 61.32,44.17 54.31,36.79 45.75,35.47 37.3,34.17 28.53,38.99 21.68,48.7 20.03,51.04 18.41,53.39 16.84,55.65 11.17,63.84 5.86,71.52 0.43,77.21 0.38,76.79 0.33,76.37 0.28,75.94 5.46,70.37 10.58,62.98 16.03,55.09 c 1.57,-2.27 3.19,-4.62 4.85,-6.96 z"
   class="fil0" />
    <path
   style="fill:#12bdeb;fill-rule:nonzero"
   id="path39"
   d="m 20.48,51.16 c 6.99,-10.4 16.05,-15.56 24.84,-14.17 8.97,1.42 16.16,9.39 19.73,21.88 1.93,6.76 5.56,15.77 12.03,21.51 -0.11,0.34 -0.22,0.67 -0.33,1 C 69.9,75.5 66.11,66.14 64.11,59.14 60.65,47.04 53.75,39.32 45.17,37.96 36.76,36.63 28.06,41.64 21.29,51.71 c -1.48,2.2 -2.94,4.4 -4.35,6.54 C 11.41,66.61 6.22,74.46 0.91,80.31 0.83,79.91 0.77,79.51 0.7,79.1 5.77,73.37 10.82,65.73 16.13,57.71 17.54,55.58 19,53.37 20.48,51.17 Z"
   class="fil0" />
    <path
   style="fill:#12bdeb;fill-rule:nonzero"
   id="path41"
   d="m 1.75,81.19 c 2.85,5.55 11.6,12.91 24.06,15.97 8.87,2.17 22.31,2.75 35.88,-6.85 4.33,-3.06 8.91,-4.04 12.8,-4.13 -0.19,0.33 -0.37,0.66 -0.57,0.99 -3.6,0.17 -7.74,1.16 -11.66,3.93 -9.01,6.38 -17.96,8.36 -25.62,8.36 -4.13,0 -7.88,-0.58 -11.06,-1.36 C 13.46,95.13 4.75,88.13 1.38,82.51 1.27,82.01 1.16,81.5 1.06,81 1.08,80.99 1.09,80.98 1.1,80.97 1.34,80.85 1.63,80.94 1.76,81.18 Z"
   class="fil0" />
    <path
   style="fill:#12bdeb;fill-rule:nonzero"
   id="path43"
   d="m 25.87,99.7 c 8.89,2.02 22.35,2.49 36.02,-6.76 3.79,-2.56 7.7,-3.8 11.19,-4.32 -0.22,0.36 -0.43,0.73 -0.65,1.09 -3.15,0.57 -6.62,1.76 -9.99,4.04 -5.8,3.92 -12.11,6.46 -18.76,7.53 -2.43,0.39 -4.89,0.59 -7.35,0.59 -3.54,0 -7.11,-0.41 -10.67,-1.21 C 16.73,98.63 8.47,94.12 3.07,88.54 2.83,87.8 2.59,87.07 2.38,86.32 7.54,92.46 16.31,97.53 25.88,99.7 Z"
   class="fil0" />
    <path
   style="fill:#12bdeb;fill-rule:nonzero"
   id="path45"
   d="m 43.61,102.73 c 6.54,-1.05 12.75,-3.45 18.47,-7.15 3.14,-2.03 6.32,-3.32 9.27,-4.11 -0.25,0.41 -0.5,0.82 -0.76,1.23 -2.57,0.78 -5.29,1.96 -7.99,3.7 -8.04,5.2 -17.22,7.89 -26.6,7.89 -3.52,0 -7.07,-0.38 -10.6,-1.15 -7.72,-1.68 -14.95,-5.16 -20.56,-9.72 -0.25,-0.63 -0.5,-1.27 -0.73,-1.9 5.65,5.02 13.29,8.88 21.5,10.66 6.01,1.31 12.07,1.49 18,0.54 z"
   class="fil0" />
    <path
   style="fill:#12bdeb;fill-rule:nonzero"
   id="path47"
   d="m 62.28,98.22 c 2.38,-1.47 4.76,-2.6 7.05,-3.46 -0.29,0.46 -0.58,0.93 -0.87,1.39 -1.85,0.77 -3.76,1.72 -5.67,2.9 -8.22,5.08 -17.53,7.7 -27.01,7.7 -3.81,0 -7.64,-0.42 -11.45,-1.28 C 17.87,104.02 11.88,101.43 6.76,97.96 6.72,97.87 6.68,97.78 6.64,97.69 6.41,97.18 6.19,96.67 5.97,96.15 c 5.34,3.9 11.75,6.83 18.57,8.36 13.02,2.92 26.42,0.69 37.73,-6.3 z"
   class="fil0" />
    <path
   style="fill:#12bdeb;fill-rule:nonzero"
   id="path49"
   d="m 62.47,100.87 c 1.53,-0.9 3.05,-1.69 4.54,-2.39 -0.31,0.51 -0.62,1.01 -0.92,1.51 -1.03,0.51 -2.07,1.08 -3.12,1.7 -8.4,4.96 -17.87,7.52 -27.47,7.52 -3.7,0 -7.43,-0.38 -11.12,-1.15 -5.62,-1.18 -10.95,-3.24 -15.76,-6.03 -0.25,-0.52 -0.49,-1.04 -0.74,-1.57 5.02,3.11 10.69,5.4 16.69,6.65 13,2.72 26.45,0.51 37.89,-6.24 z"
   class="fil0" />
    <path
   style="fill:#12bdeb;fill-rule:nonzero"
   id="path51"
   d="m 62.67,103.49 c 0.66,-0.37 1.32,-0.73 1.98,-1.07 -0.32,0.54 -0.62,1.08 -0.92,1.6 -0.19,0.11 -0.38,0.21 -0.58,0.32 -8.6,4.85 -18.25,7.36 -27.95,7.36 -3.59,0 -7.19,-0.34 -10.75,-1.04 -4.83,-0.94 -9.44,-2.51 -13.73,-4.62 -0.29,-0.5 -0.57,-1.01 -0.84,-1.52 4.56,2.41 9.53,4.17 14.76,5.19 12.94,2.53 26.45,0.32 38.04,-6.21 z"
   class="fil0" />
    <path
   style="fill:#12bdeb;fill-rule:nonzero"
   id="path53"
   d="m 62.48,106.33 c -0.26,0.51 -0.5,1 -0.72,1.47 -8.42,4.22 -17.68,6.4 -26.91,6.4 -3.46,0 -6.93,-0.31 -10.34,-0.93 -3.86,-0.7 -7.57,-1.78 -11.1,-3.21 -0.39,-0.5 -0.77,-1.02 -1.13,-1.54 3.91,1.72 8.06,3 12.4,3.79 12.72,2.31 26.13,0.19 37.8,-5.98 z"
   class="fil0" />
    <path
   style="fill:#12bdeb;fill-rule:nonzero"
   id="path55"
   d="m 60.91,109.81 c 0,0 0,0 0,0 -0.17,0.46 -0.39,0.92 -0.67,1.38 -8.2,3.64 -17.04,5.52 -25.77,5.52 -3.33,0 -6.64,-0.27 -9.89,-0.82 -2.41,-0.41 -4.76,-0.96 -7.05,-1.66 -0.65,-0.52 -1.26,-1.06 -1.84,-1.62 2.92,1.01 5.95,1.79 9.06,2.32 11.99,2.03 24.74,0.21 36.17,-5.11 z"
   class="fil0" />
    <path
   style="fill:#12bdeb;fill-rule:nonzero"
   id="path57"
   d="m 58.28,113.58 c -0.7,0.67 -1.52,1.33 -2.44,1.94 -7.12,2.45 -14.53,3.71 -21.8,3.71 -2.48,0 -4.95,-0.15 -7.38,-0.45 -1.7,-0.49 -3.23,-1.08 -4.62,-1.75 0.91,0.19 1.83,0.36 2.76,0.51 10.91,1.72 22.62,0.31 33.48,-3.96 z"
   class="fil0" />
    <path
   style="fill:#12bdeb;fill-rule:nonzero"
   id="path59"
   d="m 65.42,70 -0.18,-0.43 c -0.58,-1.35 -1.36,-3.75 -2.26,-6.54 -1.42,-4.36 -3.02,-9.3 -4.39,-11.9 -2.31,-4.36 -4.6,-7.24 -10.12,-9.96 -4.98,-2.45 -9.7,-2.11 -15.31,1.12 -4.79,2.76 -16.67,19.55 -16.79,19.71 -0.16,0.22 -0.46,0.27 -0.68,0.12 -0.22,-0.16 -0.27,-0.46 -0.12,-0.68 0.49,-0.7 12.12,-17.13 17.1,-20 5.84,-3.36 11,-3.73 16.23,-1.15 5.76,2.84 8.15,5.84 10.55,10.38 1.41,2.67 3.03,7.66 4.46,12.05 0.9,2.76 1.67,5.15 2.23,6.46 l 0.18,0.43 c 1.32,3.09 4.99,11.71 9.53,14.01 -0.14,0.3 -0.28,0.59 -0.43,0.87 -4.87,-2.46 -8.5,-10.99 -10,-14.5 z"
   class="fil0" />
    <path
   style="fill:#12bdeb;fill-rule:nonzero"
   id="path61"
   d="m 63.35,87.93 c -0.18,0.12 -0.38,0.26 -0.6,0.41 -2.67,1.83 -8.93,6.12 -17.61,8.09 -3.07,0.7 -6.15,1.05 -9.24,1.05 -7.77,0 -15.56,-2.21 -23.27,-6.6 L 12.6,90.86 C 12.28,90.64 4.66,85.39 2.68,80.08 2.59,79.83 2.71,79.55 2.97,79.45 c 0.25,-0.09 0.53,0.04 0.63,0.29 1.83,4.91 9.15,10.04 9.54,10.31 10.55,6.01 21.24,7.84 31.79,5.44 8.49,-1.93 14.64,-6.14 17.27,-7.94 0.23,-0.16 0.43,-0.3 0.61,-0.42 4.22,-2.84 4.83,-8.54 4.83,-8.59 0.03,-0.27 0.26,-0.46 0.53,-0.44 0.27,0.03 0.47,0.26 0.44,0.53 -0.02,0.25 -0.64,6.21 -5.26,9.31 z"
   class="fil0" />
    <path
   style="fill:#12bdeb;fill-rule:nonzero"
   id="path63"
   d="m 4.23,77.58 c 0.25,-0.1 0.54,0.03 0.63,0.28 0.65,1.67 3.47,5.49 6.47,8.31 7.45,7 17.57,8.04 30.49,7.45 12.57,-0.57 21.7,-10.9 22.82,-15.18 0.85,-3.22 -0.54,-6.5 -2.15,-10.3 -0.6,-1.41 -1.22,-2.87 -1.75,-4.41 -0.45,-1.28 -0.78,-2.7 -1.12,-4.21 -1.22,-5.26 -2.61,-11.21 -9.49,-15.44 -6.02,-3.7 -11.56,-3.34 -17.43,1.11 -4.74,3.6 -11.07,12.03 -13.36,16.9 -1.21,2.58 -0.32,9.6 -0.08,10.26 0.11,0.24 0.01,0.52 -0.23,0.64 -0.24,0.12 -0.53,0.02 -0.65,-0.22 -0.28,-0.55 -1.32,-8.13 0.08,-11.1 2.33,-4.96 8.81,-13.58 13.66,-17.26 6.15,-4.67 12.21,-5.05 18.54,-1.17 7.24,4.44 8.73,10.88 9.93,16.05 0.34,1.48 0.67,2.88 1.09,4.11 0.52,1.51 1.13,2.95 1.73,4.35 1.61,3.8 3.12,7.38 2.19,10.93 -1.39,5.29 -11.46,15.35 -23.72,15.91 -1.95,0.09 -3.85,0.14 -5.68,0.14 -10.49,0 -18.97,-1.7 -25.52,-7.86 C 7.54,83.92 4.67,80 3.97,78.2 3.87,77.95 4,77.66 4.25,77.57 Z"
   class="fil0" />
    <path
   style="fill:#12bdeb;fill-rule:nonzero"
   id="path65"
   d="M 31.02,77.77 C 29.04,77 27.7,75.73 27.14,74.09 25.77,70.14 24.81,54.31 32.56,46.41 c 0.19,-0.19 0.5,-0.2 0.69,-0.01 0.19,0.19 0.2,0.5 0.01,0.69 -3.92,3.99 -5.33,10.1 -5.82,14.52 -0.57,5.15 -0.12,10.01 0.62,12.16 0.59,1.71 2.13,2.62 3.32,3.09 2.99,1.17 6.94,0.84 10.07,-0.83 2.03,-1.09 4.5,-4.57 4.95,-8.02 0.48,-3.69 0.48,-5.26 -1.47,-8.3 -0.45,-0.7 -1.01,-1.11 -1.72,-1.25 -1.65,-0.32 -3.49,0.95 -3.53,0.98 -0.22,0.16 -0.52,0.1 -0.68,-0.12 -0.16,-0.22 -0.1,-0.53 0.12,-0.68 0.09,-0.06 2.21,-1.54 4.27,-1.14 0.97,0.19 1.77,0.75 2.36,1.68 2.11,3.29 2.11,5.16 1.62,8.95 -0.5,3.86 -3.23,7.55 -5.46,8.75 -2.02,1.08 -4.36,1.64 -6.62,1.64 -1.51,0 -2.97,-0.25 -4.27,-0.76 z"
   class="fil0" />
    <path
   style="fill:#12bdeb;fill-rule:nonzero"
   id="path67"
   d="m 5.38,76.28 c 0.23,-0.14 0.53,-0.06 0.67,0.17 1.04,1.75 3.9,6 5.79,7.88 6.39,6.39 19.63,7.23 25.99,7.63 0.66,0.04 1.26,0.08 1.77,0.12 4.91,0.37 11.91,-2.88 19.18,-8.92 4.24,-3.52 4.98,-8.17 2.14,-13.43 -1.18,-2.17 -2.5,-6.69 -3.57,-10.32 l -0.19,-0.64 c -0.72,-2.43 -3.03,-6.95 -10.45,-9.86 -5.58,-2.19 -9.45,3 -11.71,7.74 -1.82,3.82 -0.93,8.99 1.92,11.05 1.01,0.73 2.18,0.82 3.29,0.24 1.77,-0.91 2.93,-3.16 2.9,-5.58 -0.01,-0.62 -0.12,-1.4 -0.59,-1.62 -0.83,-0.38 -2.67,0.85 -3.43,1.51 -0.2,0.17 -0.51,0.15 -0.69,-0.05 -0.18,-0.2 -0.15,-0.51 0.05,-0.69 0.29,-0.25 2.84,-2.39 4.47,-1.66 0.75,0.34 1.15,1.18 1.16,2.49 0.04,2.78 -1.34,5.38 -3.42,6.46 -1.43,0.74 -3,0.63 -4.31,-0.32 -3.25,-2.36 -4.27,-7.97 -2.23,-12.26 3.5,-7.33 7.97,-10.18 12.95,-8.23 7.81,3.06 10.26,7.89 11.03,10.49 l 0.19,0.64 c 1.06,3.58 2.37,8.04 3.49,10.13 3.09,5.72 2.27,10.79 -2.38,14.64 -4.21,3.49 -12.11,9.18 -18.99,9.18 -0.3,0 -0.6,-0.01 -0.89,-0.03 C 39.01,93 38.42,92.96 37.76,92.92 31.28,92.51 17.79,91.65 11.14,85 9.2,83.06 6.27,78.72 5.21,76.93 5.07,76.7 5.15,76.4 5.38,76.26 Z"
   class="fil0" />
    <path
   style="fill:#12bdeb;fill-rule:nonzero"
   id="path69"
   d="m 7.24,74.38 c 0.25,-0.1 0.54,0.02 0.63,0.27 1.53,3.86 4.04,6.25 6.7,8.77 6.02,5.71 25.66,7.14 30.59,5.62 4.73,-1.46 12.52,-8.54 14.03,-10.57 1.45,-1.93 1.43,-4.77 -0.04,-7.4 -0.57,-1.02 -1.17,-2.94 -1.86,-5.17 -1.14,-3.66 -2.55,-8.22 -4.45,-10.71 -3.04,-4 -8.46,-5.4 -12.09,-3.13 -3.57,2.24 -6.15,8.34 -4.06,12.28 0.44,0.83 0.91,1.21 1.4,1.21 0,0 0.01,0 0.01,0 1.14,0 2.44,-2.06 2.81,-2.79 0.12,-0.24 0.41,-0.31 0.66,-0.18 0.24,0.12 0.34,0.39 0.22,0.63 -0.17,0.34 -1.74,3.32 -3.67,3.32 -0.01,0 -0.01,0 -0.02,0 -0.88,0 -1.64,-0.55 -2.26,-1.73 -2.38,-4.49 0.46,-11.06 4.4,-13.54 4.04,-2.54 10.04,-1.03 13.38,3.35 2.01,2.63 3.45,7.28 4.61,11.01 0.67,2.17 1.26,4.04 1.78,4.98 1.66,2.98 1.65,6.22 -0.04,8.46 -1.61,2.15 -9.52,9.38 -14.53,10.92 -1.27,0.39 -3.43,0.59 -6.03,0.59 -2.74,0 -5.97,-0.22 -9.14,-0.65 C 25.79,89.31 17.7,87.74 13.89,84.13 11.27,81.65 8.56,79.08 6.96,75.01 6.86,74.76 6.98,74.48 7.23,74.38 Z"
   class="fil0" />
    <path
   style="fill:#12bdeb;fill-rule:nonzero"
   id="path71"
   d="m 44.93,63.59 c -0.01,-0.27 0.2,-0.5 0.47,-0.51 0.27,-0.01 0.5,0.2 0.51,0.47 0.18,4.81 -0.9,8.34 -3.2,10.49 -2.22,2.08 -5.19,2.52 -7.52,2.52 -1.11,0 -2.08,-0.1 -2.75,-0.17 -4.16,-0.43 -4.06,-6.36 -3.99,-9.91 0.01,-0.39 0.02,-0.76 0.02,-1.08 0,-2.31 0.34,-7.06 2.66,-12.88 2.25,-5.66 6.08,-9.22 10.24,-9.52 3.99,-0.29 7.86,0.88 10.88,3.28 2.77,2.21 3.81,5.63 3.85,5.78 0.08,0.26 -0.07,0.53 -0.33,0.61 -0.26,0.08 -0.53,-0.07 -0.61,-0.33 -0.01,-0.03 -0.99,-3.27 -3.52,-5.29 -2.83,-2.25 -6.45,-3.34 -10.2,-3.07 -3.73,0.27 -7.33,3.68 -9.41,8.91 -2.25,5.67 -2.59,10.27 -2.59,12.52 0,0.33 -0.01,0.7 -0.02,1.1 -0.06,3.21 -0.16,8.58 3.12,8.92 3.05,0.31 6.89,0.36 9.51,-2.09 2.08,-1.95 3.06,-5.23 2.89,-9.74 z"
   class="fil0" />
    <path
   style="fill:#12bdeb;fill-rule:nonzero"
   id="path73"
   d="m 42.82,67.83 c 0.27,-0.02 0.5,0.2 0.51,0.46 0.01,0.09 0.09,2.25 -1.64,4.07 -1.52,1.58 -3.91,2.39 -7.1,2.39 -0.04,0 -0.08,0 -0.12,0 -1.34,-0.01 -2.33,-0.36 -3.03,-1.09 -1.31,-1.36 -1.22,-3.71 -1.13,-6.19 0.03,-0.74 0.05,-1.5 0.04,-2.23 -0.07,-4.56 1.66,-11.55 3.7,-14.96 1.18,-1.97 3.84,-3.69 6.79,-4.37 3.34,-0.78 6.71,-0.21 9.49,1.59 0.23,0.15 0.29,0.45 0.14,0.68 -0.15,0.23 -0.45,0.29 -0.68,0.14 -2.56,-1.66 -5.66,-2.18 -8.74,-1.46 -2.7,0.63 -5.12,2.17 -6.17,3.92 -1.96,3.29 -3.63,10.04 -3.56,14.45 0.01,0.76 -0.02,1.53 -0.04,2.28 -0.08,2.27 -0.16,4.42 0.86,5.48 0.5,0.52 1.26,0.78 2.33,0.79 0.04,0 0.08,0 0.11,0 2.91,0 5.05,-0.7 6.38,-2.07 1.45,-1.5 1.39,-3.34 1.39,-3.36 -0.01,-0.27 0.2,-0.5 0.46,-0.51 z"
   class="fil0" />
    <path
   style="fill:#12bdeb;fill-rule:nonzero"
   id="path75"
   d="m 32.36,64.16 c 0.27,-0.03 0.51,0.17 0.53,0.44 0.18,1.94 0.89,3.37 2.1,4.25 2.19,1.6 5.38,0.91 5.41,0.91 0.26,-0.06 0.52,0.11 0.58,0.37 0.06,0.26 -0.11,0.52 -0.37,0.58 -0.07,0.02 -0.83,0.18 -1.88,0.18 -1.25,0 -2.92,-0.23 -4.31,-1.24 -1.45,-1.05 -2.29,-2.72 -2.5,-4.95 -0.02,-0.27 0.17,-0.51 0.44,-0.53 z"
   class="fil0" />
    <path
   style="fill:#12bdeb;fill-rule:nonzero"
   id="path77"
   d="m 8.8,71.83 c 0.27,-0.05 0.52,0.13 0.57,0.39 0.4,2.21 2.91,5.64 5.22,8.05 3.19,3.33 10.23,5.08 15.57,5.96 6.22,1.03 12.03,1.2 13.76,1.07 3.36,-0.26 9.22,-5.41 11.56,-8.22 2.39,-2.87 2.7,-3.89 1.81,-6.1 -1.16,-2.9 -2.68,-7.37 -4.16,-12.24 -1.61,-5.3 -3.97,-6.82 -8.02,-7.91 -3.62,-0.97 -5.75,4.12 -5.77,4.17 -0.1,0.25 -0.38,0.37 -0.64,0.27 -0.25,-0.1 -0.37,-0.38 -0.27,-0.63 0.02,-0.06 0.61,-1.48 1.72,-2.77 1.54,-1.79 3.34,-2.47 5.2,-1.97 4.3,1.16 6.97,2.86 8.7,8.57 1.48,4.85 2.99,9.29 4.14,12.17 1.09,2.73 0.47,4.16 -1.97,7.08 -1.09,1.31 -3.14,3.38 -5.62,5.27 -1.86,1.41 -4.51,3.14 -6.62,3.3 -0.33,0.02 -0.81,0.04 -1.41,0.04 -2.6,0 -7.46,-0.27 -12.59,-1.12 C 24.49,86.31 17.24,84.49 13.86,80.97 11.63,78.64 8.85,75 8.38,72.42 8.33,72.16 8.51,71.9 8.77,71.85 Z"
   class="fil0" />
    <path
   style="fill:#12bdeb;fill-rule:nonzero"
   id="path79"
   d="m 10.59,69.21 c 0,0 0,0 0,0 0.27,0 0.49,0.18 0.49,0.45 0.02,2.43 1.43,4.72 3.54,7.48 2.69,3.51 15.42,7.38 22.36,8.17 6.05,0.69 7.42,-0.33 10.44,-2.57 0.35,-0.26 0.71,-0.53 1.11,-0.81 3.88,-2.81 6.49,-5.23 6.6,-7.9 0.07,-1.72 -0.84,-3.96 -1.73,-6.12 -0.55,-1.34 -1.07,-2.6 -1.37,-3.77 -0.06,-0.24 -0.12,-0.47 -0.18,-0.7 -0.7,-2.76 -1.31,-5.14 -4.11,-7.44 -2.8,-2.3 -5.3,-0.11 -5.41,-0.02 -0.2,0.18 -0.51,0.17 -0.69,-0.04 -0.18,-0.2 -0.17,-0.51 0.03,-0.69 0.03,-0.03 3.22,-2.85 6.68,-0.02 3.05,2.5 3.73,5.15 4.44,7.96 0.06,0.23 0.12,0.46 0.18,0.7 0.29,1.1 0.79,2.34 1.33,3.64 0.93,2.26 1.88,4.6 1.8,6.53 -0.13,3.06 -2.89,5.67 -7,8.65 -0.39,0.28 -0.75,0.55 -1.1,0.81 -2.5,1.86 -4.01,2.98 -7.79,2.98 -0.95,0 -2.05,-0.06 -3.34,-0.21 -7.27,-0.83 -20.14,-4.78 -23.02,-8.54 -1.8,-2.35 -3.72,-5.08 -3.74,-8.09 0,-0.27 0.21,-0.45 0.48,-0.45 z"
   class="fil0" />
    <path
   style="fill:#12bdeb;fill-rule:nonzero"
   id="path81"
   d="m 37.57,83.05 c 5.22,0.87 7.49,-0.21 10.89,-3.12 3.11,-2.67 4.59,-4.82 4.65,-6.78 0.03,-0.96 -0.44,-2.15 -1.08,-3.79 -0.61,-1.56 -1.38,-3.51 -2.08,-6.14 -1.32,-4.95 -3.47,-5.36 -3.56,-5.38 -0.25,-0.02 -0.44,-0.23 -0.44,-0.49 0,-0.27 0.22,-0.49 0.49,-0.49 0.03,0 2.87,0.17 4.46,6.1 0.69,2.57 1.44,4.49 2.04,6.03 0.69,1.75 1.18,3.02 1.15,4.18 -0.07,2.28 -1.61,4.6 -4.99,7.5 -2.79,2.39 -4.94,3.65 -8.4,3.65 -0.98,0 -2.06,-0.1 -3.28,-0.3 -6.07,-1.01 -18.57,-4.13 -22.45,-8.71 -1,-1.19 -3.36,-3.97 -3.15,-7.81 0.02,-0.27 0.25,-0.48 0.51,-0.46 0.27,0.02 0.48,0.24 0.46,0.51 -0.19,3.46 1.98,6.03 2.92,7.13 3.43,4.05 14.95,7.23 21.87,8.38 z"
   class="fil0" />
    <path
   style="fill:#12bdeb;fill-rule:nonzero"
   id="path83"
   d="m 16.08,71.93 c 0.54,1.09 1.01,2.04 8.05,4.99 8.36,3.5 17.65,4.67 20.72,2.61 3.08,-2.07 6.23,-5.15 5.83,-7.57 -0.41,-2.53 -2.2,-6.49 -2.22,-6.53 -0.11,-0.25 0,-0.54 0.24,-0.65 0.25,-0.11 0.54,0 0.65,0.24 0.08,0.17 1.86,4.12 2.29,6.77 0.22,1.36 -0.35,2.89 -1.71,4.55 -1.39,1.7 -3.24,3.11 -4.55,3.99 -1.23,0.83 -3.14,1.19 -5.43,1.19 -4.72,0 -11.03,-1.53 -16.21,-3.7 -7.38,-3.09 -7.9,-4.13 -8.55,-5.45 -0.09,-0.18 -0.18,-0.36 -0.29,-0.54 -1,-1.69 -1.41,-5.91 -0.81,-8.37 0.06,-0.26 0.33,-0.42 0.59,-0.36 0.26,0.06 0.42,0.33 0.36,0.59 -0.53,2.18 -0.17,6.18 0.7,7.64 0.13,0.22 0.23,0.42 0.32,0.61 z"
   class="fil0" />
    <path
   style="fill:#12bdeb;fill-rule:nonzero"
   id="path85"
   d="m 48.61,68.57 c 0.27,-0.04 0.52,0.14 0.56,0.41 0.31,1.95 -0.05,4.85 -1.99,7.11 -1.97,2.31 -5.11,3.48 -9.33,3.48 -0.27,0 -0.49,-0.22 -0.49,-0.49 0,-0.27 0.22,-0.49 0.49,-0.49 3.92,0 6.81,-1.06 8.59,-3.14 1.72,-2.01 2.04,-4.59 1.77,-6.33 -0.04,-0.27 0.14,-0.52 0.41,-0.56 z"
   class="fil0" />
    <path
   style="fill:#12bdeb;fill-rule:nonzero"
   id="path87"
   d="m 26.69,76.82 c -0.14,0 -0.27,-0.06 -0.37,-0.17 -5.5,-6.36 -0.7,-22.44 -0.49,-23.12 0.08,-0.26 0.35,-0.41 0.61,-0.32 0.26,0.08 0.4,0.35 0.32,0.61 -0.05,0.16 -4.85,16.25 0.3,22.2 0.18,0.2 0.15,0.51 -0.05,0.69 -0.09,0.08 -0.21,0.12 -0.32,0.12 z"
   class="fil0" />
    <path
   style="fill:#12bdeb;fill-rule:nonzero"
   id="path89"
   d="m 24.19,76.05 c -0.12,0 -0.24,-0.04 -0.33,-0.13 -3.96,-3.72 -1.13,-17.35 -1.01,-17.93 0.06,-0.26 0.31,-0.43 0.58,-0.38 0.26,0.06 0.43,0.32 0.38,0.58 -0.01,0.03 -0.73,3.49 -0.99,7.33 -0.33,4.98 0.26,8.33 1.71,9.69 0.2,0.18 0.21,0.49 0.02,0.69 -0.1,0.1 -0.23,0.15 -0.36,0.15 z"
   class="fil0" />
    <path
   style="fill:#12bdeb;fill-rule:nonzero"
   id="path91"
   d="m 32.88,69.92 c 0.14,0.62 0.45,1.07 0.95,1.36 1.43,0.84 3.86,0.15 3.89,0.14 0.26,-0.07 0.53,0.07 0.6,0.33 0.08,0.26 -0.07,0.53 -0.33,0.6 -0.07,0.02 -1.09,0.31 -2.28,0.31 -0.79,0 -1.66,-0.13 -2.38,-0.55 -0.74,-0.43 -1.21,-1.1 -1.41,-1.99 -0.06,-0.26 0.11,-0.53 0.37,-0.58 0.26,-0.06 0.52,0.11 0.58,0.37 z"
   class="fil0" />
    <path
   style="fill:#12bdeb;fill-rule:nonzero"
   id="path93"
   d="m 21.97,75.26 c -0.07,0.04 -0.15,0.06 -0.23,0.06 -0.17,0 -0.34,-0.09 -0.43,-0.26 -0.14,-0.25 -3.24,-6.14 -0.6,-14.07 0.08,-0.26 0.36,-0.39 0.62,-0.31 0.26,0.08 0.39,0.36 0.31,0.62 -2.5,7.5 0.51,13.24 0.54,13.29 0.13,0.24 0.04,0.53 -0.2,0.66 z"
   class="fil0" />
    <path
   style="fill:#12bdeb;fill-rule:nonzero"
   id="path95"
   d="m 69.73,79.71 c 0.27,-0.02 0.5,0.2 0.51,0.47 0.01,0.16 0.15,3.99 -1.79,5.75 -0.09,0.08 -0.21,0.13 -0.33,0.13 -0.13,0 -0.26,-0.05 -0.36,-0.16 -0.18,-0.2 -0.17,-0.51 0.03,-0.69 1.6,-1.45 1.47,-4.95 1.47,-4.99 -0.01,-0.27 0.2,-0.5 0.47,-0.51 z"
   class="fil0" />
    <path
   style="fill:#12bdeb;fill-rule:nonzero"
   id="path97"
   d="m 71.39,83.75 c 0.04,-0.26 0.28,-0.44 0.55,-0.41 0.27,0.04 0.45,0.28 0.42,0.55 -0.01,0.08 -0.14,0.81 -1.15,1.64 -0.09,0.08 -0.2,0.11 -0.31,0.11 -0.14,0 -0.28,-0.06 -0.38,-0.18 -0.17,-0.21 -0.14,-0.52 0.07,-0.69 0.69,-0.56 0.8,-1 0.8,-1.03 z"
   class="fil0" />
    <path
   style="fill:#12bdeb;fill-rule:nonzero"
   id="path99"
   d="m 16.58,70.09 c -0.05,0.01 -0.09,0.02 -0.13,0.02 -0.21,0 -0.41,-0.14 -0.47,-0.36 -0.76,-2.69 -0.04,-6.14 -0.01,-6.28 0.06,-0.26 0.32,-0.43 0.58,-0.38 0.26,0.06 0.43,0.32 0.38,0.58 -0.01,0.03 -0.7,3.36 -0.01,5.82 0.07,0.26 -0.08,0.53 -0.34,0.6 z"
   class="fil0" />
   </g>
  </g>
 </g>
</svg>