<?xml version="1.0" encoding="UTF-8"?>
<!DOCTYPE svg PUBLIC "-//W3C//DTD SVG 1.1//EN" "http://www.w3.org/Graphics/SVG/1.1/DTD/svg11.dtd">
<!-- Creator: CorelDRAW 2019 (64 Bit) -->
<svg xmlns="http://www.w3.org/2000/svg" xml:space="preserve" width="9.144mm" height="9.1439mm" version="1.1" style="shape-rendering:geometricPrecision; text-rendering:geometricPrecision; image-rendering:optimizeQuality; fill-rule:evenodd; clip-rule:evenodd"
viewBox="0 0 153.26 153.26"
 xmlns:xlink="http://www.w3.org/1999/xlink"
 xmlns:xodm="http://www.corel.com/coreldraw/odm/2003">
 <defs>
  <style type="text/css">
   <![CDATA[
    .fil1 {fill:#FF8100}
    .fil0 {fill:white}
   ]]>
  </style>
 </defs>
 <g id="Camada_x0020_1">
  <metadata id="CorelCorpID_0Corel-Layer"/>
  <g id="_2470180422896">
   <circle class="fil0" cx="76.63" cy="76.63" r="76.63"/>
   <path class="fil1" d="M105.52 77l0 -11.95 -24.08 0 -5.47 4.45c-0.27,0.25 -0.63,0.37 -1,0.37l-9.35 0c-0.62,1.82 -2.33,3.11 -4.36,3.11 -2.56,0 -4.61,-2.05 -4.61,-4.61 0,-2.56 2.04,-4.61 4.61,-4.61 1.99,0 3.7,1.28 4.34,3.05l8.86 0 5.47 -4.45c0.27,-0.25 0.63,-0.37 0.99,-0.37l24.6 0 0 -11.95 -2.81 0 -5.38 3.48c-0.23,0.17 -0.55,0.27 -0.82,0.27l-3.96 0c-0.44,2.09 -2.28,3.65 -4.51,3.65 -2.56,0 -4.61,-2.05 -4.61,-4.61 0,-2.56 2.04,-4.61 4.61,-4.61 1.78,0 3.34,1.03 4.1,2.52l3.89 0 5.42 -3.51c0.03,-0.02 0.05,-0.03 0.08,-0.05 0.25,-0.13 0.47,-0.2 0.76,-0.2l3.22 0 0 -7.07 -60.46 -0.05 -0.05 62.64 60.5 0.05 0 -7.5 -13.72 0c-0.26,0 -0.47,-0.08 -0.7,-0.2 -0.01,-0.01 -0.02,-0.01 -0.04,-0.02l-6.45 -3.59 -9.35 0c-0.62,1.82 -2.33,3.11 -4.36,3.11 -2.56,0 -4.61,-2.04 -4.61,-4.61 0,-2.56 2.04,-4.61 4.61,-4.61 1.99,0 3.7,1.28 4.34,3.05l9.75 0c0.26,0 0.47,0.08 0.7,0.2 0.01,0.01 0.02,0.01 0.04,0.02l6.45 3.59 13.34 0 0 -11.95 -12.56 0c-0.6,1.85 -2.32,3.16 -4.38,3.16 -2.56,0 -4.61,-2.04 -4.61,-4.61 0,-2.56 2.04,-4.61 4.61,-4.61 1.97,0 3.66,1.25 4.32,3l12.62 0zm-34.62 10.34c1.33,0 2.41,1.08 2.41,2.41 0,1.33 -1.08,2.41 -2.41,2.41 -1.33,0 -2.41,-1.08 -2.41,-2.41 0,-1.33 1.08,-2.41 2.41,-2.41zm17.68 -11.15c1.33,0 2.41,1.08 2.41,2.41 0,1.33 -1.08,2.41 -2.41,2.41 -1.33,0 -2.41,-1.08 -2.41,-2.41 0,-1.33 1.08,-2.41 2.41,-2.41zm-27.33 -10.24c1.33,0 2.41,1.08 2.41,2.41 0,1.33 -1.08,2.41 -2.41,2.41 -1.33,0 -2.41,-1.08 -2.41,-2.41 0,-1.33 1.08,-2.41 2.41,-2.41zm26.79 -15.54c1.33,0 2.41,1.08 2.41,2.41 0,1.33 -1.08,2.41 -2.41,2.41 -1.33,0 -2.41,-1.08 -2.41,-2.41 0,-1.33 1.08,-2.41 2.41,-2.41zm20.79 26.58l12.81 0c0.47,0 0.86,0.39 0.86,0.86l0 1.34c0,0.47 -0.39,0.86 -0.86,0.86l-12.81 0 0 11.95 12.7 0c0.47,0 0.86,0.39 0.86,0.86l0 1.34c0,0.47 -0.39,0.86 -0.86,0.86l-12.7 0 0 7.5c0,1.81 -1.45,3.27 -3.27,3.27l-4.77 0 0 9.97c0,0.47 -0.38,0.86 -0.86,0.86l-1.34 0c-0.47,0 -0.86,-0.38 -0.86,-0.86l0 -9.97 -11.95 0 0 9.97c0,0.47 -0.39,0.86 -0.86,0.86l-1.34 0c-0.47,0 -0.86,-0.38 -0.86,-0.86l0 -9.97 -11.95 0 0 9.97c0,0.47 -0.39,0.86 -0.86,0.86l-1.34 0c-0.47,0 -0.86,-0.38 -0.86,-0.86l0 -9.97 -11.95 0 0 9.97c0,0.47 -0.39,0.86 -0.86,0.86l-1.34 0c-0.47,0 -0.86,-0.38 -0.86,-0.86l0 -9.97 -7.72 0c-1.81,0 -3.27,-1.46 -3.27,-3.27l0 -7.5 -10.13 0c-0.47,0 -0.86,-0.38 -0.86,-0.86l0 -1.34c0,-0.47 0.38,-0.86 0.86,-0.86l10.13 0 0 -11.95 -10.13 0c-0.47,0 -0.86,-0.39 -0.86,-0.86l0 -1.34c0,-0.47 0.38,-0.86 0.86,-0.86l10.13 0 0 -11.95 -10.13 0c-0.47,0 -0.86,-0.39 -0.86,-0.86l0 -1.34c0,-0.47 0.38,-0.86 0.86,-0.86l10.13 0 0 -11.95 -10.13 0c-0.47,0 -0.86,-0.38 -0.86,-0.86l0 -1.34c0,-0.47 0.38,-0.86 0.86,-0.86l10.13 0 0 -7.13c0,-1.81 1.46,-3.27 3.27,-3.27l60.56 0c1.81,0 3.27,1.46 3.27,3.27l0 7.13 12.65 0c0.47,0 0.86,0.39 0.86,0.86l0 1.34c0,0.47 -0.39,0.86 -0.86,0.86l-12.65 0 0 11.95 12.7 0c0.47,0 0.86,0.39 0.86,0.86l0 1.34c0,0.47 -0.39,0.86 -0.86,0.86l-12.7 0 0 11.95z"/>
  </g>
 </g>
</svg>
