<?xml version="1.0" encoding="UTF-8"?>
<!DOCTYPE svg PUBLIC "-//W3C//DTD SVG 1.1//EN" "http://www.w3.org/Graphics/SVG/1.1/DTD/svg11.dtd">
<!-- Creator: CorelDRAW 2019 (64 Bit) -->
<svg xmlns="http://www.w3.org/2000/svg" xml:space="preserve" width="9.144mm" height="9.1439mm" version="1.1" style="shape-rendering:geometricPrecision; text-rendering:geometricPrecision; image-rendering:optimizeQuality; fill-rule:evenodd; clip-rule:evenodd"
viewBox="0 0 716.84 716.84"
 xmlns:xlink="http://www.w3.org/1999/xlink"
 xmlns:xodm="http://www.corel.com/coreldraw/odm/2003">
 <defs>
  <style type="text/css">
   <![CDATA[
    .fil1 {fill:#FF8100}
    .fil0 {fill:white}
   ]]>
  </style>
 </defs>
 <g id="Camada_x0020_1">
  <metadata id="CorelCorpID_0Corel-Layer"/>
  <g id="_2471084255344">
   <ellipse class="fil0" cx="358.42" cy="358.42" rx="358.43" ry="358.42"/>
   <g>
    <path class="fil1" d="M274.86 441.31l167.12 0c-2.32,27.82 -24.06,87.68 -47.18,110.79 -21.93,21.93 -44.41,22.38 -68.29,3.53 -1.83,-1.44 -1.93,-1.19 -3.88,-2.99 -2.7,-2.47 -3.18,-4.04 -5.72,-6.87 -21.02,-23.55 -38.11,-73.68 -42.06,-104.46zm135.07 121.33c0.82,-3.07 11.46,-13.86 17.54,-24.82 11.67,-21.06 19.1,-37.59 25.72,-61.27 2.24,-8.02 7.67,-28.19 8.26,-35.25l90.43 0c-1.81,3.77 -2.9,6.97 -4.96,11.07 -13.63,27.09 -16.89,27.9 -33.29,49.11 -4.87,6.29 -11.23,11.14 -16.96,16.24 -3.26,2.9 -5.2,4.59 -8.62,7.41 -16.87,13.89 -58.76,35.89 -78.11,37.5zm-244.95 -121.33l90.43 0c0.45,5.5 2.39,11.59 3.53,17.07 14.13,68.18 46.94,100.34 47.98,104.26 -7.1,-0.59 -18.09,-5.06 -24.52,-7.53 -4.99,-1.9 -6.82,-2.41 -11.34,-4.69l-21.84 -11.35c-35.62,-23.63 -59.29,-46.62 -78.91,-85.93 -2.11,-4.23 -3.33,-8.07 -5.32,-11.84zm-53.8 -29.76l0 -105.31c0,-8.18 3.26,-11.45 11.45,-11.45l471.6 0c8.18,0 11.45,3.26 11.45,11.45l0 105.31c0,8.18 -3.26,11.45 -11.45,11.45l-471.6 0c-8.18,0 -11.45,-3.26 -11.45,-11.45zm247.25 -263.27c26.29,0 47.13,26.99 57.63,47.68 8.58,16.89 16.39,38.81 21.13,57.86 1.61,6.49 4.25,16.04 4.81,22.66l-167.12 0c0,-10.93 7.46,-33.11 10.06,-42.59 8.63,-31.48 35.52,-85.61 73.5,-85.61zm50.36 5.72c15.77,3.68 34.54,10.17 48.45,17.95 25.17,14.09 45.17,29.7 63.47,52.14 8.01,9.82 27.98,38.7 31.17,52.38l-90.43 0c-1.19,-14.31 -13.77,-54.55 -19.49,-67.5 -6.89,-15.6 -13.06,-28.43 -23.17,-42.07 -3.71,-4.99 -6.6,-7.83 -10,-12.9zm-153.38 122.48l-90.43 0c1.07,-4.63 8.04,-17.6 10.68,-22.52 3.73,-6.95 8.4,-14.04 13.02,-20.17 29.89,-39.65 67.57,-67.72 119.38,-79.79 -3.47,5.17 -10.7,12.36 -18.55,24.95 -13.27,21.31 -33.6,75.02 -34.1,97.53zm-111.04 0c-6.48,0 -12.98,0.03 -19.47,-0.02 -18.82,-0.13 -32.03,11.01 -32.03,26.35l0 114.46c0,3.54 3.77,10.45 5.52,12.79 7.35,9.87 15.92,11.32 26.52,11.25 6.49,-0.04 12.98,-0.01 19.47,-0.01 12.09,22.84 7.72,23.99 31.4,55.6 15.06,20.11 35.85,39.39 56.73,53.16 13.76,9.08 27.12,15.84 43.02,22.23 84.64,34.05 181.37,11.5 244.6,-51.73 3.61,-3.61 7.63,-7.1 10.83,-10.92 14.21,-16.98 24.76,-32.13 34.69,-52.31 2.5,-5.07 4.4,-10.93 6.85,-16.04 19.87,0 34.16,3.37 45.48,-10.6 1.95,-2.41 6.03,-9.73 6.03,-13.44l0 -116.75c0,-3.54 -3.77,-10.45 -5.52,-12.8 -3.07,-4.12 -6.01,-6.15 -10.84,-8.62 -8.87,-4.53 -24.36,-2.63 -35.15,-2.63 -2.38,-10.19 -12.52,-28.01 -18.53,-37.55 -71.16,-112.9 -217.66,-146.94 -331.25,-64.98l-24.25 20.4c-7.92,8 -14.48,15.22 -21.54,24.24 -6.99,8.93 -11.97,16.98 -17.88,26.76 -7.19,11.9 -9.67,20.74 -14.65,31.13z"/>
    <path class="fil1" d="M303.48 336c0,2.37 19.61,48.86 24.04,56.09 9.63,15.71 18.74,-3.47 20.66,-6.81 2.05,-3.57 8.2,-13.37 9.1,-17.23l2.29 0c0.96,4.13 6.24,12.41 8.67,16.52 5.39,9.13 13.46,24.79 24.15,1.43 2.63,-5.77 4.41,-10.17 6.91,-15.98 2.1,-4.86 14.06,-29.84 14.06,-32.86 0,-7.5 -12.62,-15.31 -18.74,-2.72 -1.98,4.08 -2.81,5.86 -4.63,10.25 -2.1,5.08 -8.28,16.38 -8.67,21.09 -4.01,-1.07 -6.79,-8.08 -10.29,-14.89 -3.5,-6.79 -5.86,-12.58 -12.6,-12.58 -4.48,0 -6.28,1.85 -8.03,4.57 -1.52,2.37 -3.2,5.49 -4.56,8.02 -1.64,3.03 -3.07,4.98 -4.58,8.02 -1.98,4.01 -1.43,5.72 -5.72,6.86 -0.31,-3.68 -10.54,-25.65 -13.31,-31.33 -6.65,-13.68 -18.74,-2.96 -18.74,1.58z"/>
    <path class="fil1" d="M431.68 336c0,2.37 19.6,48.86 24.04,56.09 9.62,15.71 18.74,-3.47 20.66,-6.81 2.05,-3.57 8.2,-13.37 9.09,-17.23l2.29 0c0.96,4.13 6.25,12.41 8.67,16.52 5.4,9.13 13.47,24.79 24.15,1.43 2.63,-5.77 4.41,-10.17 6.91,-15.98 2.09,-4.86 14.06,-29.84 14.06,-32.86 0,-7.5 -12.63,-15.31 -18.74,-2.72 -2.77,5.68 -13.01,27.66 -13.31,31.33 -4.41,-1.18 -3.53,-2.71 -5.79,-6.8l-9.07 -16.1c-4.05,-6.29 -12.01,-6.29 -16.05,0 -1.52,2.37 -3.21,5.49 -4.57,8.02 -4.06,7.51 -6.31,13.81 -10.3,14.88 -0.31,-3.68 -10.54,-25.65 -13.3,-31.33 -6.65,-13.68 -18.74,-2.96 -18.74,1.58z"/>
    <path class="fil1" d="M175.28 336c0,2.37 19.6,48.86 24.04,56.09 9.62,15.71 18.74,-3.47 20.66,-6.81 2.05,-3.57 8.2,-13.37 9.09,-17.23l2.29 0c0.96,4.13 6.25,12.41 8.67,16.52 5.4,9.13 13.47,24.79 24.15,1.43l20.98 -48.85c0,-7.5 -12.63,-15.31 -18.74,-2.72 -1.98,4.08 -2.81,5.86 -4.63,10.25 -2.11,5.08 -8.28,16.38 -8.67,21.09 -4.41,-1.18 -3.54,-2.71 -5.79,-6.8l-9.08 -16.1c-4.04,-6.29 -12.01,-6.29 -16.05,0 -1.52,2.37 -3.2,5.49 -4.57,8.02 -4.05,7.51 -6.31,13.81 -10.3,14.88 -0.39,-4.71 -6.56,-16.01 -8.67,-21.09 -5.83,-14.04 -6.15,-16.68 -15.37,-16.68 -1.83,0 -4,1.66 -5.13,2.88 -0.63,0.69 -2.88,4.73 -2.88,5.13z"/>
   </g>
  </g>
 </g>
</svg>
